%TF.GenerationSoftware,KiCad,Pcbnew,9.0.7+1*%
%TF.CreationDate,2026-03-24T11:43:02+08:00*%
%TF.ProjectId,ContainerLevelSensor,436f6e74-6169-46e6-9572-4c6576656c53,v1.1*%
%TF.SameCoordinates,Original*%
%TF.FileFunction,Legend,Top*%
%TF.FilePolarity,Positive*%
%FSLAX46Y46*%
G04 Gerber Fmt 4.6, Leading zero omitted, Abs format (unit mm)*
G04 Created by KiCad (PCBNEW 9.0.7+1) date 2026-03-24 11:43:02*
%MOMM*%
%LPD*%
G01*
G04 APERTURE LIST*
%ADD10C,0.100000*%
%ADD11C,0.150000*%
%ADD12C,0.120000*%
G04 APERTURE END LIST*
D10*
G36*
X179894455Y-81170411D02*
G01*
X179900073Y-80959019D01*
X179918269Y-80796598D01*
X179950387Y-80643946D01*
X180137965Y-80669225D01*
X180124043Y-80824685D01*
X180115617Y-80977215D01*
X180112808Y-81170411D01*
X180121989Y-81293761D01*
X180147082Y-81390931D01*
X180185593Y-81467166D01*
X180241731Y-81530183D01*
X180321013Y-81582208D01*
X180429225Y-81622627D01*
X180544399Y-81646423D01*
X180696694Y-81662700D01*
X180894019Y-81668789D01*
X181091258Y-81662702D01*
X181243562Y-81646427D01*
X181358813Y-81622627D01*
X181466948Y-81582218D01*
X181546240Y-81530195D01*
X181602445Y-81467166D01*
X181640956Y-81390931D01*
X181666049Y-81293761D01*
X181675230Y-81170411D01*
X181668269Y-80869504D01*
X181644455Y-80630024D01*
X181829225Y-80604745D01*
X181858180Y-80726528D01*
X181878196Y-80852651D01*
X181889343Y-80987897D01*
X181893583Y-81170411D01*
X181881384Y-81353467D01*
X181848009Y-81499032D01*
X181796985Y-81614200D01*
X181742751Y-81689815D01*
X181673586Y-81754887D01*
X181587603Y-81810038D01*
X181482034Y-81855024D01*
X181334209Y-81893444D01*
X181141415Y-81919468D01*
X180894019Y-81929152D01*
X180646536Y-81919465D01*
X180453752Y-81893439D01*
X180306004Y-81855024D01*
X180200435Y-81810038D01*
X180114453Y-81754887D01*
X180045287Y-81689815D01*
X179991053Y-81614200D01*
X179940029Y-81499032D01*
X179906654Y-81353467D01*
X179894455Y-81170411D01*
G37*
G36*
X181353382Y-79077137D02*
G01*
X181490861Y-79098668D01*
X181598293Y-79130861D01*
X181695425Y-79181798D01*
X181770453Y-79248984D01*
X181826416Y-79333827D01*
X181863142Y-79430687D01*
X181887452Y-79554191D01*
X181896392Y-79710327D01*
X181887492Y-79864516D01*
X181863218Y-79987223D01*
X181826416Y-80084141D01*
X181770495Y-80169096D01*
X181695460Y-80236786D01*
X181598293Y-80288572D01*
X181490784Y-80321485D01*
X181353309Y-80343474D01*
X181179539Y-80351587D01*
X181005851Y-80343474D01*
X180868458Y-80321484D01*
X180761029Y-80288572D01*
X180663783Y-80236779D01*
X180588711Y-80169088D01*
X180532784Y-80084141D01*
X180495982Y-79987223D01*
X180471708Y-79864516D01*
X180462808Y-79710327D01*
X180664431Y-79710327D01*
X180677303Y-79849555D01*
X180710593Y-79944190D01*
X180747426Y-79994362D01*
X180799119Y-80034864D01*
X180868862Y-80065945D01*
X180991896Y-80091939D01*
X181179539Y-80102337D01*
X181367305Y-80091940D01*
X181490460Y-80065945D01*
X181560122Y-80034870D01*
X181611779Y-79994370D01*
X181648607Y-79944190D01*
X181681897Y-79849555D01*
X181694769Y-79710327D01*
X181681941Y-79571028D01*
X181648607Y-79475244D01*
X181611672Y-79424156D01*
X181559992Y-79383195D01*
X181490460Y-79352023D01*
X181367305Y-79326029D01*
X181179539Y-79315631D01*
X180991896Y-79326030D01*
X180868862Y-79352023D01*
X180799250Y-79383202D01*
X180747533Y-79424164D01*
X180710593Y-79475244D01*
X180677259Y-79571028D01*
X180664431Y-79710327D01*
X180462808Y-79710327D01*
X180471748Y-79554191D01*
X180496058Y-79430687D01*
X180532784Y-79333827D01*
X180588753Y-79248992D01*
X180663818Y-79181805D01*
X180761029Y-79130861D01*
X180868382Y-79098669D01*
X181005778Y-79077138D01*
X181179539Y-79069190D01*
X181353382Y-79077137D01*
G37*
G36*
X180462808Y-77869836D02*
G01*
X180474588Y-77750437D01*
X180506545Y-77660496D01*
X180556144Y-77593038D01*
X180624467Y-77543807D01*
X180716008Y-77511948D01*
X180837965Y-77500174D01*
X181860000Y-77500174D01*
X181860000Y-77738189D01*
X180905254Y-77738189D01*
X180813984Y-77744546D01*
X180753950Y-77760567D01*
X180716210Y-77783007D01*
X180689125Y-77816635D01*
X180671219Y-77865238D01*
X180664431Y-77934193D01*
X180679443Y-78058554D01*
X180726102Y-78186252D01*
X180794977Y-78317219D01*
X180894019Y-78485816D01*
X180723171Y-78497051D01*
X180611630Y-78334833D01*
X180531441Y-78180635D01*
X180492739Y-78074450D01*
X180470196Y-77971183D01*
X180462808Y-77869836D01*
G37*
G36*
X180496392Y-78497051D02*
G01*
X180756755Y-78477390D01*
X180798764Y-78460659D01*
X181860000Y-78460659D01*
X181860000Y-78698674D01*
X180496392Y-78698674D01*
X180496392Y-78497051D01*
G37*
G36*
X180093147Y-76731297D02*
G01*
X181484842Y-76731297D01*
X181573457Y-76719365D01*
X181624794Y-76689410D01*
X181654748Y-76637710D01*
X181666803Y-76546528D01*
X181666803Y-76339288D01*
X181848764Y-76311322D01*
X181868426Y-76415003D01*
X181881004Y-76529797D01*
X181885157Y-76619312D01*
X181873429Y-76729272D01*
X181841143Y-76814157D01*
X181790024Y-76879797D01*
X181721248Y-76927531D01*
X181631799Y-76958125D01*
X181515617Y-76969312D01*
X180093147Y-76969312D01*
X180093147Y-76731297D01*
G37*
G36*
X180496392Y-76297400D02*
G01*
X180683970Y-76297400D01*
X180683970Y-77215753D01*
X180510436Y-77215753D01*
X180496392Y-76946964D01*
X180496392Y-76297400D01*
G37*
G36*
X180462808Y-75362072D02*
G01*
X180473768Y-75217537D01*
X180503475Y-75105861D01*
X180536966Y-75041041D01*
X180581897Y-74988853D01*
X180639274Y-74947714D01*
X180704971Y-74919826D01*
X180790173Y-74901313D01*
X180899637Y-74894469D01*
X181860000Y-74894469D01*
X181860000Y-75082048D01*
X181563244Y-75118440D01*
X181532348Y-75135293D01*
X180899637Y-75135293D01*
X180817523Y-75142862D01*
X180759396Y-75162792D01*
X180719019Y-75192690D01*
X180691789Y-75235175D01*
X180672246Y-75304630D01*
X180664431Y-75412508D01*
X180675666Y-75679954D01*
X180700823Y-75997714D01*
X180524357Y-76020062D01*
X180493583Y-75811601D01*
X180471235Y-75580547D01*
X180462808Y-75362072D01*
G37*
G36*
X181020048Y-75006454D02*
G01*
X181199200Y-75009263D01*
X181202009Y-75661636D01*
X181210115Y-75725010D01*
X181227932Y-75769053D01*
X181253789Y-75798900D01*
X181309361Y-75827452D01*
X181389588Y-75838101D01*
X181476416Y-75838101D01*
X181545565Y-75831583D01*
X181595815Y-75814209D01*
X181631877Y-75787787D01*
X181657370Y-75750924D01*
X181674395Y-75698503D01*
X181680847Y-75625244D01*
X181674017Y-75544855D01*
X181651416Y-75447557D01*
X181614691Y-75349438D01*
X181560436Y-75247400D01*
X181491074Y-75151538D01*
X181403632Y-75062508D01*
X181579975Y-75062508D01*
X181671078Y-75150680D01*
X181720884Y-75211967D01*
X181771828Y-75287944D01*
X181816195Y-75370990D01*
X181853039Y-75464288D01*
X181876938Y-75563516D01*
X181885157Y-75672871D01*
X181873867Y-75788480D01*
X181841803Y-75885729D01*
X181787782Y-75968133D01*
X181713087Y-76029954D01*
X181620929Y-76068093D01*
X181504382Y-76081734D01*
X181356004Y-76081734D01*
X181254028Y-76069813D01*
X181173057Y-76036429D01*
X181108220Y-75982327D01*
X181061098Y-75911108D01*
X181030996Y-75820070D01*
X181020048Y-75703646D01*
X181020048Y-75006454D01*
G37*
G36*
X180496392Y-74223900D02*
G01*
X181860000Y-74223900D01*
X181860000Y-74459106D01*
X180496392Y-74459106D01*
X180496392Y-74223900D01*
G37*
G36*
X179916803Y-74285450D02*
G01*
X179925342Y-74244130D01*
X179948268Y-74221203D01*
X179989588Y-74212665D01*
X180149200Y-74212665D01*
X180190520Y-74221203D01*
X180213447Y-74244130D01*
X180221985Y-74285450D01*
X180221985Y-74397435D01*
X180213441Y-74438835D01*
X180190508Y-74461795D01*
X180149200Y-74470341D01*
X179989588Y-74470341D01*
X179948280Y-74461795D01*
X179925348Y-74438835D01*
X179916803Y-74397435D01*
X179916803Y-74285450D01*
G37*
G36*
X180462808Y-72947854D02*
G01*
X180474588Y-72828455D01*
X180506545Y-72738514D01*
X180556144Y-72671056D01*
X180624467Y-72621825D01*
X180716008Y-72589966D01*
X180837965Y-72578192D01*
X181860000Y-72578192D01*
X181860000Y-72816207D01*
X180905254Y-72816207D01*
X180813984Y-72822564D01*
X180753950Y-72838585D01*
X180716210Y-72861025D01*
X180689125Y-72894653D01*
X180671219Y-72943256D01*
X180664431Y-73012212D01*
X180679443Y-73136573D01*
X180726102Y-73264270D01*
X180794977Y-73395238D01*
X180894019Y-73563834D01*
X180723171Y-73575069D01*
X180611630Y-73412851D01*
X180531441Y-73258653D01*
X180492739Y-73152468D01*
X180470196Y-73049202D01*
X180462808Y-72947854D01*
G37*
G36*
X180496392Y-73575069D02*
G01*
X180756755Y-73555408D01*
X180798764Y-73538677D01*
X181860000Y-73538677D01*
X181860000Y-73776692D01*
X180496392Y-73776692D01*
X180496392Y-73575069D01*
G37*
G36*
X180462808Y-71590963D02*
G01*
X180471542Y-71432151D01*
X180495059Y-71309180D01*
X180530134Y-71215181D01*
X180574794Y-71144364D01*
X180635530Y-71085288D01*
X180709301Y-71042432D01*
X180798814Y-71015410D01*
X180907941Y-71005757D01*
X181027113Y-71013990D01*
X181119992Y-71040045D01*
X181192240Y-71081350D01*
X181247083Y-71140827D01*
X181281728Y-71221538D01*
X181294455Y-71330600D01*
X181294455Y-72125732D01*
X181109563Y-72125732D01*
X181109563Y-71392149D01*
X181101581Y-71334536D01*
X181080420Y-71296278D01*
X181046671Y-71271859D01*
X180981272Y-71250954D01*
X180907941Y-71243771D01*
X180823853Y-71255002D01*
X180763376Y-71281670D01*
X180720484Y-71322173D01*
X180692258Y-71376118D01*
X180672269Y-71458514D01*
X180664431Y-71579727D01*
X180676590Y-71719074D01*
X180707906Y-71813590D01*
X180742965Y-71863835D01*
X180792358Y-71903827D01*
X180859092Y-71934002D01*
X180977678Y-71958923D01*
X181160000Y-71968928D01*
X181306542Y-71963070D01*
X181414977Y-71947680D01*
X181493147Y-71925575D01*
X181563655Y-71889509D01*
X181614846Y-71843532D01*
X181649951Y-71786967D01*
X181680291Y-71683099D01*
X181691960Y-71534909D01*
X181682191Y-71295551D01*
X181658377Y-71061810D01*
X181817990Y-71036531D01*
X181840180Y-71105009D01*
X181860000Y-71194801D01*
X181885157Y-71387997D01*
X181893583Y-71565806D01*
X181884510Y-71721831D01*
X181859769Y-71845883D01*
X181822264Y-71943771D01*
X181765487Y-72029830D01*
X181689903Y-72098908D01*
X181592676Y-72152355D01*
X181485003Y-72186776D01*
X181347571Y-72209722D01*
X181174043Y-72218178D01*
X180994612Y-72209584D01*
X180855770Y-72186515D01*
X180749916Y-72152355D01*
X180654469Y-72099112D01*
X180581752Y-72031377D01*
X180528632Y-71947923D01*
X180493828Y-71853173D01*
X180471079Y-71735743D01*
X180462808Y-71590963D01*
G37*
G36*
X180496392Y-70463538D02*
G01*
X180756755Y-70432763D01*
X180798764Y-70410415D01*
X181860000Y-70410415D01*
X181860000Y-70648429D01*
X180496392Y-70648429D01*
X180496392Y-70463538D01*
G37*
G36*
X180462808Y-69794434D02*
G01*
X180686779Y-69822400D01*
X180686779Y-69900802D01*
X180698823Y-70020084D01*
X180735872Y-70141625D01*
X180874357Y-70435572D01*
X180725980Y-70455233D01*
X180614235Y-70300725D01*
X180532784Y-70151395D01*
X180493022Y-70047867D01*
X180470196Y-69949797D01*
X180462808Y-69855983D01*
X180462808Y-69794434D01*
G37*
G36*
X179928039Y-69263572D02*
G01*
X181467990Y-69263572D01*
X181554266Y-69250792D01*
X181608063Y-69217411D01*
X181640386Y-69162641D01*
X181652759Y-69075994D01*
X181652759Y-68378803D01*
X181843147Y-68367568D01*
X181860000Y-68738695D01*
X181862808Y-69115195D01*
X181854967Y-69223010D01*
X181833743Y-69306145D01*
X181801554Y-69369723D01*
X181759249Y-69417690D01*
X181685702Y-69466690D01*
X181599964Y-69496699D01*
X181498764Y-69507205D01*
X179928039Y-69507205D01*
X179928039Y-69263572D01*
G37*
G36*
X180462808Y-67534577D02*
G01*
X180471542Y-67375765D01*
X180495059Y-67252795D01*
X180530134Y-67158796D01*
X180574794Y-67087979D01*
X180635530Y-67028903D01*
X180709301Y-66986047D01*
X180798814Y-66959025D01*
X180907941Y-66949371D01*
X181027113Y-66957605D01*
X181119992Y-66983660D01*
X181192240Y-67024965D01*
X181247083Y-67084441D01*
X181281728Y-67165152D01*
X181294455Y-67274214D01*
X181294455Y-68069347D01*
X181109563Y-68069347D01*
X181109563Y-67335764D01*
X181101581Y-67278150D01*
X181080420Y-67239893D01*
X181046671Y-67215474D01*
X180981272Y-67194569D01*
X180907941Y-67187386D01*
X180823853Y-67198616D01*
X180763376Y-67225285D01*
X180720484Y-67265788D01*
X180692258Y-67319733D01*
X180672269Y-67402129D01*
X180664431Y-67523342D01*
X180676590Y-67662689D01*
X180707906Y-67757205D01*
X180742965Y-67807450D01*
X180792358Y-67847442D01*
X180859092Y-67877616D01*
X180977678Y-67902537D01*
X181160000Y-67912543D01*
X181306542Y-67906685D01*
X181414977Y-67891294D01*
X181493147Y-67869190D01*
X181563655Y-67833124D01*
X181614846Y-67787147D01*
X181649951Y-67730582D01*
X181680291Y-67626714D01*
X181691960Y-67478524D01*
X181682191Y-67239166D01*
X181658377Y-67005425D01*
X181817990Y-66980146D01*
X181840180Y-67048623D01*
X181860000Y-67138415D01*
X181885157Y-67331612D01*
X181893583Y-67509420D01*
X181884510Y-67665446D01*
X181859769Y-67789497D01*
X181822264Y-67887386D01*
X181765487Y-67973445D01*
X181689903Y-68042522D01*
X181592676Y-68095969D01*
X181485003Y-68130391D01*
X181347571Y-68153336D01*
X181174043Y-68161793D01*
X180994612Y-68153199D01*
X180855770Y-68130129D01*
X180749916Y-68095969D01*
X180654469Y-68042727D01*
X180581752Y-67974991D01*
X180528632Y-67891538D01*
X180493828Y-67796787D01*
X180471079Y-67679358D01*
X180462808Y-67534577D01*
G37*
G36*
X180496392Y-65387438D02*
G01*
X181801259Y-65885816D01*
X181844612Y-65918056D01*
X181855988Y-65940956D01*
X181860000Y-65969836D01*
X181860000Y-66185380D01*
X181856119Y-66212142D01*
X181844612Y-66235816D01*
X181826364Y-66255165D01*
X181801259Y-66269399D01*
X180496392Y-66767777D01*
X180496392Y-66513032D01*
X181451259Y-66176953D01*
X181571671Y-66135066D01*
X181689152Y-66095865D01*
X181689152Y-66059473D01*
X181570205Y-66015997D01*
X181451259Y-65975453D01*
X180496392Y-65639375D01*
X180496392Y-65387438D01*
G37*
G36*
X180462808Y-64574354D02*
G01*
X180471542Y-64415542D01*
X180495059Y-64292572D01*
X180530134Y-64198573D01*
X180574794Y-64127756D01*
X180635530Y-64068680D01*
X180709301Y-64025824D01*
X180798814Y-63998801D01*
X180907941Y-63989148D01*
X181027113Y-63997382D01*
X181119992Y-64023436D01*
X181192240Y-64064741D01*
X181247083Y-64124218D01*
X181281728Y-64204929D01*
X181294455Y-64313991D01*
X181294455Y-65109124D01*
X181109563Y-65109124D01*
X181109563Y-64375540D01*
X181101581Y-64317927D01*
X181080420Y-64279669D01*
X181046671Y-64255251D01*
X180981272Y-64234346D01*
X180907941Y-64227163D01*
X180823853Y-64238393D01*
X180763376Y-64265061D01*
X180720484Y-64305565D01*
X180692258Y-64359510D01*
X180672269Y-64441906D01*
X180664431Y-64563119D01*
X180676590Y-64702466D01*
X180707906Y-64796981D01*
X180742965Y-64847227D01*
X180792358Y-64887218D01*
X180859092Y-64917393D01*
X180977678Y-64942314D01*
X181160000Y-64952320D01*
X181306542Y-64946461D01*
X181414977Y-64931071D01*
X181493147Y-64908967D01*
X181563655Y-64872901D01*
X181614846Y-64826924D01*
X181649951Y-64770359D01*
X181680291Y-64666490D01*
X181691960Y-64518300D01*
X181682191Y-64278942D01*
X181658377Y-64045202D01*
X181817990Y-64019923D01*
X181840180Y-64088400D01*
X181860000Y-64178192D01*
X181885157Y-64371388D01*
X181893583Y-64549197D01*
X181884510Y-64705222D01*
X181859769Y-64829274D01*
X181822264Y-64927163D01*
X181765487Y-65013221D01*
X181689903Y-65082299D01*
X181592676Y-65135746D01*
X181485003Y-65170168D01*
X181347571Y-65193113D01*
X181174043Y-65201570D01*
X180994612Y-65192976D01*
X180855770Y-65169906D01*
X180749916Y-65135746D01*
X180654469Y-65082503D01*
X180581752Y-65014768D01*
X180528632Y-64931315D01*
X180493828Y-64836564D01*
X180471079Y-64719135D01*
X180462808Y-64574354D01*
G37*
G36*
X179899951Y-63393806D02*
G01*
X181484842Y-63393806D01*
X181566082Y-63380628D01*
X181620642Y-63344836D01*
X181654389Y-63288199D01*
X181666803Y-63206228D01*
X181666803Y-63074581D01*
X181848764Y-63046615D01*
X181868426Y-63118056D01*
X181881004Y-63213189D01*
X181885157Y-63295743D01*
X181874507Y-63392890D01*
X181844435Y-63472351D01*
X181795642Y-63538032D01*
X181730392Y-63586863D01*
X181646362Y-63617782D01*
X181537965Y-63629012D01*
X179899951Y-63629012D01*
X179899951Y-63393806D01*
G37*
G36*
X179894455Y-62238538D02*
G01*
X179908377Y-61955826D01*
X179924452Y-61810480D01*
X179950387Y-61664567D01*
X180129539Y-61681297D01*
X180119891Y-61947400D01*
X180115617Y-62227302D01*
X180122578Y-62405233D01*
X180135140Y-62475183D01*
X180156161Y-62526988D01*
X180190303Y-62567172D01*
X180242990Y-62595498D01*
X180309144Y-62610516D01*
X180409563Y-62616503D01*
X180515117Y-62608531D01*
X180586132Y-62588184D01*
X180632191Y-62559106D01*
X180668028Y-62516866D01*
X180699618Y-62456488D01*
X180725980Y-62372993D01*
X180824043Y-61980983D01*
X180858797Y-61869684D01*
X180901964Y-61784495D01*
X180952426Y-61720584D01*
X181010157Y-61674337D01*
X181102523Y-61630679D01*
X181219569Y-61602193D01*
X181367240Y-61591782D01*
X181526602Y-61602329D01*
X181638838Y-61629640D01*
X181731576Y-61678593D01*
X181796985Y-61745778D01*
X181841863Y-61831918D01*
X181872578Y-61947400D01*
X181887913Y-62076053D01*
X181893583Y-62238538D01*
X181885157Y-62486444D01*
X181870636Y-62644155D01*
X181840460Y-62837787D01*
X181658377Y-62820935D01*
X181668269Y-62554954D01*
X181672421Y-62381420D01*
X181672421Y-62230111D01*
X181666049Y-62089623D01*
X181650073Y-61996371D01*
X181629295Y-61943542D01*
X181599547Y-61904225D01*
X181560436Y-61875959D01*
X181484285Y-61851003D01*
X181361622Y-61840910D01*
X181256305Y-61848134D01*
X181188087Y-61866189D01*
X181133508Y-61898957D01*
X181094298Y-61945935D01*
X181066260Y-62005082D01*
X181042397Y-62084542D01*
X180941646Y-62484979D01*
X180894154Y-62617981D01*
X180832258Y-62713851D01*
X180756877Y-62780390D01*
X180665184Y-62825648D01*
X180549485Y-62855039D01*
X180403946Y-62865753D01*
X180244759Y-62855206D01*
X180133813Y-62828018D01*
X180042637Y-62779212D01*
X179979818Y-62713224D01*
X179937887Y-62629080D01*
X179911308Y-62518562D01*
X179899019Y-62395438D01*
X179894455Y-62238538D01*
G37*
G36*
X180462808Y-60672330D02*
G01*
X180471542Y-60513518D01*
X180495059Y-60390548D01*
X180530134Y-60296549D01*
X180574794Y-60225732D01*
X180635530Y-60166656D01*
X180709301Y-60123800D01*
X180798814Y-60096778D01*
X180907941Y-60087124D01*
X181027113Y-60095358D01*
X181119992Y-60121413D01*
X181192240Y-60162718D01*
X181247083Y-60222194D01*
X181281728Y-60302905D01*
X181294455Y-60411967D01*
X181294455Y-61207100D01*
X181109563Y-61207100D01*
X181109563Y-60473517D01*
X181101581Y-60415903D01*
X181080420Y-60377646D01*
X181046671Y-60353227D01*
X180981272Y-60332322D01*
X180907941Y-60325139D01*
X180823853Y-60336369D01*
X180763376Y-60363038D01*
X180720484Y-60403541D01*
X180692258Y-60457486D01*
X180672269Y-60539882D01*
X180664431Y-60661095D01*
X180676590Y-60800442D01*
X180707906Y-60894958D01*
X180742965Y-60945203D01*
X180792358Y-60985195D01*
X180859092Y-61015369D01*
X180977678Y-61040290D01*
X181160000Y-61050296D01*
X181306542Y-61044437D01*
X181414977Y-61029047D01*
X181493147Y-61006943D01*
X181563655Y-60970877D01*
X181614846Y-60924900D01*
X181649951Y-60868335D01*
X181680291Y-60764467D01*
X181691960Y-60616277D01*
X181682191Y-60376919D01*
X181658377Y-60143178D01*
X181817990Y-60117899D01*
X181840180Y-60186376D01*
X181860000Y-60276168D01*
X181885157Y-60469364D01*
X181893583Y-60647173D01*
X181884510Y-60803199D01*
X181859769Y-60927250D01*
X181822264Y-61025139D01*
X181765487Y-61111198D01*
X181689903Y-61180275D01*
X181592676Y-61233722D01*
X181485003Y-61268144D01*
X181347571Y-61291089D01*
X181174043Y-61299546D01*
X180994612Y-61290952D01*
X180855770Y-61267882D01*
X180749916Y-61233722D01*
X180654469Y-61180480D01*
X180581752Y-61112744D01*
X180528632Y-61029291D01*
X180493828Y-60934540D01*
X180471079Y-60817111D01*
X180462808Y-60672330D01*
G37*
G36*
X180462808Y-58900959D02*
G01*
X180474588Y-58781561D01*
X180506545Y-58691619D01*
X180556144Y-58624161D01*
X180624467Y-58574930D01*
X180716008Y-58543071D01*
X180837965Y-58531297D01*
X181860000Y-58531297D01*
X181860000Y-58769312D01*
X180905254Y-58769312D01*
X180813984Y-58775670D01*
X180753950Y-58791691D01*
X180716210Y-58814131D01*
X180689125Y-58847758D01*
X180671219Y-58896362D01*
X180664431Y-58965317D01*
X180679443Y-59089678D01*
X180726102Y-59217376D01*
X180794977Y-59348343D01*
X180894019Y-59516939D01*
X180723171Y-59528175D01*
X180611630Y-59365956D01*
X180531441Y-59211758D01*
X180492739Y-59105573D01*
X180470196Y-59002307D01*
X180462808Y-58900959D01*
G37*
G36*
X180496392Y-59528175D02*
G01*
X180756755Y-59508513D01*
X180798764Y-59491782D01*
X181860000Y-59491782D01*
X181860000Y-59729797D01*
X180496392Y-59729797D01*
X180496392Y-59528175D01*
G37*
G36*
X180462808Y-57650436D02*
G01*
X180468426Y-57460170D01*
X180482470Y-57259891D01*
X180504818Y-57076465D01*
X180678353Y-57096127D01*
X180668705Y-57355146D01*
X180664431Y-57614043D01*
X180670048Y-57812857D01*
X180686638Y-57878317D01*
X180714867Y-57917882D01*
X180759121Y-57940757D01*
X180837965Y-57950122D01*
X180906969Y-57943174D01*
X180951117Y-57925541D01*
X180978039Y-57899685D01*
X181006924Y-57842298D01*
X181033970Y-57751308D01*
X181123607Y-57353681D01*
X181157039Y-57248392D01*
X181197562Y-57170457D01*
X181244019Y-57114323D01*
X181303093Y-57074024D01*
X181385469Y-57047313D01*
X181498764Y-57037264D01*
X181609518Y-57045539D01*
X181691307Y-57067523D01*
X181750823Y-57100279D01*
X181799109Y-57147671D01*
X181836559Y-57210438D01*
X181862808Y-57292131D01*
X181883007Y-57429577D01*
X181890774Y-57619661D01*
X181885157Y-57836671D01*
X181874385Y-57984090D01*
X181851573Y-58154431D01*
X181678039Y-58137700D01*
X181685000Y-57994818D01*
X181689152Y-57836671D01*
X181689152Y-57667288D01*
X181685165Y-57521710D01*
X181675230Y-57426465D01*
X181652793Y-57348368D01*
X181620642Y-57303244D01*
X181573018Y-57276933D01*
X181498764Y-57266852D01*
X181434705Y-57274543D01*
X181391982Y-57294673D01*
X181364431Y-57325715D01*
X181335107Y-57390190D01*
X181308377Y-57482519D01*
X181218740Y-57874528D01*
X181184518Y-57979388D01*
X181144612Y-58053681D01*
X181091329Y-58111861D01*
X181024200Y-58151744D01*
X180944537Y-58174143D01*
X180837965Y-58182519D01*
X180732452Y-58175135D01*
X180654281Y-58155535D01*
X180597264Y-58126465D01*
X180550298Y-58083776D01*
X180513869Y-58026987D01*
X180488087Y-57952930D01*
X180468457Y-57826931D01*
X180462808Y-57650436D01*
G37*
G36*
X181353382Y-55473508D02*
G01*
X181490861Y-55495039D01*
X181598293Y-55527233D01*
X181695425Y-55578170D01*
X181770453Y-55645355D01*
X181826416Y-55730198D01*
X181863142Y-55827058D01*
X181887452Y-55950562D01*
X181896392Y-56106699D01*
X181887492Y-56260888D01*
X181863218Y-56383594D01*
X181826416Y-56480512D01*
X181770495Y-56565467D01*
X181695460Y-56633157D01*
X181598293Y-56684944D01*
X181490784Y-56717856D01*
X181353309Y-56739845D01*
X181179539Y-56747958D01*
X181005851Y-56739845D01*
X180868458Y-56717855D01*
X180761029Y-56684944D01*
X180663783Y-56633150D01*
X180588711Y-56565459D01*
X180532784Y-56480512D01*
X180495982Y-56383594D01*
X180471708Y-56260888D01*
X180462808Y-56106699D01*
X180664431Y-56106699D01*
X180677303Y-56245926D01*
X180710593Y-56340561D01*
X180747426Y-56390734D01*
X180799119Y-56431235D01*
X180868862Y-56462316D01*
X180991896Y-56488310D01*
X181179539Y-56498709D01*
X181367305Y-56488311D01*
X181490460Y-56462316D01*
X181560122Y-56431241D01*
X181611779Y-56390741D01*
X181648607Y-56340561D01*
X181681897Y-56245926D01*
X181694769Y-56106699D01*
X181681941Y-55967399D01*
X181648607Y-55871615D01*
X181611672Y-55820527D01*
X181559992Y-55779566D01*
X181490460Y-55748394D01*
X181367305Y-55722400D01*
X181179539Y-55712002D01*
X180991896Y-55722401D01*
X180868862Y-55748394D01*
X180799250Y-55779573D01*
X180747533Y-55820535D01*
X180710593Y-55871615D01*
X180677259Y-55967399D01*
X180664431Y-56106699D01*
X180462808Y-56106699D01*
X180471748Y-55950562D01*
X180496058Y-55827058D01*
X180532784Y-55730198D01*
X180588753Y-55645364D01*
X180663818Y-55578177D01*
X180761029Y-55527233D01*
X180868382Y-55495040D01*
X181005778Y-55473509D01*
X181179539Y-55465561D01*
X181353382Y-55473508D01*
G37*
G36*
X180496392Y-54910153D02*
G01*
X180756755Y-54879378D01*
X180798764Y-54857030D01*
X181860000Y-54857030D01*
X181860000Y-55095045D01*
X180496392Y-55095045D01*
X180496392Y-54910153D01*
G37*
G36*
X180462808Y-54241050D02*
G01*
X180686779Y-54269016D01*
X180686779Y-54347418D01*
X180698823Y-54466700D01*
X180735872Y-54588241D01*
X180874357Y-54882187D01*
X180725980Y-54901849D01*
X180614235Y-54747340D01*
X180532784Y-54598011D01*
X180493022Y-54494483D01*
X180470196Y-54396413D01*
X180462808Y-54302599D01*
X180462808Y-54241050D01*
G37*
G36*
X181318556Y-53327690D02*
G01*
X181840503Y-53527041D01*
X181857845Y-53539937D01*
X181862395Y-53549097D01*
X181864000Y-53560648D01*
X181864000Y-53646866D01*
X181862447Y-53657571D01*
X181857845Y-53667041D01*
X181850545Y-53674780D01*
X181840503Y-53680474D01*
X181318556Y-53879825D01*
X181318556Y-53777927D01*
X181700503Y-53643496D01*
X181748668Y-53626741D01*
X181795660Y-53611060D01*
X181795660Y-53596503D01*
X181748082Y-53579113D01*
X181700503Y-53562896D01*
X181318556Y-53428464D01*
X181318556Y-53327690D01*
G37*
G36*
X181091215Y-52986482D02*
G01*
X181864000Y-52986482D01*
X181864000Y-53085010D01*
X181251341Y-53085010D01*
X181217782Y-53083886D01*
X181184174Y-53079441D01*
X181243525Y-53268681D01*
X181170741Y-53282163D01*
X181091215Y-53085010D01*
X181091215Y-52986482D01*
G37*
G36*
X181731815Y-52717913D02*
G01*
X181734112Y-52699756D01*
X181739680Y-52689972D01*
X181749470Y-52684405D01*
X181767670Y-52682107D01*
X181828145Y-52682107D01*
X181846352Y-52684403D01*
X181856184Y-52689972D01*
X181861715Y-52699751D01*
X181864000Y-52717913D01*
X181864000Y-52749274D01*
X181861771Y-52766584D01*
X181856184Y-52776727D01*
X181846291Y-52782696D01*
X181828145Y-52785129D01*
X181767670Y-52785129D01*
X181749532Y-52782694D01*
X181739680Y-52776727D01*
X181734056Y-52766578D01*
X181731815Y-52749274D01*
X181731815Y-52717913D01*
G37*
G36*
X181091215Y-52333084D02*
G01*
X181864000Y-52333084D01*
X181864000Y-52431612D01*
X181251341Y-52431612D01*
X181217782Y-52430488D01*
X181184174Y-52426043D01*
X181243525Y-52615282D01*
X181170741Y-52628764D01*
X181091215Y-52431612D01*
X181091215Y-52333084D01*
G37*
G36*
X182531404Y-62023970D02*
G01*
X182537126Y-61961985D01*
X182553088Y-61911773D01*
X182578378Y-61870919D01*
X182613347Y-61837796D01*
X182654675Y-61814229D01*
X182711244Y-61795317D01*
X182787114Y-61782429D01*
X182887021Y-61777590D01*
X182972492Y-61781514D01*
X183042421Y-61792306D01*
X183105505Y-61812500D01*
X183155139Y-61841338D01*
X183182652Y-61866468D01*
X183205460Y-61897012D01*
X183223710Y-61933722D01*
X183240487Y-61996035D01*
X183246791Y-62080024D01*
X183243982Y-62155617D01*
X183234884Y-62238232D01*
X183219497Y-62320115D01*
X183197821Y-62393571D01*
X183116610Y-62298377D01*
X183134806Y-62223517D01*
X183143904Y-62150732D01*
X183145980Y-62082772D01*
X183138406Y-62021096D01*
X183120823Y-61977137D01*
X183102164Y-61953753D01*
X183075912Y-61934365D01*
X183040345Y-61919007D01*
X182978515Y-61905960D01*
X182887021Y-61900811D01*
X182797998Y-61904777D01*
X182737911Y-61914794D01*
X182702913Y-61927313D01*
X182677174Y-61943945D01*
X182658838Y-61964497D01*
X182646377Y-61989490D01*
X182638100Y-62022588D01*
X182635024Y-62065980D01*
X182642461Y-62120269D01*
X182665127Y-62172409D01*
X182698797Y-62224010D01*
X182747009Y-62288607D01*
X182667203Y-62296973D01*
X182625401Y-62253728D01*
X182592281Y-62210938D01*
X182565674Y-62165566D01*
X182546791Y-62119225D01*
X182535205Y-62071312D01*
X182531404Y-62023970D01*
G37*
G36*
X182249975Y-62274624D02*
G01*
X182504781Y-62274624D01*
X182584588Y-62276700D01*
X182658777Y-62287203D01*
X182678377Y-62276029D01*
X183203377Y-62274624D01*
X183197821Y-62393571D01*
X182249975Y-62393571D01*
X182249975Y-62274624D01*
G37*
G36*
X182548196Y-60995647D02*
G01*
X183267796Y-61268649D01*
X183311999Y-61287429D01*
X183355968Y-61310659D01*
X183397427Y-61338432D01*
X183435102Y-61371536D01*
X183467296Y-61410137D01*
X183493171Y-61455556D01*
X183510412Y-61506348D01*
X183518389Y-61566809D01*
X183439987Y-61578044D01*
X183419014Y-61524548D01*
X183395108Y-61482735D01*
X183368607Y-61450671D01*
X183319524Y-61410818D01*
X183259370Y-61379230D01*
X183178220Y-61345647D01*
X183116610Y-61323237D01*
X183056404Y-61302233D01*
X182548196Y-61124424D01*
X182548196Y-60995647D01*
G37*
G36*
X182548196Y-61557039D02*
G01*
X183056404Y-61376421D01*
X183097742Y-61362438D01*
X183139019Y-61351203D01*
X183139019Y-61319024D01*
X183230000Y-61358225D01*
X183230000Y-61394617D01*
X183227929Y-61408017D01*
X183221634Y-61420507D01*
X183211820Y-61430489D01*
X183199225Y-61436627D01*
X182548196Y-61684412D01*
X182548196Y-61557039D01*
G37*
G36*
X182252784Y-60253271D02*
G01*
X182258937Y-60140566D01*
X182274521Y-60064349D01*
X182293311Y-60020756D01*
X182318654Y-59987481D01*
X182350786Y-59962805D01*
X182388597Y-59946407D01*
X182438849Y-59935404D01*
X182504781Y-59931297D01*
X182573085Y-59936299D01*
X182624590Y-59949701D01*
X182662990Y-59969827D01*
X182693197Y-59999396D01*
X182714380Y-60040067D01*
X182726004Y-60095123D01*
X182731622Y-60095123D01*
X182740958Y-60041737D01*
X182757073Y-60000341D01*
X182779139Y-59968526D01*
X182807215Y-59944609D01*
X182853088Y-59922124D01*
X182912577Y-59907323D01*
X182989176Y-59901866D01*
X183055157Y-59905890D01*
X183105432Y-59916667D01*
X183143232Y-59932702D01*
X183175478Y-59956861D01*
X183200793Y-59989229D01*
X183219497Y-60031376D01*
X183235104Y-60104793D01*
X183241174Y-60209918D01*
X183240441Y-60352006D01*
X183236960Y-60461915D01*
X183230000Y-60566878D01*
X183131997Y-60547278D01*
X183134806Y-60430408D01*
X183136210Y-60229518D01*
X183132416Y-60156686D01*
X183122899Y-60108435D01*
X183111090Y-60081188D01*
X183094618Y-60060548D01*
X183073196Y-60045420D01*
X183032300Y-60031893D01*
X182968171Y-60026491D01*
X182897382Y-60032090D01*
X182852034Y-60046092D01*
X182827812Y-60061940D01*
X182808815Y-60083550D01*
X182794637Y-60111915D01*
X182782249Y-60162473D01*
X182776379Y-60237883D01*
X182776379Y-60548682D01*
X182682590Y-60548682D01*
X182682590Y-60239288D01*
X182677749Y-60172996D01*
X182667936Y-60128035D01*
X182656300Y-60102610D01*
X182640078Y-60083066D01*
X182618904Y-60068501D01*
X182579138Y-60055443D01*
X182518825Y-60050305D01*
X182457427Y-60055871D01*
X182418014Y-60069905D01*
X182397588Y-60085431D01*
X182381781Y-60106713D01*
X182370448Y-60134996D01*
X182361403Y-60184625D01*
X182357808Y-60258888D01*
X182357808Y-60382109D01*
X182358541Y-60478035D01*
X182362021Y-60547278D01*
X182264019Y-60566878D01*
X182256325Y-60473822D01*
X182253517Y-60377224D01*
X182252784Y-60253271D01*
G37*
G36*
X182264019Y-60446467D02*
G01*
X183230000Y-60446467D01*
X183230000Y-60566878D01*
X182264019Y-60566878D01*
X182264019Y-60446467D01*
G37*
G36*
X182531404Y-59431943D02*
G01*
X182535771Y-59352537D01*
X182547529Y-59291052D01*
X182565067Y-59244052D01*
X182587397Y-59208644D01*
X182617765Y-59179106D01*
X182654650Y-59157678D01*
X182699407Y-59144167D01*
X182753970Y-59139340D01*
X182813556Y-59143457D01*
X182859996Y-59156484D01*
X182896120Y-59177137D01*
X182923541Y-59206875D01*
X182940864Y-59247231D01*
X182947227Y-59301762D01*
X182947227Y-59699328D01*
X182854781Y-59699328D01*
X182854781Y-59332536D01*
X182850790Y-59303730D01*
X182840210Y-59284601D01*
X182823335Y-59272391D01*
X182790636Y-59261939D01*
X182753970Y-59258347D01*
X182711926Y-59263963D01*
X182681688Y-59277297D01*
X182660242Y-59297548D01*
X182646129Y-59324521D01*
X182636134Y-59365719D01*
X182632215Y-59426325D01*
X182638295Y-59495999D01*
X182653953Y-59543257D01*
X182671482Y-59568379D01*
X182696179Y-59588375D01*
X182729546Y-59603463D01*
X182788839Y-59615923D01*
X182880000Y-59620926D01*
X182953271Y-59617997D01*
X183007488Y-59610302D01*
X183046573Y-59599249D01*
X183081827Y-59581216D01*
X183107423Y-59558228D01*
X183124975Y-59529945D01*
X183140145Y-59478011D01*
X183145980Y-59403916D01*
X183141095Y-59284237D01*
X183129188Y-59167367D01*
X183208995Y-59154727D01*
X183220090Y-59188966D01*
X183230000Y-59233862D01*
X183242578Y-59330460D01*
X183246791Y-59419364D01*
X183242255Y-59497377D01*
X183229884Y-59559403D01*
X183211132Y-59608347D01*
X183182743Y-59651377D01*
X183144951Y-59685916D01*
X183096338Y-59712639D01*
X183042501Y-59729850D01*
X182973785Y-59741323D01*
X182887021Y-59745551D01*
X182797306Y-59741254D01*
X182727885Y-59729719D01*
X182674958Y-59712639D01*
X182627234Y-59686018D01*
X182590876Y-59652150D01*
X182564316Y-59610423D01*
X182546914Y-59563048D01*
X182535539Y-59504333D01*
X182531404Y-59431943D01*
G37*
G36*
X182531404Y-58546257D02*
G01*
X182537294Y-58486558D01*
X182553272Y-58441588D01*
X182578072Y-58407858D01*
X182612233Y-58383243D01*
X182658004Y-58367314D01*
X182718982Y-58361427D01*
X183230000Y-58361427D01*
X183230000Y-58480434D01*
X182752627Y-58480434D01*
X182706992Y-58483613D01*
X182676975Y-58491623D01*
X182658105Y-58502843D01*
X182644562Y-58519657D01*
X182635609Y-58543959D01*
X182632215Y-58578436D01*
X182639721Y-58640617D01*
X182663051Y-58704466D01*
X182697488Y-58769949D01*
X182747009Y-58854248D01*
X182661585Y-58859865D01*
X182605815Y-58778756D01*
X182565720Y-58701657D01*
X182546369Y-58648564D01*
X182535098Y-58596931D01*
X182531404Y-58546257D01*
G37*
G36*
X182548196Y-58859865D02*
G01*
X182678377Y-58850034D01*
X182699382Y-58841669D01*
X183230000Y-58841669D01*
X183230000Y-58960676D01*
X182548196Y-58960676D01*
X182548196Y-58859865D01*
G37*
G36*
X182548196Y-58021807D02*
G01*
X183246791Y-58021807D01*
X183300433Y-58025880D01*
X183351083Y-58037927D01*
X183398843Y-58057411D01*
X183442063Y-58083417D01*
X183480740Y-58115576D01*
X183514176Y-58153393D01*
X183462397Y-58219216D01*
X183412020Y-58183426D01*
X183362990Y-58159743D01*
X183310233Y-58145791D01*
X183246791Y-58140814D01*
X182548196Y-58140814D01*
X182548196Y-58021807D01*
G37*
G36*
X182258401Y-58052643D02*
G01*
X182262603Y-58032870D01*
X182274005Y-58021770D01*
X182294794Y-58017594D01*
X182374600Y-58017594D01*
X182395389Y-58021770D01*
X182406790Y-58032870D01*
X182410992Y-58052643D01*
X182410992Y-58108635D01*
X182406723Y-58129295D01*
X182395260Y-58140758D01*
X182374600Y-58145027D01*
X182294794Y-58145027D01*
X182274134Y-58140758D01*
X182262671Y-58129295D01*
X182258401Y-58108635D01*
X182258401Y-58052643D01*
G37*
G36*
X182548196Y-57674860D02*
G01*
X183230000Y-57674860D01*
X183230000Y-57792463D01*
X182548196Y-57792463D01*
X182548196Y-57674860D01*
G37*
G36*
X182258401Y-57705635D02*
G01*
X182262671Y-57684975D01*
X182274134Y-57673511D01*
X182294794Y-57669242D01*
X182374600Y-57669242D01*
X182395260Y-57673511D01*
X182406723Y-57684975D01*
X182410992Y-57705635D01*
X182410992Y-57761627D01*
X182406720Y-57782327D01*
X182395254Y-57793807D01*
X182374600Y-57798080D01*
X182294794Y-57798080D01*
X182274140Y-57793807D01*
X182262674Y-57782327D01*
X182258401Y-57761627D01*
X182258401Y-57705635D01*
G37*
G36*
X182531404Y-57171231D02*
G01*
X182535771Y-57091825D01*
X182547529Y-57030340D01*
X182565067Y-56983341D01*
X182587397Y-56947932D01*
X182617765Y-56918394D01*
X182654650Y-56896966D01*
X182699407Y-56883455D01*
X182753970Y-56878628D01*
X182813556Y-56882745D01*
X182859996Y-56895772D01*
X182896120Y-56916425D01*
X182923541Y-56946163D01*
X182940864Y-56986519D01*
X182947227Y-57041050D01*
X182947227Y-57438616D01*
X182854781Y-57438616D01*
X182854781Y-57071824D01*
X182850790Y-57043018D01*
X182840210Y-57023889D01*
X182823335Y-57011680D01*
X182790636Y-57001227D01*
X182753970Y-56997636D01*
X182711926Y-57003251D01*
X182681688Y-57016585D01*
X182660242Y-57036837D01*
X182646129Y-57063809D01*
X182636134Y-57105007D01*
X182632215Y-57165614D01*
X182638295Y-57235287D01*
X182653953Y-57282545D01*
X182671482Y-57307668D01*
X182696179Y-57327663D01*
X182729546Y-57342751D01*
X182788839Y-57355211D01*
X182880000Y-57360214D01*
X182953271Y-57357285D01*
X183007488Y-57349590D01*
X183046573Y-57338538D01*
X183081827Y-57320504D01*
X183107423Y-57297516D01*
X183124975Y-57269234D01*
X183140145Y-57217299D01*
X183145980Y-57143204D01*
X183141095Y-57023525D01*
X183129188Y-56906655D01*
X183208995Y-56894016D01*
X183220090Y-56928254D01*
X183230000Y-56973150D01*
X183242578Y-57069748D01*
X183246791Y-57158653D01*
X183242255Y-57236665D01*
X183229884Y-57298691D01*
X183211132Y-57347636D01*
X183182743Y-57390665D01*
X183144951Y-57425204D01*
X183096338Y-57451927D01*
X183042501Y-57469138D01*
X182973785Y-57480611D01*
X182887021Y-57484839D01*
X182797306Y-57480542D01*
X182727885Y-57469007D01*
X182674958Y-57451927D01*
X182627234Y-57425306D01*
X182590876Y-57391438D01*
X182564316Y-57349712D01*
X182546914Y-57302336D01*
X182535539Y-57243622D01*
X182531404Y-57171231D01*
G37*
G36*
X182264019Y-56167393D02*
G01*
X183026973Y-56167393D01*
X183096389Y-56173555D01*
X183148754Y-56190196D01*
X183187990Y-56215692D01*
X183217530Y-56251304D01*
X183235943Y-56296749D01*
X183242578Y-56355033D01*
X183240502Y-56397714D01*
X183234213Y-56445341D01*
X183224382Y-56483810D01*
X183137615Y-56469827D01*
X183137615Y-56399790D01*
X183132789Y-56358247D01*
X183119900Y-56328880D01*
X183099807Y-56308431D01*
X183071255Y-56295445D01*
X183031186Y-56290614D01*
X182264019Y-56290614D01*
X182264019Y-56167393D01*
G37*
G36*
X182548196Y-55817637D02*
G01*
X183230000Y-55817637D01*
X183230000Y-55935240D01*
X182548196Y-55935240D01*
X182548196Y-55817637D01*
G37*
G36*
X182258401Y-55848412D02*
G01*
X182262671Y-55827752D01*
X182274134Y-55816289D01*
X182294794Y-55812020D01*
X182374600Y-55812020D01*
X182395260Y-55816289D01*
X182406723Y-55827752D01*
X182410992Y-55848412D01*
X182410992Y-55904405D01*
X182406720Y-55925105D01*
X182395254Y-55936585D01*
X182374600Y-55940858D01*
X182294794Y-55940858D01*
X182274140Y-55936585D01*
X182262674Y-55925105D01*
X182258401Y-55904405D01*
X182258401Y-55848412D01*
G37*
G36*
X182531404Y-55271999D02*
G01*
X182536884Y-55199731D01*
X182551737Y-55143893D01*
X182568483Y-55111483D01*
X182590948Y-55085389D01*
X182619637Y-55064820D01*
X182652485Y-55050876D01*
X182695086Y-55041619D01*
X182749818Y-55038197D01*
X183230000Y-55038197D01*
X183230000Y-55131987D01*
X183081622Y-55150183D01*
X183066174Y-55158609D01*
X182749818Y-55158609D01*
X182708761Y-55162394D01*
X182679698Y-55172359D01*
X182659509Y-55187308D01*
X182645894Y-55208551D01*
X182636123Y-55243278D01*
X182632215Y-55297217D01*
X182637833Y-55430940D01*
X182650411Y-55589820D01*
X182562178Y-55600994D01*
X182546791Y-55496763D01*
X182535617Y-55381236D01*
X182531404Y-55271999D01*
G37*
G36*
X182810024Y-55094190D02*
G01*
X182899600Y-55095594D01*
X182901004Y-55421781D01*
X182905057Y-55453468D01*
X182913966Y-55475489D01*
X182926894Y-55490413D01*
X182954680Y-55504689D01*
X182994794Y-55510013D01*
X183038208Y-55510013D01*
X183072782Y-55506754D01*
X183097907Y-55498067D01*
X183115938Y-55484856D01*
X183128685Y-55466425D01*
X183137197Y-55440214D01*
X183140423Y-55403585D01*
X183137008Y-55363390D01*
X183125708Y-55314741D01*
X183107345Y-55265682D01*
X183080218Y-55214663D01*
X183045537Y-55166732D01*
X183001816Y-55122217D01*
X183089987Y-55122217D01*
X183135539Y-55166303D01*
X183160442Y-55196946D01*
X183185914Y-55234935D01*
X183208097Y-55276458D01*
X183226519Y-55323107D01*
X183238469Y-55372721D01*
X183242578Y-55427398D01*
X183236933Y-55485203D01*
X183220901Y-55533827D01*
X183193891Y-55575029D01*
X183156543Y-55605940D01*
X183110464Y-55625009D01*
X183052191Y-55631830D01*
X182978002Y-55631830D01*
X182927014Y-55625869D01*
X182886528Y-55609177D01*
X182854110Y-55582126D01*
X182830549Y-55546517D01*
X182815498Y-55500998D01*
X182810024Y-55442786D01*
X182810024Y-55094190D01*
G37*
G36*
X182976691Y-54221088D02*
G01*
X183045430Y-54231853D01*
X183099146Y-54247950D01*
X183147712Y-54273418D01*
X183185226Y-54307011D01*
X183213208Y-54349433D01*
X183231571Y-54397862D01*
X183243726Y-54459614D01*
X183248196Y-54537683D01*
X183243746Y-54614777D01*
X183231609Y-54676130D01*
X183213208Y-54724590D01*
X183185247Y-54767067D01*
X183147730Y-54800912D01*
X183099146Y-54826805D01*
X183045392Y-54843261D01*
X182976654Y-54854256D01*
X182889769Y-54858312D01*
X182802925Y-54854256D01*
X182734229Y-54843261D01*
X182680514Y-54826805D01*
X182631891Y-54800908D01*
X182594355Y-54767063D01*
X182566392Y-54724590D01*
X182547991Y-54676130D01*
X182535854Y-54614777D01*
X182531404Y-54537683D01*
X182632215Y-54537683D01*
X182638651Y-54607296D01*
X182655296Y-54654614D01*
X182673713Y-54679700D01*
X182699559Y-54699951D01*
X182734431Y-54715491D01*
X182795948Y-54728488D01*
X182889769Y-54733688D01*
X182983652Y-54728489D01*
X183045230Y-54715491D01*
X183080061Y-54699954D01*
X183105889Y-54679704D01*
X183124303Y-54654614D01*
X183140948Y-54607296D01*
X183147384Y-54537683D01*
X183140970Y-54468033D01*
X183124303Y-54420141D01*
X183105836Y-54394597D01*
X183079996Y-54374117D01*
X183045230Y-54358531D01*
X182983652Y-54345533D01*
X182889769Y-54340334D01*
X182795948Y-54345534D01*
X182734431Y-54358531D01*
X182699625Y-54374120D01*
X182673766Y-54394601D01*
X182655296Y-54420141D01*
X182638629Y-54468033D01*
X182632215Y-54537683D01*
X182531404Y-54537683D01*
X182535874Y-54459614D01*
X182548029Y-54397862D01*
X182566392Y-54349433D01*
X182594376Y-54307015D01*
X182631909Y-54273422D01*
X182680514Y-54247950D01*
X182734191Y-54231853D01*
X182802889Y-54221088D01*
X182889769Y-54217114D01*
X182976691Y-54221088D01*
G37*
D11*
X163431009Y-100785714D02*
X163478628Y-100642857D01*
X163478628Y-100642857D02*
X163526247Y-100595238D01*
X163526247Y-100595238D02*
X163621485Y-100547619D01*
X163621485Y-100547619D02*
X163764342Y-100547619D01*
X163764342Y-100547619D02*
X163859580Y-100595238D01*
X163859580Y-100595238D02*
X163907200Y-100642857D01*
X163907200Y-100642857D02*
X163954819Y-100738095D01*
X163954819Y-100738095D02*
X163954819Y-101119047D01*
X163954819Y-101119047D02*
X162954819Y-101119047D01*
X162954819Y-101119047D02*
X162954819Y-100785714D01*
X162954819Y-100785714D02*
X163002438Y-100690476D01*
X163002438Y-100690476D02*
X163050057Y-100642857D01*
X163050057Y-100642857D02*
X163145295Y-100595238D01*
X163145295Y-100595238D02*
X163240533Y-100595238D01*
X163240533Y-100595238D02*
X163335771Y-100642857D01*
X163335771Y-100642857D02*
X163383390Y-100690476D01*
X163383390Y-100690476D02*
X163431009Y-100785714D01*
X163431009Y-100785714D02*
X163431009Y-101119047D01*
X162954819Y-100261904D02*
X162954819Y-99690476D01*
X163954819Y-99976190D02*
X162954819Y-99976190D01*
X163954819Y-98833333D02*
X163954819Y-99404761D01*
X163954819Y-99119047D02*
X162954819Y-99119047D01*
X162954819Y-99119047D02*
X163097676Y-99214285D01*
X163097676Y-99214285D02*
X163192914Y-99309523D01*
X163192914Y-99309523D02*
X163240533Y-99404761D01*
X158487200Y-127642857D02*
X158487200Y-125357143D01*
X159630057Y-126500000D02*
X157344342Y-126500000D01*
D10*
X165228095Y-103827419D02*
X165228095Y-104636942D01*
X165228095Y-104636942D02*
X165275714Y-104732180D01*
X165275714Y-104732180D02*
X165323333Y-104779800D01*
X165323333Y-104779800D02*
X165418571Y-104827419D01*
X165418571Y-104827419D02*
X165609047Y-104827419D01*
X165609047Y-104827419D02*
X165704285Y-104779800D01*
X165704285Y-104779800D02*
X165751904Y-104732180D01*
X165751904Y-104732180D02*
X165799523Y-104636942D01*
X165799523Y-104636942D02*
X165799523Y-103827419D01*
X166228095Y-103922657D02*
X166275714Y-103875038D01*
X166275714Y-103875038D02*
X166370952Y-103827419D01*
X166370952Y-103827419D02*
X166609047Y-103827419D01*
X166609047Y-103827419D02*
X166704285Y-103875038D01*
X166704285Y-103875038D02*
X166751904Y-103922657D01*
X166751904Y-103922657D02*
X166799523Y-104017895D01*
X166799523Y-104017895D02*
X166799523Y-104113133D01*
X166799523Y-104113133D02*
X166751904Y-104255990D01*
X166751904Y-104255990D02*
X166180476Y-104827419D01*
X166180476Y-104827419D02*
X166799523Y-104827419D01*
D11*
X165263810Y-105831009D02*
X165597143Y-105831009D01*
X165740000Y-106354819D02*
X165263810Y-106354819D01*
X165263810Y-106354819D02*
X165263810Y-105354819D01*
X165263810Y-105354819D02*
X165740000Y-105354819D01*
X166120953Y-106307200D02*
X166263810Y-106354819D01*
X166263810Y-106354819D02*
X166501905Y-106354819D01*
X166501905Y-106354819D02*
X166597143Y-106307200D01*
X166597143Y-106307200D02*
X166644762Y-106259580D01*
X166644762Y-106259580D02*
X166692381Y-106164342D01*
X166692381Y-106164342D02*
X166692381Y-106069104D01*
X166692381Y-106069104D02*
X166644762Y-105973866D01*
X166644762Y-105973866D02*
X166597143Y-105926247D01*
X166597143Y-105926247D02*
X166501905Y-105878628D01*
X166501905Y-105878628D02*
X166311429Y-105831009D01*
X166311429Y-105831009D02*
X166216191Y-105783390D01*
X166216191Y-105783390D02*
X166168572Y-105735771D01*
X166168572Y-105735771D02*
X166120953Y-105640533D01*
X166120953Y-105640533D02*
X166120953Y-105545295D01*
X166120953Y-105545295D02*
X166168572Y-105450057D01*
X166168572Y-105450057D02*
X166216191Y-105402438D01*
X166216191Y-105402438D02*
X166311429Y-105354819D01*
X166311429Y-105354819D02*
X166549524Y-105354819D01*
X166549524Y-105354819D02*
X166692381Y-105402438D01*
X167120953Y-106354819D02*
X167120953Y-105354819D01*
X167120953Y-105354819D02*
X167501905Y-105354819D01*
X167501905Y-105354819D02*
X167597143Y-105402438D01*
X167597143Y-105402438D02*
X167644762Y-105450057D01*
X167644762Y-105450057D02*
X167692381Y-105545295D01*
X167692381Y-105545295D02*
X167692381Y-105688152D01*
X167692381Y-105688152D02*
X167644762Y-105783390D01*
X167644762Y-105783390D02*
X167597143Y-105831009D01*
X167597143Y-105831009D02*
X167501905Y-105878628D01*
X167501905Y-105878628D02*
X167120953Y-105878628D01*
X168025715Y-105354819D02*
X168644762Y-105354819D01*
X168644762Y-105354819D02*
X168311429Y-105735771D01*
X168311429Y-105735771D02*
X168454286Y-105735771D01*
X168454286Y-105735771D02*
X168549524Y-105783390D01*
X168549524Y-105783390D02*
X168597143Y-105831009D01*
X168597143Y-105831009D02*
X168644762Y-105926247D01*
X168644762Y-105926247D02*
X168644762Y-106164342D01*
X168644762Y-106164342D02*
X168597143Y-106259580D01*
X168597143Y-106259580D02*
X168549524Y-106307200D01*
X168549524Y-106307200D02*
X168454286Y-106354819D01*
X168454286Y-106354819D02*
X168168572Y-106354819D01*
X168168572Y-106354819D02*
X168073334Y-106307200D01*
X168073334Y-106307200D02*
X168025715Y-106259580D01*
X169025715Y-105450057D02*
X169073334Y-105402438D01*
X169073334Y-105402438D02*
X169168572Y-105354819D01*
X169168572Y-105354819D02*
X169406667Y-105354819D01*
X169406667Y-105354819D02*
X169501905Y-105402438D01*
X169501905Y-105402438D02*
X169549524Y-105450057D01*
X169549524Y-105450057D02*
X169597143Y-105545295D01*
X169597143Y-105545295D02*
X169597143Y-105640533D01*
X169597143Y-105640533D02*
X169549524Y-105783390D01*
X169549524Y-105783390D02*
X168978096Y-106354819D01*
X168978096Y-106354819D02*
X169597143Y-106354819D01*
X170025715Y-105973866D02*
X170787620Y-105973866D01*
X171835238Y-106259580D02*
X171787619Y-106307200D01*
X171787619Y-106307200D02*
X171644762Y-106354819D01*
X171644762Y-106354819D02*
X171549524Y-106354819D01*
X171549524Y-106354819D02*
X171406667Y-106307200D01*
X171406667Y-106307200D02*
X171311429Y-106211961D01*
X171311429Y-106211961D02*
X171263810Y-106116723D01*
X171263810Y-106116723D02*
X171216191Y-105926247D01*
X171216191Y-105926247D02*
X171216191Y-105783390D01*
X171216191Y-105783390D02*
X171263810Y-105592914D01*
X171263810Y-105592914D02*
X171311429Y-105497676D01*
X171311429Y-105497676D02*
X171406667Y-105402438D01*
X171406667Y-105402438D02*
X171549524Y-105354819D01*
X171549524Y-105354819D02*
X171644762Y-105354819D01*
X171644762Y-105354819D02*
X171787619Y-105402438D01*
X171787619Y-105402438D02*
X171835238Y-105450057D01*
X172168572Y-105354819D02*
X172787619Y-105354819D01*
X172787619Y-105354819D02*
X172454286Y-105735771D01*
X172454286Y-105735771D02*
X172597143Y-105735771D01*
X172597143Y-105735771D02*
X172692381Y-105783390D01*
X172692381Y-105783390D02*
X172740000Y-105831009D01*
X172740000Y-105831009D02*
X172787619Y-105926247D01*
X172787619Y-105926247D02*
X172787619Y-106164342D01*
X172787619Y-106164342D02*
X172740000Y-106259580D01*
X172740000Y-106259580D02*
X172692381Y-106307200D01*
X172692381Y-106307200D02*
X172597143Y-106354819D01*
X172597143Y-106354819D02*
X172311429Y-106354819D01*
X172311429Y-106354819D02*
X172216191Y-106307200D01*
X172216191Y-106307200D02*
X172168572Y-106259580D01*
X173216191Y-105973866D02*
X173978096Y-105973866D01*
X174406667Y-106307200D02*
X174549524Y-106354819D01*
X174549524Y-106354819D02*
X174787619Y-106354819D01*
X174787619Y-106354819D02*
X174882857Y-106307200D01*
X174882857Y-106307200D02*
X174930476Y-106259580D01*
X174930476Y-106259580D02*
X174978095Y-106164342D01*
X174978095Y-106164342D02*
X174978095Y-106069104D01*
X174978095Y-106069104D02*
X174930476Y-105973866D01*
X174930476Y-105973866D02*
X174882857Y-105926247D01*
X174882857Y-105926247D02*
X174787619Y-105878628D01*
X174787619Y-105878628D02*
X174597143Y-105831009D01*
X174597143Y-105831009D02*
X174501905Y-105783390D01*
X174501905Y-105783390D02*
X174454286Y-105735771D01*
X174454286Y-105735771D02*
X174406667Y-105640533D01*
X174406667Y-105640533D02*
X174406667Y-105545295D01*
X174406667Y-105545295D02*
X174454286Y-105450057D01*
X174454286Y-105450057D02*
X174501905Y-105402438D01*
X174501905Y-105402438D02*
X174597143Y-105354819D01*
X174597143Y-105354819D02*
X174835238Y-105354819D01*
X174835238Y-105354819D02*
X174978095Y-105402438D01*
X175835238Y-105688152D02*
X175835238Y-106354819D01*
X175406667Y-105688152D02*
X175406667Y-106211961D01*
X175406667Y-106211961D02*
X175454286Y-106307200D01*
X175454286Y-106307200D02*
X175549524Y-106354819D01*
X175549524Y-106354819D02*
X175692381Y-106354819D01*
X175692381Y-106354819D02*
X175787619Y-106307200D01*
X175787619Y-106307200D02*
X175835238Y-106259580D01*
X176311429Y-105688152D02*
X176311429Y-106688152D01*
X176311429Y-105735771D02*
X176406667Y-105688152D01*
X176406667Y-105688152D02*
X176597143Y-105688152D01*
X176597143Y-105688152D02*
X176692381Y-105735771D01*
X176692381Y-105735771D02*
X176740000Y-105783390D01*
X176740000Y-105783390D02*
X176787619Y-105878628D01*
X176787619Y-105878628D02*
X176787619Y-106164342D01*
X176787619Y-106164342D02*
X176740000Y-106259580D01*
X176740000Y-106259580D02*
X176692381Y-106307200D01*
X176692381Y-106307200D02*
X176597143Y-106354819D01*
X176597143Y-106354819D02*
X176406667Y-106354819D01*
X176406667Y-106354819D02*
X176311429Y-106307200D01*
X177597143Y-106307200D02*
X177501905Y-106354819D01*
X177501905Y-106354819D02*
X177311429Y-106354819D01*
X177311429Y-106354819D02*
X177216191Y-106307200D01*
X177216191Y-106307200D02*
X177168572Y-106211961D01*
X177168572Y-106211961D02*
X177168572Y-105831009D01*
X177168572Y-105831009D02*
X177216191Y-105735771D01*
X177216191Y-105735771D02*
X177311429Y-105688152D01*
X177311429Y-105688152D02*
X177501905Y-105688152D01*
X177501905Y-105688152D02*
X177597143Y-105735771D01*
X177597143Y-105735771D02*
X177644762Y-105831009D01*
X177644762Y-105831009D02*
X177644762Y-105926247D01*
X177644762Y-105926247D02*
X177168572Y-106021485D01*
X178073334Y-106354819D02*
X178073334Y-105688152D01*
X178073334Y-105878628D02*
X178120953Y-105783390D01*
X178120953Y-105783390D02*
X178168572Y-105735771D01*
X178168572Y-105735771D02*
X178263810Y-105688152D01*
X178263810Y-105688152D02*
X178359048Y-105688152D01*
X178692382Y-106354819D02*
X178692382Y-105354819D01*
X178692382Y-105354819D02*
X179025715Y-106069104D01*
X179025715Y-106069104D02*
X179359048Y-105354819D01*
X179359048Y-105354819D02*
X179359048Y-106354819D01*
X179835239Y-106354819D02*
X179835239Y-105688152D01*
X179835239Y-105354819D02*
X179787620Y-105402438D01*
X179787620Y-105402438D02*
X179835239Y-105450057D01*
X179835239Y-105450057D02*
X179882858Y-105402438D01*
X179882858Y-105402438D02*
X179835239Y-105354819D01*
X179835239Y-105354819D02*
X179835239Y-105450057D01*
X180311429Y-105688152D02*
X180311429Y-106354819D01*
X180311429Y-105783390D02*
X180359048Y-105735771D01*
X180359048Y-105735771D02*
X180454286Y-105688152D01*
X180454286Y-105688152D02*
X180597143Y-105688152D01*
X180597143Y-105688152D02*
X180692381Y-105735771D01*
X180692381Y-105735771D02*
X180740000Y-105831009D01*
X180740000Y-105831009D02*
X180740000Y-106354819D01*
X181216191Y-106354819D02*
X181216191Y-105688152D01*
X181216191Y-105354819D02*
X181168572Y-105402438D01*
X181168572Y-105402438D02*
X181216191Y-105450057D01*
X181216191Y-105450057D02*
X181263810Y-105402438D01*
X181263810Y-105402438D02*
X181216191Y-105354819D01*
X181216191Y-105354819D02*
X181216191Y-105450057D01*
D10*
X166961904Y-80392580D02*
X166961904Y-79583057D01*
X166961904Y-79583057D02*
X166914285Y-79487819D01*
X166914285Y-79487819D02*
X166866666Y-79440200D01*
X166866666Y-79440200D02*
X166771428Y-79392580D01*
X166771428Y-79392580D02*
X166580952Y-79392580D01*
X166580952Y-79392580D02*
X166485714Y-79440200D01*
X166485714Y-79440200D02*
X166438095Y-79487819D01*
X166438095Y-79487819D02*
X166390476Y-79583057D01*
X166390476Y-79583057D02*
X166390476Y-80392580D01*
X165390476Y-79392580D02*
X165961904Y-79392580D01*
X165676190Y-79392580D02*
X165676190Y-80392580D01*
X165676190Y-80392580D02*
X165771428Y-80249723D01*
X165771428Y-80249723D02*
X165866666Y-80154485D01*
X165866666Y-80154485D02*
X165961904Y-80106866D01*
D11*
X169104761Y-77795180D02*
X169104761Y-78795180D01*
X169104761Y-78318990D02*
X168533333Y-78318990D01*
X168533333Y-77795180D02*
X168533333Y-78795180D01*
X168152380Y-78795180D02*
X167914285Y-77795180D01*
X167914285Y-77795180D02*
X167723809Y-78509466D01*
X167723809Y-78509466D02*
X167533333Y-77795180D01*
X167533333Y-77795180D02*
X167295238Y-78795180D01*
X166914285Y-78176133D02*
X166152381Y-78176133D01*
X165771428Y-78795180D02*
X165152381Y-78795180D01*
X165152381Y-78795180D02*
X165485714Y-78414228D01*
X165485714Y-78414228D02*
X165342857Y-78414228D01*
X165342857Y-78414228D02*
X165247619Y-78366609D01*
X165247619Y-78366609D02*
X165200000Y-78318990D01*
X165200000Y-78318990D02*
X165152381Y-78223752D01*
X165152381Y-78223752D02*
X165152381Y-77985657D01*
X165152381Y-77985657D02*
X165200000Y-77890419D01*
X165200000Y-77890419D02*
X165247619Y-77842800D01*
X165247619Y-77842800D02*
X165342857Y-77795180D01*
X165342857Y-77795180D02*
X165628571Y-77795180D01*
X165628571Y-77795180D02*
X165723809Y-77842800D01*
X165723809Y-77842800D02*
X165771428Y-77890419D01*
X164819047Y-78795180D02*
X164152381Y-78795180D01*
X164152381Y-78795180D02*
X164580952Y-77795180D01*
X163866666Y-78795180D02*
X163247619Y-78795180D01*
X163247619Y-78795180D02*
X163580952Y-78414228D01*
X163580952Y-78414228D02*
X163438095Y-78414228D01*
X163438095Y-78414228D02*
X163342857Y-78366609D01*
X163342857Y-78366609D02*
X163295238Y-78318990D01*
X163295238Y-78318990D02*
X163247619Y-78223752D01*
X163247619Y-78223752D02*
X163247619Y-77985657D01*
X163247619Y-77985657D02*
X163295238Y-77890419D01*
X163295238Y-77890419D02*
X163342857Y-77842800D01*
X163342857Y-77842800D02*
X163438095Y-77795180D01*
X163438095Y-77795180D02*
X163723809Y-77795180D01*
X163723809Y-77795180D02*
X163819047Y-77842800D01*
X163819047Y-77842800D02*
X163866666Y-77890419D01*
D10*
X177072419Y-73505639D02*
X177072419Y-73315163D01*
X177072419Y-73315163D02*
X177120038Y-73219925D01*
X177120038Y-73219925D02*
X177215276Y-73124687D01*
X177215276Y-73124687D02*
X177405752Y-73077068D01*
X177405752Y-73077068D02*
X177739085Y-73077068D01*
X177739085Y-73077068D02*
X177929561Y-73124687D01*
X177929561Y-73124687D02*
X178024800Y-73219925D01*
X178024800Y-73219925D02*
X178072419Y-73315163D01*
X178072419Y-73315163D02*
X178072419Y-73505639D01*
X178072419Y-73505639D02*
X178024800Y-73600877D01*
X178024800Y-73600877D02*
X177929561Y-73696115D01*
X177929561Y-73696115D02*
X177739085Y-73743734D01*
X177739085Y-73743734D02*
X177405752Y-73743734D01*
X177405752Y-73743734D02*
X177215276Y-73696115D01*
X177215276Y-73696115D02*
X177120038Y-73600877D01*
X177120038Y-73600877D02*
X177072419Y-73505639D01*
X177072419Y-72648496D02*
X177881942Y-72648496D01*
X177881942Y-72648496D02*
X177977180Y-72600877D01*
X177977180Y-72600877D02*
X178024800Y-72553258D01*
X178024800Y-72553258D02*
X178072419Y-72458020D01*
X178072419Y-72458020D02*
X178072419Y-72267544D01*
X178072419Y-72267544D02*
X178024800Y-72172306D01*
X178024800Y-72172306D02*
X177977180Y-72124687D01*
X177977180Y-72124687D02*
X177881942Y-72077068D01*
X177881942Y-72077068D02*
X177072419Y-72077068D01*
X177072419Y-71743734D02*
X177072419Y-71172306D01*
X178072419Y-71458020D02*
X177072419Y-71458020D01*
X177691466Y-70838972D02*
X177691466Y-70077068D01*
X178072419Y-70458020D02*
X177310514Y-70458020D01*
X165572419Y-56696115D02*
X164572419Y-56696115D01*
X165572419Y-56219925D02*
X164572419Y-56219925D01*
X164572419Y-56219925D02*
X165572419Y-55648497D01*
X165572419Y-55648497D02*
X164572419Y-55648497D01*
X165191466Y-55172306D02*
X165191466Y-54410402D01*
X175048609Y-73362782D02*
X175096228Y-73219925D01*
X175096228Y-73219925D02*
X175143847Y-73172306D01*
X175143847Y-73172306D02*
X175239085Y-73124687D01*
X175239085Y-73124687D02*
X175381942Y-73124687D01*
X175381942Y-73124687D02*
X175477180Y-73172306D01*
X175477180Y-73172306D02*
X175524800Y-73219925D01*
X175524800Y-73219925D02*
X175572419Y-73315163D01*
X175572419Y-73315163D02*
X175572419Y-73696115D01*
X175572419Y-73696115D02*
X174572419Y-73696115D01*
X174572419Y-73696115D02*
X174572419Y-73362782D01*
X174572419Y-73362782D02*
X174620038Y-73267544D01*
X174620038Y-73267544D02*
X174667657Y-73219925D01*
X174667657Y-73219925D02*
X174762895Y-73172306D01*
X174762895Y-73172306D02*
X174858133Y-73172306D01*
X174858133Y-73172306D02*
X174953371Y-73219925D01*
X174953371Y-73219925D02*
X175000990Y-73267544D01*
X175000990Y-73267544D02*
X175048609Y-73362782D01*
X175048609Y-73362782D02*
X175048609Y-73696115D01*
X175191466Y-72696115D02*
X175191466Y-71934211D01*
X175572419Y-72315163D02*
X174810514Y-72315163D01*
X178072419Y-56696115D02*
X177072419Y-56696115D01*
X178072419Y-56219925D02*
X177072419Y-56219925D01*
X177072419Y-56219925D02*
X178072419Y-55648497D01*
X178072419Y-55648497D02*
X177072419Y-55648497D01*
X177691466Y-55172306D02*
X177691466Y-54410402D01*
X178072419Y-54791354D02*
X177310514Y-54791354D01*
X164572419Y-73505639D02*
X164572419Y-73315163D01*
X164572419Y-73315163D02*
X164620038Y-73219925D01*
X164620038Y-73219925D02*
X164715276Y-73124687D01*
X164715276Y-73124687D02*
X164905752Y-73077068D01*
X164905752Y-73077068D02*
X165239085Y-73077068D01*
X165239085Y-73077068D02*
X165429561Y-73124687D01*
X165429561Y-73124687D02*
X165524800Y-73219925D01*
X165524800Y-73219925D02*
X165572419Y-73315163D01*
X165572419Y-73315163D02*
X165572419Y-73505639D01*
X165572419Y-73505639D02*
X165524800Y-73600877D01*
X165524800Y-73600877D02*
X165429561Y-73696115D01*
X165429561Y-73696115D02*
X165239085Y-73743734D01*
X165239085Y-73743734D02*
X164905752Y-73743734D01*
X164905752Y-73743734D02*
X164715276Y-73696115D01*
X164715276Y-73696115D02*
X164620038Y-73600877D01*
X164620038Y-73600877D02*
X164572419Y-73505639D01*
X164572419Y-72648496D02*
X165381942Y-72648496D01*
X165381942Y-72648496D02*
X165477180Y-72600877D01*
X165477180Y-72600877D02*
X165524800Y-72553258D01*
X165524800Y-72553258D02*
X165572419Y-72458020D01*
X165572419Y-72458020D02*
X165572419Y-72267544D01*
X165572419Y-72267544D02*
X165524800Y-72172306D01*
X165524800Y-72172306D02*
X165477180Y-72124687D01*
X165477180Y-72124687D02*
X165381942Y-72077068D01*
X165381942Y-72077068D02*
X164572419Y-72077068D01*
X164572419Y-71743734D02*
X164572419Y-71172306D01*
X165572419Y-71458020D02*
X164572419Y-71458020D01*
X165191466Y-70838972D02*
X165191466Y-70077068D01*
X167548609Y-73362782D02*
X167596228Y-73219925D01*
X167596228Y-73219925D02*
X167643847Y-73172306D01*
X167643847Y-73172306D02*
X167739085Y-73124687D01*
X167739085Y-73124687D02*
X167881942Y-73124687D01*
X167881942Y-73124687D02*
X167977180Y-73172306D01*
X167977180Y-73172306D02*
X168024800Y-73219925D01*
X168024800Y-73219925D02*
X168072419Y-73315163D01*
X168072419Y-73315163D02*
X168072419Y-73696115D01*
X168072419Y-73696115D02*
X167072419Y-73696115D01*
X167072419Y-73696115D02*
X167072419Y-73362782D01*
X167072419Y-73362782D02*
X167120038Y-73267544D01*
X167120038Y-73267544D02*
X167167657Y-73219925D01*
X167167657Y-73219925D02*
X167262895Y-73172306D01*
X167262895Y-73172306D02*
X167358133Y-73172306D01*
X167358133Y-73172306D02*
X167453371Y-73219925D01*
X167453371Y-73219925D02*
X167500990Y-73267544D01*
X167500990Y-73267544D02*
X167548609Y-73362782D01*
X167548609Y-73362782D02*
X167548609Y-73696115D01*
X167691466Y-72696115D02*
X167691466Y-71934211D01*
D12*
%TO.C,BT1*%
X140440000Y-50540000D02*
X162560000Y-50540000D01*
X140440000Y-129460000D02*
X140440000Y-50540000D01*
X162560000Y-50540000D02*
X162560000Y-129460000D01*
X162560000Y-129460000D02*
X140440000Y-129460000D01*
%TO.C,U2*%
X163005000Y-106960000D02*
X183170000Y-106960000D01*
X183170000Y-128650000D01*
X163005000Y-128650000D01*
X163005000Y-106960000D01*
D10*
X168675000Y-122835000D02*
X177565000Y-122835000D01*
X177565000Y-129820000D01*
X168675000Y-129820000D01*
X168675000Y-122835000D01*
%TO.C,U1*%
X179605000Y-77265000D02*
X163095000Y-77265000D01*
X163095000Y-50595000D01*
X179605000Y-50595000D01*
X179605000Y-77265000D01*
%TD*%
M02*
