%TF.GenerationSoftware,KiCad,Pcbnew,9.0.7+1*%
%TF.CreationDate,2026-03-19T20:22:32+08:00*%
%TF.ProjectId,ContainerLevelSensor,436f6e74-6169-46e6-9572-4c6576656c53,v1.1*%
%TF.SameCoordinates,Original*%
%TF.FileFunction,Legend,Bot*%
%TF.FilePolarity,Positive*%
%FSLAX46Y46*%
G04 Gerber Fmt 4.6, Leading zero omitted, Abs format (unit mm)*
G04 Created by KiCad (PCBNEW 9.0.7+1) date 2026-03-19 20:22:32*
%MOMM*%
%LPD*%
G01*
G04 APERTURE LIST*
%ADD10C,0.100000*%
%ADD11C,0.150000*%
%ADD12C,0.090000*%
%ADD13C,0.120000*%
G04 APERTURE END LIST*
D10*
G36*
X152064556Y-103914309D02*
G01*
X152586503Y-103714958D01*
X152603845Y-103702062D01*
X152608395Y-103692902D01*
X152610000Y-103681351D01*
X152610000Y-103595133D01*
X152608447Y-103584428D01*
X152603845Y-103574958D01*
X152596545Y-103567219D01*
X152586503Y-103561525D01*
X152064556Y-103362174D01*
X152064556Y-103464072D01*
X152446503Y-103598503D01*
X152494668Y-103615258D01*
X152541660Y-103630939D01*
X152541660Y-103645496D01*
X152494082Y-103662886D01*
X152446503Y-103679103D01*
X152064556Y-103813535D01*
X152064556Y-103914309D01*
G37*
G36*
X151837215Y-104255517D02*
G01*
X152610000Y-104255517D01*
X152610000Y-104156989D01*
X151997341Y-104156989D01*
X151963782Y-104158113D01*
X151930174Y-104162558D01*
X151989525Y-103973318D01*
X151916741Y-103959836D01*
X151837215Y-104156989D01*
X151837215Y-104255517D01*
G37*
G36*
X152477815Y-104524086D02*
G01*
X152480112Y-104542243D01*
X152485680Y-104552027D01*
X152495470Y-104557594D01*
X152513670Y-104559892D01*
X152574145Y-104559892D01*
X152592352Y-104557596D01*
X152602184Y-104552027D01*
X152607715Y-104542248D01*
X152610000Y-104524086D01*
X152610000Y-104492725D01*
X152607771Y-104475415D01*
X152602184Y-104465272D01*
X152592291Y-104459303D01*
X152574145Y-104456870D01*
X152513670Y-104456870D01*
X152495532Y-104459305D01*
X152485680Y-104465272D01*
X152480056Y-104475421D01*
X152477815Y-104492725D01*
X152477815Y-104524086D01*
G37*
G36*
X151837215Y-104908915D02*
G01*
X152610000Y-104908915D01*
X152610000Y-104810387D01*
X151997341Y-104810387D01*
X151963782Y-104811511D01*
X151930174Y-104815956D01*
X151989525Y-104626717D01*
X151916741Y-104613235D01*
X151837215Y-104810387D01*
X151837215Y-104908915D01*
G37*
G36*
X153277404Y-95218029D02*
G01*
X153283126Y-95280014D01*
X153299088Y-95330226D01*
X153324378Y-95371080D01*
X153359347Y-95404203D01*
X153400675Y-95427770D01*
X153457244Y-95446682D01*
X153533114Y-95459570D01*
X153633021Y-95464409D01*
X153718492Y-95460485D01*
X153788421Y-95449693D01*
X153851505Y-95429499D01*
X153901139Y-95400661D01*
X153928652Y-95375531D01*
X153951460Y-95344987D01*
X153969710Y-95308277D01*
X153986487Y-95245964D01*
X153992791Y-95161975D01*
X153989982Y-95086382D01*
X153980884Y-95003767D01*
X153965497Y-94921884D01*
X153943821Y-94848428D01*
X153862610Y-94943622D01*
X153880806Y-95018482D01*
X153889904Y-95091267D01*
X153891980Y-95159227D01*
X153884406Y-95220903D01*
X153866823Y-95264862D01*
X153848164Y-95288246D01*
X153821912Y-95307634D01*
X153786345Y-95322992D01*
X153724515Y-95336039D01*
X153633021Y-95341188D01*
X153543998Y-95337222D01*
X153483911Y-95327205D01*
X153448913Y-95314686D01*
X153423174Y-95298054D01*
X153404838Y-95277502D01*
X153392377Y-95252509D01*
X153384100Y-95219411D01*
X153381024Y-95176019D01*
X153388461Y-95121730D01*
X153411127Y-95069590D01*
X153444797Y-95017989D01*
X153493009Y-94953392D01*
X153413203Y-94945026D01*
X153371401Y-94988271D01*
X153338281Y-95031061D01*
X153311674Y-95076433D01*
X153292791Y-95122774D01*
X153281205Y-95170687D01*
X153277404Y-95218029D01*
G37*
G36*
X152995975Y-94967375D02*
G01*
X153250781Y-94967375D01*
X153330588Y-94965299D01*
X153404777Y-94954796D01*
X153424377Y-94965970D01*
X153949377Y-94967375D01*
X153943821Y-94848428D01*
X152995975Y-94848428D01*
X152995975Y-94967375D01*
G37*
G36*
X153294196Y-96246352D02*
G01*
X154013796Y-95973350D01*
X154057999Y-95954570D01*
X154101968Y-95931340D01*
X154143427Y-95903567D01*
X154181102Y-95870463D01*
X154213296Y-95831862D01*
X154239171Y-95786443D01*
X154256412Y-95735651D01*
X154264389Y-95675190D01*
X154185987Y-95663955D01*
X154165014Y-95717451D01*
X154141108Y-95759264D01*
X154114607Y-95791328D01*
X154065524Y-95831181D01*
X154005370Y-95862769D01*
X153924220Y-95896352D01*
X153862610Y-95918762D01*
X153802404Y-95939766D01*
X153294196Y-96117575D01*
X153294196Y-96246352D01*
G37*
G36*
X153294196Y-95684960D02*
G01*
X153802404Y-95865578D01*
X153843742Y-95879561D01*
X153885019Y-95890796D01*
X153885019Y-95922975D01*
X153976000Y-95883774D01*
X153976000Y-95847382D01*
X153973929Y-95833982D01*
X153967634Y-95821492D01*
X153957820Y-95811510D01*
X153945225Y-95805372D01*
X153294196Y-95557587D01*
X153294196Y-95684960D01*
G37*
G36*
X152998784Y-96988728D02*
G01*
X153004937Y-97101433D01*
X153020521Y-97177650D01*
X153039311Y-97221243D01*
X153064654Y-97254518D01*
X153096786Y-97279194D01*
X153134597Y-97295592D01*
X153184849Y-97306595D01*
X153250781Y-97310702D01*
X153319085Y-97305700D01*
X153370590Y-97292298D01*
X153408990Y-97272172D01*
X153439197Y-97242603D01*
X153460380Y-97201932D01*
X153472004Y-97146876D01*
X153477622Y-97146876D01*
X153486958Y-97200262D01*
X153503073Y-97241658D01*
X153525139Y-97273473D01*
X153553215Y-97297390D01*
X153599088Y-97319875D01*
X153658577Y-97334676D01*
X153735176Y-97340133D01*
X153801157Y-97336109D01*
X153851432Y-97325332D01*
X153889232Y-97309297D01*
X153921478Y-97285138D01*
X153946793Y-97252770D01*
X153965497Y-97210623D01*
X153981104Y-97137206D01*
X153987174Y-97032081D01*
X153986441Y-96889993D01*
X153982960Y-96780084D01*
X153976000Y-96675121D01*
X153877997Y-96694721D01*
X153880806Y-96811591D01*
X153882210Y-97012481D01*
X153878416Y-97085313D01*
X153868899Y-97133564D01*
X153857090Y-97160811D01*
X153840618Y-97181451D01*
X153819196Y-97196579D01*
X153778300Y-97210106D01*
X153714171Y-97215508D01*
X153643382Y-97209909D01*
X153598034Y-97195907D01*
X153573812Y-97180059D01*
X153554815Y-97158449D01*
X153540637Y-97130084D01*
X153528249Y-97079526D01*
X153522379Y-97004116D01*
X153522379Y-96693317D01*
X153428590Y-96693317D01*
X153428590Y-97002711D01*
X153423749Y-97069003D01*
X153413936Y-97113964D01*
X153402300Y-97139389D01*
X153386078Y-97158933D01*
X153364904Y-97173498D01*
X153325138Y-97186556D01*
X153264825Y-97191694D01*
X153203427Y-97186128D01*
X153164014Y-97172094D01*
X153143588Y-97156568D01*
X153127781Y-97135286D01*
X153116448Y-97107003D01*
X153107403Y-97057374D01*
X153103808Y-96983111D01*
X153103808Y-96859890D01*
X153104541Y-96763964D01*
X153108021Y-96694721D01*
X153010019Y-96675121D01*
X153002325Y-96768177D01*
X152999517Y-96864775D01*
X152998784Y-96988728D01*
G37*
G36*
X153010019Y-96795532D02*
G01*
X153976000Y-96795532D01*
X153976000Y-96675121D01*
X153010019Y-96675121D01*
X153010019Y-96795532D01*
G37*
G36*
X153277404Y-97810056D02*
G01*
X153281771Y-97889462D01*
X153293529Y-97950947D01*
X153311067Y-97997947D01*
X153333397Y-98033355D01*
X153363765Y-98062893D01*
X153400650Y-98084321D01*
X153445407Y-98097832D01*
X153499970Y-98102659D01*
X153559556Y-98098542D01*
X153605996Y-98085515D01*
X153642120Y-98064862D01*
X153669541Y-98035124D01*
X153686864Y-97994768D01*
X153693227Y-97940237D01*
X153693227Y-97542671D01*
X153600781Y-97542671D01*
X153600781Y-97909463D01*
X153596790Y-97938269D01*
X153586210Y-97957398D01*
X153569335Y-97969608D01*
X153536636Y-97980060D01*
X153499970Y-97983652D01*
X153457926Y-97978036D01*
X153427688Y-97964702D01*
X153406242Y-97944451D01*
X153392129Y-97917478D01*
X153382134Y-97876280D01*
X153378215Y-97815674D01*
X153384295Y-97746000D01*
X153399953Y-97698742D01*
X153417482Y-97673620D01*
X153442179Y-97653624D01*
X153475546Y-97638536D01*
X153534839Y-97626076D01*
X153626000Y-97621073D01*
X153699271Y-97624002D01*
X153753488Y-97631697D01*
X153792573Y-97642750D01*
X153827827Y-97660783D01*
X153853423Y-97683771D01*
X153870975Y-97712054D01*
X153886145Y-97763988D01*
X153891980Y-97838083D01*
X153887095Y-97957762D01*
X153875188Y-98074632D01*
X153954995Y-98087272D01*
X153966090Y-98053033D01*
X153976000Y-98008137D01*
X153988578Y-97911539D01*
X153992791Y-97822635D01*
X153988255Y-97744622D01*
X153975884Y-97682596D01*
X153957132Y-97633652D01*
X153928743Y-97590622D01*
X153890951Y-97556083D01*
X153842338Y-97529360D01*
X153788501Y-97512149D01*
X153719785Y-97500676D01*
X153633021Y-97496448D01*
X153543306Y-97500745D01*
X153473885Y-97512280D01*
X153420958Y-97529360D01*
X153373234Y-97555981D01*
X153336876Y-97589849D01*
X153310316Y-97631576D01*
X153292914Y-97678951D01*
X153281539Y-97737666D01*
X153277404Y-97810056D01*
G37*
G36*
X153277404Y-98695742D02*
G01*
X153283294Y-98755441D01*
X153299272Y-98800411D01*
X153324072Y-98834141D01*
X153358233Y-98858756D01*
X153404004Y-98874685D01*
X153464982Y-98880572D01*
X153976000Y-98880572D01*
X153976000Y-98761565D01*
X153498627Y-98761565D01*
X153452992Y-98758386D01*
X153422975Y-98750376D01*
X153404105Y-98739156D01*
X153390562Y-98722342D01*
X153381609Y-98698040D01*
X153378215Y-98663563D01*
X153385721Y-98601382D01*
X153409051Y-98537533D01*
X153443488Y-98472050D01*
X153493009Y-98387751D01*
X153407585Y-98382134D01*
X153351815Y-98463243D01*
X153311720Y-98540342D01*
X153292369Y-98593435D01*
X153281098Y-98645068D01*
X153277404Y-98695742D01*
G37*
G36*
X153294196Y-98382134D02*
G01*
X153424377Y-98391965D01*
X153445382Y-98400330D01*
X153976000Y-98400330D01*
X153976000Y-98281323D01*
X153294196Y-98281323D01*
X153294196Y-98382134D01*
G37*
G36*
X153294196Y-99220192D02*
G01*
X153992791Y-99220192D01*
X154046433Y-99216119D01*
X154097083Y-99204072D01*
X154144843Y-99184588D01*
X154188063Y-99158582D01*
X154226740Y-99126423D01*
X154260176Y-99088606D01*
X154208397Y-99022783D01*
X154158020Y-99058573D01*
X154108990Y-99082256D01*
X154056233Y-99096208D01*
X153992791Y-99101185D01*
X153294196Y-99101185D01*
X153294196Y-99220192D01*
G37*
G36*
X153004401Y-99189356D02*
G01*
X153008603Y-99209129D01*
X153020005Y-99220229D01*
X153040794Y-99224405D01*
X153120600Y-99224405D01*
X153141389Y-99220229D01*
X153152790Y-99209129D01*
X153156992Y-99189356D01*
X153156992Y-99133364D01*
X153152723Y-99112704D01*
X153141260Y-99101241D01*
X153120600Y-99096972D01*
X153040794Y-99096972D01*
X153020134Y-99101241D01*
X153008671Y-99112704D01*
X153004401Y-99133364D01*
X153004401Y-99189356D01*
G37*
G36*
X153294196Y-99567139D02*
G01*
X153976000Y-99567139D01*
X153976000Y-99449536D01*
X153294196Y-99449536D01*
X153294196Y-99567139D01*
G37*
G36*
X153004401Y-99536364D02*
G01*
X153008671Y-99557024D01*
X153020134Y-99568488D01*
X153040794Y-99572757D01*
X153120600Y-99572757D01*
X153141260Y-99568488D01*
X153152723Y-99557024D01*
X153156992Y-99536364D01*
X153156992Y-99480372D01*
X153152720Y-99459672D01*
X153141254Y-99448192D01*
X153120600Y-99443919D01*
X153040794Y-99443919D01*
X153020140Y-99448192D01*
X153008674Y-99459672D01*
X153004401Y-99480372D01*
X153004401Y-99536364D01*
G37*
G36*
X153277404Y-100070768D02*
G01*
X153281771Y-100150174D01*
X153293529Y-100211659D01*
X153311067Y-100258658D01*
X153333397Y-100294067D01*
X153363765Y-100323605D01*
X153400650Y-100345033D01*
X153445407Y-100358544D01*
X153499970Y-100363371D01*
X153559556Y-100359254D01*
X153605996Y-100346227D01*
X153642120Y-100325574D01*
X153669541Y-100295836D01*
X153686864Y-100255480D01*
X153693227Y-100200949D01*
X153693227Y-99803383D01*
X153600781Y-99803383D01*
X153600781Y-100170175D01*
X153596790Y-100198981D01*
X153586210Y-100218110D01*
X153569335Y-100230319D01*
X153536636Y-100240772D01*
X153499970Y-100244363D01*
X153457926Y-100238748D01*
X153427688Y-100225414D01*
X153406242Y-100205162D01*
X153392129Y-100178190D01*
X153382134Y-100136992D01*
X153378215Y-100076385D01*
X153384295Y-100006712D01*
X153399953Y-99959454D01*
X153417482Y-99934331D01*
X153442179Y-99914336D01*
X153475546Y-99899248D01*
X153534839Y-99886788D01*
X153626000Y-99881785D01*
X153699271Y-99884714D01*
X153753488Y-99892409D01*
X153792573Y-99903461D01*
X153827827Y-99921495D01*
X153853423Y-99944483D01*
X153870975Y-99972765D01*
X153886145Y-100024700D01*
X153891980Y-100098795D01*
X153887095Y-100218474D01*
X153875188Y-100335344D01*
X153954995Y-100347983D01*
X153966090Y-100313745D01*
X153976000Y-100268849D01*
X153988578Y-100172251D01*
X153992791Y-100083346D01*
X153988255Y-100005334D01*
X153975884Y-99943308D01*
X153957132Y-99894363D01*
X153928743Y-99851334D01*
X153890951Y-99816795D01*
X153842338Y-99790072D01*
X153788501Y-99772861D01*
X153719785Y-99761388D01*
X153633021Y-99757160D01*
X153543306Y-99761457D01*
X153473885Y-99772992D01*
X153420958Y-99790072D01*
X153373234Y-99816693D01*
X153336876Y-99850561D01*
X153310316Y-99892287D01*
X153292914Y-99939663D01*
X153281539Y-99998377D01*
X153277404Y-100070768D01*
G37*
G36*
X153010019Y-101074606D02*
G01*
X153772973Y-101074606D01*
X153842389Y-101068444D01*
X153894754Y-101051803D01*
X153933990Y-101026307D01*
X153963530Y-100990695D01*
X153981943Y-100945250D01*
X153988578Y-100886966D01*
X153986502Y-100844285D01*
X153980213Y-100796658D01*
X153970382Y-100758189D01*
X153883615Y-100772172D01*
X153883615Y-100842209D01*
X153878789Y-100883752D01*
X153865900Y-100913119D01*
X153845807Y-100933568D01*
X153817255Y-100946554D01*
X153777186Y-100951385D01*
X153010019Y-100951385D01*
X153010019Y-101074606D01*
G37*
G36*
X153294196Y-101424362D02*
G01*
X153976000Y-101424362D01*
X153976000Y-101306759D01*
X153294196Y-101306759D01*
X153294196Y-101424362D01*
G37*
G36*
X153004401Y-101393587D02*
G01*
X153008671Y-101414247D01*
X153020134Y-101425710D01*
X153040794Y-101429979D01*
X153120600Y-101429979D01*
X153141260Y-101425710D01*
X153152723Y-101414247D01*
X153156992Y-101393587D01*
X153156992Y-101337594D01*
X153152720Y-101316894D01*
X153141254Y-101305414D01*
X153120600Y-101301141D01*
X153040794Y-101301141D01*
X153020140Y-101305414D01*
X153008674Y-101316894D01*
X153004401Y-101337594D01*
X153004401Y-101393587D01*
G37*
G36*
X153277404Y-101970000D02*
G01*
X153282884Y-102042268D01*
X153297737Y-102098106D01*
X153314483Y-102130516D01*
X153336948Y-102156610D01*
X153365637Y-102177179D01*
X153398485Y-102191123D01*
X153441086Y-102200380D01*
X153495818Y-102203802D01*
X153976000Y-102203802D01*
X153976000Y-102110012D01*
X153827622Y-102091816D01*
X153812174Y-102083390D01*
X153495818Y-102083390D01*
X153454761Y-102079605D01*
X153425698Y-102069640D01*
X153405509Y-102054691D01*
X153391894Y-102033448D01*
X153382123Y-101998721D01*
X153378215Y-101944782D01*
X153383833Y-101811059D01*
X153396411Y-101652179D01*
X153308178Y-101641005D01*
X153292791Y-101745236D01*
X153281617Y-101860763D01*
X153277404Y-101970000D01*
G37*
G36*
X153556024Y-102147809D02*
G01*
X153645600Y-102146405D01*
X153647004Y-101820218D01*
X153651057Y-101788531D01*
X153659966Y-101766510D01*
X153672894Y-101751586D01*
X153700680Y-101737310D01*
X153740794Y-101731986D01*
X153784208Y-101731986D01*
X153818782Y-101735245D01*
X153843907Y-101743932D01*
X153861938Y-101757143D01*
X153874685Y-101775574D01*
X153883197Y-101801785D01*
X153886423Y-101838414D01*
X153883008Y-101878609D01*
X153871708Y-101927258D01*
X153853345Y-101976317D01*
X153826218Y-102027336D01*
X153791537Y-102075267D01*
X153747816Y-102119782D01*
X153835987Y-102119782D01*
X153881539Y-102075696D01*
X153906442Y-102045053D01*
X153931914Y-102007064D01*
X153954097Y-101965541D01*
X153972519Y-101918892D01*
X153984469Y-101869278D01*
X153988578Y-101814601D01*
X153982933Y-101756796D01*
X153966901Y-101708172D01*
X153939891Y-101666970D01*
X153902543Y-101636059D01*
X153856464Y-101616990D01*
X153798191Y-101610169D01*
X153724002Y-101610169D01*
X153673014Y-101616130D01*
X153632528Y-101632822D01*
X153600110Y-101659873D01*
X153576549Y-101695482D01*
X153561498Y-101741001D01*
X153556024Y-101799213D01*
X153556024Y-102147809D01*
G37*
G36*
X153722654Y-102387743D02*
G01*
X153791392Y-102398738D01*
X153845146Y-102415194D01*
X153893730Y-102441087D01*
X153931247Y-102474932D01*
X153959208Y-102517409D01*
X153977609Y-102565869D01*
X153989746Y-102627222D01*
X153994196Y-102704316D01*
X153989726Y-102782385D01*
X153977571Y-102844137D01*
X153959208Y-102892566D01*
X153931226Y-102934988D01*
X153893712Y-102968581D01*
X153845146Y-102994049D01*
X153791430Y-103010146D01*
X153722691Y-103020911D01*
X153635769Y-103024885D01*
X153548889Y-103020911D01*
X153480191Y-103010146D01*
X153426514Y-102994049D01*
X153377909Y-102968577D01*
X153340376Y-102934984D01*
X153312392Y-102892566D01*
X153294029Y-102844137D01*
X153281874Y-102782385D01*
X153277404Y-102704316D01*
X153378215Y-102704316D01*
X153384629Y-102773966D01*
X153401296Y-102821858D01*
X153419766Y-102847398D01*
X153445625Y-102867879D01*
X153480431Y-102883468D01*
X153541948Y-102896465D01*
X153635769Y-102901665D01*
X153729652Y-102896466D01*
X153791230Y-102883468D01*
X153825996Y-102867882D01*
X153851836Y-102847402D01*
X153870303Y-102821858D01*
X153886970Y-102773966D01*
X153893384Y-102704316D01*
X153886948Y-102634703D01*
X153870303Y-102587385D01*
X153851889Y-102562295D01*
X153826061Y-102542045D01*
X153791230Y-102526508D01*
X153729652Y-102513510D01*
X153635769Y-102508311D01*
X153541948Y-102513511D01*
X153480431Y-102526508D01*
X153445559Y-102542048D01*
X153419713Y-102562299D01*
X153401296Y-102587385D01*
X153384651Y-102634703D01*
X153378215Y-102704316D01*
X153277404Y-102704316D01*
X153281854Y-102627222D01*
X153293991Y-102565869D01*
X153312392Y-102517409D01*
X153340355Y-102474936D01*
X153377891Y-102441091D01*
X153426514Y-102415194D01*
X153480229Y-102398738D01*
X153548925Y-102387743D01*
X153635769Y-102383687D01*
X153722654Y-102387743D01*
G37*
G36*
X150640455Y-76071588D02*
G01*
X150646073Y-76282980D01*
X150664269Y-76445401D01*
X150696387Y-76598053D01*
X150883965Y-76572774D01*
X150870043Y-76417314D01*
X150861617Y-76264784D01*
X150858808Y-76071588D01*
X150867989Y-75948238D01*
X150893082Y-75851068D01*
X150931593Y-75774833D01*
X150987731Y-75711816D01*
X151067013Y-75659791D01*
X151175225Y-75619372D01*
X151290399Y-75595576D01*
X151442694Y-75579299D01*
X151640019Y-75573210D01*
X151837258Y-75579297D01*
X151989562Y-75595572D01*
X152104813Y-75619372D01*
X152212948Y-75659781D01*
X152292240Y-75711804D01*
X152348445Y-75774833D01*
X152386956Y-75851068D01*
X152412049Y-75948238D01*
X152421230Y-76071588D01*
X152414269Y-76372495D01*
X152390455Y-76611975D01*
X152575225Y-76637254D01*
X152604180Y-76515471D01*
X152624196Y-76389348D01*
X152635343Y-76254102D01*
X152639583Y-76071588D01*
X152627384Y-75888532D01*
X152594009Y-75742967D01*
X152542985Y-75627799D01*
X152488751Y-75552184D01*
X152419586Y-75487112D01*
X152333603Y-75431961D01*
X152228034Y-75386975D01*
X152080209Y-75348555D01*
X151887415Y-75322531D01*
X151640019Y-75312847D01*
X151392536Y-75322534D01*
X151199752Y-75348560D01*
X151052004Y-75386975D01*
X150946435Y-75431961D01*
X150860453Y-75487112D01*
X150791287Y-75552184D01*
X150737053Y-75627799D01*
X150686029Y-75742967D01*
X150652654Y-75888532D01*
X150640455Y-76071588D01*
G37*
G36*
X152099309Y-76898525D02*
G01*
X152236784Y-76920514D01*
X152344293Y-76953427D01*
X152441460Y-77005213D01*
X152516495Y-77072903D01*
X152572416Y-77157858D01*
X152609218Y-77254776D01*
X152633492Y-77377483D01*
X152642392Y-77531672D01*
X152633452Y-77687808D01*
X152609142Y-77811312D01*
X152572416Y-77908172D01*
X152516453Y-77993015D01*
X152441425Y-78060201D01*
X152344293Y-78111138D01*
X152236861Y-78143331D01*
X152099382Y-78164862D01*
X151925539Y-78172809D01*
X151751778Y-78164861D01*
X151614382Y-78143330D01*
X151507029Y-78111138D01*
X151409818Y-78060194D01*
X151334753Y-77993007D01*
X151278784Y-77908172D01*
X151242058Y-77811312D01*
X151217748Y-77687808D01*
X151208808Y-77531672D01*
X151410431Y-77531672D01*
X151423259Y-77670971D01*
X151456593Y-77766755D01*
X151493533Y-77817835D01*
X151545250Y-77858797D01*
X151614862Y-77889976D01*
X151737896Y-77915969D01*
X151925539Y-77926368D01*
X152113305Y-77915970D01*
X152236460Y-77889976D01*
X152305992Y-77858804D01*
X152357672Y-77817843D01*
X152394607Y-77766755D01*
X152427941Y-77670971D01*
X152440769Y-77531672D01*
X152427897Y-77392444D01*
X152394607Y-77297809D01*
X152357779Y-77247629D01*
X152306122Y-77207129D01*
X152236460Y-77176054D01*
X152113305Y-77150059D01*
X151925539Y-77139662D01*
X151737896Y-77150060D01*
X151614862Y-77176054D01*
X151545119Y-77207135D01*
X151493426Y-77247637D01*
X151456593Y-77297809D01*
X151423303Y-77392444D01*
X151410431Y-77531672D01*
X151208808Y-77531672D01*
X151217708Y-77377483D01*
X151241982Y-77254776D01*
X151278784Y-77157858D01*
X151334711Y-77072911D01*
X151409783Y-77005220D01*
X151507029Y-76953427D01*
X151614458Y-76920515D01*
X151751851Y-76898525D01*
X151925539Y-76890412D01*
X152099309Y-76898525D01*
G37*
G36*
X151208808Y-79372163D02*
G01*
X151220588Y-79491562D01*
X151252545Y-79581503D01*
X151302144Y-79648961D01*
X151370467Y-79698192D01*
X151462008Y-79730051D01*
X151583965Y-79741825D01*
X152606000Y-79741825D01*
X152606000Y-79503810D01*
X151651254Y-79503810D01*
X151559984Y-79497453D01*
X151499950Y-79481432D01*
X151462210Y-79458992D01*
X151435125Y-79425364D01*
X151417219Y-79376761D01*
X151410431Y-79307806D01*
X151425443Y-79183445D01*
X151472102Y-79055747D01*
X151540977Y-78924780D01*
X151640019Y-78756183D01*
X151469171Y-78744948D01*
X151357630Y-78907166D01*
X151277441Y-79061364D01*
X151238739Y-79167549D01*
X151216196Y-79270816D01*
X151208808Y-79372163D01*
G37*
G36*
X151242392Y-78744948D02*
G01*
X151502755Y-78764609D01*
X151544764Y-78781340D01*
X152606000Y-78781340D01*
X152606000Y-78543325D01*
X151242392Y-78543325D01*
X151242392Y-78744948D01*
G37*
G36*
X150839147Y-80510702D02*
G01*
X152230842Y-80510702D01*
X152319457Y-80522634D01*
X152370794Y-80552589D01*
X152400748Y-80604289D01*
X152412803Y-80695471D01*
X152412803Y-80902711D01*
X152594764Y-80930677D01*
X152614426Y-80826996D01*
X152627004Y-80712202D01*
X152631157Y-80622687D01*
X152619429Y-80512727D01*
X152587143Y-80427842D01*
X152536024Y-80362202D01*
X152467248Y-80314468D01*
X152377799Y-80283874D01*
X152261617Y-80272687D01*
X150839147Y-80272687D01*
X150839147Y-80510702D01*
G37*
G36*
X151242392Y-80944599D02*
G01*
X151429970Y-80944599D01*
X151429970Y-80026246D01*
X151256436Y-80026246D01*
X151242392Y-80295035D01*
X151242392Y-80944599D01*
G37*
G36*
X151208808Y-81879927D02*
G01*
X151219768Y-82024462D01*
X151249475Y-82136138D01*
X151282966Y-82200958D01*
X151327897Y-82253146D01*
X151385274Y-82294285D01*
X151450971Y-82322173D01*
X151536173Y-82340686D01*
X151645637Y-82347530D01*
X152606000Y-82347530D01*
X152606000Y-82159951D01*
X152309244Y-82123559D01*
X152278348Y-82106706D01*
X151645637Y-82106706D01*
X151563523Y-82099137D01*
X151505396Y-82079207D01*
X151465019Y-82049309D01*
X151437789Y-82006824D01*
X151418246Y-81937369D01*
X151410431Y-81829491D01*
X151421666Y-81562045D01*
X151446823Y-81244285D01*
X151270357Y-81221937D01*
X151239583Y-81430398D01*
X151217235Y-81661452D01*
X151208808Y-81879927D01*
G37*
G36*
X151766048Y-82235545D02*
G01*
X151945200Y-82232736D01*
X151948009Y-81580363D01*
X151956115Y-81516989D01*
X151973932Y-81472946D01*
X151999789Y-81443099D01*
X152055361Y-81414547D01*
X152135588Y-81403898D01*
X152222416Y-81403898D01*
X152291565Y-81410416D01*
X152341815Y-81427790D01*
X152377877Y-81454212D01*
X152403370Y-81491075D01*
X152420395Y-81543496D01*
X152426847Y-81616755D01*
X152420017Y-81697144D01*
X152397416Y-81794442D01*
X152360691Y-81892561D01*
X152306436Y-81994599D01*
X152237074Y-82090461D01*
X152149632Y-82179491D01*
X152325975Y-82179491D01*
X152417078Y-82091319D01*
X152466884Y-82030032D01*
X152517828Y-81954055D01*
X152562195Y-81871009D01*
X152599039Y-81777711D01*
X152622938Y-81678483D01*
X152631157Y-81569128D01*
X152619867Y-81453519D01*
X152587803Y-81356270D01*
X152533782Y-81273866D01*
X152459087Y-81212045D01*
X152366929Y-81173906D01*
X152250382Y-81160265D01*
X152102004Y-81160265D01*
X152000028Y-81172186D01*
X151919057Y-81205570D01*
X151854220Y-81259672D01*
X151807098Y-81330891D01*
X151776996Y-81421929D01*
X151766048Y-81538353D01*
X151766048Y-82235545D01*
G37*
G36*
X151242392Y-83018099D02*
G01*
X152606000Y-83018099D01*
X152606000Y-82782893D01*
X151242392Y-82782893D01*
X151242392Y-83018099D01*
G37*
G36*
X150662803Y-82956549D02*
G01*
X150671342Y-82997869D01*
X150694268Y-83020796D01*
X150735588Y-83029334D01*
X150895200Y-83029334D01*
X150936520Y-83020796D01*
X150959447Y-82997869D01*
X150967985Y-82956549D01*
X150967985Y-82844564D01*
X150959441Y-82803164D01*
X150936508Y-82780204D01*
X150895200Y-82771658D01*
X150735588Y-82771658D01*
X150694280Y-82780204D01*
X150671348Y-82803164D01*
X150662803Y-82844564D01*
X150662803Y-82956549D01*
G37*
G36*
X151208808Y-84294145D02*
G01*
X151220588Y-84413544D01*
X151252545Y-84503485D01*
X151302144Y-84570943D01*
X151370467Y-84620174D01*
X151462008Y-84652033D01*
X151583965Y-84663807D01*
X152606000Y-84663807D01*
X152606000Y-84425792D01*
X151651254Y-84425792D01*
X151559984Y-84419435D01*
X151499950Y-84403414D01*
X151462210Y-84380974D01*
X151435125Y-84347346D01*
X151417219Y-84298743D01*
X151410431Y-84229787D01*
X151425443Y-84105426D01*
X151472102Y-83977729D01*
X151540977Y-83846761D01*
X151640019Y-83678165D01*
X151469171Y-83666930D01*
X151357630Y-83829148D01*
X151277441Y-83983346D01*
X151238739Y-84089531D01*
X151216196Y-84192797D01*
X151208808Y-84294145D01*
G37*
G36*
X151242392Y-83666930D02*
G01*
X151502755Y-83686591D01*
X151544764Y-83703322D01*
X152606000Y-83703322D01*
X152606000Y-83465307D01*
X151242392Y-83465307D01*
X151242392Y-83666930D01*
G37*
G36*
X151208808Y-85651036D02*
G01*
X151217542Y-85809848D01*
X151241059Y-85932819D01*
X151276134Y-86026818D01*
X151320794Y-86097635D01*
X151381530Y-86156711D01*
X151455301Y-86199567D01*
X151544814Y-86226589D01*
X151653941Y-86236242D01*
X151773113Y-86228009D01*
X151865992Y-86201954D01*
X151938240Y-86160649D01*
X151993083Y-86101172D01*
X152027728Y-86020461D01*
X152040455Y-85911399D01*
X152040455Y-85116267D01*
X151855563Y-85116267D01*
X151855563Y-85849850D01*
X151847581Y-85907463D01*
X151826420Y-85945721D01*
X151792671Y-85970140D01*
X151727272Y-85991045D01*
X151653941Y-85998228D01*
X151569853Y-85986997D01*
X151509376Y-85960329D01*
X151466484Y-85919826D01*
X151438258Y-85865881D01*
X151418269Y-85783485D01*
X151410431Y-85662272D01*
X151422590Y-85522925D01*
X151453906Y-85428409D01*
X151488965Y-85378164D01*
X151538358Y-85338172D01*
X151605092Y-85307997D01*
X151723678Y-85283076D01*
X151906000Y-85273071D01*
X152052542Y-85278929D01*
X152160977Y-85294319D01*
X152239147Y-85316424D01*
X152309655Y-85352490D01*
X152360846Y-85398467D01*
X152395951Y-85455032D01*
X152426291Y-85558900D01*
X152437960Y-85707090D01*
X152428191Y-85946448D01*
X152404377Y-86180189D01*
X152563990Y-86205468D01*
X152586180Y-86136990D01*
X152606000Y-86047198D01*
X152631157Y-85854002D01*
X152639583Y-85676193D01*
X152630510Y-85520168D01*
X152605769Y-85396116D01*
X152568264Y-85298228D01*
X152511487Y-85212169D01*
X152435903Y-85143091D01*
X152338676Y-85089644D01*
X152231003Y-85055223D01*
X152093571Y-85032277D01*
X151920043Y-85023821D01*
X151740612Y-85032415D01*
X151601770Y-85055484D01*
X151495916Y-85089644D01*
X151400469Y-85142887D01*
X151327752Y-85210622D01*
X151274632Y-85294076D01*
X151239828Y-85388826D01*
X151217079Y-85506256D01*
X151208808Y-85651036D01*
G37*
G36*
X151242392Y-86778461D02*
G01*
X151502755Y-86809236D01*
X151544764Y-86831584D01*
X152606000Y-86831584D01*
X152606000Y-86593570D01*
X151242392Y-86593570D01*
X151242392Y-86778461D01*
G37*
G36*
X151208808Y-87447565D02*
G01*
X151432779Y-87419599D01*
X151432779Y-87341197D01*
X151444823Y-87221915D01*
X151481872Y-87100374D01*
X151620357Y-86806427D01*
X151471980Y-86786766D01*
X151360235Y-86941274D01*
X151278784Y-87090604D01*
X151239022Y-87194132D01*
X151216196Y-87292202D01*
X151208808Y-87386016D01*
X151208808Y-87447565D01*
G37*
G36*
X150674039Y-87978427D02*
G01*
X152213990Y-87978427D01*
X152300266Y-87991207D01*
X152354063Y-88024588D01*
X152386386Y-88079358D01*
X152398759Y-88166005D01*
X152398759Y-88863196D01*
X152589147Y-88874431D01*
X152606000Y-88503304D01*
X152608808Y-88126804D01*
X152600967Y-88018989D01*
X152579743Y-87935854D01*
X152547554Y-87872276D01*
X152505249Y-87824309D01*
X152431702Y-87775309D01*
X152345964Y-87745300D01*
X152244764Y-87734794D01*
X150674039Y-87734794D01*
X150674039Y-87978427D01*
G37*
G36*
X151208808Y-89707422D02*
G01*
X151217542Y-89866234D01*
X151241059Y-89989204D01*
X151276134Y-90083203D01*
X151320794Y-90154020D01*
X151381530Y-90213096D01*
X151455301Y-90255952D01*
X151544814Y-90282974D01*
X151653941Y-90292628D01*
X151773113Y-90284394D01*
X151865992Y-90258339D01*
X151938240Y-90217034D01*
X151993083Y-90157558D01*
X152027728Y-90076847D01*
X152040455Y-89967785D01*
X152040455Y-89172652D01*
X151855563Y-89172652D01*
X151855563Y-89906235D01*
X151847581Y-89963849D01*
X151826420Y-90002106D01*
X151792671Y-90026525D01*
X151727272Y-90047430D01*
X151653941Y-90054613D01*
X151569853Y-90043383D01*
X151509376Y-90016714D01*
X151466484Y-89976211D01*
X151438258Y-89922266D01*
X151418269Y-89839870D01*
X151410431Y-89718657D01*
X151422590Y-89579310D01*
X151453906Y-89484794D01*
X151488965Y-89434549D01*
X151538358Y-89394557D01*
X151605092Y-89364383D01*
X151723678Y-89339462D01*
X151906000Y-89329456D01*
X152052542Y-89335314D01*
X152160977Y-89350705D01*
X152239147Y-89372809D01*
X152309655Y-89408875D01*
X152360846Y-89454852D01*
X152395951Y-89511417D01*
X152426291Y-89615285D01*
X152437960Y-89763475D01*
X152428191Y-90002833D01*
X152404377Y-90236574D01*
X152563990Y-90261853D01*
X152586180Y-90193376D01*
X152606000Y-90103584D01*
X152631157Y-89910387D01*
X152639583Y-89732579D01*
X152630510Y-89576553D01*
X152605769Y-89452502D01*
X152568264Y-89354613D01*
X152511487Y-89268554D01*
X152435903Y-89199477D01*
X152338676Y-89146030D01*
X152231003Y-89111608D01*
X152093571Y-89088663D01*
X151920043Y-89080206D01*
X151740612Y-89088800D01*
X151601770Y-89111870D01*
X151495916Y-89146030D01*
X151400469Y-89199272D01*
X151327752Y-89267008D01*
X151274632Y-89350461D01*
X151239828Y-89445212D01*
X151217079Y-89562641D01*
X151208808Y-89707422D01*
G37*
G36*
X151242392Y-91854561D02*
G01*
X152547259Y-91356183D01*
X152590612Y-91323943D01*
X152601988Y-91301043D01*
X152606000Y-91272163D01*
X152606000Y-91056619D01*
X152602119Y-91029857D01*
X152590612Y-91006183D01*
X152572364Y-90986834D01*
X152547259Y-90972600D01*
X151242392Y-90474222D01*
X151242392Y-90728967D01*
X152197259Y-91065046D01*
X152317671Y-91106933D01*
X152435152Y-91146134D01*
X152435152Y-91182526D01*
X152316205Y-91226002D01*
X152197259Y-91266546D01*
X151242392Y-91602624D01*
X151242392Y-91854561D01*
G37*
G36*
X151208808Y-92667645D02*
G01*
X151217542Y-92826457D01*
X151241059Y-92949427D01*
X151276134Y-93043426D01*
X151320794Y-93114243D01*
X151381530Y-93173319D01*
X151455301Y-93216175D01*
X151544814Y-93243198D01*
X151653941Y-93252851D01*
X151773113Y-93244617D01*
X151865992Y-93218563D01*
X151938240Y-93177258D01*
X151993083Y-93117781D01*
X152027728Y-93037070D01*
X152040455Y-92928008D01*
X152040455Y-92132875D01*
X151855563Y-92132875D01*
X151855563Y-92866459D01*
X151847581Y-92924072D01*
X151826420Y-92962330D01*
X151792671Y-92986748D01*
X151727272Y-93007653D01*
X151653941Y-93014836D01*
X151569853Y-93003606D01*
X151509376Y-92976938D01*
X151466484Y-92936434D01*
X151438258Y-92882489D01*
X151418269Y-92800093D01*
X151410431Y-92678880D01*
X151422590Y-92539533D01*
X151453906Y-92445018D01*
X151488965Y-92394772D01*
X151538358Y-92354781D01*
X151605092Y-92324606D01*
X151723678Y-92299685D01*
X151906000Y-92289679D01*
X152052542Y-92295538D01*
X152160977Y-92310928D01*
X152239147Y-92333032D01*
X152309655Y-92369098D01*
X152360846Y-92415075D01*
X152395951Y-92471640D01*
X152426291Y-92575509D01*
X152437960Y-92723699D01*
X152428191Y-92963057D01*
X152404377Y-93196797D01*
X152563990Y-93222076D01*
X152586180Y-93153599D01*
X152606000Y-93063807D01*
X152631157Y-92870611D01*
X152639583Y-92692802D01*
X152630510Y-92536777D01*
X152605769Y-92412725D01*
X152568264Y-92314836D01*
X152511487Y-92228778D01*
X152435903Y-92159700D01*
X152338676Y-92106253D01*
X152231003Y-92071831D01*
X152093571Y-92048886D01*
X151920043Y-92040429D01*
X151740612Y-92049023D01*
X151601770Y-92072093D01*
X151495916Y-92106253D01*
X151400469Y-92159496D01*
X151327752Y-92227231D01*
X151274632Y-92310684D01*
X151239828Y-92405435D01*
X151217079Y-92522864D01*
X151208808Y-92667645D01*
G37*
G36*
X150645951Y-93848193D02*
G01*
X152230842Y-93848193D01*
X152312082Y-93861371D01*
X152366642Y-93897163D01*
X152400389Y-93953800D01*
X152412803Y-94035771D01*
X152412803Y-94167418D01*
X152594764Y-94195384D01*
X152614426Y-94123943D01*
X152627004Y-94028810D01*
X152631157Y-93946256D01*
X152620507Y-93849109D01*
X152590435Y-93769648D01*
X152541642Y-93703967D01*
X152476392Y-93655136D01*
X152392362Y-93624217D01*
X152283965Y-93612987D01*
X150645951Y-93612987D01*
X150645951Y-93848193D01*
G37*
G36*
X150640455Y-95003461D02*
G01*
X150654377Y-95286173D01*
X150670452Y-95431519D01*
X150696387Y-95577432D01*
X150875539Y-95560702D01*
X150865891Y-95294599D01*
X150861617Y-95014697D01*
X150868578Y-94836766D01*
X150881140Y-94766816D01*
X150902161Y-94715011D01*
X150936303Y-94674827D01*
X150988990Y-94646501D01*
X151055144Y-94631483D01*
X151155563Y-94625496D01*
X151261117Y-94633468D01*
X151332132Y-94653815D01*
X151378191Y-94682893D01*
X151414028Y-94725133D01*
X151445618Y-94785511D01*
X151471980Y-94869006D01*
X151570043Y-95261016D01*
X151604797Y-95372315D01*
X151647964Y-95457504D01*
X151698426Y-95521415D01*
X151756157Y-95567662D01*
X151848523Y-95611320D01*
X151965569Y-95639806D01*
X152113240Y-95650217D01*
X152272602Y-95639670D01*
X152384838Y-95612359D01*
X152477576Y-95563406D01*
X152542985Y-95496221D01*
X152587863Y-95410081D01*
X152618578Y-95294599D01*
X152633913Y-95165946D01*
X152639583Y-95003461D01*
X152631157Y-94755555D01*
X152616636Y-94597844D01*
X152586460Y-94404212D01*
X152404377Y-94421064D01*
X152414269Y-94687045D01*
X152418421Y-94860579D01*
X152418421Y-95011888D01*
X152412049Y-95152376D01*
X152396073Y-95245628D01*
X152375295Y-95298457D01*
X152345547Y-95337774D01*
X152306436Y-95366040D01*
X152230285Y-95390996D01*
X152107622Y-95401089D01*
X152002305Y-95393865D01*
X151934087Y-95375810D01*
X151879508Y-95343042D01*
X151840298Y-95296064D01*
X151812260Y-95236917D01*
X151788397Y-95157457D01*
X151687646Y-94757020D01*
X151640154Y-94624018D01*
X151578258Y-94528148D01*
X151502877Y-94461609D01*
X151411184Y-94416351D01*
X151295485Y-94386960D01*
X151149946Y-94376246D01*
X150990759Y-94386793D01*
X150879813Y-94413981D01*
X150788637Y-94462787D01*
X150725818Y-94528775D01*
X150683887Y-94612919D01*
X150657308Y-94723437D01*
X150645019Y-94846561D01*
X150640455Y-95003461D01*
G37*
G36*
X151208808Y-96569669D02*
G01*
X151217542Y-96728481D01*
X151241059Y-96851451D01*
X151276134Y-96945450D01*
X151320794Y-97016267D01*
X151381530Y-97075343D01*
X151455301Y-97118199D01*
X151544814Y-97145221D01*
X151653941Y-97154875D01*
X151773113Y-97146641D01*
X151865992Y-97120586D01*
X151938240Y-97079281D01*
X151993083Y-97019805D01*
X152027728Y-96939094D01*
X152040455Y-96830032D01*
X152040455Y-96034899D01*
X151855563Y-96034899D01*
X151855563Y-96768482D01*
X151847581Y-96826096D01*
X151826420Y-96864353D01*
X151792671Y-96888772D01*
X151727272Y-96909677D01*
X151653941Y-96916860D01*
X151569853Y-96905630D01*
X151509376Y-96878961D01*
X151466484Y-96838458D01*
X151438258Y-96784513D01*
X151418269Y-96702117D01*
X151410431Y-96580904D01*
X151422590Y-96441557D01*
X151453906Y-96347041D01*
X151488965Y-96296796D01*
X151538358Y-96256804D01*
X151605092Y-96226630D01*
X151723678Y-96201709D01*
X151906000Y-96191703D01*
X152052542Y-96197562D01*
X152160977Y-96212952D01*
X152239147Y-96235056D01*
X152309655Y-96271122D01*
X152360846Y-96317099D01*
X152395951Y-96373664D01*
X152426291Y-96477532D01*
X152437960Y-96625722D01*
X152428191Y-96865080D01*
X152404377Y-97098821D01*
X152563990Y-97124100D01*
X152586180Y-97055623D01*
X152606000Y-96965831D01*
X152631157Y-96772635D01*
X152639583Y-96594826D01*
X152630510Y-96438800D01*
X152605769Y-96314749D01*
X152568264Y-96216860D01*
X152511487Y-96130801D01*
X152435903Y-96061724D01*
X152338676Y-96008277D01*
X152231003Y-95973855D01*
X152093571Y-95950910D01*
X151920043Y-95942453D01*
X151740612Y-95951047D01*
X151601770Y-95974117D01*
X151495916Y-96008277D01*
X151400469Y-96061519D01*
X151327752Y-96129255D01*
X151274632Y-96212708D01*
X151239828Y-96307459D01*
X151217079Y-96424888D01*
X151208808Y-96569669D01*
G37*
G36*
X151208808Y-98341040D02*
G01*
X151220588Y-98460438D01*
X151252545Y-98550380D01*
X151302144Y-98617838D01*
X151370467Y-98667069D01*
X151462008Y-98698928D01*
X151583965Y-98710702D01*
X152606000Y-98710702D01*
X152606000Y-98472687D01*
X151651254Y-98472687D01*
X151559984Y-98466329D01*
X151499950Y-98450308D01*
X151462210Y-98427868D01*
X151435125Y-98394241D01*
X151417219Y-98345637D01*
X151410431Y-98276682D01*
X151425443Y-98152321D01*
X151472102Y-98024623D01*
X151540977Y-97893656D01*
X151640019Y-97725060D01*
X151469171Y-97713824D01*
X151357630Y-97876043D01*
X151277441Y-98030241D01*
X151238739Y-98136426D01*
X151216196Y-98239692D01*
X151208808Y-98341040D01*
G37*
G36*
X151242392Y-97713824D02*
G01*
X151502755Y-97733486D01*
X151544764Y-97750217D01*
X152606000Y-97750217D01*
X152606000Y-97512202D01*
X151242392Y-97512202D01*
X151242392Y-97713824D01*
G37*
G36*
X151208808Y-99591563D02*
G01*
X151214426Y-99781829D01*
X151228470Y-99982108D01*
X151250818Y-100165534D01*
X151424353Y-100145872D01*
X151414705Y-99886853D01*
X151410431Y-99627956D01*
X151416048Y-99429142D01*
X151432638Y-99363682D01*
X151460867Y-99324117D01*
X151505121Y-99301242D01*
X151583965Y-99291877D01*
X151652969Y-99298825D01*
X151697117Y-99316458D01*
X151724039Y-99342314D01*
X151752924Y-99399701D01*
X151779970Y-99490691D01*
X151869607Y-99888318D01*
X151903039Y-99993607D01*
X151943562Y-100071542D01*
X151990019Y-100127676D01*
X152049093Y-100167975D01*
X152131469Y-100194686D01*
X152244764Y-100204735D01*
X152355518Y-100196460D01*
X152437307Y-100174476D01*
X152496823Y-100141720D01*
X152545109Y-100094328D01*
X152582559Y-100031561D01*
X152608808Y-99949868D01*
X152629007Y-99812422D01*
X152636774Y-99622338D01*
X152631157Y-99405328D01*
X152620385Y-99257909D01*
X152597573Y-99087568D01*
X152424039Y-99104299D01*
X152431000Y-99247181D01*
X152435152Y-99405328D01*
X152435152Y-99574711D01*
X152431165Y-99720289D01*
X152421230Y-99815534D01*
X152398793Y-99893631D01*
X152366642Y-99938755D01*
X152319018Y-99965066D01*
X152244764Y-99975147D01*
X152180705Y-99967456D01*
X152137982Y-99947326D01*
X152110431Y-99916284D01*
X152081107Y-99851809D01*
X152054377Y-99759480D01*
X151964740Y-99367471D01*
X151930518Y-99262611D01*
X151890612Y-99188318D01*
X151837329Y-99130138D01*
X151770200Y-99090255D01*
X151690537Y-99067856D01*
X151583965Y-99059480D01*
X151478452Y-99066864D01*
X151400281Y-99086464D01*
X151343264Y-99115534D01*
X151296298Y-99158223D01*
X151259869Y-99215012D01*
X151234087Y-99289069D01*
X151214457Y-99415068D01*
X151208808Y-99591563D01*
G37*
G36*
X152099309Y-100502154D02*
G01*
X152236784Y-100524143D01*
X152344293Y-100557055D01*
X152441460Y-100608842D01*
X152516495Y-100676532D01*
X152572416Y-100761487D01*
X152609218Y-100858405D01*
X152633492Y-100981111D01*
X152642392Y-101135300D01*
X152633452Y-101291437D01*
X152609142Y-101414941D01*
X152572416Y-101511801D01*
X152516453Y-101596644D01*
X152441425Y-101663829D01*
X152344293Y-101714766D01*
X152236861Y-101746960D01*
X152099382Y-101768491D01*
X151925539Y-101776438D01*
X151751778Y-101768490D01*
X151614382Y-101746959D01*
X151507029Y-101714766D01*
X151409818Y-101663822D01*
X151334753Y-101596635D01*
X151278784Y-101511801D01*
X151242058Y-101414941D01*
X151217748Y-101291437D01*
X151208808Y-101135300D01*
X151410431Y-101135300D01*
X151423259Y-101274600D01*
X151456593Y-101370384D01*
X151493533Y-101421464D01*
X151545250Y-101462426D01*
X151614862Y-101493605D01*
X151737896Y-101519598D01*
X151925539Y-101529997D01*
X152113305Y-101519599D01*
X152236460Y-101493605D01*
X152305992Y-101462433D01*
X152357672Y-101421472D01*
X152394607Y-101370384D01*
X152427941Y-101274600D01*
X152440769Y-101135300D01*
X152427897Y-100996073D01*
X152394607Y-100901438D01*
X152357779Y-100851258D01*
X152306122Y-100810758D01*
X152236460Y-100779683D01*
X152113305Y-100753688D01*
X151925539Y-100743290D01*
X151737896Y-100753689D01*
X151614862Y-100779683D01*
X151545119Y-100810764D01*
X151493426Y-100851265D01*
X151456593Y-100901438D01*
X151423303Y-100996073D01*
X151410431Y-101135300D01*
X151208808Y-101135300D01*
X151217708Y-100981111D01*
X151241982Y-100858405D01*
X151278784Y-100761487D01*
X151334711Y-100676540D01*
X151409783Y-100608849D01*
X151507029Y-100557055D01*
X151614458Y-100524144D01*
X151751851Y-100502154D01*
X151925539Y-100494041D01*
X152099309Y-100502154D01*
G37*
G36*
X151242392Y-102331846D02*
G01*
X151502755Y-102362621D01*
X151544764Y-102384969D01*
X152606000Y-102384969D01*
X152606000Y-102146954D01*
X151242392Y-102146954D01*
X151242392Y-102331846D01*
G37*
G36*
X151208808Y-103000949D02*
G01*
X151432779Y-102972983D01*
X151432779Y-102894581D01*
X151444823Y-102775299D01*
X151481872Y-102653758D01*
X151620357Y-102359812D01*
X151471980Y-102340150D01*
X151360235Y-102494659D01*
X151278784Y-102643988D01*
X151239022Y-102747516D01*
X151216196Y-102845586D01*
X151208808Y-102939400D01*
X151208808Y-103000949D01*
G37*
D11*
X171863571Y-103717319D02*
X171863571Y-102717319D01*
X171292143Y-103717319D02*
X171720714Y-103145890D01*
X171292143Y-102717319D02*
X171863571Y-103288747D01*
X170863571Y-103193509D02*
X170530238Y-103193509D01*
X170387381Y-103717319D02*
X170863571Y-103717319D01*
X170863571Y-103717319D02*
X170863571Y-102717319D01*
X170863571Y-102717319D02*
X170387381Y-102717319D01*
X169958809Y-103193509D02*
X169625476Y-103193509D01*
X169482619Y-103717319D02*
X169958809Y-103717319D01*
X169958809Y-103717319D02*
X169958809Y-102717319D01*
X169958809Y-102717319D02*
X169482619Y-102717319D01*
X169054047Y-103717319D02*
X169054047Y-102717319D01*
X169054047Y-102717319D02*
X168673095Y-102717319D01*
X168673095Y-102717319D02*
X168577857Y-102764938D01*
X168577857Y-102764938D02*
X168530238Y-102812557D01*
X168530238Y-102812557D02*
X168482619Y-102907795D01*
X168482619Y-102907795D02*
X168482619Y-103050652D01*
X168482619Y-103050652D02*
X168530238Y-103145890D01*
X168530238Y-103145890D02*
X168577857Y-103193509D01*
X168577857Y-103193509D02*
X168673095Y-103241128D01*
X168673095Y-103241128D02*
X169054047Y-103241128D01*
X168292143Y-103812557D02*
X167530238Y-103812557D01*
X167339761Y-103431604D02*
X166863571Y-103431604D01*
X167434999Y-103717319D02*
X167101666Y-102717319D01*
X167101666Y-102717319D02*
X166768333Y-103717319D01*
X166530237Y-102717319D02*
X166292142Y-103717319D01*
X166292142Y-103717319D02*
X166101666Y-103003033D01*
X166101666Y-103003033D02*
X165911190Y-103717319D01*
X165911190Y-103717319D02*
X165673095Y-102717319D01*
X165339761Y-103431604D02*
X164863571Y-103431604D01*
X165434999Y-103717319D02*
X165101666Y-102717319D01*
X165101666Y-102717319D02*
X164768333Y-103717319D01*
X164434999Y-103717319D02*
X164434999Y-102717319D01*
X163863571Y-103717319D02*
X164292142Y-103145890D01*
X163863571Y-102717319D02*
X164434999Y-103288747D01*
X163434999Y-103193509D02*
X163101666Y-103193509D01*
X162958809Y-103717319D02*
X163434999Y-103717319D01*
X163434999Y-103717319D02*
X163434999Y-102717319D01*
X163434999Y-102717319D02*
X162958809Y-102717319D01*
D12*
X178429285Y-104865391D02*
X178486428Y-104836820D01*
X178486428Y-104836820D02*
X178514999Y-104808248D01*
X178514999Y-104808248D02*
X178543571Y-104751105D01*
X178543571Y-104751105D02*
X178543571Y-104579677D01*
X178543571Y-104579677D02*
X178514999Y-104522534D01*
X178514999Y-104522534D02*
X178486428Y-104493962D01*
X178486428Y-104493962D02*
X178429285Y-104465391D01*
X178429285Y-104465391D02*
X178343571Y-104465391D01*
X178343571Y-104465391D02*
X178286428Y-104493962D01*
X178286428Y-104493962D02*
X178257857Y-104522534D01*
X178257857Y-104522534D02*
X178229285Y-104579677D01*
X178229285Y-104579677D02*
X178229285Y-104751105D01*
X178229285Y-104751105D02*
X178257857Y-104808248D01*
X178257857Y-104808248D02*
X178286428Y-104836820D01*
X178286428Y-104836820D02*
X178343571Y-104865391D01*
X178343571Y-104865391D02*
X178429285Y-104865391D01*
X177972142Y-104465391D02*
X177972142Y-104865391D01*
X177972142Y-104522534D02*
X177943571Y-104493962D01*
X177943571Y-104493962D02*
X177886428Y-104465391D01*
X177886428Y-104465391D02*
X177800714Y-104465391D01*
X177800714Y-104465391D02*
X177743571Y-104493962D01*
X177743571Y-104493962D02*
X177715000Y-104551105D01*
X177715000Y-104551105D02*
X177715000Y-104865391D01*
D11*
X171944523Y-98717319D02*
X171944523Y-97717319D01*
X171944523Y-97717319D02*
X171563571Y-97717319D01*
X171563571Y-97717319D02*
X171468333Y-97764938D01*
X171468333Y-97764938D02*
X171420714Y-97812557D01*
X171420714Y-97812557D02*
X171373095Y-97907795D01*
X171373095Y-97907795D02*
X171373095Y-98050652D01*
X171373095Y-98050652D02*
X171420714Y-98145890D01*
X171420714Y-98145890D02*
X171468333Y-98193509D01*
X171468333Y-98193509D02*
X171563571Y-98241128D01*
X171563571Y-98241128D02*
X171944523Y-98241128D01*
X170754047Y-97717319D02*
X170563571Y-97717319D01*
X170563571Y-97717319D02*
X170468333Y-97764938D01*
X170468333Y-97764938D02*
X170373095Y-97860176D01*
X170373095Y-97860176D02*
X170325476Y-98050652D01*
X170325476Y-98050652D02*
X170325476Y-98383985D01*
X170325476Y-98383985D02*
X170373095Y-98574461D01*
X170373095Y-98574461D02*
X170468333Y-98669700D01*
X170468333Y-98669700D02*
X170563571Y-98717319D01*
X170563571Y-98717319D02*
X170754047Y-98717319D01*
X170754047Y-98717319D02*
X170849285Y-98669700D01*
X170849285Y-98669700D02*
X170944523Y-98574461D01*
X170944523Y-98574461D02*
X170992142Y-98383985D01*
X170992142Y-98383985D02*
X170992142Y-98050652D01*
X170992142Y-98050652D02*
X170944523Y-97860176D01*
X170944523Y-97860176D02*
X170849285Y-97764938D01*
X170849285Y-97764938D02*
X170754047Y-97717319D01*
X169992142Y-97717319D02*
X169754047Y-98717319D01*
X169754047Y-98717319D02*
X169563571Y-98003033D01*
X169563571Y-98003033D02*
X169373095Y-98717319D01*
X169373095Y-98717319D02*
X169135000Y-97717319D01*
X168754047Y-98193509D02*
X168420714Y-98193509D01*
X168277857Y-98717319D02*
X168754047Y-98717319D01*
X168754047Y-98717319D02*
X168754047Y-97717319D01*
X168754047Y-97717319D02*
X168277857Y-97717319D01*
X167277857Y-98717319D02*
X167611190Y-98241128D01*
X167849285Y-98717319D02*
X167849285Y-97717319D01*
X167849285Y-97717319D02*
X167468333Y-97717319D01*
X167468333Y-97717319D02*
X167373095Y-97764938D01*
X167373095Y-97764938D02*
X167325476Y-97812557D01*
X167325476Y-97812557D02*
X167277857Y-97907795D01*
X167277857Y-97907795D02*
X167277857Y-98050652D01*
X167277857Y-98050652D02*
X167325476Y-98145890D01*
X167325476Y-98145890D02*
X167373095Y-98193509D01*
X167373095Y-98193509D02*
X167468333Y-98241128D01*
X167468333Y-98241128D02*
X167849285Y-98241128D01*
D12*
X178429285Y-99865391D02*
X178486428Y-99836820D01*
X178486428Y-99836820D02*
X178514999Y-99808248D01*
X178514999Y-99808248D02*
X178543571Y-99751105D01*
X178543571Y-99751105D02*
X178543571Y-99579677D01*
X178543571Y-99579677D02*
X178514999Y-99522534D01*
X178514999Y-99522534D02*
X178486428Y-99493962D01*
X178486428Y-99493962D02*
X178429285Y-99465391D01*
X178429285Y-99465391D02*
X178343571Y-99465391D01*
X178343571Y-99465391D02*
X178286428Y-99493962D01*
X178286428Y-99493962D02*
X178257857Y-99522534D01*
X178257857Y-99522534D02*
X178229285Y-99579677D01*
X178229285Y-99579677D02*
X178229285Y-99751105D01*
X178229285Y-99751105D02*
X178257857Y-99808248D01*
X178257857Y-99808248D02*
X178286428Y-99836820D01*
X178286428Y-99836820D02*
X178343571Y-99865391D01*
X178343571Y-99865391D02*
X178429285Y-99865391D01*
X177972142Y-99465391D02*
X177972142Y-99865391D01*
X177972142Y-99522534D02*
X177943571Y-99493962D01*
X177943571Y-99493962D02*
X177886428Y-99465391D01*
X177886428Y-99465391D02*
X177800714Y-99465391D01*
X177800714Y-99465391D02*
X177743571Y-99493962D01*
X177743571Y-99493962D02*
X177715000Y-99551105D01*
X177715000Y-99551105D02*
X177715000Y-99865391D01*
D10*
X158175419Y-60198095D02*
X158984942Y-60198095D01*
X158984942Y-60198095D02*
X159080180Y-60245714D01*
X159080180Y-60245714D02*
X159127800Y-60293333D01*
X159127800Y-60293333D02*
X159175419Y-60388571D01*
X159175419Y-60388571D02*
X159175419Y-60579047D01*
X159175419Y-60579047D02*
X159127800Y-60674285D01*
X159127800Y-60674285D02*
X159080180Y-60721904D01*
X159080180Y-60721904D02*
X158984942Y-60769523D01*
X158984942Y-60769523D02*
X158175419Y-60769523D01*
X158508752Y-61674285D02*
X159175419Y-61674285D01*
X158127800Y-61436190D02*
X158842085Y-61198095D01*
X158842085Y-61198095D02*
X158842085Y-61817142D01*
D11*
X160649200Y-59975905D02*
X160696819Y-60118762D01*
X160696819Y-60118762D02*
X160696819Y-60356857D01*
X160696819Y-60356857D02*
X160649200Y-60452095D01*
X160649200Y-60452095D02*
X160601580Y-60499714D01*
X160601580Y-60499714D02*
X160506342Y-60547333D01*
X160506342Y-60547333D02*
X160411104Y-60547333D01*
X160411104Y-60547333D02*
X160315866Y-60499714D01*
X160315866Y-60499714D02*
X160268247Y-60452095D01*
X160268247Y-60452095D02*
X160220628Y-60356857D01*
X160220628Y-60356857D02*
X160173009Y-60166381D01*
X160173009Y-60166381D02*
X160125390Y-60071143D01*
X160125390Y-60071143D02*
X160077771Y-60023524D01*
X160077771Y-60023524D02*
X159982533Y-59975905D01*
X159982533Y-59975905D02*
X159887295Y-59975905D01*
X159887295Y-59975905D02*
X159792057Y-60023524D01*
X159792057Y-60023524D02*
X159744438Y-60071143D01*
X159744438Y-60071143D02*
X159696819Y-60166381D01*
X159696819Y-60166381D02*
X159696819Y-60404476D01*
X159696819Y-60404476D02*
X159744438Y-60547333D01*
X159696819Y-61166381D02*
X159696819Y-61261619D01*
X159696819Y-61261619D02*
X159744438Y-61356857D01*
X159744438Y-61356857D02*
X159792057Y-61404476D01*
X159792057Y-61404476D02*
X159887295Y-61452095D01*
X159887295Y-61452095D02*
X160077771Y-61499714D01*
X160077771Y-61499714D02*
X160315866Y-61499714D01*
X160315866Y-61499714D02*
X160506342Y-61452095D01*
X160506342Y-61452095D02*
X160601580Y-61404476D01*
X160601580Y-61404476D02*
X160649200Y-61356857D01*
X160649200Y-61356857D02*
X160696819Y-61261619D01*
X160696819Y-61261619D02*
X160696819Y-61166381D01*
X160696819Y-61166381D02*
X160649200Y-61071143D01*
X160649200Y-61071143D02*
X160601580Y-61023524D01*
X160601580Y-61023524D02*
X160506342Y-60975905D01*
X160506342Y-60975905D02*
X160315866Y-60928286D01*
X160315866Y-60928286D02*
X160077771Y-60928286D01*
X160077771Y-60928286D02*
X159887295Y-60975905D01*
X159887295Y-60975905D02*
X159792057Y-61023524D01*
X159792057Y-61023524D02*
X159744438Y-61071143D01*
X159744438Y-61071143D02*
X159696819Y-61166381D01*
X160696819Y-61975905D02*
X160696819Y-62166381D01*
X160696819Y-62166381D02*
X160649200Y-62261619D01*
X160649200Y-62261619D02*
X160601580Y-62309238D01*
X160601580Y-62309238D02*
X160458723Y-62404476D01*
X160458723Y-62404476D02*
X160268247Y-62452095D01*
X160268247Y-62452095D02*
X159887295Y-62452095D01*
X159887295Y-62452095D02*
X159792057Y-62404476D01*
X159792057Y-62404476D02*
X159744438Y-62356857D01*
X159744438Y-62356857D02*
X159696819Y-62261619D01*
X159696819Y-62261619D02*
X159696819Y-62071143D01*
X159696819Y-62071143D02*
X159744438Y-61975905D01*
X159744438Y-61975905D02*
X159792057Y-61928286D01*
X159792057Y-61928286D02*
X159887295Y-61880667D01*
X159887295Y-61880667D02*
X160125390Y-61880667D01*
X160125390Y-61880667D02*
X160220628Y-61928286D01*
X160220628Y-61928286D02*
X160268247Y-61975905D01*
X160268247Y-61975905D02*
X160315866Y-62071143D01*
X160315866Y-62071143D02*
X160315866Y-62261619D01*
X160315866Y-62261619D02*
X160268247Y-62356857D01*
X160268247Y-62356857D02*
X160220628Y-62404476D01*
X160220628Y-62404476D02*
X160125390Y-62452095D01*
D10*
X169097419Y-81407095D02*
X169906942Y-81407095D01*
X169906942Y-81407095D02*
X170002180Y-81454714D01*
X170002180Y-81454714D02*
X170049800Y-81502333D01*
X170049800Y-81502333D02*
X170097419Y-81597571D01*
X170097419Y-81597571D02*
X170097419Y-81788047D01*
X170097419Y-81788047D02*
X170049800Y-81883285D01*
X170049800Y-81883285D02*
X170002180Y-81930904D01*
X170002180Y-81930904D02*
X169906942Y-81978523D01*
X169906942Y-81978523D02*
X169097419Y-81978523D01*
X169097419Y-82359476D02*
X169097419Y-82978523D01*
X169097419Y-82978523D02*
X169478371Y-82645190D01*
X169478371Y-82645190D02*
X169478371Y-82788047D01*
X169478371Y-82788047D02*
X169525990Y-82883285D01*
X169525990Y-82883285D02*
X169573609Y-82930904D01*
X169573609Y-82930904D02*
X169668847Y-82978523D01*
X169668847Y-82978523D02*
X169906942Y-82978523D01*
X169906942Y-82978523D02*
X170002180Y-82930904D01*
X170002180Y-82930904D02*
X170049800Y-82883285D01*
X170049800Y-82883285D02*
X170097419Y-82788047D01*
X170097419Y-82788047D02*
X170097419Y-82502333D01*
X170097419Y-82502333D02*
X170049800Y-82407095D01*
X170049800Y-82407095D02*
X170002180Y-82359476D01*
D11*
X170491819Y-81232762D02*
X171491819Y-81566095D01*
X171491819Y-81566095D02*
X170491819Y-81899428D01*
X171491819Y-82708952D02*
X171491819Y-82232762D01*
X171491819Y-82232762D02*
X170491819Y-82232762D01*
X170491819Y-83518476D02*
X170491819Y-83042286D01*
X170491819Y-83042286D02*
X170968009Y-82994667D01*
X170968009Y-82994667D02*
X170920390Y-83042286D01*
X170920390Y-83042286D02*
X170872771Y-83137524D01*
X170872771Y-83137524D02*
X170872771Y-83375619D01*
X170872771Y-83375619D02*
X170920390Y-83470857D01*
X170920390Y-83470857D02*
X170968009Y-83518476D01*
X170968009Y-83518476D02*
X171063247Y-83566095D01*
X171063247Y-83566095D02*
X171301342Y-83566095D01*
X171301342Y-83566095D02*
X171396580Y-83518476D01*
X171396580Y-83518476D02*
X171444200Y-83470857D01*
X171444200Y-83470857D02*
X171491819Y-83375619D01*
X171491819Y-83375619D02*
X171491819Y-83137524D01*
X171491819Y-83137524D02*
X171444200Y-83042286D01*
X171444200Y-83042286D02*
X171396580Y-82994667D01*
X170491819Y-83899429D02*
X170491819Y-84518476D01*
X170491819Y-84518476D02*
X170872771Y-84185143D01*
X170872771Y-84185143D02*
X170872771Y-84328000D01*
X170872771Y-84328000D02*
X170920390Y-84423238D01*
X170920390Y-84423238D02*
X170968009Y-84470857D01*
X170968009Y-84470857D02*
X171063247Y-84518476D01*
X171063247Y-84518476D02*
X171301342Y-84518476D01*
X171301342Y-84518476D02*
X171396580Y-84470857D01*
X171396580Y-84470857D02*
X171444200Y-84423238D01*
X171444200Y-84423238D02*
X171491819Y-84328000D01*
X171491819Y-84328000D02*
X171491819Y-84042286D01*
X171491819Y-84042286D02*
X171444200Y-83947048D01*
X171444200Y-83947048D02*
X171396580Y-83899429D01*
X171491819Y-85423238D02*
X171491819Y-84947048D01*
X171491819Y-84947048D02*
X170491819Y-84947048D01*
X171491819Y-85756572D02*
X170491819Y-85756572D01*
X170491819Y-85756572D02*
X170491819Y-85994667D01*
X170491819Y-85994667D02*
X170539438Y-86137524D01*
X170539438Y-86137524D02*
X170634676Y-86232762D01*
X170634676Y-86232762D02*
X170729914Y-86280381D01*
X170729914Y-86280381D02*
X170920390Y-86328000D01*
X170920390Y-86328000D02*
X171063247Y-86328000D01*
X171063247Y-86328000D02*
X171253723Y-86280381D01*
X171253723Y-86280381D02*
X171348961Y-86232762D01*
X171348961Y-86232762D02*
X171444200Y-86137524D01*
X171444200Y-86137524D02*
X171491819Y-85994667D01*
X171491819Y-85994667D02*
X171491819Y-85756572D01*
X171491819Y-86756572D02*
X170491819Y-86756572D01*
X171491819Y-87328000D02*
X170920390Y-86899429D01*
X170491819Y-87328000D02*
X171063247Y-86756572D01*
D13*
%TO.C,JP1*%
X173790000Y-105600000D02*
X173790000Y-104290000D01*
X173790000Y-105600000D02*
X175173000Y-105600000D01*
X174030000Y-101140000D02*
X180850000Y-101140000D01*
X174030000Y-102210000D02*
X174030000Y-101140000D01*
X174030000Y-105360000D02*
X174030000Y-104290000D01*
X174030000Y-105360000D02*
X180850000Y-105360000D01*
X176836667Y-103885000D02*
X176836667Y-102615000D01*
X180850000Y-102290000D02*
X180850000Y-101140000D01*
X180850000Y-105360000D02*
X180850000Y-104210000D01*
X175630000Y-103885000D02*
X176836667Y-103885000D01*
X176836667Y-102615000D01*
X175630000Y-102615000D01*
X175630000Y-103885000D01*
G36*
X175630000Y-103885000D02*
G01*
X176836667Y-103885000D01*
X176836667Y-102615000D01*
X175630000Y-102615000D01*
X175630000Y-103885000D01*
G37*
X175630000Y-103885000D02*
X179250000Y-103885000D01*
X179250000Y-102615000D01*
X175630000Y-102615000D01*
X175630000Y-103885000D01*
%TO.C,JP2*%
X173790000Y-100600000D02*
X173790000Y-99290000D01*
X173790000Y-100600000D02*
X175173000Y-100600000D01*
X174030000Y-96140000D02*
X180850000Y-96140000D01*
X174030000Y-97210000D02*
X174030000Y-96140000D01*
X174030000Y-100360000D02*
X174030000Y-99290000D01*
X174030000Y-100360000D02*
X180850000Y-100360000D01*
X176836667Y-98885000D02*
X176836667Y-97615000D01*
X180850000Y-97290000D02*
X180850000Y-96140000D01*
X180850000Y-100360000D02*
X180850000Y-99210000D01*
X175630000Y-98885000D02*
X176836667Y-98885000D01*
X176836667Y-97615000D01*
X175630000Y-97615000D01*
X175630000Y-98885000D01*
G36*
X175630000Y-98885000D02*
G01*
X176836667Y-98885000D01*
X176836667Y-97615000D01*
X175630000Y-97615000D01*
X175630000Y-98885000D01*
G37*
X175630000Y-98885000D02*
X179250000Y-98885000D01*
X179250000Y-97615000D01*
X175630000Y-97615000D01*
X175630000Y-98885000D01*
%TO.C,U4*%
D10*
X181598000Y-73533000D02*
X161238000Y-73533000D01*
X161238000Y-59563000D01*
X181598000Y-59563000D01*
X181598000Y-73533000D01*
%TO.C,U3*%
X182213000Y-93853000D02*
X172053000Y-93853000D01*
X172053000Y-81153000D01*
X182213000Y-81153000D01*
X182213000Y-93853000D01*
X181469051Y-84219051D02*
G75*
G02*
X177876949Y-84219051I-1796051J0D01*
G01*
X177876949Y-84219051D02*
G75*
G02*
X181469051Y-84219051I1796051J0D01*
G01*
%TD*%
M02*
