M48
; DRILL file {KiCad 9.0.7+1} date 2026-03-19T20:22:30+0800
; FORMAT={-:-/ absolute / metric / decimal}
; #@! TF.CreationDate,2026-03-19T20:22:30+08:00
; #@! TF.GenerationSoftware,Kicad,Pcbnew,9.0.7+1
; #@! TF.FileFunction,Plated,1,2,PTH
FMAT,2
METRIC
; #@! TA.AperFunction,Plated,PTH,ViaDrill
T1C0.300
; #@! TA.AperFunction,Plated,PTH,ComponentDrill
T2C0.800
; #@! TA.AperFunction,Plated,PTH,ComponentDrill
T3C1.570
; #@! TA.AperFunction,Plated,PTH,ComponentDrill
T4C3.200
%
G90
G05
T1
X163.0Y-103.0
X163.0Y-104.0
X163.0Y-105.0
X164.0Y-102.0
X164.0Y-103.0
X164.0Y-104.0
X164.0Y-105.0
X165.0Y-101.0
X165.0Y-102.0
X165.0Y-103.0
X165.0Y-104.0
X165.0Y-105.0
X166.0Y-100.0
X166.0Y-101.0
X166.0Y-102.0
X166.0Y-103.0
X166.0Y-104.0
X166.0Y-105.0
X167.0Y-99.0
X167.0Y-100.0
X167.0Y-101.0
X167.0Y-102.0
X167.0Y-103.0
X167.0Y-104.0
X167.0Y-105.0
X168.0Y-98.0
X168.0Y-99.0
X168.0Y-100.0
X168.0Y-101.0
X168.0Y-102.0
X168.0Y-103.0
X168.0Y-104.0
X168.0Y-105.0
X168.0Y-108.0
X168.0Y-109.0
X168.0Y-110.0
X168.0Y-111.0
X168.0Y-112.0
X168.0Y-113.0
X169.0Y-97.0
X169.0Y-98.0
X169.0Y-99.0
X169.0Y-100.0
X169.0Y-101.0
X169.0Y-102.0
X169.0Y-103.0
X169.0Y-104.0
X169.0Y-105.0
X169.0Y-108.0
X169.0Y-109.0
X169.0Y-110.0
X169.0Y-111.0
X169.0Y-112.0
X169.0Y-113.0
X170.0Y-101.0
X170.0Y-102.0
X170.0Y-103.0
X170.0Y-104.0
X170.0Y-105.0
X170.0Y-108.0
X170.0Y-109.0
X170.0Y-110.0
X170.0Y-111.0
X170.0Y-112.0
X170.0Y-113.0
X171.0Y-102.0
X171.0Y-103.0
X171.0Y-104.0
X171.0Y-105.0
X171.0Y-108.0
X171.0Y-109.0
X171.0Y-110.0
X171.0Y-111.0
X171.0Y-112.0
X172.0Y-108.0
X172.0Y-109.0
X172.0Y-110.0
X172.0Y-111.0
X173.0Y-95.0
X173.0Y-108.0
X173.0Y-109.0
X173.0Y-110.0
X174.0Y-95.0
X175.0Y-95.0
X176.0Y-95.0
T2
X165.0Y-52.5
X165.0Y-75.36
X167.54Y-75.36
X173.323Y-82.423
X173.323Y-92.583
X173.63Y-98.25
X173.63Y-103.25
X175.16Y-75.36
X175.863Y-82.423
X175.863Y-92.583
X177.7Y-52.5
X177.7Y-75.36
X178.403Y-92.583
X180.943Y-92.583
X181.25Y-98.25
X181.25Y-103.25
T3
X151.5Y-53.55
X151.5Y-126.45
T4
X166.5Y-85.0
M30
