%TF.GenerationSoftware,KiCad,Pcbnew,9.0.7+1*%
%TF.CreationDate,2026-03-19T20:22:32+08:00*%
%TF.ProjectId,ContainerLevelSensor,436f6e74-6169-46e6-9572-4c6576656c53,v1.1*%
%TF.SameCoordinates,Original*%
%TF.FileFunction,Copper,L1,Top*%
%TF.FilePolarity,Positive*%
%FSLAX46Y46*%
G04 Gerber Fmt 4.6, Leading zero omitted, Abs format (unit mm)*
G04 Created by KiCad (PCBNEW 9.0.7+1) date 2026-03-19 20:22:32*
%MOMM*%
%LPD*%
G01*
G04 APERTURE LIST*
G04 Aperture macros list*
%AMRoundRect*
0 Rectangle with rounded corners*
0 $1 Rounding radius*
0 $2 $3 $4 $5 $6 $7 $8 $9 X,Y pos of 4 corners*
0 Add a 4 corners polygon primitive as box body*
4,1,4,$2,$3,$4,$5,$6,$7,$8,$9,$2,$3,0*
0 Add four circle primitives for the rounded corners*
1,1,$1+$1,$2,$3*
1,1,$1+$1,$4,$5*
1,1,$1+$1,$6,$7*
1,1,$1+$1,$8,$9*
0 Add four rect primitives between the rounded corners*
20,1,$1+$1,$2,$3,$4,$5,0*
20,1,$1+$1,$4,$5,$6,$7,0*
20,1,$1+$1,$6,$7,$8,$9,0*
20,1,$1+$1,$8,$9,$2,$3,0*%
G04 Aperture macros list end*
%TA.AperFunction,ComponentPad*%
%ADD10RoundRect,0.249999X1.250001X-1.250001X1.250001X1.250001X-1.250001X1.250001X-1.250001X-1.250001X0*%
%TD*%
%TA.AperFunction,ComponentPad*%
%ADD11C,3.000000*%
%TD*%
%TA.AperFunction,ComponentPad*%
%ADD12C,5.600000*%
%TD*%
%TA.AperFunction,ConnectorPad*%
%ADD13RoundRect,0.438596X-1.061404X0.561404X-1.061404X-0.561404X1.061404X-0.561404X1.061404X0.561404X0*%
%TD*%
%TA.AperFunction,ConnectorPad*%
%ADD14RoundRect,0.438596X1.061404X-0.561404X1.061404X0.561404X-1.061404X0.561404X-1.061404X-0.561404X0*%
%TD*%
%TA.AperFunction,ComponentPad*%
%ADD15RoundRect,0.300000X0.700000X0.970000X-0.700000X0.970000X-0.700000X-0.970000X0.700000X-0.970000X0*%
%TD*%
%TA.AperFunction,ComponentPad*%
%ADD16RoundRect,0.250000X0.750000X1.020000X-0.750000X1.020000X-0.750000X-1.020000X0.750000X-1.020000X0*%
%TD*%
%TA.AperFunction,ComponentPad*%
%ADD17RoundRect,0.250000X-0.550000X-0.550000X0.550000X-0.550000X0.550000X0.550000X-0.550000X0.550000X0*%
%TD*%
%TA.AperFunction,ComponentPad*%
%ADD18C,1.600000*%
%TD*%
%TA.AperFunction,ViaPad*%
%ADD19C,0.600000*%
%TD*%
%TA.AperFunction,Conductor*%
%ADD20C,1.000000*%
%TD*%
G04 APERTURE END LIST*
D10*
%TO.P,BT1,1,+*%
%TO.N,Net-(BT1-+)*%
X151500000Y-126450000D03*
D11*
%TO.P,BT1,2,-*%
%TO.N,Net-(BT1--)*%
X151500000Y-53550000D03*
%TD*%
D12*
%TO.P,H1,1,1*%
%TO.N,GND*%
X166500000Y-85000000D03*
%TD*%
D13*
%TO.P,U2,1,GPIO0*%
%TO.N,unconnected-(U2-GPIO0-Pad1)*%
X164750000Y-109500000D03*
%TO.P,U2,2,GPIO1*%
%TO.N,unconnected-(U2-GPIO1-Pad2)*%
X164750000Y-112040000D03*
%TO.P,U2,3,GPIO2*%
%TO.N,unconnected-(U2-GPIO2-Pad3)*%
X164750000Y-114580000D03*
%TO.P,U2,4,GPIO3*%
%TO.N,Net-(JP1-A)*%
X164750000Y-117120000D03*
%TO.P,U2,5,GPIO4*%
%TO.N,Net-(U2-GPIO4)*%
X164750000Y-119660000D03*
%TO.P,U2,6,3V3*%
%TO.N,+3.3V*%
X164750000Y-122200000D03*
%TO.P,U2,7,GND*%
%TO.N,GND*%
X164750000Y-124740000D03*
%TO.P,U2,8,5V*%
%TO.N,unconnected-(U2-5V-Pad8)*%
X164750000Y-127280000D03*
D14*
%TO.P,U2,9,GPIO5*%
%TO.N,Net-(U2-GPIO5)*%
X181490000Y-127280000D03*
%TO.P,U2,10,GPIO6*%
%TO.N,unconnected-(U2-GPIO6-Pad10)*%
X181490000Y-124740000D03*
%TO.P,U2,11,GPIO7*%
%TO.N,unconnected-(U2-GPIO7-Pad11)*%
X181490000Y-122200000D03*
%TO.P,U2,12,GPIO8*%
%TO.N,unconnected-(U2-GPIO8-Pad12)*%
X181490000Y-119660000D03*
%TO.P,U2,13,GPIO9*%
%TO.N,unconnected-(U2-GPIO9-Pad13)*%
X181490000Y-117120000D03*
%TO.P,U2,14,GPIO10*%
%TO.N,unconnected-(U2-GPIO10-Pad14)*%
X181490000Y-114580000D03*
%TO.P,U2,15,GPIO20*%
%TO.N,unconnected-(U2-GPIO20-Pad15)*%
X181490000Y-112040000D03*
%TO.P,U2,16,GPIO21*%
%TO.N,unconnected-(U2-GPIO21-Pad16)*%
X181490000Y-109500000D03*
%TD*%
D15*
%TO.P,U1,1,OUT+*%
%TO.N,Net-(U1-OUT+)*%
X177700000Y-75360000D03*
%TO.P,U1,2,B+*%
%TO.N,Net-(BT1-+)*%
X175160000Y-75360000D03*
D16*
%TO.P,U1,3,B-*%
%TO.N,Net-(BT1--)*%
X167540000Y-75360000D03*
D15*
%TO.P,U1,4,OUT-*%
%TO.N,GND*%
X165000000Y-75360000D03*
%TO.P,U1,5,IN+*%
%TO.N,unconnected-(U1-IN+-Pad5)*%
X177700000Y-52500000D03*
%TO.P,U1,6,IN-*%
%TO.N,unconnected-(U1-IN--Pad6)*%
X165000000Y-52500000D03*
%TD*%
D17*
%TO.P,JP1,1,A*%
%TO.N,Net-(JP1-A)*%
X173630000Y-103250000D03*
D18*
%TO.P,JP1,2,B*%
%TO.N,GND*%
X181250000Y-103250000D03*
%TD*%
D17*
%TO.P,JP2,1,A*%
%TO.N,+3.3V*%
X173630000Y-98250000D03*
D18*
%TO.P,JP2,2,B*%
%TO.N,Net-(JP2-B)*%
X181250000Y-98250000D03*
%TD*%
%TO.P,U3,1,VIN*%
%TO.N,+3.3V*%
X180943000Y-92583000D03*
%TO.P,U3,2,GND*%
%TO.N,GND*%
X178403000Y-92583000D03*
%TO.P,U3,3,SCL*%
%TO.N,Net-(U2-GPIO5)*%
X175863000Y-92583000D03*
%TO.P,U3,4,SDA*%
%TO.N,Net-(U2-GPIO4)*%
X173323000Y-92583000D03*
%TO.P,U3,5,G*%
%TO.N,unconnected-(U3-G-Pad5)*%
X173323000Y-82423000D03*
%TO.P,U3,6,X*%
%TO.N,unconnected-(U3-X-Pad6)*%
X175863000Y-82423000D03*
%TD*%
D19*
%TO.N,GND*%
X164000000Y-104000000D03*
X168000000Y-112000000D03*
X170000000Y-104000000D03*
X165000000Y-104000000D03*
X169000000Y-98000000D03*
X169000000Y-104000000D03*
X171000000Y-109000000D03*
X163000000Y-104000000D03*
X169000000Y-101000000D03*
X167000000Y-99000000D03*
X167000000Y-104000000D03*
X167000000Y-100000000D03*
X171000000Y-105000000D03*
X169000000Y-112000000D03*
X168000000Y-111000000D03*
X169000000Y-105000000D03*
X174000000Y-95000000D03*
X173000000Y-110000000D03*
X165000000Y-103000000D03*
X171000000Y-112000000D03*
X176000000Y-95000000D03*
X173000000Y-109000000D03*
X168000000Y-101000000D03*
X168000000Y-109000000D03*
X172000000Y-108000000D03*
X170000000Y-103000000D03*
X166000000Y-105000000D03*
X168000000Y-98000000D03*
X172000000Y-110000000D03*
X164000000Y-103000000D03*
X166000000Y-101000000D03*
X169000000Y-103000000D03*
X167000000Y-101000000D03*
X168000000Y-103000000D03*
X170000000Y-110000000D03*
X170000000Y-113000000D03*
X168000000Y-108000000D03*
X166000000Y-104000000D03*
X164000000Y-102000000D03*
X172000000Y-109000000D03*
X170000000Y-102000000D03*
X169000000Y-110000000D03*
X175000000Y-95000000D03*
X168000000Y-99000000D03*
X170000000Y-112000000D03*
X167000000Y-105000000D03*
X166000000Y-100000000D03*
X163000000Y-103000000D03*
X169000000Y-100000000D03*
X165000000Y-102000000D03*
X166000000Y-102000000D03*
X169000000Y-111000000D03*
X170000000Y-105000000D03*
X171000000Y-103000000D03*
X173000000Y-108000000D03*
X168000000Y-110000000D03*
X169000000Y-108000000D03*
X170000000Y-109000000D03*
X169000000Y-99000000D03*
X171000000Y-102000000D03*
X170000000Y-108000000D03*
X168000000Y-102000000D03*
X165000000Y-105000000D03*
X165000000Y-101000000D03*
X169000000Y-109000000D03*
X167000000Y-102000000D03*
X167000000Y-103000000D03*
X172000000Y-111000000D03*
X173000000Y-95000000D03*
X169000000Y-113000000D03*
X168000000Y-113000000D03*
X168000000Y-104000000D03*
X169000000Y-102000000D03*
X171000000Y-110000000D03*
X169000000Y-97000000D03*
X164000000Y-105000000D03*
X168000000Y-100000000D03*
X166000000Y-103000000D03*
X170000000Y-111000000D03*
X168000000Y-105000000D03*
X163000000Y-105000000D03*
X171000000Y-104000000D03*
X171000000Y-108000000D03*
X170000000Y-101000000D03*
X171000000Y-111000000D03*
%TD*%
D20*
%TO.N,Net-(BT1-+)*%
X175160000Y-75360000D02*
X175160000Y-75590000D01*
X175160000Y-75590000D02*
X171750000Y-79000000D01*
X171750000Y-79000000D02*
X163500000Y-79000000D01*
X159500000Y-83000000D02*
X159500000Y-118450000D01*
X163500000Y-79000000D02*
X159500000Y-83000000D01*
X159500000Y-118450000D02*
X151500000Y-126450000D01*
%TO.N,Net-(U2-GPIO4)*%
X173323000Y-92583000D02*
X170417000Y-92583000D01*
X170417000Y-92583000D02*
X161000000Y-102000000D01*
X161000000Y-118500000D02*
X162160000Y-119660000D01*
X161000000Y-102000000D02*
X161000000Y-118500000D01*
X162160000Y-119660000D02*
X165500000Y-119660000D01*
%TO.N,Net-(JP1-A)*%
X165500000Y-117120000D02*
X169880000Y-117120000D01*
X175500000Y-111500000D02*
X175500000Y-105120000D01*
X169880000Y-117120000D02*
X175500000Y-111500000D01*
X175500000Y-105120000D02*
X173630000Y-103250000D01*
%TO.N,+3.3V*%
X177000000Y-101620000D02*
X177000000Y-112000000D01*
X173630000Y-98250000D02*
X177000000Y-101620000D01*
X177000000Y-112000000D02*
X166800000Y-122200000D01*
X166800000Y-122200000D02*
X165500000Y-122200000D01*
%TO.N,Net-(U2-GPIO5)*%
X175863000Y-92583000D02*
X178500000Y-95220000D01*
X178500000Y-95220000D02*
X178500000Y-125040000D01*
X178500000Y-125040000D02*
X180740000Y-127280000D01*
%TO.N,Net-(BT1--)*%
X167540000Y-69590000D02*
X167540000Y-75360000D01*
X151500000Y-53550000D02*
X167540000Y-69590000D01*
%TD*%
%TA.AperFunction,Conductor*%
%TO.N,GND*%
G36*
X164156864Y-50520185D02*
G01*
X164202619Y-50572989D01*
X164212563Y-50642147D01*
X164183538Y-50705703D01*
X164127175Y-50741924D01*
X164127318Y-50742332D01*
X164125613Y-50742928D01*
X164124760Y-50743477D01*
X164121961Y-50744206D01*
X163950476Y-50804211D01*
X163797737Y-50900184D01*
X163670184Y-51027737D01*
X163574211Y-51180476D01*
X163514631Y-51350745D01*
X163514630Y-51350750D01*
X163499500Y-51485039D01*
X163499500Y-53514960D01*
X163514630Y-53649249D01*
X163514631Y-53649254D01*
X163574211Y-53819523D01*
X163650611Y-53941112D01*
X163670184Y-53972262D01*
X163797738Y-54099816D01*
X163888080Y-54156582D01*
X163948297Y-54194419D01*
X163950478Y-54195789D01*
X164120745Y-54255368D01*
X164120750Y-54255369D01*
X164211246Y-54265565D01*
X164255040Y-54270499D01*
X164255043Y-54270500D01*
X164255046Y-54270500D01*
X165744957Y-54270500D01*
X165744958Y-54270499D01*
X165812104Y-54262934D01*
X165879249Y-54255369D01*
X165879252Y-54255368D01*
X165879255Y-54255368D01*
X166049522Y-54195789D01*
X166202262Y-54099816D01*
X166329816Y-53972262D01*
X166425789Y-53819522D01*
X166485368Y-53649255D01*
X166500500Y-53514954D01*
X166500500Y-51485046D01*
X166485368Y-51350745D01*
X166425789Y-51180478D01*
X166329816Y-51027738D01*
X166202262Y-50900184D01*
X166049523Y-50804211D01*
X165872682Y-50742332D01*
X165873407Y-50740257D01*
X165821608Y-50711287D01*
X165788747Y-50649627D01*
X165794439Y-50579989D01*
X165836876Y-50524484D01*
X165902585Y-50500733D01*
X165910175Y-50500500D01*
X176789825Y-50500500D01*
X176856864Y-50520185D01*
X176902619Y-50572989D01*
X176912563Y-50642147D01*
X176883538Y-50705703D01*
X176827175Y-50741924D01*
X176827318Y-50742332D01*
X176825613Y-50742928D01*
X176824760Y-50743477D01*
X176821961Y-50744206D01*
X176650476Y-50804211D01*
X176497737Y-50900184D01*
X176370184Y-51027737D01*
X176274211Y-51180476D01*
X176214631Y-51350745D01*
X176214630Y-51350750D01*
X176199500Y-51485039D01*
X176199500Y-53514960D01*
X176214630Y-53649249D01*
X176214631Y-53649254D01*
X176274211Y-53819523D01*
X176350611Y-53941112D01*
X176370184Y-53972262D01*
X176497738Y-54099816D01*
X176588080Y-54156582D01*
X176648297Y-54194419D01*
X176650478Y-54195789D01*
X176820745Y-54255368D01*
X176820750Y-54255369D01*
X176911246Y-54265565D01*
X176955040Y-54270499D01*
X176955043Y-54270500D01*
X176955046Y-54270500D01*
X178444957Y-54270500D01*
X178444958Y-54270499D01*
X178512104Y-54262934D01*
X178579249Y-54255369D01*
X178579252Y-54255368D01*
X178579255Y-54255368D01*
X178749522Y-54195789D01*
X178902262Y-54099816D01*
X179029816Y-53972262D01*
X179125789Y-53819522D01*
X179185368Y-53649255D01*
X179200500Y-53514954D01*
X179200500Y-51485046D01*
X179185368Y-51350745D01*
X179125789Y-51180478D01*
X179029816Y-51027738D01*
X178902262Y-50900184D01*
X178749523Y-50804211D01*
X178572682Y-50742332D01*
X178573407Y-50740257D01*
X178521608Y-50711287D01*
X178488747Y-50649627D01*
X178494439Y-50579989D01*
X178536876Y-50524484D01*
X178602585Y-50500733D01*
X178610175Y-50500500D01*
X183363504Y-50500500D01*
X183430543Y-50520185D01*
X183476298Y-50572989D01*
X183487504Y-50624433D01*
X183499500Y-72805212D01*
X183499500Y-108266992D01*
X183479815Y-108334031D01*
X183427011Y-108379786D01*
X183357853Y-108389730D01*
X183294297Y-108360705D01*
X183279135Y-108345029D01*
X183219103Y-108270897D01*
X183065690Y-108146664D01*
X183065688Y-108146663D01*
X182949927Y-108087681D01*
X182889800Y-108057045D01*
X182779711Y-108027547D01*
X182699117Y-108005952D01*
X182617135Y-107999500D01*
X182617130Y-107999500D01*
X180362870Y-107999500D01*
X180362864Y-107999500D01*
X180280882Y-108005952D01*
X180280881Y-108005952D01*
X180090200Y-108057045D01*
X179914311Y-108146663D01*
X179914309Y-108146664D01*
X179760896Y-108270897D01*
X179720865Y-108320332D01*
X179663378Y-108360043D01*
X179593547Y-108362370D01*
X179533544Y-108326574D01*
X179502418Y-108264020D01*
X179500500Y-108242295D01*
X179500500Y-103147682D01*
X179950000Y-103147682D01*
X179950000Y-103352317D01*
X179982009Y-103554417D01*
X180045244Y-103749031D01*
X180138141Y-103931350D01*
X180138147Y-103931359D01*
X180170523Y-103975921D01*
X180170524Y-103975922D01*
X180850000Y-103296446D01*
X180850000Y-103302661D01*
X180877259Y-103404394D01*
X180929920Y-103495606D01*
X181004394Y-103570080D01*
X181095606Y-103622741D01*
X181197339Y-103650000D01*
X181203553Y-103650000D01*
X180524076Y-104329474D01*
X180568650Y-104361859D01*
X180750968Y-104454755D01*
X180945582Y-104517990D01*
X181147683Y-104550000D01*
X181352317Y-104550000D01*
X181554417Y-104517990D01*
X181749031Y-104454755D01*
X181931349Y-104361859D01*
X181975921Y-104329474D01*
X181296447Y-103650000D01*
X181302661Y-103650000D01*
X181404394Y-103622741D01*
X181495606Y-103570080D01*
X181570080Y-103495606D01*
X181622741Y-103404394D01*
X181650000Y-103302661D01*
X181650000Y-103296447D01*
X182329474Y-103975921D01*
X182361859Y-103931349D01*
X182454755Y-103749031D01*
X182517990Y-103554417D01*
X182550000Y-103352317D01*
X182550000Y-103147682D01*
X182517990Y-102945582D01*
X182454755Y-102750968D01*
X182361859Y-102568650D01*
X182329474Y-102524077D01*
X182329474Y-102524076D01*
X181650000Y-103203551D01*
X181650000Y-103197339D01*
X181622741Y-103095606D01*
X181570080Y-103004394D01*
X181495606Y-102929920D01*
X181404394Y-102877259D01*
X181302661Y-102850000D01*
X181296446Y-102850000D01*
X181975922Y-102170524D01*
X181975921Y-102170523D01*
X181931359Y-102138147D01*
X181931350Y-102138141D01*
X181749031Y-102045244D01*
X181554417Y-101982009D01*
X181352317Y-101950000D01*
X181147683Y-101950000D01*
X180945582Y-101982009D01*
X180750968Y-102045244D01*
X180568644Y-102138143D01*
X180524077Y-102170523D01*
X180524077Y-102170524D01*
X181203554Y-102850000D01*
X181197339Y-102850000D01*
X181095606Y-102877259D01*
X181004394Y-102929920D01*
X180929920Y-103004394D01*
X180877259Y-103095606D01*
X180850000Y-103197339D01*
X180850000Y-103203553D01*
X180170524Y-102524077D01*
X180170523Y-102524077D01*
X180138143Y-102568644D01*
X180045244Y-102750968D01*
X179982009Y-102945582D01*
X179950000Y-103147682D01*
X179500500Y-103147682D01*
X179500500Y-98147648D01*
X179949500Y-98147648D01*
X179949500Y-98352351D01*
X179981522Y-98554534D01*
X180044781Y-98749223D01*
X180137715Y-98931613D01*
X180258028Y-99097213D01*
X180402786Y-99241971D01*
X180557749Y-99354556D01*
X180568390Y-99362287D01*
X180684607Y-99421503D01*
X180750776Y-99455218D01*
X180750778Y-99455218D01*
X180750781Y-99455220D01*
X180841856Y-99484812D01*
X180945465Y-99518477D01*
X181046557Y-99534488D01*
X181147648Y-99550500D01*
X181147649Y-99550500D01*
X181352351Y-99550500D01*
X181352352Y-99550500D01*
X181554534Y-99518477D01*
X181749219Y-99455220D01*
X181931610Y-99362287D01*
X182060482Y-99268657D01*
X182097213Y-99241971D01*
X182097215Y-99241968D01*
X182097219Y-99241966D01*
X182241966Y-99097219D01*
X182241968Y-99097215D01*
X182241971Y-99097213D01*
X182346892Y-98952799D01*
X182362287Y-98931610D01*
X182455220Y-98749219D01*
X182518477Y-98554534D01*
X182550500Y-98352352D01*
X182550500Y-98147648D01*
X182518477Y-97945466D01*
X182455220Y-97750781D01*
X182455218Y-97750778D01*
X182455218Y-97750776D01*
X182403865Y-97649991D01*
X182362287Y-97568390D01*
X182346892Y-97547200D01*
X182241971Y-97402786D01*
X182097213Y-97258028D01*
X181931613Y-97137715D01*
X181931612Y-97137714D01*
X181931610Y-97137713D01*
X181871898Y-97107288D01*
X181749223Y-97044781D01*
X181554534Y-96981522D01*
X181379995Y-96953878D01*
X181352352Y-96949500D01*
X181147648Y-96949500D01*
X181123329Y-96953351D01*
X180945465Y-96981522D01*
X180750776Y-97044781D01*
X180568386Y-97137715D01*
X180402786Y-97258028D01*
X180258028Y-97402786D01*
X180137715Y-97568386D01*
X180044781Y-97750776D01*
X179981522Y-97945465D01*
X179949500Y-98147648D01*
X179500500Y-98147648D01*
X179500500Y-95121456D01*
X179462052Y-94928170D01*
X179462051Y-94928169D01*
X179462051Y-94928165D01*
X179462049Y-94928160D01*
X179386635Y-94746092D01*
X179386628Y-94746079D01*
X179277139Y-94582218D01*
X179277136Y-94582214D01*
X179134686Y-94439764D01*
X179134655Y-94439735D01*
X178728600Y-94033680D01*
X178695115Y-93972357D01*
X178700099Y-93902665D01*
X178741971Y-93846732D01*
X178777962Y-93828068D01*
X178902031Y-93787754D01*
X179084349Y-93694859D01*
X179128921Y-93662474D01*
X178449446Y-92983000D01*
X178455661Y-92983000D01*
X178557394Y-92955741D01*
X178648606Y-92903080D01*
X178723080Y-92828606D01*
X178775741Y-92737394D01*
X178803000Y-92635661D01*
X178803000Y-92629447D01*
X179482474Y-93308921D01*
X179514861Y-93264347D01*
X179514861Y-93264346D01*
X179562234Y-93171371D01*
X179610208Y-93120575D01*
X179678028Y-93103779D01*
X179744164Y-93126316D01*
X179783203Y-93171369D01*
X179830713Y-93264611D01*
X179951028Y-93430213D01*
X180095786Y-93574971D01*
X180216226Y-93662474D01*
X180261390Y-93695287D01*
X180377607Y-93754503D01*
X180443776Y-93788218D01*
X180443778Y-93788218D01*
X180443781Y-93788220D01*
X180548137Y-93822127D01*
X180638465Y-93851477D01*
X180739557Y-93867488D01*
X180840648Y-93883500D01*
X180840649Y-93883500D01*
X181045351Y-93883500D01*
X181045352Y-93883500D01*
X181247534Y-93851477D01*
X181442219Y-93788220D01*
X181624610Y-93695287D01*
X181751379Y-93603185D01*
X181790213Y-93574971D01*
X181790215Y-93574968D01*
X181790219Y-93574966D01*
X181934966Y-93430219D01*
X181934968Y-93430215D01*
X181934971Y-93430213D01*
X182023093Y-93308921D01*
X182055287Y-93264610D01*
X182148220Y-93082219D01*
X182211477Y-92887534D01*
X182243500Y-92685352D01*
X182243500Y-92480648D01*
X182235257Y-92428606D01*
X182211477Y-92278465D01*
X182148218Y-92083776D01*
X182102515Y-91994080D01*
X182055287Y-91901390D01*
X182023092Y-91857077D01*
X181934971Y-91735786D01*
X181790213Y-91591028D01*
X181624613Y-91470715D01*
X181624612Y-91470714D01*
X181624610Y-91470713D01*
X181567653Y-91441691D01*
X181442223Y-91377781D01*
X181247534Y-91314522D01*
X181072995Y-91286878D01*
X181045352Y-91282500D01*
X180840648Y-91282500D01*
X180816329Y-91286351D01*
X180638465Y-91314522D01*
X180443776Y-91377781D01*
X180261386Y-91470715D01*
X180095786Y-91591028D01*
X179951028Y-91735786D01*
X179830713Y-91901388D01*
X179783203Y-91994630D01*
X179735228Y-92045426D01*
X179667407Y-92062220D01*
X179601272Y-92039682D01*
X179562234Y-91994628D01*
X179514861Y-91901652D01*
X179482474Y-91857077D01*
X179482474Y-91857076D01*
X178803000Y-92536551D01*
X178803000Y-92530339D01*
X178775741Y-92428606D01*
X178723080Y-92337394D01*
X178648606Y-92262920D01*
X178557394Y-92210259D01*
X178455661Y-92183000D01*
X178449446Y-92183000D01*
X179128922Y-91503524D01*
X179128921Y-91503523D01*
X179084359Y-91471147D01*
X179084350Y-91471141D01*
X178902031Y-91378244D01*
X178707417Y-91315009D01*
X178505317Y-91283000D01*
X178300683Y-91283000D01*
X178098582Y-91315009D01*
X177903968Y-91378244D01*
X177721644Y-91471143D01*
X177677077Y-91503523D01*
X177677077Y-91503524D01*
X178356554Y-92183000D01*
X178350339Y-92183000D01*
X178248606Y-92210259D01*
X178157394Y-92262920D01*
X178082920Y-92337394D01*
X178030259Y-92428606D01*
X178003000Y-92530339D01*
X178003000Y-92536553D01*
X177323524Y-91857077D01*
X177323523Y-91857077D01*
X177291143Y-91901644D01*
X177243765Y-91994630D01*
X177195790Y-92045426D01*
X177127969Y-92062221D01*
X177061834Y-92039683D01*
X177022795Y-91994630D01*
X176997620Y-91945221D01*
X176975287Y-91901390D01*
X176975285Y-91901387D01*
X176975284Y-91901385D01*
X176854971Y-91735786D01*
X176710213Y-91591028D01*
X176544613Y-91470715D01*
X176544612Y-91470714D01*
X176544610Y-91470713D01*
X176487653Y-91441691D01*
X176362223Y-91377781D01*
X176167534Y-91314522D01*
X175992995Y-91286878D01*
X175965352Y-91282500D01*
X175760648Y-91282500D01*
X175736329Y-91286351D01*
X175558465Y-91314522D01*
X175363776Y-91377781D01*
X175181386Y-91470715D01*
X175015786Y-91591028D01*
X174871028Y-91735786D01*
X174750715Y-91901386D01*
X174703485Y-91994080D01*
X174655510Y-92044876D01*
X174587689Y-92061671D01*
X174521554Y-92039134D01*
X174482515Y-91994080D01*
X174457620Y-91945221D01*
X174435287Y-91901390D01*
X174403092Y-91857077D01*
X174314971Y-91735786D01*
X174170213Y-91591028D01*
X174004613Y-91470715D01*
X174004612Y-91470714D01*
X174004610Y-91470713D01*
X173947653Y-91441691D01*
X173822223Y-91377781D01*
X173627534Y-91314522D01*
X173452995Y-91286878D01*
X173425352Y-91282500D01*
X173220648Y-91282500D01*
X173196329Y-91286351D01*
X173018465Y-91314522D01*
X172823776Y-91377781D01*
X172641386Y-91470715D01*
X172520123Y-91558818D01*
X172454317Y-91582298D01*
X172447238Y-91582500D01*
X170318455Y-91582500D01*
X170221812Y-91601724D01*
X170125167Y-91620947D01*
X170125161Y-91620949D01*
X170071834Y-91643037D01*
X170071834Y-91643038D01*
X170026315Y-91661892D01*
X169943089Y-91696366D01*
X169943079Y-91696371D01*
X169779219Y-91805859D01*
X169728003Y-91857076D01*
X169639861Y-91945218D01*
X160712181Y-100872898D01*
X160650858Y-100906383D01*
X160581166Y-100901399D01*
X160525233Y-100859527D01*
X160500816Y-100794063D01*
X160500500Y-100785217D01*
X160500500Y-83465782D01*
X160520185Y-83398743D01*
X160536819Y-83378101D01*
X161594272Y-82320648D01*
X172022500Y-82320648D01*
X172022500Y-82525351D01*
X172054522Y-82727534D01*
X172117781Y-82922223D01*
X172210715Y-83104613D01*
X172331028Y-83270213D01*
X172475786Y-83414971D01*
X172630749Y-83527556D01*
X172641390Y-83535287D01*
X172757607Y-83594503D01*
X172823776Y-83628218D01*
X172823778Y-83628218D01*
X172823781Y-83628220D01*
X172928137Y-83662127D01*
X173018465Y-83691477D01*
X173119557Y-83707488D01*
X173220648Y-83723500D01*
X173220649Y-83723500D01*
X173425351Y-83723500D01*
X173425352Y-83723500D01*
X173627534Y-83691477D01*
X173822219Y-83628220D01*
X174004610Y-83535287D01*
X174100276Y-83465782D01*
X174170213Y-83414971D01*
X174170215Y-83414968D01*
X174170219Y-83414966D01*
X174314966Y-83270219D01*
X174314968Y-83270215D01*
X174314971Y-83270213D01*
X174435284Y-83104614D01*
X174435285Y-83104613D01*
X174435287Y-83104610D01*
X174482516Y-83011917D01*
X174530489Y-82961123D01*
X174598310Y-82944328D01*
X174664445Y-82966865D01*
X174703485Y-83011919D01*
X174750715Y-83104614D01*
X174871028Y-83270213D01*
X175015786Y-83414971D01*
X175170749Y-83527556D01*
X175181390Y-83535287D01*
X175297607Y-83594503D01*
X175363776Y-83628218D01*
X175363778Y-83628218D01*
X175363781Y-83628220D01*
X175468137Y-83662127D01*
X175558465Y-83691477D01*
X175659557Y-83707488D01*
X175760648Y-83723500D01*
X175760649Y-83723500D01*
X175965351Y-83723500D01*
X175965352Y-83723500D01*
X176167534Y-83691477D01*
X176362219Y-83628220D01*
X176544610Y-83535287D01*
X176640276Y-83465782D01*
X176710213Y-83414971D01*
X176710215Y-83414968D01*
X176710219Y-83414966D01*
X176854966Y-83270219D01*
X176854968Y-83270215D01*
X176854971Y-83270213D01*
X176907732Y-83197590D01*
X176975287Y-83104610D01*
X177068220Y-82922219D01*
X177131477Y-82727534D01*
X177163500Y-82525352D01*
X177163500Y-82320648D01*
X177148012Y-82222861D01*
X177131477Y-82118465D01*
X177068218Y-81923776D01*
X177022515Y-81834080D01*
X176975287Y-81741390D01*
X176967556Y-81730749D01*
X176854971Y-81575786D01*
X176710213Y-81431028D01*
X176544613Y-81310715D01*
X176544612Y-81310714D01*
X176544610Y-81310713D01*
X176487653Y-81281691D01*
X176362223Y-81217781D01*
X176167534Y-81154522D01*
X175992995Y-81126878D01*
X175965352Y-81122500D01*
X175760648Y-81122500D01*
X175736329Y-81126351D01*
X175558465Y-81154522D01*
X175363776Y-81217781D01*
X175181386Y-81310715D01*
X175015786Y-81431028D01*
X174871028Y-81575786D01*
X174750715Y-81741386D01*
X174703485Y-81834080D01*
X174655510Y-81884876D01*
X174587689Y-81901671D01*
X174521554Y-81879134D01*
X174482515Y-81834080D01*
X174481883Y-81832840D01*
X174435287Y-81741390D01*
X174427556Y-81730749D01*
X174314971Y-81575786D01*
X174170213Y-81431028D01*
X174004613Y-81310715D01*
X174004612Y-81310714D01*
X174004610Y-81310713D01*
X173947653Y-81281691D01*
X173822223Y-81217781D01*
X173627534Y-81154522D01*
X173452995Y-81126878D01*
X173425352Y-81122500D01*
X173220648Y-81122500D01*
X173196329Y-81126351D01*
X173018465Y-81154522D01*
X172823776Y-81217781D01*
X172641386Y-81310715D01*
X172475786Y-81431028D01*
X172331028Y-81575786D01*
X172210715Y-81741386D01*
X172117781Y-81923776D01*
X172054522Y-82118465D01*
X172022500Y-82320648D01*
X161594272Y-82320648D01*
X161686825Y-82228095D01*
X162339135Y-81575786D01*
X163878102Y-80036819D01*
X163939425Y-80003334D01*
X163965783Y-80000500D01*
X171848542Y-80000500D01*
X171879566Y-79994328D01*
X171945188Y-79981275D01*
X172041836Y-79962051D01*
X172095165Y-79939961D01*
X172223914Y-79886632D01*
X172387782Y-79777139D01*
X172527139Y-79637782D01*
X172527139Y-79637780D01*
X172537347Y-79627573D01*
X172537348Y-79627570D01*
X174998102Y-77166819D01*
X175059425Y-77133334D01*
X175085783Y-77130500D01*
X175904957Y-77130500D01*
X175904958Y-77130499D01*
X175972104Y-77122934D01*
X176039249Y-77115369D01*
X176039252Y-77115368D01*
X176039255Y-77115368D01*
X176209522Y-77055789D01*
X176362262Y-76959816D01*
X176362262Y-76959815D01*
X176364028Y-76958706D01*
X176431264Y-76939706D01*
X176495972Y-76958706D01*
X176497737Y-76959815D01*
X176497738Y-76959816D01*
X176650478Y-77055789D01*
X176819342Y-77114877D01*
X176820745Y-77115368D01*
X176820750Y-77115369D01*
X176911246Y-77125565D01*
X176955040Y-77130499D01*
X176955043Y-77130500D01*
X176955046Y-77130500D01*
X178444957Y-77130500D01*
X178444958Y-77130499D01*
X178512104Y-77122934D01*
X178579249Y-77115369D01*
X178579252Y-77115368D01*
X178579255Y-77115368D01*
X178749522Y-77055789D01*
X178902262Y-76959816D01*
X179029816Y-76832262D01*
X179125789Y-76679522D01*
X179185368Y-76509255D01*
X179200500Y-76374954D01*
X179200500Y-74345046D01*
X179185368Y-74210745D01*
X179125789Y-74040478D01*
X179113338Y-74020663D01*
X179086582Y-73978080D01*
X179029816Y-73887738D01*
X178902262Y-73760184D01*
X178881738Y-73747288D01*
X178749523Y-73664211D01*
X178579254Y-73604631D01*
X178579249Y-73604630D01*
X178444960Y-73589500D01*
X178444954Y-73589500D01*
X176955046Y-73589500D01*
X176955039Y-73589500D01*
X176820750Y-73604630D01*
X176820745Y-73604631D01*
X176650476Y-73664211D01*
X176495972Y-73761293D01*
X176428735Y-73780293D01*
X176364028Y-73761293D01*
X176209523Y-73664211D01*
X176039254Y-73604631D01*
X176039249Y-73604630D01*
X175904960Y-73589500D01*
X175904954Y-73589500D01*
X174415046Y-73589500D01*
X174415039Y-73589500D01*
X174280750Y-73604630D01*
X174280745Y-73604631D01*
X174110476Y-73664211D01*
X173957737Y-73760184D01*
X173830184Y-73887737D01*
X173734211Y-74040476D01*
X173674631Y-74210745D01*
X173674630Y-74210750D01*
X173659500Y-74345039D01*
X173659500Y-75624217D01*
X173639815Y-75691256D01*
X173623181Y-75711898D01*
X171371899Y-77963181D01*
X171310576Y-77996666D01*
X171284218Y-77999500D01*
X163401455Y-77999500D01*
X163304812Y-78018724D01*
X163208167Y-78037947D01*
X163208161Y-78037949D01*
X163154834Y-78060037D01*
X163154834Y-78060038D01*
X163109315Y-78078892D01*
X163026089Y-78113366D01*
X163026079Y-78113371D01*
X162862218Y-78222860D01*
X162862214Y-78222863D01*
X159774366Y-81310713D01*
X158862220Y-82222859D01*
X158862218Y-82222861D01*
X158792538Y-82292540D01*
X158722859Y-82362219D01*
X158613371Y-82526079D01*
X158613364Y-82526092D01*
X158537950Y-82708160D01*
X158537947Y-82708170D01*
X158499500Y-82901456D01*
X158499500Y-117984217D01*
X158479815Y-118051256D01*
X158463181Y-118071898D01*
X152121899Y-124413181D01*
X152060576Y-124446666D01*
X152034218Y-124449500D01*
X150199982Y-124449500D01*
X150097203Y-124460000D01*
X150097202Y-124460001D01*
X150014669Y-124487349D01*
X149930667Y-124515185D01*
X149930662Y-124515187D01*
X149781342Y-124607289D01*
X149657289Y-124731342D01*
X149565187Y-124880662D01*
X149565186Y-124880665D01*
X149510001Y-125047202D01*
X149510001Y-125047203D01*
X149510000Y-125047203D01*
X149499500Y-125149982D01*
X149499500Y-127750017D01*
X149510000Y-127852796D01*
X149555173Y-127989117D01*
X149565186Y-128019335D01*
X149657288Y-128168656D01*
X149781344Y-128292712D01*
X149930665Y-128384814D01*
X150097202Y-128439999D01*
X150199990Y-128450500D01*
X150199995Y-128450500D01*
X152800005Y-128450500D01*
X152800010Y-128450500D01*
X152902798Y-128439999D01*
X153069335Y-128384814D01*
X153218656Y-128292712D01*
X153342712Y-128168656D01*
X153434814Y-128019335D01*
X153489999Y-127852798D01*
X153500500Y-127750010D01*
X153500500Y-125915781D01*
X153520185Y-125848742D01*
X153536814Y-125828105D01*
X160137318Y-119227600D01*
X160145263Y-119223262D01*
X160150688Y-119216016D01*
X160175447Y-119206780D01*
X160198641Y-119194116D01*
X160207670Y-119194761D01*
X160216152Y-119191598D01*
X160241974Y-119197214D01*
X160268333Y-119199100D01*
X160277385Y-119204917D01*
X160284425Y-119206449D01*
X160312676Y-119227598D01*
X160312679Y-119227600D01*
X160362218Y-119277139D01*
X160362220Y-119277140D01*
X161382860Y-120297781D01*
X161382861Y-120297782D01*
X161454196Y-120369117D01*
X161522219Y-120437140D01*
X161686079Y-120546628D01*
X161686092Y-120546635D01*
X161814833Y-120599961D01*
X161857744Y-120617735D01*
X161868164Y-120622051D01*
X161964812Y-120641275D01*
X162013135Y-120650887D01*
X162061458Y-120660500D01*
X162061459Y-120660500D01*
X162061460Y-120660500D01*
X162258540Y-120660500D01*
X162782366Y-120660500D01*
X162849405Y-120680185D01*
X162880597Y-120708825D01*
X162887624Y-120717947D01*
X162896665Y-120735690D01*
X162991764Y-120853127D01*
X162992687Y-120854325D01*
X163004819Y-120885529D01*
X163017714Y-120916451D01*
X163017440Y-120917990D01*
X163018006Y-120919446D01*
X163011341Y-120952257D01*
X163005472Y-120985240D01*
X163004259Y-120987126D01*
X163004099Y-120987917D01*
X163003075Y-120988969D01*
X162990822Y-121008036D01*
X162896664Y-121124309D01*
X162896663Y-121124311D01*
X162807045Y-121300200D01*
X162755952Y-121490881D01*
X162755952Y-121490882D01*
X162749500Y-121572864D01*
X162749500Y-122827135D01*
X162755952Y-122909117D01*
X162755952Y-122909118D01*
X162774178Y-122977139D01*
X162807045Y-123099800D01*
X162826050Y-123137099D01*
X162896663Y-123275688D01*
X162896664Y-123275690D01*
X162991144Y-123392361D01*
X163018036Y-123456848D01*
X163005794Y-123525637D01*
X162991144Y-123548433D01*
X162897086Y-123664583D01*
X162897085Y-123664584D01*
X162807515Y-123840381D01*
X162756448Y-124030959D01*
X162750000Y-124112897D01*
X162750000Y-124490000D01*
X166749999Y-124490000D01*
X166749999Y-124112913D01*
X166749998Y-124112894D01*
X166743551Y-124030961D01*
X166692484Y-123840381D01*
X166602914Y-123664584D01*
X166602913Y-123664583D01*
X166508855Y-123548433D01*
X166497489Y-123521178D01*
X166483700Y-123495069D01*
X166484193Y-123489295D01*
X166481963Y-123483946D01*
X166487136Y-123454875D01*
X166489652Y-123425454D01*
X166493575Y-123418692D01*
X166494205Y-123415157D01*
X166506996Y-123394715D01*
X166507898Y-123393543D01*
X166603335Y-123275690D01*
X166612376Y-123257945D01*
X166619409Y-123248818D01*
X166638724Y-123234773D01*
X166655124Y-123217409D01*
X166667035Y-123214186D01*
X166675918Y-123207728D01*
X166694967Y-123206631D01*
X166717634Y-123200500D01*
X166898542Y-123200500D01*
X166929566Y-123194328D01*
X166995188Y-123181275D01*
X167091836Y-123162051D01*
X167145165Y-123139961D01*
X167273914Y-123086632D01*
X167437782Y-122977139D01*
X167577139Y-122837782D01*
X167577139Y-122837780D01*
X167587347Y-122827573D01*
X167587348Y-122827570D01*
X177287821Y-113127098D01*
X177349142Y-113093615D01*
X177418834Y-113098599D01*
X177474767Y-113140471D01*
X177499184Y-113205935D01*
X177499500Y-113214781D01*
X177499500Y-125138540D01*
X177504664Y-125164498D01*
X177504664Y-125164502D01*
X177537947Y-125331829D01*
X177537951Y-125331842D01*
X177560038Y-125385164D01*
X177613366Y-125513911D01*
X177613371Y-125513920D01*
X177722859Y-125677780D01*
X177722860Y-125677781D01*
X177722861Y-125677782D01*
X177862218Y-125817139D01*
X177862219Y-125817139D01*
X177869286Y-125824206D01*
X177869285Y-125824206D01*
X177869289Y-125824209D01*
X179453181Y-127408101D01*
X179486666Y-127469424D01*
X179489500Y-127495782D01*
X179489500Y-127907135D01*
X179495952Y-127989117D01*
X179495952Y-127989118D01*
X179528343Y-128110005D01*
X179547045Y-128179800D01*
X179577681Y-128239927D01*
X179636663Y-128355688D01*
X179636664Y-128355690D01*
X179660249Y-128384814D01*
X179760897Y-128509103D01*
X179845664Y-128577747D01*
X179914309Y-128633335D01*
X179914311Y-128633336D01*
X179972191Y-128662826D01*
X180090200Y-128722955D01*
X180214369Y-128756225D01*
X180274029Y-128792590D01*
X180304558Y-128855437D01*
X180296263Y-128924812D01*
X180251778Y-128978690D01*
X180185226Y-128999965D01*
X180182275Y-129000000D01*
X166057725Y-129000000D01*
X165990686Y-128980315D01*
X165944931Y-128927511D01*
X165934987Y-128858353D01*
X165964012Y-128794797D01*
X166022790Y-128757023D01*
X166025604Y-128756232D01*
X166149800Y-128722955D01*
X166325690Y-128633335D01*
X166479103Y-128509103D01*
X166603335Y-128355690D01*
X166692955Y-128179800D01*
X166744047Y-127989120D01*
X166750500Y-127907130D01*
X166750500Y-126652870D01*
X166744047Y-126570880D01*
X166692955Y-126380200D01*
X166603336Y-126204311D01*
X166603335Y-126204309D01*
X166508855Y-126087638D01*
X166481963Y-126023151D01*
X166494205Y-125954362D01*
X166508856Y-125931565D01*
X166602912Y-125815417D01*
X166602914Y-125815415D01*
X166692484Y-125639618D01*
X166743551Y-125449040D01*
X166749999Y-125367102D01*
X166750000Y-125367089D01*
X166750000Y-124990000D01*
X162750001Y-124990000D01*
X162750001Y-125367105D01*
X162756448Y-125449038D01*
X162807515Y-125639618D01*
X162897085Y-125815415D01*
X162897087Y-125815417D01*
X162991143Y-125931564D01*
X163018035Y-125996051D01*
X163005794Y-126064840D01*
X162991144Y-126087637D01*
X162896665Y-126204309D01*
X162896663Y-126204311D01*
X162807045Y-126380200D01*
X162755952Y-126570881D01*
X162755952Y-126570882D01*
X162749500Y-126652864D01*
X162749500Y-127907135D01*
X162755952Y-127989117D01*
X162755952Y-127989118D01*
X162788343Y-128110005D01*
X162807045Y-128179800D01*
X162837681Y-128239927D01*
X162896663Y-128355688D01*
X162896664Y-128355690D01*
X162920249Y-128384814D01*
X163020897Y-128509103D01*
X163105664Y-128577747D01*
X163174309Y-128633335D01*
X163174311Y-128633336D01*
X163232191Y-128662826D01*
X163350200Y-128722955D01*
X163474369Y-128756225D01*
X163534029Y-128792590D01*
X163564558Y-128855437D01*
X163556263Y-128924812D01*
X163511778Y-128978690D01*
X163445226Y-128999965D01*
X163442275Y-129000000D01*
X141124000Y-129000000D01*
X141056961Y-128980315D01*
X141011206Y-128927511D01*
X141000000Y-128876000D01*
X141000000Y-117883711D01*
X149649500Y-117883711D01*
X149649500Y-118126288D01*
X149681161Y-118366785D01*
X149743947Y-118601104D01*
X149768136Y-118659500D01*
X149836776Y-118825212D01*
X149958064Y-119035289D01*
X149958066Y-119035292D01*
X149958067Y-119035293D01*
X150105733Y-119227736D01*
X150105739Y-119227743D01*
X150277256Y-119399260D01*
X150277262Y-119399265D01*
X150469711Y-119546936D01*
X150679788Y-119668224D01*
X150903900Y-119761054D01*
X151138211Y-119823838D01*
X151318586Y-119847584D01*
X151378711Y-119855500D01*
X151378712Y-119855500D01*
X151621289Y-119855500D01*
X151669388Y-119849167D01*
X151861789Y-119823838D01*
X152096100Y-119761054D01*
X152320212Y-119668224D01*
X152530289Y-119546936D01*
X152722738Y-119399265D01*
X152894265Y-119227738D01*
X153041936Y-119035289D01*
X153163224Y-118825212D01*
X153256054Y-118601100D01*
X153318838Y-118366789D01*
X153350500Y-118126288D01*
X153350500Y-117883712D01*
X153318838Y-117643211D01*
X153256054Y-117408900D01*
X153163224Y-117184788D01*
X153041936Y-116974711D01*
X152894265Y-116782262D01*
X152894260Y-116782256D01*
X152722743Y-116610739D01*
X152722736Y-116610733D01*
X152530293Y-116463067D01*
X152530292Y-116463066D01*
X152530289Y-116463064D01*
X152320212Y-116341776D01*
X152320205Y-116341773D01*
X152096104Y-116248947D01*
X151861785Y-116186161D01*
X151621289Y-116154500D01*
X151621288Y-116154500D01*
X151378712Y-116154500D01*
X151378711Y-116154500D01*
X151138214Y-116186161D01*
X150903895Y-116248947D01*
X150679794Y-116341773D01*
X150679785Y-116341777D01*
X150469706Y-116463067D01*
X150277263Y-116610733D01*
X150277256Y-116610739D01*
X150105739Y-116782256D01*
X150105733Y-116782263D01*
X149958067Y-116974706D01*
X149836777Y-117184785D01*
X149836773Y-117184794D01*
X149743947Y-117408895D01*
X149681161Y-117643214D01*
X149649500Y-117883711D01*
X141000000Y-117883711D01*
X141000000Y-62273711D01*
X149649500Y-62273711D01*
X149649500Y-62516288D01*
X149681161Y-62756785D01*
X149743947Y-62991104D01*
X149836773Y-63215205D01*
X149836776Y-63215212D01*
X149958064Y-63425289D01*
X149958066Y-63425292D01*
X149958067Y-63425293D01*
X150105733Y-63617736D01*
X150105739Y-63617743D01*
X150277256Y-63789260D01*
X150277262Y-63789265D01*
X150469711Y-63936936D01*
X150679788Y-64058224D01*
X150903900Y-64151054D01*
X151138211Y-64213838D01*
X151318586Y-64237584D01*
X151378711Y-64245500D01*
X151378712Y-64245500D01*
X151621289Y-64245500D01*
X151669388Y-64239167D01*
X151861789Y-64213838D01*
X152096100Y-64151054D01*
X152320212Y-64058224D01*
X152530289Y-63936936D01*
X152722738Y-63789265D01*
X152894265Y-63617738D01*
X153041936Y-63425289D01*
X153163224Y-63215212D01*
X153256054Y-62991100D01*
X153318838Y-62756789D01*
X153350500Y-62516288D01*
X153350500Y-62273712D01*
X153318838Y-62033211D01*
X153256054Y-61798900D01*
X153163224Y-61574788D01*
X153041936Y-61364711D01*
X152894265Y-61172262D01*
X152894260Y-61172256D01*
X152722743Y-61000739D01*
X152722736Y-61000733D01*
X152530293Y-60853067D01*
X152530292Y-60853066D01*
X152530289Y-60853064D01*
X152320212Y-60731776D01*
X152320205Y-60731773D01*
X152096104Y-60638947D01*
X151861785Y-60576161D01*
X151621289Y-60544500D01*
X151621288Y-60544500D01*
X151378712Y-60544500D01*
X151378711Y-60544500D01*
X151138214Y-60576161D01*
X150903895Y-60638947D01*
X150679794Y-60731773D01*
X150679785Y-60731777D01*
X150469706Y-60853067D01*
X150277263Y-61000733D01*
X150277256Y-61000739D01*
X150105739Y-61172256D01*
X150105733Y-61172263D01*
X149958067Y-61364706D01*
X149836777Y-61574785D01*
X149836773Y-61574794D01*
X149743947Y-61798895D01*
X149681161Y-62033214D01*
X149649500Y-62273711D01*
X141000000Y-62273711D01*
X141000000Y-53418872D01*
X149499500Y-53418872D01*
X149499500Y-53681127D01*
X149526123Y-53883339D01*
X149533730Y-53941116D01*
X149601602Y-54194418D01*
X149601605Y-54194428D01*
X149701953Y-54436690D01*
X149701958Y-54436700D01*
X149833075Y-54663803D01*
X149992718Y-54871851D01*
X149992726Y-54871860D01*
X150178140Y-55057274D01*
X150178148Y-55057281D01*
X150386196Y-55216924D01*
X150613299Y-55348041D01*
X150613309Y-55348046D01*
X150855571Y-55448394D01*
X150855581Y-55448398D01*
X151108884Y-55516270D01*
X151368880Y-55550500D01*
X151368887Y-55550500D01*
X151631113Y-55550500D01*
X151631120Y-55550500D01*
X151891116Y-55516270D01*
X151948338Y-55500937D01*
X152018186Y-55502600D01*
X152068111Y-55533031D01*
X166503181Y-69968101D01*
X166536666Y-70029424D01*
X166539500Y-70055782D01*
X166539500Y-73544091D01*
X166536581Y-73554030D01*
X166537840Y-73564315D01*
X166526904Y-73586986D01*
X166519815Y-73611130D01*
X166511180Y-73619585D01*
X166507485Y-73627246D01*
X166490689Y-73639650D01*
X166480331Y-73649793D01*
X166472563Y-73654557D01*
X166470666Y-73655186D01*
X166321344Y-73747288D01*
X166321296Y-73747335D01*
X166315858Y-73750671D01*
X166282251Y-73759775D01*
X166248731Y-73768948D01*
X166248572Y-73768900D01*
X166248420Y-73768942D01*
X166243723Y-73767454D01*
X166185055Y-73749963D01*
X166049301Y-73664663D01*
X165879141Y-73605122D01*
X165744930Y-73590000D01*
X165250000Y-73590000D01*
X165250000Y-75044314D01*
X165245606Y-75039920D01*
X165154394Y-74987259D01*
X165052661Y-74960000D01*
X164947339Y-74960000D01*
X164845606Y-74987259D01*
X164754394Y-75039920D01*
X164750000Y-75044314D01*
X164750000Y-73590000D01*
X164255070Y-73590000D01*
X164120858Y-73605122D01*
X163950698Y-73664663D01*
X163798051Y-73760577D01*
X163670577Y-73888051D01*
X163574663Y-74040698D01*
X163515122Y-74210858D01*
X163500000Y-74345069D01*
X163500000Y-75110000D01*
X164684314Y-75110000D01*
X164679920Y-75114394D01*
X164627259Y-75205606D01*
X164600000Y-75307339D01*
X164600000Y-75412661D01*
X164627259Y-75514394D01*
X164679920Y-75605606D01*
X164684314Y-75610000D01*
X163500000Y-75610000D01*
X163500000Y-76374930D01*
X163515122Y-76509141D01*
X163574663Y-76679301D01*
X163670577Y-76831948D01*
X163798051Y-76959422D01*
X163950698Y-77055336D01*
X164120858Y-77114877D01*
X164255069Y-77129999D01*
X164255070Y-77130000D01*
X164750000Y-77130000D01*
X164750000Y-75675686D01*
X164754394Y-75680080D01*
X164845606Y-75732741D01*
X164947339Y-75760000D01*
X165052661Y-75760000D01*
X165154394Y-75732741D01*
X165245606Y-75680080D01*
X165250000Y-75675686D01*
X165250000Y-77130000D01*
X165744930Y-77130000D01*
X165744930Y-77129999D01*
X165879141Y-77114877D01*
X166049301Y-77055336D01*
X166185055Y-76970037D01*
X166252292Y-76951037D01*
X166316123Y-76969492D01*
X166470659Y-77064810D01*
X166470660Y-77064810D01*
X166470666Y-77064814D01*
X166637203Y-77119999D01*
X166739991Y-77130500D01*
X168340008Y-77130499D01*
X168442797Y-77119999D01*
X168609334Y-77064814D01*
X168758656Y-76972712D01*
X168882712Y-76848656D01*
X168974814Y-76699334D01*
X169029999Y-76532797D01*
X169040500Y-76430009D01*
X169040499Y-74289992D01*
X169029999Y-74187203D01*
X168974814Y-74020666D01*
X168882712Y-73871344D01*
X168758656Y-73747288D01*
X168609334Y-73655186D01*
X168609332Y-73655185D01*
X168603187Y-73651395D01*
X168604290Y-73649605D01*
X168559649Y-73610290D01*
X168540500Y-73544091D01*
X168540500Y-69694675D01*
X168540501Y-69694654D01*
X168540501Y-69491457D01*
X168540500Y-69491455D01*
X168502053Y-69298172D01*
X168502052Y-69298165D01*
X168426632Y-69116086D01*
X168426631Y-69116085D01*
X168426628Y-69116079D01*
X168317140Y-68952219D01*
X168317137Y-68952215D01*
X153483031Y-54118111D01*
X153449546Y-54056788D01*
X153450936Y-53998338D01*
X153466270Y-53941116D01*
X153500500Y-53681120D01*
X153500500Y-53418880D01*
X153466270Y-53158884D01*
X153398398Y-52905581D01*
X153398394Y-52905571D01*
X153298046Y-52663309D01*
X153298041Y-52663299D01*
X153166924Y-52436196D01*
X153007281Y-52228148D01*
X153007274Y-52228140D01*
X152821860Y-52042726D01*
X152821851Y-52042718D01*
X152613803Y-51883075D01*
X152386700Y-51751958D01*
X152386690Y-51751953D01*
X152144428Y-51651605D01*
X152144421Y-51651603D01*
X152144419Y-51651602D01*
X151891116Y-51583730D01*
X151833339Y-51576123D01*
X151631127Y-51549500D01*
X151631120Y-51549500D01*
X151368880Y-51549500D01*
X151368872Y-51549500D01*
X151137772Y-51579926D01*
X151108884Y-51583730D01*
X150855581Y-51651602D01*
X150855571Y-51651605D01*
X150613309Y-51751953D01*
X150613299Y-51751958D01*
X150386196Y-51883075D01*
X150178148Y-52042718D01*
X149992718Y-52228148D01*
X149833075Y-52436196D01*
X149701958Y-52663299D01*
X149701953Y-52663309D01*
X149601605Y-52905571D01*
X149601602Y-52905581D01*
X149533730Y-53158885D01*
X149499500Y-53418872D01*
X141000000Y-53418872D01*
X141000000Y-50624500D01*
X141019685Y-50557461D01*
X141072489Y-50511706D01*
X141124000Y-50500500D01*
X164089825Y-50500500D01*
X164156864Y-50520185D01*
G37*
%TD.AperFunction*%
%TA.AperFunction,Conductor*%
G36*
X174664445Y-93126865D02*
G01*
X174703485Y-93171919D01*
X174750715Y-93264614D01*
X174871028Y-93430213D01*
X175015786Y-93574971D01*
X175136226Y-93662474D01*
X175181390Y-93695287D01*
X175297607Y-93754503D01*
X175363776Y-93788218D01*
X175363778Y-93788218D01*
X175363781Y-93788220D01*
X175468137Y-93822127D01*
X175558465Y-93851477D01*
X175635966Y-93863751D01*
X175706513Y-93874925D01*
X175769648Y-93904854D01*
X175774797Y-93909717D01*
X177463181Y-95598101D01*
X177496666Y-95659424D01*
X177499500Y-95685782D01*
X177499500Y-100405217D01*
X177479815Y-100472256D01*
X177427011Y-100518011D01*
X177357853Y-100527955D01*
X177294297Y-100498930D01*
X177287819Y-100492898D01*
X174966818Y-98171897D01*
X174933333Y-98110574D01*
X174930499Y-98084216D01*
X174930499Y-97649998D01*
X174930498Y-97649981D01*
X174919999Y-97547203D01*
X174919998Y-97547200D01*
X174864814Y-97380666D01*
X174772712Y-97231344D01*
X174648656Y-97107288D01*
X174499334Y-97015186D01*
X174332797Y-96960001D01*
X174332795Y-96960000D01*
X174230010Y-96949500D01*
X173029998Y-96949500D01*
X173029981Y-96949501D01*
X172927203Y-96960000D01*
X172927200Y-96960001D01*
X172760668Y-97015185D01*
X172760663Y-97015187D01*
X172611342Y-97107289D01*
X172487289Y-97231342D01*
X172395187Y-97380663D01*
X172395186Y-97380666D01*
X172340001Y-97547203D01*
X172340001Y-97547204D01*
X172340000Y-97547204D01*
X172329500Y-97649983D01*
X172329500Y-98850001D01*
X172329501Y-98850018D01*
X172340000Y-98952796D01*
X172340001Y-98952799D01*
X172387856Y-99097213D01*
X172395186Y-99119334D01*
X172487288Y-99268656D01*
X172611344Y-99392712D01*
X172760666Y-99484814D01*
X172927203Y-99539999D01*
X173029991Y-99550500D01*
X173464217Y-99550499D01*
X173531256Y-99570183D01*
X173551898Y-99586818D01*
X175963181Y-101998101D01*
X175996666Y-102059424D01*
X175999500Y-102085782D01*
X175999500Y-103905217D01*
X175979815Y-103972256D01*
X175927011Y-104018011D01*
X175857853Y-104027955D01*
X175794297Y-103998930D01*
X175787819Y-103992898D01*
X174966818Y-103171897D01*
X174933333Y-103110574D01*
X174930499Y-103084216D01*
X174930499Y-102649998D01*
X174930498Y-102649981D01*
X174919999Y-102547203D01*
X174919998Y-102547200D01*
X174912335Y-102524076D01*
X174864814Y-102380666D01*
X174772712Y-102231344D01*
X174648656Y-102107288D01*
X174548066Y-102045244D01*
X174499336Y-102015187D01*
X174499331Y-102015185D01*
X174497862Y-102014698D01*
X174332797Y-101960001D01*
X174332795Y-101960000D01*
X174230010Y-101949500D01*
X173029998Y-101949500D01*
X173029981Y-101949501D01*
X172927203Y-101960000D01*
X172927200Y-101960001D01*
X172760668Y-102015185D01*
X172760663Y-102015187D01*
X172611342Y-102107289D01*
X172487289Y-102231342D01*
X172395187Y-102380663D01*
X172395186Y-102380666D01*
X172340001Y-102547203D01*
X172340001Y-102547204D01*
X172340000Y-102547204D01*
X172329500Y-102649983D01*
X172329500Y-103850001D01*
X172329501Y-103850018D01*
X172340000Y-103952796D01*
X172340001Y-103952799D01*
X172364906Y-104027955D01*
X172395186Y-104119334D01*
X172487288Y-104268656D01*
X172611344Y-104392712D01*
X172760666Y-104484814D01*
X172927203Y-104539999D01*
X173029991Y-104550500D01*
X173464217Y-104550499D01*
X173531256Y-104570183D01*
X173551898Y-104586818D01*
X174463181Y-105498101D01*
X174496666Y-105559424D01*
X174499500Y-105585782D01*
X174499500Y-111034218D01*
X174479815Y-111101257D01*
X174463181Y-111121899D01*
X169501899Y-116083181D01*
X169440576Y-116116666D01*
X169414218Y-116119500D01*
X166717634Y-116119500D01*
X166650595Y-116099815D01*
X166619403Y-116071175D01*
X166612375Y-116062052D01*
X166603335Y-116044310D01*
X166508215Y-115926847D01*
X166507312Y-115925675D01*
X166495173Y-115894454D01*
X166482285Y-115863549D01*
X166482558Y-115862010D01*
X166481993Y-115860555D01*
X166488656Y-115827746D01*
X166494527Y-115794760D01*
X166495739Y-115792873D01*
X166495900Y-115792083D01*
X166496923Y-115791030D01*
X166509175Y-115771966D01*
X166603335Y-115655690D01*
X166692955Y-115479800D01*
X166744047Y-115289120D01*
X166750500Y-115207130D01*
X166750500Y-113952870D01*
X166744047Y-113870880D01*
X166692955Y-113680200D01*
X166603335Y-113504310D01*
X166603334Y-113504308D01*
X166552355Y-113441355D01*
X166509177Y-113388035D01*
X166482285Y-113323549D01*
X166494527Y-113254760D01*
X166509175Y-113231966D01*
X166603335Y-113115690D01*
X166692955Y-112939800D01*
X166744047Y-112749120D01*
X166750500Y-112667130D01*
X166750500Y-111412870D01*
X166744047Y-111330880D01*
X166692955Y-111140200D01*
X166603335Y-110964310D01*
X166603334Y-110964308D01*
X166552355Y-110901355D01*
X166509177Y-110848035D01*
X166482285Y-110783549D01*
X166494527Y-110714760D01*
X166509175Y-110691966D01*
X166603335Y-110575690D01*
X166692955Y-110399800D01*
X166744047Y-110209120D01*
X166750500Y-110127130D01*
X166750500Y-108872870D01*
X166744047Y-108790880D01*
X166692955Y-108600200D01*
X166603336Y-108424311D01*
X166603335Y-108424309D01*
X166530228Y-108334031D01*
X166479103Y-108270897D01*
X166410457Y-108215309D01*
X166325690Y-108146664D01*
X166325688Y-108146663D01*
X166209927Y-108087681D01*
X166149800Y-108057045D01*
X166039711Y-108027547D01*
X165959117Y-108005952D01*
X165877135Y-107999500D01*
X165877130Y-107999500D01*
X163622870Y-107999500D01*
X163622864Y-107999500D01*
X163540882Y-108005952D01*
X163540881Y-108005952D01*
X163350200Y-108057045D01*
X163174311Y-108146663D01*
X163174309Y-108146664D01*
X163020897Y-108270897D01*
X162896664Y-108424309D01*
X162896663Y-108424311D01*
X162807045Y-108600200D01*
X162755952Y-108790881D01*
X162755952Y-108790882D01*
X162749500Y-108872864D01*
X162749500Y-110127135D01*
X162755952Y-110209117D01*
X162755952Y-110209118D01*
X162788343Y-110330005D01*
X162807045Y-110399800D01*
X162837681Y-110459927D01*
X162896663Y-110575688D01*
X162896664Y-110575690D01*
X162990822Y-110691964D01*
X163017714Y-110756451D01*
X163005472Y-110825240D01*
X162990822Y-110848036D01*
X162896664Y-110964309D01*
X162896663Y-110964311D01*
X162807045Y-111140200D01*
X162755952Y-111330881D01*
X162755952Y-111330882D01*
X162749500Y-111412864D01*
X162749500Y-112667135D01*
X162755952Y-112749117D01*
X162755952Y-112749118D01*
X162788343Y-112870005D01*
X162807045Y-112939800D01*
X162837681Y-112999927D01*
X162896663Y-113115688D01*
X162896664Y-113115690D01*
X162990822Y-113231964D01*
X163017714Y-113296451D01*
X163005472Y-113365240D01*
X162990822Y-113388036D01*
X162896664Y-113504309D01*
X162896663Y-113504311D01*
X162807045Y-113680200D01*
X162755952Y-113870881D01*
X162755952Y-113870882D01*
X162749500Y-113952864D01*
X162749500Y-115207135D01*
X162755952Y-115289117D01*
X162755952Y-115289118D01*
X162788343Y-115410005D01*
X162807045Y-115479800D01*
X162837681Y-115539927D01*
X162896663Y-115655688D01*
X162896664Y-115655690D01*
X162990822Y-115771964D01*
X163017714Y-115836451D01*
X163005472Y-115905240D01*
X162990822Y-115928036D01*
X162896664Y-116044309D01*
X162896663Y-116044311D01*
X162807045Y-116220200D01*
X162755952Y-116410881D01*
X162755952Y-116410882D01*
X162749500Y-116492864D01*
X162749500Y-117747135D01*
X162755952Y-117829117D01*
X162755952Y-117829118D01*
X162788343Y-117950005D01*
X162807045Y-118019800D01*
X162814391Y-118034217D01*
X162896663Y-118195688D01*
X162896664Y-118195690D01*
X162990822Y-118311964D01*
X163002187Y-118339218D01*
X163015975Y-118365319D01*
X163015481Y-118371097D01*
X163017714Y-118376451D01*
X163012540Y-118405519D01*
X163010028Y-118434935D01*
X163006101Y-118441701D01*
X163005472Y-118445240D01*
X162992687Y-118465675D01*
X162991764Y-118466872D01*
X162896665Y-118584310D01*
X162887624Y-118602052D01*
X162880597Y-118611175D01*
X162861278Y-118625224D01*
X162844876Y-118642591D01*
X162832969Y-118645811D01*
X162824090Y-118652269D01*
X162805037Y-118653367D01*
X162782366Y-118659500D01*
X162625783Y-118659500D01*
X162558744Y-118639815D01*
X162538102Y-118623181D01*
X162036819Y-118121898D01*
X162003334Y-118060575D01*
X162000500Y-118034217D01*
X162000500Y-102465782D01*
X162020185Y-102398743D01*
X162036819Y-102378101D01*
X170795101Y-93619819D01*
X170856424Y-93586334D01*
X170882782Y-93583500D01*
X172447238Y-93583500D01*
X172514277Y-93603185D01*
X172520119Y-93607179D01*
X172641390Y-93695287D01*
X172757607Y-93754503D01*
X172823776Y-93788218D01*
X172823778Y-93788218D01*
X172823781Y-93788220D01*
X172928137Y-93822127D01*
X173018465Y-93851477D01*
X173119557Y-93867488D01*
X173220648Y-93883500D01*
X173220649Y-93883500D01*
X173425351Y-93883500D01*
X173425352Y-93883500D01*
X173627534Y-93851477D01*
X173822219Y-93788220D01*
X174004610Y-93695287D01*
X174131379Y-93603185D01*
X174170213Y-93574971D01*
X174170215Y-93574968D01*
X174170219Y-93574966D01*
X174314966Y-93430219D01*
X174314968Y-93430215D01*
X174314971Y-93430213D01*
X174435284Y-93264614D01*
X174435286Y-93264611D01*
X174435287Y-93264610D01*
X174482516Y-93171917D01*
X174530489Y-93121123D01*
X174598310Y-93104328D01*
X174664445Y-93126865D01*
G37*
%TD.AperFunction*%
%TD*%
M02*
