%TF.GenerationSoftware,KiCad,Pcbnew,9.0.7+1*%
%TF.CreationDate,2026-03-19T20:22:32+08:00*%
%TF.ProjectId,ContainerLevelSensor,436f6e74-6169-46e6-9572-4c6576656c53,v1.1*%
%TF.SameCoordinates,Original*%
%TF.FileFunction,Copper,L2,Bot*%
%TF.FilePolarity,Positive*%
%FSLAX46Y46*%
G04 Gerber Fmt 4.6, Leading zero omitted, Abs format (unit mm)*
G04 Created by KiCad (PCBNEW 9.0.7+1) date 2026-03-19 20:22:32*
%MOMM*%
%LPD*%
G01*
G04 APERTURE LIST*
G04 Aperture macros list*
%AMRoundRect*
0 Rectangle with rounded corners*
0 $1 Rounding radius*
0 $2 $3 $4 $5 $6 $7 $8 $9 X,Y pos of 4 corners*
0 Add a 4 corners polygon primitive as box body*
4,1,4,$2,$3,$4,$5,$6,$7,$8,$9,$2,$3,0*
0 Add four circle primitives for the rounded corners*
1,1,$1+$1,$2,$3*
1,1,$1+$1,$4,$5*
1,1,$1+$1,$6,$7*
1,1,$1+$1,$8,$9*
0 Add four rect primitives between the rounded corners*
20,1,$1+$1,$2,$3,$4,$5,0*
20,1,$1+$1,$4,$5,$6,$7,0*
20,1,$1+$1,$6,$7,$8,$9,0*
20,1,$1+$1,$8,$9,$2,$3,0*%
G04 Aperture macros list end*
%TA.AperFunction,ComponentPad*%
%ADD10RoundRect,0.249999X1.250001X-1.250001X1.250001X1.250001X-1.250001X1.250001X-1.250001X-1.250001X0*%
%TD*%
%TA.AperFunction,ComponentPad*%
%ADD11C,3.000000*%
%TD*%
%TA.AperFunction,ComponentPad*%
%ADD12C,5.600000*%
%TD*%
%TA.AperFunction,ComponentPad*%
%ADD13RoundRect,0.300000X0.700000X0.970000X-0.700000X0.970000X-0.700000X-0.970000X0.700000X-0.970000X0*%
%TD*%
%TA.AperFunction,ComponentPad*%
%ADD14RoundRect,0.250000X0.750000X1.020000X-0.750000X1.020000X-0.750000X-1.020000X0.750000X-1.020000X0*%
%TD*%
%TA.AperFunction,ComponentPad*%
%ADD15RoundRect,0.250000X-0.550000X-0.550000X0.550000X-0.550000X0.550000X0.550000X-0.550000X0.550000X0*%
%TD*%
%TA.AperFunction,ComponentPad*%
%ADD16C,1.600000*%
%TD*%
%TA.AperFunction,ConnectorPad*%
%ADD17RoundRect,0.300000X-1.200000X0.700000X-1.200000X-0.700000X1.200000X-0.700000X1.200000X0.700000X0*%
%TD*%
%TA.AperFunction,ConnectorPad*%
%ADD18RoundRect,0.300000X1.200000X-0.700000X1.200000X0.700000X-1.200000X0.700000X-1.200000X-0.700000X0*%
%TD*%
%TA.AperFunction,ViaPad*%
%ADD19C,0.600000*%
%TD*%
%TA.AperFunction,Conductor*%
%ADD20C,1.000000*%
%TD*%
G04 APERTURE END LIST*
D10*
%TO.P,BT1,1,+*%
%TO.N,Net-(BT1-+)*%
X151500000Y-126450000D03*
D11*
%TO.P,BT1,2,-*%
%TO.N,Net-(BT1--)*%
X151500000Y-53550000D03*
%TD*%
D12*
%TO.P,H1,1,1*%
%TO.N,GND*%
X166500000Y-85000000D03*
%TD*%
D13*
%TO.P,U1,1,OUT+*%
%TO.N,Net-(U1-OUT+)*%
X177700000Y-75360000D03*
%TO.P,U1,2,B+*%
%TO.N,Net-(BT1-+)*%
X175160000Y-75360000D03*
D14*
%TO.P,U1,3,B-*%
%TO.N,Net-(BT1--)*%
X167540000Y-75360000D03*
D13*
%TO.P,U1,4,OUT-*%
%TO.N,GND*%
X165000000Y-75360000D03*
%TO.P,U1,5,IN+*%
%TO.N,unconnected-(U1-IN+-Pad5)*%
X177700000Y-52500000D03*
%TO.P,U1,6,IN-*%
%TO.N,unconnected-(U1-IN--Pad6)*%
X165000000Y-52500000D03*
%TD*%
D15*
%TO.P,JP1,1,A*%
%TO.N,Net-(JP1-A)*%
X173630000Y-103250000D03*
D16*
%TO.P,JP1,2,B*%
%TO.N,GND*%
X181250000Y-103250000D03*
%TD*%
D15*
%TO.P,JP2,1,A*%
%TO.N,+3.3V*%
X173630000Y-98250000D03*
D16*
%TO.P,JP2,2,B*%
%TO.N,Net-(JP2-B)*%
X181250000Y-98250000D03*
%TD*%
D17*
%TO.P,U4,1,EN*%
%TO.N,Net-(U1-OUT+)*%
X179788000Y-71628000D03*
%TO.P,U4,2,VIN+*%
X179788000Y-69088000D03*
%TO.P,U4,3,VIN-*%
%TO.N,GND*%
X179788000Y-61468000D03*
D18*
%TO.P,U4,4,VOUT-*%
X163048000Y-69088000D03*
%TO.P,U4,5,VOUT+*%
%TO.N,Net-(JP2-B)*%
X163048000Y-61468000D03*
%TD*%
D16*
%TO.P,U3,1,VIN*%
%TO.N,+3.3V*%
X180943000Y-92583000D03*
%TO.P,U3,2,GND*%
%TO.N,GND*%
X178403000Y-92583000D03*
%TO.P,U3,3,SCL*%
%TO.N,Net-(U2-GPIO5)*%
X175863000Y-92583000D03*
%TO.P,U3,4,SDA*%
%TO.N,Net-(U2-GPIO4)*%
X173323000Y-92583000D03*
%TO.P,U3,5,G*%
%TO.N,unconnected-(U3-G-Pad5)*%
X173323000Y-82423000D03*
%TO.P,U3,6,X*%
%TO.N,unconnected-(U3-X-Pad6)*%
X175863000Y-82423000D03*
%TD*%
D19*
%TO.N,GND*%
X164000000Y-104000000D03*
X168000000Y-112000000D03*
X170000000Y-104000000D03*
X165000000Y-104000000D03*
X169000000Y-98000000D03*
X169000000Y-104000000D03*
X171000000Y-109000000D03*
X163000000Y-104000000D03*
X169000000Y-101000000D03*
X167000000Y-99000000D03*
X167000000Y-104000000D03*
X167000000Y-100000000D03*
X171000000Y-105000000D03*
X169000000Y-112000000D03*
X168000000Y-111000000D03*
X169000000Y-105000000D03*
X174000000Y-95000000D03*
X173000000Y-110000000D03*
X165000000Y-103000000D03*
X171000000Y-112000000D03*
X176000000Y-95000000D03*
X173000000Y-109000000D03*
X168000000Y-101000000D03*
X168000000Y-109000000D03*
X172000000Y-108000000D03*
X170000000Y-103000000D03*
X166000000Y-105000000D03*
X168000000Y-98000000D03*
X172000000Y-110000000D03*
X164000000Y-103000000D03*
X166000000Y-101000000D03*
X169000000Y-103000000D03*
X167000000Y-101000000D03*
X168000000Y-103000000D03*
X170000000Y-110000000D03*
X170000000Y-113000000D03*
X168000000Y-108000000D03*
X166000000Y-104000000D03*
X164000000Y-102000000D03*
X172000000Y-109000000D03*
X170000000Y-102000000D03*
X169000000Y-110000000D03*
X175000000Y-95000000D03*
X168000000Y-99000000D03*
X170000000Y-112000000D03*
X167000000Y-105000000D03*
X166000000Y-100000000D03*
X163000000Y-103000000D03*
X169000000Y-100000000D03*
X165000000Y-102000000D03*
X166000000Y-102000000D03*
X169000000Y-111000000D03*
X170000000Y-105000000D03*
X171000000Y-103000000D03*
X173000000Y-108000000D03*
X168000000Y-110000000D03*
X169000000Y-108000000D03*
X170000000Y-109000000D03*
X169000000Y-99000000D03*
X171000000Y-102000000D03*
X170000000Y-108000000D03*
X168000000Y-102000000D03*
X165000000Y-105000000D03*
X165000000Y-101000000D03*
X169000000Y-109000000D03*
X167000000Y-102000000D03*
X167000000Y-103000000D03*
X172000000Y-111000000D03*
X173000000Y-95000000D03*
X169000000Y-113000000D03*
X168000000Y-113000000D03*
X168000000Y-104000000D03*
X169000000Y-102000000D03*
X171000000Y-110000000D03*
X169000000Y-97000000D03*
X164000000Y-105000000D03*
X168000000Y-100000000D03*
X166000000Y-103000000D03*
X170000000Y-111000000D03*
X168000000Y-105000000D03*
X163000000Y-105000000D03*
X171000000Y-104000000D03*
X171000000Y-108000000D03*
X170000000Y-101000000D03*
X171000000Y-111000000D03*
%TD*%
D20*
%TO.N,+3.3V*%
X180943000Y-92583000D02*
X175276000Y-98250000D01*
X175276000Y-98250000D02*
X173630000Y-98250000D01*
%TO.N,Net-(U1-OUT+)*%
X179038000Y-69088000D02*
X179038000Y-71628000D01*
X177700000Y-72966000D02*
X179038000Y-71628000D01*
X177700000Y-75360000D02*
X177700000Y-72966000D01*
%TO.N,Net-(JP2-B)*%
X179000000Y-100500000D02*
X172500000Y-100500000D01*
X171000000Y-99000000D02*
X171000000Y-68670000D01*
X172500000Y-100500000D02*
X171000000Y-99000000D01*
X171000000Y-68670000D02*
X163798000Y-61468000D01*
X181250000Y-98250000D02*
X179000000Y-100500000D01*
%TD*%
%TA.AperFunction,Conductor*%
%TO.N,GND*%
G36*
X178003000Y-92635661D02*
G01*
X178030259Y-92737394D01*
X178082920Y-92828606D01*
X178157394Y-92903080D01*
X178248606Y-92955741D01*
X178350339Y-92983000D01*
X178356553Y-92983000D01*
X177677076Y-93662474D01*
X177721650Y-93694859D01*
X177903970Y-93787755D01*
X178028035Y-93828067D01*
X178085711Y-93867505D01*
X178112909Y-93931863D01*
X178100994Y-94000710D01*
X178077398Y-94033679D01*
X174913905Y-97197174D01*
X174852582Y-97230659D01*
X174782890Y-97225675D01*
X174738543Y-97197175D01*
X174738542Y-97197174D01*
X174648656Y-97107288D01*
X174573995Y-97061237D01*
X174499336Y-97015187D01*
X174499331Y-97015185D01*
X174497862Y-97014698D01*
X174332797Y-96960001D01*
X174332795Y-96960000D01*
X174230010Y-96949500D01*
X173029998Y-96949500D01*
X173029981Y-96949501D01*
X172927203Y-96960000D01*
X172927200Y-96960001D01*
X172760668Y-97015185D01*
X172760663Y-97015187D01*
X172611342Y-97107289D01*
X172487289Y-97231342D01*
X172395187Y-97380663D01*
X172395186Y-97380666D01*
X172340001Y-97547203D01*
X172340001Y-97547204D01*
X172340000Y-97547204D01*
X172329500Y-97649983D01*
X172329500Y-98615218D01*
X172323260Y-98636466D01*
X172321681Y-98658552D01*
X172313609Y-98669334D01*
X172309815Y-98682257D01*
X172293082Y-98696755D01*
X172279810Y-98714486D01*
X172267188Y-98719193D01*
X172257011Y-98728012D01*
X172235094Y-98731163D01*
X172214345Y-98738902D01*
X172201184Y-98736039D01*
X172187853Y-98737956D01*
X172167710Y-98728757D01*
X172146072Y-98724050D01*
X172128345Y-98710779D01*
X172124297Y-98708931D01*
X172117841Y-98702921D01*
X172036816Y-98621896D01*
X172003334Y-98560574D01*
X172000500Y-98534217D01*
X172000500Y-93356910D01*
X172020185Y-93289871D01*
X172072989Y-93244116D01*
X172142147Y-93234172D01*
X172205703Y-93263197D01*
X172224818Y-93284025D01*
X172331028Y-93430213D01*
X172475786Y-93574971D01*
X172596226Y-93662474D01*
X172641390Y-93695287D01*
X172757607Y-93754503D01*
X172823776Y-93788218D01*
X172823778Y-93788218D01*
X172823781Y-93788220D01*
X172928137Y-93822127D01*
X173018465Y-93851477D01*
X173119557Y-93867488D01*
X173220648Y-93883500D01*
X173220649Y-93883500D01*
X173425351Y-93883500D01*
X173425352Y-93883500D01*
X173627534Y-93851477D01*
X173822219Y-93788220D01*
X174004610Y-93695287D01*
X174097590Y-93627732D01*
X174170213Y-93574971D01*
X174170215Y-93574968D01*
X174170219Y-93574966D01*
X174314966Y-93430219D01*
X174314968Y-93430215D01*
X174314971Y-93430213D01*
X174435284Y-93264614D01*
X174435286Y-93264611D01*
X174435287Y-93264610D01*
X174482516Y-93171917D01*
X174530489Y-93121123D01*
X174598310Y-93104328D01*
X174664445Y-93126865D01*
X174703485Y-93171919D01*
X174750715Y-93264614D01*
X174871028Y-93430213D01*
X175015786Y-93574971D01*
X175136226Y-93662474D01*
X175181390Y-93695287D01*
X175297607Y-93754503D01*
X175363776Y-93788218D01*
X175363778Y-93788218D01*
X175363781Y-93788220D01*
X175468137Y-93822127D01*
X175558465Y-93851477D01*
X175659557Y-93867488D01*
X175760648Y-93883500D01*
X175760649Y-93883500D01*
X175965351Y-93883500D01*
X175965352Y-93883500D01*
X176167534Y-93851477D01*
X176362219Y-93788220D01*
X176544610Y-93695287D01*
X176637590Y-93627732D01*
X176710213Y-93574971D01*
X176710215Y-93574968D01*
X176710219Y-93574966D01*
X176854966Y-93430219D01*
X176854968Y-93430215D01*
X176854971Y-93430213D01*
X176975286Y-93264611D01*
X176975415Y-93264359D01*
X177022795Y-93171369D01*
X177070769Y-93120573D01*
X177138590Y-93103778D01*
X177204725Y-93126315D01*
X177243765Y-93171369D01*
X177291141Y-93264350D01*
X177291147Y-93264359D01*
X177323523Y-93308921D01*
X177323524Y-93308922D01*
X178003000Y-92629446D01*
X178003000Y-92635661D01*
G37*
%TD.AperFunction*%
%TA.AperFunction,Conductor*%
G36*
X164156864Y-50520185D02*
G01*
X164202619Y-50572989D01*
X164212563Y-50642147D01*
X164183538Y-50705703D01*
X164127175Y-50741924D01*
X164127318Y-50742332D01*
X164125613Y-50742928D01*
X164124760Y-50743477D01*
X164121961Y-50744206D01*
X163950476Y-50804211D01*
X163797737Y-50900184D01*
X163670184Y-51027737D01*
X163574211Y-51180476D01*
X163514631Y-51350745D01*
X163514630Y-51350750D01*
X163499500Y-51485039D01*
X163499500Y-53514960D01*
X163514630Y-53649249D01*
X163514631Y-53649254D01*
X163574211Y-53819523D01*
X163650612Y-53941114D01*
X163670184Y-53972262D01*
X163797738Y-54099816D01*
X163888080Y-54156582D01*
X163948297Y-54194419D01*
X163950478Y-54195789D01*
X164120745Y-54255368D01*
X164120750Y-54255369D01*
X164211246Y-54265565D01*
X164255040Y-54270499D01*
X164255043Y-54270500D01*
X164255046Y-54270500D01*
X165744957Y-54270500D01*
X165744958Y-54270499D01*
X165812104Y-54262934D01*
X165879249Y-54255369D01*
X165879252Y-54255368D01*
X165879255Y-54255368D01*
X166049522Y-54195789D01*
X166202262Y-54099816D01*
X166329816Y-53972262D01*
X166425789Y-53819522D01*
X166485368Y-53649255D01*
X166500500Y-53514954D01*
X166500500Y-51485046D01*
X166485368Y-51350745D01*
X166425789Y-51180478D01*
X166329816Y-51027738D01*
X166202262Y-50900184D01*
X166049523Y-50804211D01*
X165872682Y-50742332D01*
X165873407Y-50740257D01*
X165821608Y-50711287D01*
X165788747Y-50649627D01*
X165794439Y-50579989D01*
X165836876Y-50524484D01*
X165902585Y-50500733D01*
X165910175Y-50500500D01*
X176789825Y-50500500D01*
X176856864Y-50520185D01*
X176902619Y-50572989D01*
X176912563Y-50642147D01*
X176883538Y-50705703D01*
X176827175Y-50741924D01*
X176827318Y-50742332D01*
X176825613Y-50742928D01*
X176824760Y-50743477D01*
X176821961Y-50744206D01*
X176650476Y-50804211D01*
X176497737Y-50900184D01*
X176370184Y-51027737D01*
X176274211Y-51180476D01*
X176214631Y-51350745D01*
X176214630Y-51350750D01*
X176199500Y-51485039D01*
X176199500Y-53514960D01*
X176214630Y-53649249D01*
X176214631Y-53649254D01*
X176274211Y-53819523D01*
X176350612Y-53941114D01*
X176370184Y-53972262D01*
X176497738Y-54099816D01*
X176588080Y-54156582D01*
X176648297Y-54194419D01*
X176650478Y-54195789D01*
X176820745Y-54255368D01*
X176820750Y-54255369D01*
X176911246Y-54265565D01*
X176955040Y-54270499D01*
X176955043Y-54270500D01*
X176955046Y-54270500D01*
X178444957Y-54270500D01*
X178444958Y-54270499D01*
X178512104Y-54262934D01*
X178579249Y-54255369D01*
X178579252Y-54255368D01*
X178579255Y-54255368D01*
X178749522Y-54195789D01*
X178902262Y-54099816D01*
X179029816Y-53972262D01*
X179125789Y-53819522D01*
X179185368Y-53649255D01*
X179200500Y-53514954D01*
X179200500Y-51485046D01*
X179185368Y-51350745D01*
X179125789Y-51180478D01*
X179029816Y-51027738D01*
X178902262Y-50900184D01*
X178749523Y-50804211D01*
X178572682Y-50742332D01*
X178573407Y-50740257D01*
X178521608Y-50711287D01*
X178488747Y-50649627D01*
X178494439Y-50579989D01*
X178536876Y-50524484D01*
X178602585Y-50500733D01*
X178610175Y-50500500D01*
X183375500Y-50500500D01*
X183442539Y-50520185D01*
X183488294Y-50572989D01*
X183499500Y-50624500D01*
X183499500Y-128876000D01*
X183479815Y-128943039D01*
X183427011Y-128988794D01*
X183375500Y-129000000D01*
X141124000Y-129000000D01*
X141056961Y-128980315D01*
X141011206Y-128927511D01*
X141000000Y-128876000D01*
X141000000Y-125149982D01*
X149499500Y-125149982D01*
X149499500Y-127750017D01*
X149510000Y-127852796D01*
X149510001Y-127852798D01*
X149565186Y-128019335D01*
X149657288Y-128168656D01*
X149781344Y-128292712D01*
X149930665Y-128384814D01*
X150097202Y-128439999D01*
X150199990Y-128450500D01*
X150199995Y-128450500D01*
X152800005Y-128450500D01*
X152800010Y-128450500D01*
X152902798Y-128439999D01*
X153069335Y-128384814D01*
X153218656Y-128292712D01*
X153342712Y-128168656D01*
X153434814Y-128019335D01*
X153489999Y-127852798D01*
X153500500Y-127750010D01*
X153500500Y-125149990D01*
X153489999Y-125047202D01*
X153434814Y-124880665D01*
X153342712Y-124731344D01*
X153218656Y-124607288D01*
X153069335Y-124515186D01*
X152902798Y-124460001D01*
X152902796Y-124460000D01*
X152800017Y-124449500D01*
X152800010Y-124449500D01*
X150199990Y-124449500D01*
X150199982Y-124449500D01*
X150097203Y-124460000D01*
X150097202Y-124460001D01*
X150014669Y-124487349D01*
X149930667Y-124515185D01*
X149930662Y-124515187D01*
X149781342Y-124607289D01*
X149657289Y-124731342D01*
X149565187Y-124880662D01*
X149565186Y-124880665D01*
X149510001Y-125047202D01*
X149510001Y-125047203D01*
X149510000Y-125047203D01*
X149499500Y-125149982D01*
X141000000Y-125149982D01*
X141000000Y-117883711D01*
X149649500Y-117883711D01*
X149649500Y-118126288D01*
X149681161Y-118366785D01*
X149743947Y-118601104D01*
X149836773Y-118825205D01*
X149836776Y-118825212D01*
X149958064Y-119035289D01*
X149958066Y-119035292D01*
X149958067Y-119035293D01*
X150105733Y-119227736D01*
X150105739Y-119227743D01*
X150277256Y-119399260D01*
X150277262Y-119399265D01*
X150469711Y-119546936D01*
X150679788Y-119668224D01*
X150903900Y-119761054D01*
X151138211Y-119823838D01*
X151318586Y-119847584D01*
X151378711Y-119855500D01*
X151378712Y-119855500D01*
X151621289Y-119855500D01*
X151669388Y-119849167D01*
X151861789Y-119823838D01*
X152096100Y-119761054D01*
X152320212Y-119668224D01*
X152530289Y-119546936D01*
X152722738Y-119399265D01*
X152894265Y-119227738D01*
X153041936Y-119035289D01*
X153163224Y-118825212D01*
X153256054Y-118601100D01*
X153318838Y-118366789D01*
X153350500Y-118126288D01*
X153350500Y-117883712D01*
X153318838Y-117643211D01*
X153256054Y-117408900D01*
X153163224Y-117184788D01*
X153041936Y-116974711D01*
X152894265Y-116782262D01*
X152894260Y-116782256D01*
X152722743Y-116610739D01*
X152722736Y-116610733D01*
X152530293Y-116463067D01*
X152530292Y-116463066D01*
X152530289Y-116463064D01*
X152320212Y-116341776D01*
X152320205Y-116341773D01*
X152096104Y-116248947D01*
X151861785Y-116186161D01*
X151621289Y-116154500D01*
X151621288Y-116154500D01*
X151378712Y-116154500D01*
X151378711Y-116154500D01*
X151138214Y-116186161D01*
X150903895Y-116248947D01*
X150679794Y-116341773D01*
X150679785Y-116341777D01*
X150469706Y-116463067D01*
X150277263Y-116610733D01*
X150277256Y-116610739D01*
X150105739Y-116782256D01*
X150105733Y-116782263D01*
X149958067Y-116974706D01*
X149836777Y-117184785D01*
X149836773Y-117184794D01*
X149743947Y-117408895D01*
X149681161Y-117643214D01*
X149649500Y-117883711D01*
X141000000Y-117883711D01*
X141000000Y-102649983D01*
X172329500Y-102649983D01*
X172329500Y-103850001D01*
X172329501Y-103850018D01*
X172340000Y-103952796D01*
X172340001Y-103952799D01*
X172395185Y-104119331D01*
X172395186Y-104119334D01*
X172487288Y-104268656D01*
X172611344Y-104392712D01*
X172760666Y-104484814D01*
X172927203Y-104539999D01*
X173029991Y-104550500D01*
X174230008Y-104550499D01*
X174332797Y-104539999D01*
X174499334Y-104484814D01*
X174648656Y-104392712D01*
X174772712Y-104268656D01*
X174864814Y-104119334D01*
X174919999Y-103952797D01*
X174930500Y-103850009D01*
X174930499Y-103147682D01*
X179950000Y-103147682D01*
X179950000Y-103352317D01*
X179982009Y-103554417D01*
X180045244Y-103749031D01*
X180138141Y-103931350D01*
X180138147Y-103931359D01*
X180170523Y-103975921D01*
X180170524Y-103975922D01*
X180850000Y-103296446D01*
X180850000Y-103302661D01*
X180877259Y-103404394D01*
X180929920Y-103495606D01*
X181004394Y-103570080D01*
X181095606Y-103622741D01*
X181197339Y-103650000D01*
X181203553Y-103650000D01*
X180524076Y-104329474D01*
X180568650Y-104361859D01*
X180750968Y-104454755D01*
X180945582Y-104517990D01*
X181147683Y-104550000D01*
X181352317Y-104550000D01*
X181554417Y-104517990D01*
X181749031Y-104454755D01*
X181931349Y-104361859D01*
X181975921Y-104329474D01*
X181296447Y-103650000D01*
X181302661Y-103650000D01*
X181404394Y-103622741D01*
X181495606Y-103570080D01*
X181570080Y-103495606D01*
X181622741Y-103404394D01*
X181650000Y-103302661D01*
X181650000Y-103296447D01*
X182329474Y-103975921D01*
X182361859Y-103931349D01*
X182454755Y-103749031D01*
X182517990Y-103554417D01*
X182550000Y-103352317D01*
X182550000Y-103147682D01*
X182517990Y-102945582D01*
X182454755Y-102750968D01*
X182361859Y-102568650D01*
X182329474Y-102524077D01*
X182329474Y-102524076D01*
X181650000Y-103203551D01*
X181650000Y-103197339D01*
X181622741Y-103095606D01*
X181570080Y-103004394D01*
X181495606Y-102929920D01*
X181404394Y-102877259D01*
X181302661Y-102850000D01*
X181296446Y-102850000D01*
X181975922Y-102170524D01*
X181975921Y-102170523D01*
X181931359Y-102138147D01*
X181931350Y-102138141D01*
X181749031Y-102045244D01*
X181554417Y-101982009D01*
X181352317Y-101950000D01*
X181147683Y-101950000D01*
X180945582Y-101982009D01*
X180750968Y-102045244D01*
X180568644Y-102138143D01*
X180524077Y-102170523D01*
X180524077Y-102170524D01*
X181203554Y-102850000D01*
X181197339Y-102850000D01*
X181095606Y-102877259D01*
X181004394Y-102929920D01*
X180929920Y-103004394D01*
X180877259Y-103095606D01*
X180850000Y-103197339D01*
X180850000Y-103203553D01*
X180170524Y-102524077D01*
X180170523Y-102524077D01*
X180138143Y-102568644D01*
X180045244Y-102750968D01*
X179982009Y-102945582D01*
X179950000Y-103147682D01*
X174930499Y-103147682D01*
X174930499Y-102649992D01*
X174919999Y-102547203D01*
X174864814Y-102380666D01*
X174772712Y-102231344D01*
X174648656Y-102107288D01*
X174499334Y-102015186D01*
X174332797Y-101960001D01*
X174332795Y-101960000D01*
X174230010Y-101949500D01*
X173029998Y-101949500D01*
X173029981Y-101949501D01*
X172927203Y-101960000D01*
X172927200Y-101960001D01*
X172760668Y-102015185D01*
X172760663Y-102015187D01*
X172611342Y-102107289D01*
X172487289Y-102231342D01*
X172395187Y-102380663D01*
X172395186Y-102380666D01*
X172340001Y-102547203D01*
X172340001Y-102547204D01*
X172340000Y-102547204D01*
X172329500Y-102649983D01*
X141000000Y-102649983D01*
X141000000Y-74345069D01*
X163500000Y-74345069D01*
X163500000Y-75110000D01*
X164684314Y-75110000D01*
X164679920Y-75114394D01*
X164627259Y-75205606D01*
X164600000Y-75307339D01*
X164600000Y-75412661D01*
X164627259Y-75514394D01*
X164679920Y-75605606D01*
X164684314Y-75610000D01*
X163500000Y-75610000D01*
X163500000Y-76374930D01*
X163515122Y-76509141D01*
X163574663Y-76679301D01*
X163670577Y-76831948D01*
X163798051Y-76959422D01*
X163950698Y-77055336D01*
X164120858Y-77114877D01*
X164255069Y-77129999D01*
X164255070Y-77130000D01*
X164750000Y-77130000D01*
X164750000Y-75675686D01*
X164754394Y-75680080D01*
X164845606Y-75732741D01*
X164947339Y-75760000D01*
X165052661Y-75760000D01*
X165154394Y-75732741D01*
X165245606Y-75680080D01*
X165250000Y-75675686D01*
X165250000Y-77130000D01*
X165744930Y-77130000D01*
X165744930Y-77129999D01*
X165879141Y-77114877D01*
X166049301Y-77055336D01*
X166185055Y-76970037D01*
X166252292Y-76951037D01*
X166316123Y-76969492D01*
X166470659Y-77064810D01*
X166470660Y-77064810D01*
X166470666Y-77064814D01*
X166637203Y-77119999D01*
X166739991Y-77130500D01*
X168340008Y-77130499D01*
X168442797Y-77119999D01*
X168609334Y-77064814D01*
X168758656Y-76972712D01*
X168882712Y-76848656D01*
X168974814Y-76699334D01*
X169029999Y-76532797D01*
X169040500Y-76430009D01*
X169040499Y-74289992D01*
X169029999Y-74187203D01*
X168974814Y-74020666D01*
X168882712Y-73871344D01*
X168758656Y-73747288D01*
X168633139Y-73669869D01*
X168609336Y-73655187D01*
X168609331Y-73655185D01*
X168584718Y-73647029D01*
X168442797Y-73600001D01*
X168442795Y-73600000D01*
X168340010Y-73589500D01*
X166739998Y-73589500D01*
X166739981Y-73589501D01*
X166637203Y-73600000D01*
X166637200Y-73600001D01*
X166470668Y-73655185D01*
X166470659Y-73655189D01*
X166316123Y-73750508D01*
X166248731Y-73768948D01*
X166185055Y-73749963D01*
X166049301Y-73664663D01*
X165879141Y-73605122D01*
X165744930Y-73590000D01*
X165250000Y-73590000D01*
X165250000Y-75044314D01*
X165245606Y-75039920D01*
X165154394Y-74987259D01*
X165052661Y-74960000D01*
X164947339Y-74960000D01*
X164845606Y-74987259D01*
X164754394Y-75039920D01*
X164750000Y-75044314D01*
X164750000Y-73590000D01*
X164255070Y-73590000D01*
X164120858Y-73605122D01*
X163950698Y-73664663D01*
X163798051Y-73760577D01*
X163670577Y-73888051D01*
X163574663Y-74040698D01*
X163515122Y-74210858D01*
X163500000Y-74345069D01*
X141000000Y-74345069D01*
X141000000Y-69832930D01*
X161048000Y-69832930D01*
X161063122Y-69967141D01*
X161122663Y-70137301D01*
X161218577Y-70289948D01*
X161346051Y-70417422D01*
X161498698Y-70513336D01*
X161668858Y-70572877D01*
X161803069Y-70587999D01*
X161803070Y-70588000D01*
X162798000Y-70588000D01*
X163298000Y-70588000D01*
X164292930Y-70588000D01*
X164292930Y-70587999D01*
X164427141Y-70572877D01*
X164597301Y-70513336D01*
X164749948Y-70417422D01*
X164877422Y-70289948D01*
X164973336Y-70137301D01*
X165032877Y-69967141D01*
X165047999Y-69832930D01*
X165048000Y-69832930D01*
X165048000Y-69338000D01*
X163298000Y-69338000D01*
X163298000Y-70588000D01*
X162798000Y-70588000D01*
X162798000Y-69338000D01*
X161048000Y-69338000D01*
X161048000Y-69832930D01*
X141000000Y-69832930D01*
X141000000Y-68343069D01*
X161048000Y-68343069D01*
X161048000Y-68838000D01*
X162798000Y-68838000D01*
X163298000Y-68838000D01*
X165048000Y-68838000D01*
X165048000Y-68343070D01*
X165047999Y-68343069D01*
X165032877Y-68208858D01*
X164973336Y-68038698D01*
X164877422Y-67886051D01*
X164749948Y-67758577D01*
X164597301Y-67662663D01*
X164427141Y-67603122D01*
X164292930Y-67588000D01*
X163298000Y-67588000D01*
X163298000Y-68838000D01*
X162798000Y-68838000D01*
X162798000Y-67588000D01*
X161803070Y-67588000D01*
X161668858Y-67603122D01*
X161498698Y-67662663D01*
X161346051Y-67758577D01*
X161218577Y-67886051D01*
X161122663Y-68038698D01*
X161063122Y-68208858D01*
X161048000Y-68343069D01*
X141000000Y-68343069D01*
X141000000Y-62273711D01*
X149649500Y-62273711D01*
X149649500Y-62516288D01*
X149681161Y-62756785D01*
X149743947Y-62991104D01*
X149836773Y-63215205D01*
X149836776Y-63215212D01*
X149958064Y-63425289D01*
X149958066Y-63425292D01*
X149958067Y-63425293D01*
X150105733Y-63617736D01*
X150105739Y-63617743D01*
X150277256Y-63789260D01*
X150277262Y-63789265D01*
X150469711Y-63936936D01*
X150679788Y-64058224D01*
X150903900Y-64151054D01*
X151138211Y-64213838D01*
X151318586Y-64237584D01*
X151378711Y-64245500D01*
X151378712Y-64245500D01*
X151621289Y-64245500D01*
X151669388Y-64239167D01*
X151861789Y-64213838D01*
X152096100Y-64151054D01*
X152320212Y-64058224D01*
X152530289Y-63936936D01*
X152722738Y-63789265D01*
X152894265Y-63617738D01*
X153041936Y-63425289D01*
X153163224Y-63215212D01*
X153256054Y-62991100D01*
X153318838Y-62756789D01*
X153350500Y-62516288D01*
X153350500Y-62273712D01*
X153318838Y-62033211D01*
X153256054Y-61798900D01*
X153163224Y-61574788D01*
X153041936Y-61364711D01*
X152894265Y-61172262D01*
X152894260Y-61172256D01*
X152722743Y-61000739D01*
X152722736Y-61000733D01*
X152530293Y-60853067D01*
X152530292Y-60853066D01*
X152530289Y-60853064D01*
X152320212Y-60731776D01*
X152299194Y-60723070D01*
X152299119Y-60723039D01*
X161047500Y-60723039D01*
X161047500Y-62212960D01*
X161062630Y-62347249D01*
X161062631Y-62347254D01*
X161122211Y-62517523D01*
X161217987Y-62669948D01*
X161218184Y-62670262D01*
X161345738Y-62797816D01*
X161498478Y-62893789D01*
X161667342Y-62952877D01*
X161668745Y-62953368D01*
X161668750Y-62953369D01*
X161759246Y-62963565D01*
X161803040Y-62968499D01*
X161803043Y-62968500D01*
X161803046Y-62968500D01*
X163832218Y-62968500D01*
X163899257Y-62988185D01*
X163919899Y-63004819D01*
X169963181Y-69048101D01*
X169996666Y-69109424D01*
X169999500Y-69135782D01*
X169999500Y-99098541D01*
X169999500Y-99098543D01*
X169999499Y-99098543D01*
X170037947Y-99291829D01*
X170037950Y-99291839D01*
X170113364Y-99473907D01*
X170113371Y-99473920D01*
X170222859Y-99637780D01*
X170222860Y-99637781D01*
X170222861Y-99637782D01*
X170362218Y-99777139D01*
X170362219Y-99777139D01*
X170369286Y-99784206D01*
X170369285Y-99784206D01*
X170369288Y-99784208D01*
X171722860Y-101137781D01*
X171722861Y-101137782D01*
X171862218Y-101277139D01*
X172026086Y-101386632D01*
X172132745Y-101430811D01*
X172208164Y-101462051D01*
X172401454Y-101500499D01*
X172401457Y-101500500D01*
X172401459Y-101500500D01*
X179098542Y-101500500D01*
X179129566Y-101494328D01*
X179195188Y-101481275D01*
X179291836Y-101462051D01*
X179345165Y-101439961D01*
X179473914Y-101386632D01*
X179637782Y-101277139D01*
X179777139Y-101137782D01*
X179777139Y-101137780D01*
X179787347Y-101127573D01*
X179787349Y-101127570D01*
X181338203Y-99576715D01*
X181399524Y-99543232D01*
X181406473Y-99541927D01*
X181554534Y-99518477D01*
X181749219Y-99455220D01*
X181931610Y-99362287D01*
X182035484Y-99286819D01*
X182097213Y-99241971D01*
X182097215Y-99241968D01*
X182097219Y-99241966D01*
X182241966Y-99097219D01*
X182241968Y-99097215D01*
X182241971Y-99097213D01*
X182294732Y-99024590D01*
X182362287Y-98931610D01*
X182455220Y-98749219D01*
X182518477Y-98554534D01*
X182550500Y-98352352D01*
X182550500Y-98147648D01*
X182518477Y-97945466D01*
X182455220Y-97750781D01*
X182455218Y-97750778D01*
X182455218Y-97750776D01*
X182403865Y-97649991D01*
X182362287Y-97568390D01*
X182346894Y-97547203D01*
X182241971Y-97402786D01*
X182097213Y-97258028D01*
X181931613Y-97137715D01*
X181931612Y-97137714D01*
X181931610Y-97137713D01*
X181871896Y-97107287D01*
X181749223Y-97044781D01*
X181554534Y-96981522D01*
X181379995Y-96953878D01*
X181352352Y-96949500D01*
X181147648Y-96949500D01*
X181123329Y-96953351D01*
X180945465Y-96981522D01*
X180750776Y-97044781D01*
X180568386Y-97137715D01*
X180402786Y-97258028D01*
X180258028Y-97402786D01*
X180137715Y-97568386D01*
X180044781Y-97750778D01*
X179981522Y-97945468D01*
X179958073Y-98093515D01*
X179928143Y-98156649D01*
X179923281Y-98161797D01*
X178621899Y-99463181D01*
X178560576Y-99496666D01*
X178534218Y-99499500D01*
X174841231Y-99499500D01*
X174819985Y-99493261D01*
X174797897Y-99491682D01*
X174787113Y-99483609D01*
X174774192Y-99479815D01*
X174759692Y-99463081D01*
X174741964Y-99449810D01*
X174737256Y-99437189D01*
X174728437Y-99427011D01*
X174725285Y-99405093D01*
X174717547Y-99384346D01*
X174720409Y-99371185D01*
X174718493Y-99357853D01*
X174727692Y-99337709D01*
X174732399Y-99316073D01*
X174745667Y-99298347D01*
X174747518Y-99294297D01*
X174753550Y-99287819D01*
X174754550Y-99286819D01*
X174815873Y-99253334D01*
X174842231Y-99250500D01*
X175374542Y-99250500D01*
X175405566Y-99244328D01*
X175471188Y-99231275D01*
X175567836Y-99212051D01*
X175621165Y-99189961D01*
X175749914Y-99136632D01*
X175913782Y-99027139D01*
X176053139Y-98887782D01*
X176053139Y-98887780D01*
X176063347Y-98877573D01*
X176063348Y-98877570D01*
X181031204Y-93909715D01*
X181092525Y-93876232D01*
X181099475Y-93874926D01*
X181247534Y-93851477D01*
X181442219Y-93788220D01*
X181624610Y-93695287D01*
X181717590Y-93627732D01*
X181790213Y-93574971D01*
X181790215Y-93574968D01*
X181790219Y-93574966D01*
X181934966Y-93430219D01*
X181934968Y-93430215D01*
X181934971Y-93430213D01*
X181988228Y-93356910D01*
X182055287Y-93264610D01*
X182148220Y-93082219D01*
X182211477Y-92887534D01*
X182243500Y-92685352D01*
X182243500Y-92480648D01*
X182235257Y-92428606D01*
X182211477Y-92278465D01*
X182148218Y-92083776D01*
X182102515Y-91994080D01*
X182055287Y-91901390D01*
X182023092Y-91857077D01*
X181934971Y-91735786D01*
X181790213Y-91591028D01*
X181624613Y-91470715D01*
X181624612Y-91470714D01*
X181624610Y-91470713D01*
X181567653Y-91441691D01*
X181442223Y-91377781D01*
X181247534Y-91314522D01*
X181072995Y-91286878D01*
X181045352Y-91282500D01*
X180840648Y-91282500D01*
X180816329Y-91286351D01*
X180638465Y-91314522D01*
X180443776Y-91377781D01*
X180261386Y-91470715D01*
X180095786Y-91591028D01*
X179951028Y-91735786D01*
X179830713Y-91901388D01*
X179783203Y-91994630D01*
X179735228Y-92045426D01*
X179667407Y-92062220D01*
X179601272Y-92039682D01*
X179562234Y-91994628D01*
X179514861Y-91901652D01*
X179482474Y-91857077D01*
X179482474Y-91857076D01*
X178803000Y-92536553D01*
X178803000Y-92530339D01*
X178775741Y-92428606D01*
X178723080Y-92337394D01*
X178648606Y-92262920D01*
X178557394Y-92210259D01*
X178455661Y-92183000D01*
X178449446Y-92183000D01*
X179128922Y-91503524D01*
X179128921Y-91503523D01*
X179084359Y-91471147D01*
X179084350Y-91471141D01*
X178902031Y-91378244D01*
X178707417Y-91315009D01*
X178505317Y-91283000D01*
X178300683Y-91283000D01*
X178098582Y-91315009D01*
X177903968Y-91378244D01*
X177721644Y-91471143D01*
X177677077Y-91503523D01*
X177677077Y-91503524D01*
X178356554Y-92183000D01*
X178350339Y-92183000D01*
X178248606Y-92210259D01*
X178157394Y-92262920D01*
X178082920Y-92337394D01*
X178030259Y-92428606D01*
X178003000Y-92530339D01*
X178003000Y-92536553D01*
X177323524Y-91857077D01*
X177323523Y-91857077D01*
X177291143Y-91901644D01*
X177243765Y-91994630D01*
X177195790Y-92045426D01*
X177127969Y-92062221D01*
X177061834Y-92039683D01*
X177022795Y-91994630D01*
X176975284Y-91901385D01*
X176854971Y-91735786D01*
X176710213Y-91591028D01*
X176544613Y-91470715D01*
X176544612Y-91470714D01*
X176544610Y-91470713D01*
X176487653Y-91441691D01*
X176362223Y-91377781D01*
X176167534Y-91314522D01*
X175992995Y-91286878D01*
X175965352Y-91282500D01*
X175760648Y-91282500D01*
X175736329Y-91286351D01*
X175558465Y-91314522D01*
X175363776Y-91377781D01*
X175181386Y-91470715D01*
X175015786Y-91591028D01*
X174871028Y-91735786D01*
X174750715Y-91901386D01*
X174703485Y-91994080D01*
X174655510Y-92044876D01*
X174587689Y-92061671D01*
X174521554Y-92039134D01*
X174482515Y-91994080D01*
X174481883Y-91992840D01*
X174435287Y-91901390D01*
X174403092Y-91857077D01*
X174314971Y-91735786D01*
X174170213Y-91591028D01*
X174004613Y-91470715D01*
X174004612Y-91470714D01*
X174004610Y-91470713D01*
X173947653Y-91441691D01*
X173822223Y-91377781D01*
X173627534Y-91314522D01*
X173452995Y-91286878D01*
X173425352Y-91282500D01*
X173220648Y-91282500D01*
X173196329Y-91286351D01*
X173018465Y-91314522D01*
X172823776Y-91377781D01*
X172641386Y-91470715D01*
X172475786Y-91591028D01*
X172331032Y-91735782D01*
X172331028Y-91735787D01*
X172224818Y-91881974D01*
X172169488Y-91924640D01*
X172099875Y-91930619D01*
X172038080Y-91898014D01*
X172003723Y-91837175D01*
X172000500Y-91809089D01*
X172000500Y-83196910D01*
X172020185Y-83129871D01*
X172072989Y-83084116D01*
X172142147Y-83074172D01*
X172205703Y-83103197D01*
X172224818Y-83124025D01*
X172331028Y-83270213D01*
X172475786Y-83414971D01*
X172630749Y-83527556D01*
X172641390Y-83535287D01*
X172757607Y-83594503D01*
X172823776Y-83628218D01*
X172823778Y-83628218D01*
X172823781Y-83628220D01*
X172928137Y-83662127D01*
X173018465Y-83691477D01*
X173119557Y-83707488D01*
X173220648Y-83723500D01*
X173220649Y-83723500D01*
X173425351Y-83723500D01*
X173425352Y-83723500D01*
X173627534Y-83691477D01*
X173822219Y-83628220D01*
X174004610Y-83535287D01*
X174097590Y-83467732D01*
X174170213Y-83414971D01*
X174170215Y-83414968D01*
X174170219Y-83414966D01*
X174314966Y-83270219D01*
X174314968Y-83270215D01*
X174314971Y-83270213D01*
X174435284Y-83104614D01*
X174435285Y-83104613D01*
X174435287Y-83104610D01*
X174482516Y-83011917D01*
X174530489Y-82961123D01*
X174598310Y-82944328D01*
X174664445Y-82966865D01*
X174703485Y-83011919D01*
X174750715Y-83104614D01*
X174871028Y-83270213D01*
X175015786Y-83414971D01*
X175170749Y-83527556D01*
X175181390Y-83535287D01*
X175297607Y-83594503D01*
X175363776Y-83628218D01*
X175363778Y-83628218D01*
X175363781Y-83628220D01*
X175468137Y-83662127D01*
X175558465Y-83691477D01*
X175659557Y-83707488D01*
X175760648Y-83723500D01*
X175760649Y-83723500D01*
X175965351Y-83723500D01*
X175965352Y-83723500D01*
X176167534Y-83691477D01*
X176362219Y-83628220D01*
X176544610Y-83535287D01*
X176637590Y-83467732D01*
X176710213Y-83414971D01*
X176710215Y-83414968D01*
X176710219Y-83414966D01*
X176854966Y-83270219D01*
X176854968Y-83270215D01*
X176854971Y-83270213D01*
X176908228Y-83196910D01*
X176975287Y-83104610D01*
X177068220Y-82922219D01*
X177131477Y-82727534D01*
X177163500Y-82525352D01*
X177163500Y-82320648D01*
X177131477Y-82118466D01*
X177068220Y-81923781D01*
X177068218Y-81923778D01*
X177068218Y-81923776D01*
X177022515Y-81834080D01*
X176975287Y-81741390D01*
X176961181Y-81721974D01*
X176854971Y-81575786D01*
X176710213Y-81431028D01*
X176544613Y-81310715D01*
X176544612Y-81310714D01*
X176544610Y-81310713D01*
X176487653Y-81281691D01*
X176362223Y-81217781D01*
X176167534Y-81154522D01*
X175992995Y-81126878D01*
X175965352Y-81122500D01*
X175760648Y-81122500D01*
X175736329Y-81126351D01*
X175558465Y-81154522D01*
X175363776Y-81217781D01*
X175181386Y-81310715D01*
X175015786Y-81431028D01*
X174871028Y-81575786D01*
X174750715Y-81741386D01*
X174703485Y-81834080D01*
X174655510Y-81884876D01*
X174587689Y-81901671D01*
X174521554Y-81879134D01*
X174482515Y-81834080D01*
X174481883Y-81832840D01*
X174435287Y-81741390D01*
X174421181Y-81721974D01*
X174314971Y-81575786D01*
X174170213Y-81431028D01*
X174004613Y-81310715D01*
X174004612Y-81310714D01*
X174004610Y-81310713D01*
X173947653Y-81281691D01*
X173822223Y-81217781D01*
X173627534Y-81154522D01*
X173452995Y-81126878D01*
X173425352Y-81122500D01*
X173220648Y-81122500D01*
X173196329Y-81126351D01*
X173018465Y-81154522D01*
X172823776Y-81217781D01*
X172641386Y-81310715D01*
X172475786Y-81431028D01*
X172331032Y-81575782D01*
X172331028Y-81575787D01*
X172224818Y-81721974D01*
X172169488Y-81764640D01*
X172099875Y-81770619D01*
X172038080Y-81738014D01*
X172003723Y-81677175D01*
X172000500Y-81649089D01*
X172000500Y-74345039D01*
X173659500Y-74345039D01*
X173659500Y-76374960D01*
X173674630Y-76509249D01*
X173674631Y-76509254D01*
X173734211Y-76679523D01*
X173829987Y-76831948D01*
X173830184Y-76832262D01*
X173957738Y-76959816D01*
X174110478Y-77055789D01*
X174279342Y-77114877D01*
X174280745Y-77115368D01*
X174280750Y-77115369D01*
X174371246Y-77125565D01*
X174415040Y-77130499D01*
X174415043Y-77130500D01*
X174415046Y-77130500D01*
X175904957Y-77130500D01*
X175904958Y-77130499D01*
X175972104Y-77122934D01*
X176039249Y-77115369D01*
X176039252Y-77115368D01*
X176039255Y-77115368D01*
X176209522Y-77055789D01*
X176362262Y-76959816D01*
X176362262Y-76959815D01*
X176364028Y-76958706D01*
X176431264Y-76939706D01*
X176495972Y-76958706D01*
X176497737Y-76959815D01*
X176497738Y-76959816D01*
X176650478Y-77055789D01*
X176819342Y-77114877D01*
X176820745Y-77115368D01*
X176820750Y-77115369D01*
X176911246Y-77125565D01*
X176955040Y-77130499D01*
X176955043Y-77130500D01*
X176955046Y-77130500D01*
X178444957Y-77130500D01*
X178444958Y-77130499D01*
X178512104Y-77122934D01*
X178579249Y-77115369D01*
X178579252Y-77115368D01*
X178579255Y-77115368D01*
X178749522Y-77055789D01*
X178902262Y-76959816D01*
X179029816Y-76832262D01*
X179125789Y-76679522D01*
X179185368Y-76509255D01*
X179200500Y-76374954D01*
X179200500Y-74345046D01*
X179185368Y-74210745D01*
X179125789Y-74040478D01*
X179113338Y-74020663D01*
X179086582Y-73978080D01*
X179029816Y-73887738D01*
X178902262Y-73760184D01*
X178902260Y-73760182D01*
X178758527Y-73669868D01*
X178752109Y-73662612D01*
X178743297Y-73658588D01*
X178729339Y-73636869D01*
X178712237Y-73617534D01*
X178709753Y-73606393D01*
X178705523Y-73599810D01*
X178700500Y-73564875D01*
X178700500Y-73431782D01*
X178720185Y-73364743D01*
X178736819Y-73344101D01*
X178916101Y-73164819D01*
X178977424Y-73131334D01*
X179003782Y-73128500D01*
X181032957Y-73128500D01*
X181032958Y-73128499D01*
X181100104Y-73120934D01*
X181167249Y-73113369D01*
X181167252Y-73113368D01*
X181167255Y-73113368D01*
X181337522Y-73053789D01*
X181490262Y-72957816D01*
X181617816Y-72830262D01*
X181713789Y-72677522D01*
X181773368Y-72507255D01*
X181775077Y-72492092D01*
X181788499Y-72372960D01*
X181788500Y-72372956D01*
X181788500Y-70883043D01*
X181788499Y-70883039D01*
X181773369Y-70748750D01*
X181773368Y-70748745D01*
X181713789Y-70578478D01*
X181617816Y-70425738D01*
X181617815Y-70425737D01*
X181616706Y-70423972D01*
X181597706Y-70356736D01*
X181616706Y-70292028D01*
X181618013Y-70289948D01*
X181713789Y-70137522D01*
X181773368Y-69967255D01*
X181788500Y-69832954D01*
X181788500Y-68343046D01*
X181773368Y-68208745D01*
X181713789Y-68038478D01*
X181617816Y-67885738D01*
X181490262Y-67758184D01*
X181337523Y-67662211D01*
X181167254Y-67602631D01*
X181167249Y-67602630D01*
X181032960Y-67587500D01*
X181032954Y-67587500D01*
X178543046Y-67587500D01*
X178543039Y-67587500D01*
X178408750Y-67602630D01*
X178408745Y-67602631D01*
X178238476Y-67662211D01*
X178085737Y-67758184D01*
X177958184Y-67885737D01*
X177862211Y-68038476D01*
X177802631Y-68208745D01*
X177802630Y-68208750D01*
X177787500Y-68343039D01*
X177787500Y-69832960D01*
X177802630Y-69967249D01*
X177802631Y-69967254D01*
X177862211Y-70137523D01*
X177959293Y-70292028D01*
X177978293Y-70359265D01*
X177959293Y-70423972D01*
X177862211Y-70578476D01*
X177802631Y-70748745D01*
X177802630Y-70748750D01*
X177787500Y-70883039D01*
X177787500Y-71412217D01*
X177767815Y-71479256D01*
X177751181Y-71499898D01*
X177062220Y-72188859D01*
X177062218Y-72188861D01*
X176992538Y-72258540D01*
X176922859Y-72328219D01*
X176813371Y-72492079D01*
X176813364Y-72492092D01*
X176737950Y-72674160D01*
X176737947Y-72674170D01*
X176699500Y-72867456D01*
X176699500Y-73564875D01*
X176696770Y-73574169D01*
X176698052Y-73583773D01*
X176687086Y-73607148D01*
X176679815Y-73631914D01*
X176671703Y-73639943D01*
X176668380Y-73647029D01*
X176641473Y-73669868D01*
X176641472Y-73669869D01*
X176495972Y-73761293D01*
X176428735Y-73780293D01*
X176364028Y-73761293D01*
X176209523Y-73664211D01*
X176039254Y-73604631D01*
X176039249Y-73604630D01*
X175904960Y-73589500D01*
X175904954Y-73589500D01*
X174415046Y-73589500D01*
X174415039Y-73589500D01*
X174280750Y-73604630D01*
X174280745Y-73604631D01*
X174110476Y-73664211D01*
X173957737Y-73760184D01*
X173830184Y-73887737D01*
X173734211Y-74040476D01*
X173674631Y-74210745D01*
X173674630Y-74210750D01*
X173659500Y-74345039D01*
X172000500Y-74345039D01*
X172000500Y-68571456D01*
X171962052Y-68378170D01*
X171962051Y-68378169D01*
X171962051Y-68378165D01*
X171947514Y-68343069D01*
X171886635Y-68196092D01*
X171886628Y-68196079D01*
X171777139Y-68032218D01*
X171777136Y-68032214D01*
X171634686Y-67889764D01*
X171634655Y-67889735D01*
X165957850Y-62212930D01*
X177788000Y-62212930D01*
X177803122Y-62347141D01*
X177862663Y-62517301D01*
X177958577Y-62669948D01*
X178086051Y-62797422D01*
X178238698Y-62893336D01*
X178408858Y-62952877D01*
X178543069Y-62967999D01*
X178543070Y-62968000D01*
X179538000Y-62968000D01*
X180038000Y-62968000D01*
X181032930Y-62968000D01*
X181032930Y-62967999D01*
X181167141Y-62952877D01*
X181337301Y-62893336D01*
X181489948Y-62797422D01*
X181617422Y-62669948D01*
X181713336Y-62517301D01*
X181772877Y-62347141D01*
X181787999Y-62212930D01*
X181788000Y-62212930D01*
X181788000Y-61718000D01*
X180038000Y-61718000D01*
X180038000Y-62968000D01*
X179538000Y-62968000D01*
X179538000Y-61718000D01*
X177788000Y-61718000D01*
X177788000Y-62212930D01*
X165957850Y-62212930D01*
X165084819Y-61339899D01*
X165051334Y-61278576D01*
X165048500Y-61252218D01*
X165048500Y-60723069D01*
X177788000Y-60723069D01*
X177788000Y-61218000D01*
X179538000Y-61218000D01*
X180038000Y-61218000D01*
X181788000Y-61218000D01*
X181788000Y-60723070D01*
X181787999Y-60723069D01*
X181772877Y-60588858D01*
X181713336Y-60418698D01*
X181617422Y-60266051D01*
X181489948Y-60138577D01*
X181337301Y-60042663D01*
X181167141Y-59983122D01*
X181032930Y-59968000D01*
X180038000Y-59968000D01*
X180038000Y-61218000D01*
X179538000Y-61218000D01*
X179538000Y-59968000D01*
X178543070Y-59968000D01*
X178408858Y-59983122D01*
X178238698Y-60042663D01*
X178086051Y-60138577D01*
X177958577Y-60266051D01*
X177862663Y-60418698D01*
X177803122Y-60588858D01*
X177788000Y-60723069D01*
X165048500Y-60723069D01*
X165048500Y-60723043D01*
X165048499Y-60723039D01*
X165033369Y-60588750D01*
X165033368Y-60588745D01*
X164973788Y-60418476D01*
X164934582Y-60356080D01*
X164877816Y-60265738D01*
X164750262Y-60138184D01*
X164597523Y-60042211D01*
X164427254Y-59982631D01*
X164427249Y-59982630D01*
X164292960Y-59967500D01*
X164292954Y-59967500D01*
X161803046Y-59967500D01*
X161803039Y-59967500D01*
X161668750Y-59982630D01*
X161668745Y-59982631D01*
X161498476Y-60042211D01*
X161345737Y-60138184D01*
X161218184Y-60265737D01*
X161122211Y-60418476D01*
X161062631Y-60588745D01*
X161062630Y-60588750D01*
X161047500Y-60723039D01*
X152299119Y-60723039D01*
X152096104Y-60638947D01*
X151909171Y-60588858D01*
X151861789Y-60576162D01*
X151861788Y-60576161D01*
X151861785Y-60576161D01*
X151621289Y-60544500D01*
X151621288Y-60544500D01*
X151378712Y-60544500D01*
X151378711Y-60544500D01*
X151138214Y-60576161D01*
X150903895Y-60638947D01*
X150679794Y-60731773D01*
X150679785Y-60731777D01*
X150469706Y-60853067D01*
X150277263Y-61000733D01*
X150277256Y-61000739D01*
X150105739Y-61172256D01*
X150105733Y-61172263D01*
X149958067Y-61364706D01*
X149836777Y-61574785D01*
X149836773Y-61574794D01*
X149743947Y-61798895D01*
X149681161Y-62033214D01*
X149649500Y-62273711D01*
X141000000Y-62273711D01*
X141000000Y-53418872D01*
X149499500Y-53418872D01*
X149499500Y-53681127D01*
X149526123Y-53883339D01*
X149533730Y-53941116D01*
X149601602Y-54194418D01*
X149601605Y-54194428D01*
X149701953Y-54436690D01*
X149701958Y-54436700D01*
X149833075Y-54663803D01*
X149992718Y-54871851D01*
X149992726Y-54871860D01*
X150178140Y-55057274D01*
X150178148Y-55057281D01*
X150386196Y-55216924D01*
X150613299Y-55348041D01*
X150613309Y-55348046D01*
X150855571Y-55448394D01*
X150855581Y-55448398D01*
X151108884Y-55516270D01*
X151368880Y-55550500D01*
X151368887Y-55550500D01*
X151631113Y-55550500D01*
X151631120Y-55550500D01*
X151891116Y-55516270D01*
X152144419Y-55448398D01*
X152386697Y-55348043D01*
X152613803Y-55216924D01*
X152821851Y-55057282D01*
X152821855Y-55057277D01*
X152821860Y-55057274D01*
X153007274Y-54871860D01*
X153007277Y-54871855D01*
X153007282Y-54871851D01*
X153166924Y-54663803D01*
X153298043Y-54436697D01*
X153398398Y-54194419D01*
X153466270Y-53941116D01*
X153500500Y-53681120D01*
X153500500Y-53418880D01*
X153466270Y-53158884D01*
X153398398Y-52905581D01*
X153398394Y-52905571D01*
X153298046Y-52663309D01*
X153298041Y-52663299D01*
X153166924Y-52436196D01*
X153007281Y-52228148D01*
X153007274Y-52228140D01*
X152821860Y-52042726D01*
X152821851Y-52042718D01*
X152613803Y-51883075D01*
X152386700Y-51751958D01*
X152386690Y-51751953D01*
X152144428Y-51651605D01*
X152144421Y-51651603D01*
X152144419Y-51651602D01*
X151891116Y-51583730D01*
X151833339Y-51576123D01*
X151631127Y-51549500D01*
X151631120Y-51549500D01*
X151368880Y-51549500D01*
X151368872Y-51549500D01*
X151137772Y-51579926D01*
X151108884Y-51583730D01*
X150855581Y-51651602D01*
X150855571Y-51651605D01*
X150613309Y-51751953D01*
X150613299Y-51751958D01*
X150386196Y-51883075D01*
X150178148Y-52042718D01*
X149992718Y-52228148D01*
X149833075Y-52436196D01*
X149701958Y-52663299D01*
X149701953Y-52663309D01*
X149601605Y-52905571D01*
X149601602Y-52905581D01*
X149533730Y-53158885D01*
X149499500Y-53418872D01*
X141000000Y-53418872D01*
X141000000Y-50624500D01*
X141019685Y-50557461D01*
X141072489Y-50511706D01*
X141124000Y-50500500D01*
X164089825Y-50500500D01*
X164156864Y-50520185D01*
G37*
%TD.AperFunction*%
%TD*%
M02*
