%TF.GenerationSoftware,KiCad,Pcbnew,9.0.7+1*%
%TF.CreationDate,2026-02-25T20:46:53+08:00*%
%TF.ProjectId,ContainerLevelSensor,436f6e74-6169-46e6-9572-4c6576656c53,rev?*%
%TF.SameCoordinates,Original*%
%TF.FileFunction,Legend,Top*%
%TF.FilePolarity,Positive*%
%FSLAX46Y46*%
G04 Gerber Fmt 4.6, Leading zero omitted, Abs format (unit mm)*
G04 Created by KiCad (PCBNEW 9.0.7+1) date 2026-02-25 20:46:53*
%MOMM*%
%LPD*%
G01*
G04 APERTURE LIST*
%ADD10C,0.100000*%
%ADD11C,0.150000*%
%ADD12C,0.090000*%
%ADD13C,0.120000*%
G04 APERTURE END LIST*
D10*
G36*
X131642141Y-104570411D02*
G01*
X131647759Y-104359019D01*
X131665955Y-104196598D01*
X131698073Y-104043946D01*
X131885651Y-104069225D01*
X131871729Y-104224685D01*
X131863303Y-104377215D01*
X131860494Y-104570411D01*
X131869675Y-104693761D01*
X131894768Y-104790931D01*
X131933279Y-104867166D01*
X131989417Y-104930183D01*
X132068699Y-104982208D01*
X132176911Y-105022627D01*
X132292085Y-105046423D01*
X132444380Y-105062700D01*
X132641705Y-105068789D01*
X132838944Y-105062702D01*
X132991248Y-105046427D01*
X133106499Y-105022627D01*
X133214634Y-104982218D01*
X133293926Y-104930195D01*
X133350131Y-104867166D01*
X133388642Y-104790931D01*
X133413735Y-104693761D01*
X133422916Y-104570411D01*
X133415955Y-104269504D01*
X133392141Y-104030024D01*
X133576911Y-104004745D01*
X133605866Y-104126528D01*
X133625882Y-104252651D01*
X133637029Y-104387897D01*
X133641269Y-104570411D01*
X133629070Y-104753467D01*
X133595695Y-104899032D01*
X133544671Y-105014200D01*
X133490437Y-105089815D01*
X133421272Y-105154887D01*
X133335289Y-105210038D01*
X133229720Y-105255024D01*
X133081895Y-105293444D01*
X132889101Y-105319468D01*
X132641705Y-105329152D01*
X132394222Y-105319465D01*
X132201438Y-105293439D01*
X132053690Y-105255024D01*
X131948121Y-105210038D01*
X131862139Y-105154887D01*
X131792973Y-105089815D01*
X131738739Y-105014200D01*
X131687715Y-104899032D01*
X131654340Y-104753467D01*
X131642141Y-104570411D01*
G37*
G36*
X133101068Y-102477137D02*
G01*
X133238547Y-102498668D01*
X133345979Y-102530861D01*
X133443111Y-102581798D01*
X133518139Y-102648984D01*
X133574102Y-102733827D01*
X133610828Y-102830687D01*
X133635138Y-102954191D01*
X133644078Y-103110327D01*
X133635178Y-103264516D01*
X133610904Y-103387223D01*
X133574102Y-103484141D01*
X133518181Y-103569096D01*
X133443146Y-103636786D01*
X133345979Y-103688572D01*
X133238470Y-103721485D01*
X133100995Y-103743474D01*
X132927225Y-103751587D01*
X132753537Y-103743474D01*
X132616144Y-103721484D01*
X132508715Y-103688572D01*
X132411469Y-103636779D01*
X132336397Y-103569088D01*
X132280470Y-103484141D01*
X132243668Y-103387223D01*
X132219394Y-103264516D01*
X132210494Y-103110327D01*
X132412117Y-103110327D01*
X132424989Y-103249555D01*
X132458279Y-103344190D01*
X132495112Y-103394362D01*
X132546805Y-103434864D01*
X132616548Y-103465945D01*
X132739582Y-103491939D01*
X132927225Y-103502337D01*
X133114991Y-103491940D01*
X133238146Y-103465945D01*
X133307808Y-103434870D01*
X133359465Y-103394370D01*
X133396293Y-103344190D01*
X133429583Y-103249555D01*
X133442455Y-103110327D01*
X133429627Y-102971028D01*
X133396293Y-102875244D01*
X133359358Y-102824156D01*
X133307678Y-102783195D01*
X133238146Y-102752023D01*
X133114991Y-102726029D01*
X132927225Y-102715631D01*
X132739582Y-102726030D01*
X132616548Y-102752023D01*
X132546936Y-102783202D01*
X132495219Y-102824164D01*
X132458279Y-102875244D01*
X132424945Y-102971028D01*
X132412117Y-103110327D01*
X132210494Y-103110327D01*
X132219434Y-102954191D01*
X132243744Y-102830687D01*
X132280470Y-102733827D01*
X132336439Y-102648992D01*
X132411504Y-102581805D01*
X132508715Y-102530861D01*
X132616068Y-102498669D01*
X132753464Y-102477138D01*
X132927225Y-102469190D01*
X133101068Y-102477137D01*
G37*
G36*
X132210494Y-101269836D02*
G01*
X132222274Y-101150437D01*
X132254231Y-101060496D01*
X132303830Y-100993038D01*
X132372153Y-100943807D01*
X132463694Y-100911948D01*
X132585651Y-100900174D01*
X133607686Y-100900174D01*
X133607686Y-101138189D01*
X132652940Y-101138189D01*
X132561670Y-101144546D01*
X132501636Y-101160567D01*
X132463896Y-101183007D01*
X132436811Y-101216635D01*
X132418905Y-101265238D01*
X132412117Y-101334193D01*
X132427129Y-101458554D01*
X132473788Y-101586252D01*
X132542663Y-101717219D01*
X132641705Y-101885816D01*
X132470857Y-101897051D01*
X132359316Y-101734833D01*
X132279127Y-101580635D01*
X132240425Y-101474450D01*
X132217882Y-101371183D01*
X132210494Y-101269836D01*
G37*
G36*
X132244078Y-101897051D02*
G01*
X132504441Y-101877390D01*
X132546450Y-101860659D01*
X133607686Y-101860659D01*
X133607686Y-102098674D01*
X132244078Y-102098674D01*
X132244078Y-101897051D01*
G37*
G36*
X131840833Y-100131297D02*
G01*
X133232528Y-100131297D01*
X133321143Y-100119365D01*
X133372480Y-100089410D01*
X133402434Y-100037710D01*
X133414489Y-99946528D01*
X133414489Y-99739288D01*
X133596450Y-99711322D01*
X133616112Y-99815003D01*
X133628690Y-99929797D01*
X133632843Y-100019312D01*
X133621115Y-100129272D01*
X133588829Y-100214157D01*
X133537710Y-100279797D01*
X133468934Y-100327531D01*
X133379485Y-100358125D01*
X133263303Y-100369312D01*
X131840833Y-100369312D01*
X131840833Y-100131297D01*
G37*
G36*
X132244078Y-99697400D02*
G01*
X132431656Y-99697400D01*
X132431656Y-100615753D01*
X132258122Y-100615753D01*
X132244078Y-100346964D01*
X132244078Y-99697400D01*
G37*
G36*
X132210494Y-98762072D02*
G01*
X132221454Y-98617537D01*
X132251161Y-98505861D01*
X132284652Y-98441041D01*
X132329583Y-98388853D01*
X132386960Y-98347714D01*
X132452657Y-98319826D01*
X132537859Y-98301313D01*
X132647323Y-98294469D01*
X133607686Y-98294469D01*
X133607686Y-98482048D01*
X133310930Y-98518440D01*
X133280034Y-98535293D01*
X132647323Y-98535293D01*
X132565209Y-98542862D01*
X132507082Y-98562792D01*
X132466705Y-98592690D01*
X132439475Y-98635175D01*
X132419932Y-98704630D01*
X132412117Y-98812508D01*
X132423352Y-99079954D01*
X132448509Y-99397714D01*
X132272043Y-99420062D01*
X132241269Y-99211601D01*
X132218921Y-98980547D01*
X132210494Y-98762072D01*
G37*
G36*
X132767734Y-98406454D02*
G01*
X132946886Y-98409263D01*
X132949695Y-99061636D01*
X132957801Y-99125010D01*
X132975618Y-99169053D01*
X133001475Y-99198900D01*
X133057047Y-99227452D01*
X133137274Y-99238101D01*
X133224102Y-99238101D01*
X133293251Y-99231583D01*
X133343501Y-99214209D01*
X133379563Y-99187787D01*
X133405056Y-99150924D01*
X133422081Y-99098503D01*
X133428533Y-99025244D01*
X133421703Y-98944855D01*
X133399102Y-98847557D01*
X133362377Y-98749438D01*
X133308122Y-98647400D01*
X133238760Y-98551538D01*
X133151318Y-98462508D01*
X133327661Y-98462508D01*
X133418764Y-98550680D01*
X133468570Y-98611967D01*
X133519514Y-98687944D01*
X133563881Y-98770990D01*
X133600725Y-98864288D01*
X133624624Y-98963516D01*
X133632843Y-99072871D01*
X133621553Y-99188480D01*
X133589489Y-99285729D01*
X133535468Y-99368133D01*
X133460773Y-99429954D01*
X133368615Y-99468093D01*
X133252068Y-99481734D01*
X133103690Y-99481734D01*
X133001714Y-99469813D01*
X132920743Y-99436429D01*
X132855906Y-99382327D01*
X132808784Y-99311108D01*
X132778682Y-99220070D01*
X132767734Y-99103646D01*
X132767734Y-98406454D01*
G37*
G36*
X132244078Y-97623900D02*
G01*
X133607686Y-97623900D01*
X133607686Y-97859106D01*
X132244078Y-97859106D01*
X132244078Y-97623900D01*
G37*
G36*
X131664489Y-97685450D02*
G01*
X131673028Y-97644130D01*
X131695954Y-97621203D01*
X131737274Y-97612665D01*
X131896886Y-97612665D01*
X131938206Y-97621203D01*
X131961133Y-97644130D01*
X131969671Y-97685450D01*
X131969671Y-97797435D01*
X131961127Y-97838835D01*
X131938194Y-97861795D01*
X131896886Y-97870341D01*
X131737274Y-97870341D01*
X131695966Y-97861795D01*
X131673034Y-97838835D01*
X131664489Y-97797435D01*
X131664489Y-97685450D01*
G37*
G36*
X132210494Y-96347854D02*
G01*
X132222274Y-96228455D01*
X132254231Y-96138514D01*
X132303830Y-96071056D01*
X132372153Y-96021825D01*
X132463694Y-95989966D01*
X132585651Y-95978192D01*
X133607686Y-95978192D01*
X133607686Y-96216207D01*
X132652940Y-96216207D01*
X132561670Y-96222564D01*
X132501636Y-96238585D01*
X132463896Y-96261025D01*
X132436811Y-96294653D01*
X132418905Y-96343256D01*
X132412117Y-96412212D01*
X132427129Y-96536573D01*
X132473788Y-96664270D01*
X132542663Y-96795238D01*
X132641705Y-96963834D01*
X132470857Y-96975069D01*
X132359316Y-96812851D01*
X132279127Y-96658653D01*
X132240425Y-96552468D01*
X132217882Y-96449202D01*
X132210494Y-96347854D01*
G37*
G36*
X132244078Y-96975069D02*
G01*
X132504441Y-96955408D01*
X132546450Y-96938677D01*
X133607686Y-96938677D01*
X133607686Y-97176692D01*
X132244078Y-97176692D01*
X132244078Y-96975069D01*
G37*
G36*
X132210494Y-94990963D02*
G01*
X132219228Y-94832151D01*
X132242745Y-94709180D01*
X132277820Y-94615181D01*
X132322480Y-94544364D01*
X132383216Y-94485288D01*
X132456987Y-94442432D01*
X132546500Y-94415410D01*
X132655627Y-94405757D01*
X132774799Y-94413990D01*
X132867678Y-94440045D01*
X132939926Y-94481350D01*
X132994769Y-94540827D01*
X133029414Y-94621538D01*
X133042141Y-94730600D01*
X133042141Y-95525732D01*
X132857249Y-95525732D01*
X132857249Y-94792149D01*
X132849267Y-94734536D01*
X132828106Y-94696278D01*
X132794357Y-94671859D01*
X132728958Y-94650954D01*
X132655627Y-94643771D01*
X132571539Y-94655002D01*
X132511062Y-94681670D01*
X132468170Y-94722173D01*
X132439944Y-94776118D01*
X132419955Y-94858514D01*
X132412117Y-94979727D01*
X132424276Y-95119074D01*
X132455592Y-95213590D01*
X132490651Y-95263835D01*
X132540044Y-95303827D01*
X132606778Y-95334002D01*
X132725364Y-95358923D01*
X132907686Y-95368928D01*
X133054228Y-95363070D01*
X133162663Y-95347680D01*
X133240833Y-95325575D01*
X133311341Y-95289509D01*
X133362532Y-95243532D01*
X133397637Y-95186967D01*
X133427977Y-95083099D01*
X133439646Y-94934909D01*
X133429877Y-94695551D01*
X133406063Y-94461810D01*
X133565676Y-94436531D01*
X133587866Y-94505009D01*
X133607686Y-94594801D01*
X133632843Y-94787997D01*
X133641269Y-94965806D01*
X133632196Y-95121831D01*
X133607455Y-95245883D01*
X133569950Y-95343771D01*
X133513173Y-95429830D01*
X133437589Y-95498908D01*
X133340362Y-95552355D01*
X133232689Y-95586776D01*
X133095257Y-95609722D01*
X132921729Y-95618178D01*
X132742298Y-95609584D01*
X132603456Y-95586515D01*
X132497602Y-95552355D01*
X132402155Y-95499112D01*
X132329438Y-95431377D01*
X132276318Y-95347923D01*
X132241514Y-95253173D01*
X132218765Y-95135743D01*
X132210494Y-94990963D01*
G37*
G36*
X132244078Y-93863538D02*
G01*
X132504441Y-93832763D01*
X132546450Y-93810415D01*
X133607686Y-93810415D01*
X133607686Y-94048429D01*
X132244078Y-94048429D01*
X132244078Y-93863538D01*
G37*
G36*
X132210494Y-93194434D02*
G01*
X132434465Y-93222400D01*
X132434465Y-93300802D01*
X132446509Y-93420084D01*
X132483558Y-93541625D01*
X132622043Y-93835572D01*
X132473666Y-93855233D01*
X132361921Y-93700725D01*
X132280470Y-93551395D01*
X132240708Y-93447867D01*
X132217882Y-93349797D01*
X132210494Y-93255983D01*
X132210494Y-93194434D01*
G37*
G36*
X131675725Y-92663572D02*
G01*
X133215676Y-92663572D01*
X133301952Y-92650792D01*
X133355749Y-92617411D01*
X133388072Y-92562641D01*
X133400445Y-92475994D01*
X133400445Y-91778803D01*
X133590833Y-91767568D01*
X133607686Y-92138695D01*
X133610494Y-92515195D01*
X133602653Y-92623010D01*
X133581429Y-92706145D01*
X133549240Y-92769723D01*
X133506935Y-92817690D01*
X133433388Y-92866690D01*
X133347650Y-92896699D01*
X133246450Y-92907205D01*
X131675725Y-92907205D01*
X131675725Y-92663572D01*
G37*
G36*
X132210494Y-90934577D02*
G01*
X132219228Y-90775765D01*
X132242745Y-90652795D01*
X132277820Y-90558796D01*
X132322480Y-90487979D01*
X132383216Y-90428903D01*
X132456987Y-90386047D01*
X132546500Y-90359025D01*
X132655627Y-90349371D01*
X132774799Y-90357605D01*
X132867678Y-90383660D01*
X132939926Y-90424965D01*
X132994769Y-90484441D01*
X133029414Y-90565152D01*
X133042141Y-90674214D01*
X133042141Y-91469347D01*
X132857249Y-91469347D01*
X132857249Y-90735764D01*
X132849267Y-90678150D01*
X132828106Y-90639893D01*
X132794357Y-90615474D01*
X132728958Y-90594569D01*
X132655627Y-90587386D01*
X132571539Y-90598616D01*
X132511062Y-90625285D01*
X132468170Y-90665788D01*
X132439944Y-90719733D01*
X132419955Y-90802129D01*
X132412117Y-90923342D01*
X132424276Y-91062689D01*
X132455592Y-91157205D01*
X132490651Y-91207450D01*
X132540044Y-91247442D01*
X132606778Y-91277616D01*
X132725364Y-91302537D01*
X132907686Y-91312543D01*
X133054228Y-91306685D01*
X133162663Y-91291294D01*
X133240833Y-91269190D01*
X133311341Y-91233124D01*
X133362532Y-91187147D01*
X133397637Y-91130582D01*
X133427977Y-91026714D01*
X133439646Y-90878524D01*
X133429877Y-90639166D01*
X133406063Y-90405425D01*
X133565676Y-90380146D01*
X133587866Y-90448623D01*
X133607686Y-90538415D01*
X133632843Y-90731612D01*
X133641269Y-90909420D01*
X133632196Y-91065446D01*
X133607455Y-91189497D01*
X133569950Y-91287386D01*
X133513173Y-91373445D01*
X133437589Y-91442522D01*
X133340362Y-91495969D01*
X133232689Y-91530391D01*
X133095257Y-91553336D01*
X132921729Y-91561793D01*
X132742298Y-91553199D01*
X132603456Y-91530129D01*
X132497602Y-91495969D01*
X132402155Y-91442727D01*
X132329438Y-91374991D01*
X132276318Y-91291538D01*
X132241514Y-91196787D01*
X132218765Y-91079358D01*
X132210494Y-90934577D01*
G37*
G36*
X132244078Y-88787438D02*
G01*
X133548945Y-89285816D01*
X133592298Y-89318056D01*
X133603674Y-89340956D01*
X133607686Y-89369836D01*
X133607686Y-89585380D01*
X133603805Y-89612142D01*
X133592298Y-89635816D01*
X133574050Y-89655165D01*
X133548945Y-89669399D01*
X132244078Y-90167777D01*
X132244078Y-89913032D01*
X133198945Y-89576953D01*
X133319357Y-89535066D01*
X133436838Y-89495865D01*
X133436838Y-89459473D01*
X133317891Y-89415997D01*
X133198945Y-89375453D01*
X132244078Y-89039375D01*
X132244078Y-88787438D01*
G37*
G36*
X132210494Y-87974354D02*
G01*
X132219228Y-87815542D01*
X132242745Y-87692572D01*
X132277820Y-87598573D01*
X132322480Y-87527756D01*
X132383216Y-87468680D01*
X132456987Y-87425824D01*
X132546500Y-87398801D01*
X132655627Y-87389148D01*
X132774799Y-87397382D01*
X132867678Y-87423436D01*
X132939926Y-87464741D01*
X132994769Y-87524218D01*
X133029414Y-87604929D01*
X133042141Y-87713991D01*
X133042141Y-88509124D01*
X132857249Y-88509124D01*
X132857249Y-87775540D01*
X132849267Y-87717927D01*
X132828106Y-87679669D01*
X132794357Y-87655251D01*
X132728958Y-87634346D01*
X132655627Y-87627163D01*
X132571539Y-87638393D01*
X132511062Y-87665061D01*
X132468170Y-87705565D01*
X132439944Y-87759510D01*
X132419955Y-87841906D01*
X132412117Y-87963119D01*
X132424276Y-88102466D01*
X132455592Y-88196981D01*
X132490651Y-88247227D01*
X132540044Y-88287218D01*
X132606778Y-88317393D01*
X132725364Y-88342314D01*
X132907686Y-88352320D01*
X133054228Y-88346461D01*
X133162663Y-88331071D01*
X133240833Y-88308967D01*
X133311341Y-88272901D01*
X133362532Y-88226924D01*
X133397637Y-88170359D01*
X133427977Y-88066490D01*
X133439646Y-87918300D01*
X133429877Y-87678942D01*
X133406063Y-87445202D01*
X133565676Y-87419923D01*
X133587866Y-87488400D01*
X133607686Y-87578192D01*
X133632843Y-87771388D01*
X133641269Y-87949197D01*
X133632196Y-88105222D01*
X133607455Y-88229274D01*
X133569950Y-88327163D01*
X133513173Y-88413221D01*
X133437589Y-88482299D01*
X133340362Y-88535746D01*
X133232689Y-88570168D01*
X133095257Y-88593113D01*
X132921729Y-88601570D01*
X132742298Y-88592976D01*
X132603456Y-88569906D01*
X132497602Y-88535746D01*
X132402155Y-88482503D01*
X132329438Y-88414768D01*
X132276318Y-88331315D01*
X132241514Y-88236564D01*
X132218765Y-88119135D01*
X132210494Y-87974354D01*
G37*
G36*
X131647637Y-86793806D02*
G01*
X133232528Y-86793806D01*
X133313768Y-86780628D01*
X133368328Y-86744836D01*
X133402075Y-86688199D01*
X133414489Y-86606228D01*
X133414489Y-86474581D01*
X133596450Y-86446615D01*
X133616112Y-86518056D01*
X133628690Y-86613189D01*
X133632843Y-86695743D01*
X133622193Y-86792890D01*
X133592121Y-86872351D01*
X133543328Y-86938032D01*
X133478078Y-86986863D01*
X133394048Y-87017782D01*
X133285651Y-87029012D01*
X131647637Y-87029012D01*
X131647637Y-86793806D01*
G37*
G36*
X131642141Y-85638538D02*
G01*
X131656063Y-85355826D01*
X131672138Y-85210480D01*
X131698073Y-85064567D01*
X131877225Y-85081297D01*
X131867577Y-85347400D01*
X131863303Y-85627302D01*
X131870264Y-85805233D01*
X131882826Y-85875183D01*
X131903847Y-85926988D01*
X131937989Y-85967172D01*
X131990676Y-85995498D01*
X132056830Y-86010516D01*
X132157249Y-86016503D01*
X132262803Y-86008531D01*
X132333818Y-85988184D01*
X132379877Y-85959106D01*
X132415714Y-85916866D01*
X132447304Y-85856488D01*
X132473666Y-85772993D01*
X132571729Y-85380983D01*
X132606483Y-85269684D01*
X132649650Y-85184495D01*
X132700112Y-85120584D01*
X132757843Y-85074337D01*
X132850209Y-85030679D01*
X132967255Y-85002193D01*
X133114926Y-84991782D01*
X133274288Y-85002329D01*
X133386524Y-85029640D01*
X133479262Y-85078593D01*
X133544671Y-85145778D01*
X133589549Y-85231918D01*
X133620264Y-85347400D01*
X133635599Y-85476053D01*
X133641269Y-85638538D01*
X133632843Y-85886444D01*
X133618322Y-86044155D01*
X133588146Y-86237787D01*
X133406063Y-86220935D01*
X133415955Y-85954954D01*
X133420107Y-85781420D01*
X133420107Y-85630111D01*
X133413735Y-85489623D01*
X133397759Y-85396371D01*
X133376981Y-85343542D01*
X133347233Y-85304225D01*
X133308122Y-85275959D01*
X133231971Y-85251003D01*
X133109308Y-85240910D01*
X133003991Y-85248134D01*
X132935773Y-85266189D01*
X132881194Y-85298957D01*
X132841984Y-85345935D01*
X132813946Y-85405082D01*
X132790083Y-85484542D01*
X132689332Y-85884979D01*
X132641840Y-86017981D01*
X132579944Y-86113851D01*
X132504563Y-86180390D01*
X132412870Y-86225648D01*
X132297171Y-86255039D01*
X132151632Y-86265753D01*
X131992445Y-86255206D01*
X131881499Y-86228018D01*
X131790323Y-86179212D01*
X131727504Y-86113224D01*
X131685573Y-86029080D01*
X131658994Y-85918562D01*
X131646705Y-85795438D01*
X131642141Y-85638538D01*
G37*
G36*
X132210494Y-84072330D02*
G01*
X132219228Y-83913518D01*
X132242745Y-83790548D01*
X132277820Y-83696549D01*
X132322480Y-83625732D01*
X132383216Y-83566656D01*
X132456987Y-83523800D01*
X132546500Y-83496778D01*
X132655627Y-83487124D01*
X132774799Y-83495358D01*
X132867678Y-83521413D01*
X132939926Y-83562718D01*
X132994769Y-83622194D01*
X133029414Y-83702905D01*
X133042141Y-83811967D01*
X133042141Y-84607100D01*
X132857249Y-84607100D01*
X132857249Y-83873517D01*
X132849267Y-83815903D01*
X132828106Y-83777646D01*
X132794357Y-83753227D01*
X132728958Y-83732322D01*
X132655627Y-83725139D01*
X132571539Y-83736369D01*
X132511062Y-83763038D01*
X132468170Y-83803541D01*
X132439944Y-83857486D01*
X132419955Y-83939882D01*
X132412117Y-84061095D01*
X132424276Y-84200442D01*
X132455592Y-84294958D01*
X132490651Y-84345203D01*
X132540044Y-84385195D01*
X132606778Y-84415369D01*
X132725364Y-84440290D01*
X132907686Y-84450296D01*
X133054228Y-84444437D01*
X133162663Y-84429047D01*
X133240833Y-84406943D01*
X133311341Y-84370877D01*
X133362532Y-84324900D01*
X133397637Y-84268335D01*
X133427977Y-84164467D01*
X133439646Y-84016277D01*
X133429877Y-83776919D01*
X133406063Y-83543178D01*
X133565676Y-83517899D01*
X133587866Y-83586376D01*
X133607686Y-83676168D01*
X133632843Y-83869364D01*
X133641269Y-84047173D01*
X133632196Y-84203199D01*
X133607455Y-84327250D01*
X133569950Y-84425139D01*
X133513173Y-84511198D01*
X133437589Y-84580275D01*
X133340362Y-84633722D01*
X133232689Y-84668144D01*
X133095257Y-84691089D01*
X132921729Y-84699546D01*
X132742298Y-84690952D01*
X132603456Y-84667882D01*
X132497602Y-84633722D01*
X132402155Y-84580480D01*
X132329438Y-84512744D01*
X132276318Y-84429291D01*
X132241514Y-84334540D01*
X132218765Y-84217111D01*
X132210494Y-84072330D01*
G37*
G36*
X132210494Y-82300959D02*
G01*
X132222274Y-82181561D01*
X132254231Y-82091619D01*
X132303830Y-82024161D01*
X132372153Y-81974930D01*
X132463694Y-81943071D01*
X132585651Y-81931297D01*
X133607686Y-81931297D01*
X133607686Y-82169312D01*
X132652940Y-82169312D01*
X132561670Y-82175670D01*
X132501636Y-82191691D01*
X132463896Y-82214131D01*
X132436811Y-82247758D01*
X132418905Y-82296362D01*
X132412117Y-82365317D01*
X132427129Y-82489678D01*
X132473788Y-82617376D01*
X132542663Y-82748343D01*
X132641705Y-82916939D01*
X132470857Y-82928175D01*
X132359316Y-82765956D01*
X132279127Y-82611758D01*
X132240425Y-82505573D01*
X132217882Y-82402307D01*
X132210494Y-82300959D01*
G37*
G36*
X132244078Y-82928175D02*
G01*
X132504441Y-82908513D01*
X132546450Y-82891782D01*
X133607686Y-82891782D01*
X133607686Y-83129797D01*
X132244078Y-83129797D01*
X132244078Y-82928175D01*
G37*
G36*
X132210494Y-81050436D02*
G01*
X132216112Y-80860170D01*
X132230156Y-80659891D01*
X132252504Y-80476465D01*
X132426039Y-80496127D01*
X132416391Y-80755146D01*
X132412117Y-81014043D01*
X132417734Y-81212857D01*
X132434324Y-81278317D01*
X132462553Y-81317882D01*
X132506807Y-81340757D01*
X132585651Y-81350122D01*
X132654655Y-81343174D01*
X132698803Y-81325541D01*
X132725725Y-81299685D01*
X132754610Y-81242298D01*
X132781656Y-81151308D01*
X132871293Y-80753681D01*
X132904725Y-80648392D01*
X132945248Y-80570457D01*
X132991705Y-80514323D01*
X133050779Y-80474024D01*
X133133155Y-80447313D01*
X133246450Y-80437264D01*
X133357204Y-80445539D01*
X133438993Y-80467523D01*
X133498509Y-80500279D01*
X133546795Y-80547671D01*
X133584245Y-80610438D01*
X133610494Y-80692131D01*
X133630693Y-80829577D01*
X133638460Y-81019661D01*
X133632843Y-81236671D01*
X133622071Y-81384090D01*
X133599259Y-81554431D01*
X133425725Y-81537700D01*
X133432686Y-81394818D01*
X133436838Y-81236671D01*
X133436838Y-81067288D01*
X133432851Y-80921710D01*
X133422916Y-80826465D01*
X133400479Y-80748368D01*
X133368328Y-80703244D01*
X133320704Y-80676933D01*
X133246450Y-80666852D01*
X133182391Y-80674543D01*
X133139668Y-80694673D01*
X133112117Y-80725715D01*
X133082793Y-80790190D01*
X133056063Y-80882519D01*
X132966426Y-81274528D01*
X132932204Y-81379388D01*
X132892298Y-81453681D01*
X132839015Y-81511861D01*
X132771886Y-81551744D01*
X132692223Y-81574143D01*
X132585651Y-81582519D01*
X132480138Y-81575135D01*
X132401967Y-81555535D01*
X132344950Y-81526465D01*
X132297984Y-81483776D01*
X132261555Y-81426987D01*
X132235773Y-81352930D01*
X132216143Y-81226931D01*
X132210494Y-81050436D01*
G37*
G36*
X133101068Y-78873508D02*
G01*
X133238547Y-78895039D01*
X133345979Y-78927233D01*
X133443111Y-78978170D01*
X133518139Y-79045355D01*
X133574102Y-79130198D01*
X133610828Y-79227058D01*
X133635138Y-79350562D01*
X133644078Y-79506699D01*
X133635178Y-79660888D01*
X133610904Y-79783594D01*
X133574102Y-79880512D01*
X133518181Y-79965467D01*
X133443146Y-80033157D01*
X133345979Y-80084944D01*
X133238470Y-80117856D01*
X133100995Y-80139845D01*
X132927225Y-80147958D01*
X132753537Y-80139845D01*
X132616144Y-80117855D01*
X132508715Y-80084944D01*
X132411469Y-80033150D01*
X132336397Y-79965459D01*
X132280470Y-79880512D01*
X132243668Y-79783594D01*
X132219394Y-79660888D01*
X132210494Y-79506699D01*
X132412117Y-79506699D01*
X132424989Y-79645926D01*
X132458279Y-79740561D01*
X132495112Y-79790734D01*
X132546805Y-79831235D01*
X132616548Y-79862316D01*
X132739582Y-79888310D01*
X132927225Y-79898709D01*
X133114991Y-79888311D01*
X133238146Y-79862316D01*
X133307808Y-79831241D01*
X133359465Y-79790741D01*
X133396293Y-79740561D01*
X133429583Y-79645926D01*
X133442455Y-79506699D01*
X133429627Y-79367399D01*
X133396293Y-79271615D01*
X133359358Y-79220527D01*
X133307678Y-79179566D01*
X133238146Y-79148394D01*
X133114991Y-79122400D01*
X132927225Y-79112002D01*
X132739582Y-79122401D01*
X132616548Y-79148394D01*
X132546936Y-79179573D01*
X132495219Y-79220535D01*
X132458279Y-79271615D01*
X132424945Y-79367399D01*
X132412117Y-79506699D01*
X132210494Y-79506699D01*
X132219434Y-79350562D01*
X132243744Y-79227058D01*
X132280470Y-79130198D01*
X132336439Y-79045364D01*
X132411504Y-78978177D01*
X132508715Y-78927233D01*
X132616068Y-78895040D01*
X132753464Y-78873509D01*
X132927225Y-78865561D01*
X133101068Y-78873508D01*
G37*
G36*
X132244078Y-78310153D02*
G01*
X132504441Y-78279378D01*
X132546450Y-78257030D01*
X133607686Y-78257030D01*
X133607686Y-78495045D01*
X132244078Y-78495045D01*
X132244078Y-78310153D01*
G37*
G36*
X132210494Y-77641050D02*
G01*
X132434465Y-77669016D01*
X132434465Y-77747418D01*
X132446509Y-77866700D01*
X132483558Y-77988241D01*
X132622043Y-78282187D01*
X132473666Y-78301849D01*
X132361921Y-78147340D01*
X132280470Y-77998011D01*
X132240708Y-77894483D01*
X132217882Y-77796413D01*
X132210494Y-77702599D01*
X132210494Y-77641050D01*
G37*
G36*
X133066242Y-76727690D02*
G01*
X133588189Y-76927041D01*
X133605531Y-76939937D01*
X133610081Y-76949097D01*
X133611686Y-76960648D01*
X133611686Y-77046866D01*
X133610133Y-77057571D01*
X133605531Y-77067041D01*
X133598231Y-77074780D01*
X133588189Y-77080474D01*
X133066242Y-77279825D01*
X133066242Y-77177927D01*
X133448189Y-77043496D01*
X133496354Y-77026741D01*
X133543346Y-77011060D01*
X133543346Y-76996503D01*
X133495768Y-76979113D01*
X133448189Y-76962896D01*
X133066242Y-76828464D01*
X133066242Y-76727690D01*
G37*
G36*
X132838901Y-76386482D02*
G01*
X133611686Y-76386482D01*
X133611686Y-76485010D01*
X132999027Y-76485010D01*
X132965468Y-76483886D01*
X132931860Y-76479441D01*
X132991211Y-76668681D01*
X132918427Y-76682163D01*
X132838901Y-76485010D01*
X132838901Y-76386482D01*
G37*
G36*
X133479501Y-76117913D02*
G01*
X133481798Y-76099756D01*
X133487366Y-76089972D01*
X133497156Y-76084405D01*
X133515356Y-76082107D01*
X133575831Y-76082107D01*
X133594038Y-76084403D01*
X133603870Y-76089972D01*
X133609401Y-76099751D01*
X133611686Y-76117913D01*
X133611686Y-76149274D01*
X133609457Y-76166584D01*
X133603870Y-76176727D01*
X133593977Y-76182696D01*
X133575831Y-76185129D01*
X133515356Y-76185129D01*
X133497218Y-76182694D01*
X133487366Y-76176727D01*
X133481742Y-76166578D01*
X133479501Y-76149274D01*
X133479501Y-76117913D01*
G37*
G36*
X133319775Y-75404500D02*
G01*
X133395303Y-75413311D01*
X133454882Y-75426461D01*
X133510935Y-75448092D01*
X133553424Y-75475977D01*
X133584819Y-75509895D01*
X133606826Y-75550744D01*
X133621057Y-75602466D01*
X133626242Y-75667822D01*
X133621080Y-75732373D01*
X133606868Y-75783761D01*
X133584819Y-75824626D01*
X133553424Y-75858544D01*
X133510935Y-75886429D01*
X133454882Y-75908060D01*
X133395303Y-75921210D01*
X133319775Y-75930021D01*
X133225293Y-75933265D01*
X133130812Y-75930021D01*
X133055283Y-75921210D01*
X132995705Y-75908060D01*
X132939621Y-75886425D01*
X132897135Y-75858539D01*
X132865768Y-75824626D01*
X132843719Y-75783761D01*
X132829507Y-75732373D01*
X132824344Y-75667822D01*
X132910562Y-75667822D01*
X132915213Y-75713446D01*
X132927952Y-75748471D01*
X132949762Y-75777283D01*
X132982272Y-75800544D01*
X133022600Y-75816645D01*
X133079138Y-75828534D01*
X133142292Y-75834639D01*
X133225293Y-75836936D01*
X133307354Y-75834652D01*
X133370911Y-75828534D01*
X133427930Y-75816630D01*
X133468364Y-75800544D01*
X133500843Y-75777288D01*
X133522683Y-75748471D01*
X133535386Y-75713450D01*
X133540025Y-75667822D01*
X133535401Y-75622121D01*
X133522683Y-75586636D01*
X133500790Y-75557307D01*
X133468364Y-75533977D01*
X133427930Y-75517891D01*
X133370911Y-75505987D01*
X133307354Y-75499869D01*
X133225293Y-75497585D01*
X133142292Y-75499882D01*
X133079138Y-75505987D01*
X133022600Y-75517876D01*
X132982272Y-75533977D01*
X132949816Y-75557313D01*
X132927952Y-75586636D01*
X132915197Y-75622124D01*
X132910562Y-75667822D01*
X132824344Y-75667822D01*
X132829529Y-75602466D01*
X132843761Y-75550744D01*
X132865768Y-75509895D01*
X132897135Y-75475982D01*
X132939621Y-75448096D01*
X132995705Y-75426461D01*
X133055283Y-75413311D01*
X133130812Y-75404500D01*
X133225293Y-75401256D01*
X133319775Y-75404500D01*
G37*
G36*
X134279090Y-85423970D02*
G01*
X134284812Y-85361985D01*
X134300774Y-85311773D01*
X134326064Y-85270919D01*
X134361033Y-85237796D01*
X134402361Y-85214229D01*
X134458930Y-85195317D01*
X134534800Y-85182429D01*
X134634707Y-85177590D01*
X134720178Y-85181514D01*
X134790107Y-85192306D01*
X134853191Y-85212500D01*
X134902825Y-85241338D01*
X134930338Y-85266468D01*
X134953146Y-85297012D01*
X134971396Y-85333722D01*
X134988173Y-85396035D01*
X134994477Y-85480024D01*
X134991668Y-85555617D01*
X134982570Y-85638232D01*
X134967183Y-85720115D01*
X134945507Y-85793571D01*
X134864296Y-85698377D01*
X134882492Y-85623517D01*
X134891590Y-85550732D01*
X134893666Y-85482772D01*
X134886092Y-85421096D01*
X134868509Y-85377137D01*
X134849850Y-85353753D01*
X134823598Y-85334365D01*
X134788031Y-85319007D01*
X134726201Y-85305960D01*
X134634707Y-85300811D01*
X134545684Y-85304777D01*
X134485597Y-85314794D01*
X134450599Y-85327313D01*
X134424860Y-85343945D01*
X134406524Y-85364497D01*
X134394063Y-85389490D01*
X134385786Y-85422588D01*
X134382710Y-85465980D01*
X134390147Y-85520269D01*
X134412813Y-85572409D01*
X134446483Y-85624010D01*
X134494695Y-85688607D01*
X134414889Y-85696973D01*
X134373087Y-85653728D01*
X134339967Y-85610938D01*
X134313360Y-85565566D01*
X134294477Y-85519225D01*
X134282891Y-85471312D01*
X134279090Y-85423970D01*
G37*
G36*
X133997661Y-85674624D02*
G01*
X134252467Y-85674624D01*
X134332274Y-85676700D01*
X134406463Y-85687203D01*
X134426063Y-85676029D01*
X134951063Y-85674624D01*
X134945507Y-85793571D01*
X133997661Y-85793571D01*
X133997661Y-85674624D01*
G37*
G36*
X134295882Y-84395647D02*
G01*
X135015482Y-84668649D01*
X135059685Y-84687429D01*
X135103654Y-84710659D01*
X135145113Y-84738432D01*
X135182788Y-84771536D01*
X135214982Y-84810137D01*
X135240857Y-84855556D01*
X135258098Y-84906348D01*
X135266075Y-84966809D01*
X135187673Y-84978044D01*
X135166700Y-84924548D01*
X135142794Y-84882735D01*
X135116293Y-84850671D01*
X135067210Y-84810818D01*
X135007056Y-84779230D01*
X134925906Y-84745647D01*
X134864296Y-84723237D01*
X134804090Y-84702233D01*
X134295882Y-84524424D01*
X134295882Y-84395647D01*
G37*
G36*
X134295882Y-84957039D02*
G01*
X134804090Y-84776421D01*
X134845428Y-84762438D01*
X134886705Y-84751203D01*
X134886705Y-84719024D01*
X134977686Y-84758225D01*
X134977686Y-84794617D01*
X134975615Y-84808017D01*
X134969320Y-84820507D01*
X134959506Y-84830489D01*
X134946911Y-84836627D01*
X134295882Y-85084412D01*
X134295882Y-84957039D01*
G37*
G36*
X134000470Y-83653271D02*
G01*
X134006623Y-83540566D01*
X134022207Y-83464349D01*
X134040997Y-83420756D01*
X134066340Y-83387481D01*
X134098472Y-83362805D01*
X134136283Y-83346407D01*
X134186535Y-83335404D01*
X134252467Y-83331297D01*
X134320771Y-83336299D01*
X134372276Y-83349701D01*
X134410676Y-83369827D01*
X134440883Y-83399396D01*
X134462066Y-83440067D01*
X134473690Y-83495123D01*
X134479308Y-83495123D01*
X134488644Y-83441737D01*
X134504759Y-83400341D01*
X134526825Y-83368526D01*
X134554901Y-83344609D01*
X134600774Y-83322124D01*
X134660263Y-83307323D01*
X134736862Y-83301866D01*
X134802843Y-83305890D01*
X134853118Y-83316667D01*
X134890918Y-83332702D01*
X134923164Y-83356861D01*
X134948479Y-83389229D01*
X134967183Y-83431376D01*
X134982790Y-83504793D01*
X134988860Y-83609918D01*
X134988127Y-83752006D01*
X134984646Y-83861915D01*
X134977686Y-83966878D01*
X134879683Y-83947278D01*
X134882492Y-83830408D01*
X134883896Y-83629518D01*
X134880102Y-83556686D01*
X134870585Y-83508435D01*
X134858776Y-83481188D01*
X134842304Y-83460548D01*
X134820882Y-83445420D01*
X134779986Y-83431893D01*
X134715857Y-83426491D01*
X134645068Y-83432090D01*
X134599720Y-83446092D01*
X134575498Y-83461940D01*
X134556501Y-83483550D01*
X134542323Y-83511915D01*
X134529935Y-83562473D01*
X134524065Y-83637883D01*
X134524065Y-83948682D01*
X134430276Y-83948682D01*
X134430276Y-83639288D01*
X134425435Y-83572996D01*
X134415622Y-83528035D01*
X134403986Y-83502610D01*
X134387764Y-83483066D01*
X134366590Y-83468501D01*
X134326824Y-83455443D01*
X134266511Y-83450305D01*
X134205113Y-83455871D01*
X134165700Y-83469905D01*
X134145274Y-83485431D01*
X134129467Y-83506713D01*
X134118134Y-83534996D01*
X134109089Y-83584625D01*
X134105494Y-83658888D01*
X134105494Y-83782109D01*
X134106227Y-83878035D01*
X134109707Y-83947278D01*
X134011705Y-83966878D01*
X134004011Y-83873822D01*
X134001203Y-83777224D01*
X134000470Y-83653271D01*
G37*
G36*
X134011705Y-83846467D02*
G01*
X134977686Y-83846467D01*
X134977686Y-83966878D01*
X134011705Y-83966878D01*
X134011705Y-83846467D01*
G37*
G36*
X134279090Y-82831943D02*
G01*
X134283457Y-82752537D01*
X134295215Y-82691052D01*
X134312753Y-82644052D01*
X134335083Y-82608644D01*
X134365451Y-82579106D01*
X134402336Y-82557678D01*
X134447093Y-82544167D01*
X134501656Y-82539340D01*
X134561242Y-82543457D01*
X134607682Y-82556484D01*
X134643806Y-82577137D01*
X134671227Y-82606875D01*
X134688550Y-82647231D01*
X134694913Y-82701762D01*
X134694913Y-83099328D01*
X134602467Y-83099328D01*
X134602467Y-82732536D01*
X134598476Y-82703730D01*
X134587896Y-82684601D01*
X134571021Y-82672391D01*
X134538322Y-82661939D01*
X134501656Y-82658347D01*
X134459612Y-82663963D01*
X134429374Y-82677297D01*
X134407928Y-82697548D01*
X134393815Y-82724521D01*
X134383820Y-82765719D01*
X134379901Y-82826325D01*
X134385981Y-82895999D01*
X134401639Y-82943257D01*
X134419168Y-82968379D01*
X134443865Y-82988375D01*
X134477232Y-83003463D01*
X134536525Y-83015923D01*
X134627686Y-83020926D01*
X134700957Y-83017997D01*
X134755174Y-83010302D01*
X134794259Y-82999249D01*
X134829513Y-82981216D01*
X134855109Y-82958228D01*
X134872661Y-82929945D01*
X134887831Y-82878011D01*
X134893666Y-82803916D01*
X134888781Y-82684237D01*
X134876874Y-82567367D01*
X134956681Y-82554727D01*
X134967776Y-82588966D01*
X134977686Y-82633862D01*
X134990264Y-82730460D01*
X134994477Y-82819364D01*
X134989941Y-82897377D01*
X134977570Y-82959403D01*
X134958818Y-83008347D01*
X134930429Y-83051377D01*
X134892637Y-83085916D01*
X134844024Y-83112639D01*
X134790187Y-83129850D01*
X134721471Y-83141323D01*
X134634707Y-83145551D01*
X134544992Y-83141254D01*
X134475571Y-83129719D01*
X134422644Y-83112639D01*
X134374920Y-83086018D01*
X134338562Y-83052150D01*
X134312002Y-83010423D01*
X134294600Y-82963048D01*
X134283225Y-82904333D01*
X134279090Y-82831943D01*
G37*
G36*
X134279090Y-81946257D02*
G01*
X134284980Y-81886558D01*
X134300958Y-81841588D01*
X134325758Y-81807858D01*
X134359919Y-81783243D01*
X134405690Y-81767314D01*
X134466668Y-81761427D01*
X134977686Y-81761427D01*
X134977686Y-81880434D01*
X134500313Y-81880434D01*
X134454678Y-81883613D01*
X134424661Y-81891623D01*
X134405791Y-81902843D01*
X134392248Y-81919657D01*
X134383295Y-81943959D01*
X134379901Y-81978436D01*
X134387407Y-82040617D01*
X134410737Y-82104466D01*
X134445174Y-82169949D01*
X134494695Y-82254248D01*
X134409271Y-82259865D01*
X134353501Y-82178756D01*
X134313406Y-82101657D01*
X134294055Y-82048564D01*
X134282784Y-81996931D01*
X134279090Y-81946257D01*
G37*
G36*
X134295882Y-82259865D02*
G01*
X134426063Y-82250034D01*
X134447068Y-82241669D01*
X134977686Y-82241669D01*
X134977686Y-82360676D01*
X134295882Y-82360676D01*
X134295882Y-82259865D01*
G37*
G36*
X134295882Y-81421807D02*
G01*
X134994477Y-81421807D01*
X135048119Y-81425880D01*
X135098769Y-81437927D01*
X135146529Y-81457411D01*
X135189749Y-81483417D01*
X135228426Y-81515576D01*
X135261862Y-81553393D01*
X135210083Y-81619216D01*
X135159706Y-81583426D01*
X135110676Y-81559743D01*
X135057919Y-81545791D01*
X134994477Y-81540814D01*
X134295882Y-81540814D01*
X134295882Y-81421807D01*
G37*
G36*
X134006087Y-81452643D02*
G01*
X134010289Y-81432870D01*
X134021691Y-81421770D01*
X134042480Y-81417594D01*
X134122286Y-81417594D01*
X134143075Y-81421770D01*
X134154476Y-81432870D01*
X134158678Y-81452643D01*
X134158678Y-81508635D01*
X134154409Y-81529295D01*
X134142946Y-81540758D01*
X134122286Y-81545027D01*
X134042480Y-81545027D01*
X134021820Y-81540758D01*
X134010357Y-81529295D01*
X134006087Y-81508635D01*
X134006087Y-81452643D01*
G37*
G36*
X134295882Y-81074860D02*
G01*
X134977686Y-81074860D01*
X134977686Y-81192463D01*
X134295882Y-81192463D01*
X134295882Y-81074860D01*
G37*
G36*
X134006087Y-81105635D02*
G01*
X134010357Y-81084975D01*
X134021820Y-81073511D01*
X134042480Y-81069242D01*
X134122286Y-81069242D01*
X134142946Y-81073511D01*
X134154409Y-81084975D01*
X134158678Y-81105635D01*
X134158678Y-81161627D01*
X134154406Y-81182327D01*
X134142940Y-81193807D01*
X134122286Y-81198080D01*
X134042480Y-81198080D01*
X134021826Y-81193807D01*
X134010360Y-81182327D01*
X134006087Y-81161627D01*
X134006087Y-81105635D01*
G37*
G36*
X134279090Y-80571231D02*
G01*
X134283457Y-80491825D01*
X134295215Y-80430340D01*
X134312753Y-80383341D01*
X134335083Y-80347932D01*
X134365451Y-80318394D01*
X134402336Y-80296966D01*
X134447093Y-80283455D01*
X134501656Y-80278628D01*
X134561242Y-80282745D01*
X134607682Y-80295772D01*
X134643806Y-80316425D01*
X134671227Y-80346163D01*
X134688550Y-80386519D01*
X134694913Y-80441050D01*
X134694913Y-80838616D01*
X134602467Y-80838616D01*
X134602467Y-80471824D01*
X134598476Y-80443018D01*
X134587896Y-80423889D01*
X134571021Y-80411680D01*
X134538322Y-80401227D01*
X134501656Y-80397636D01*
X134459612Y-80403251D01*
X134429374Y-80416585D01*
X134407928Y-80436837D01*
X134393815Y-80463809D01*
X134383820Y-80505007D01*
X134379901Y-80565614D01*
X134385981Y-80635287D01*
X134401639Y-80682545D01*
X134419168Y-80707668D01*
X134443865Y-80727663D01*
X134477232Y-80742751D01*
X134536525Y-80755211D01*
X134627686Y-80760214D01*
X134700957Y-80757285D01*
X134755174Y-80749590D01*
X134794259Y-80738538D01*
X134829513Y-80720504D01*
X134855109Y-80697516D01*
X134872661Y-80669234D01*
X134887831Y-80617299D01*
X134893666Y-80543204D01*
X134888781Y-80423525D01*
X134876874Y-80306655D01*
X134956681Y-80294016D01*
X134967776Y-80328254D01*
X134977686Y-80373150D01*
X134990264Y-80469748D01*
X134994477Y-80558653D01*
X134989941Y-80636665D01*
X134977570Y-80698691D01*
X134958818Y-80747636D01*
X134930429Y-80790665D01*
X134892637Y-80825204D01*
X134844024Y-80851927D01*
X134790187Y-80869138D01*
X134721471Y-80880611D01*
X134634707Y-80884839D01*
X134544992Y-80880542D01*
X134475571Y-80869007D01*
X134422644Y-80851927D01*
X134374920Y-80825306D01*
X134338562Y-80791438D01*
X134312002Y-80749712D01*
X134294600Y-80702336D01*
X134283225Y-80643622D01*
X134279090Y-80571231D01*
G37*
G36*
X134011705Y-79567393D02*
G01*
X134774659Y-79567393D01*
X134844075Y-79573555D01*
X134896440Y-79590196D01*
X134935676Y-79615692D01*
X134965216Y-79651304D01*
X134983629Y-79696749D01*
X134990264Y-79755033D01*
X134988188Y-79797714D01*
X134981899Y-79845341D01*
X134972068Y-79883810D01*
X134885301Y-79869827D01*
X134885301Y-79799790D01*
X134880475Y-79758247D01*
X134867586Y-79728880D01*
X134847493Y-79708431D01*
X134818941Y-79695445D01*
X134778872Y-79690614D01*
X134011705Y-79690614D01*
X134011705Y-79567393D01*
G37*
G36*
X134295882Y-79217637D02*
G01*
X134977686Y-79217637D01*
X134977686Y-79335240D01*
X134295882Y-79335240D01*
X134295882Y-79217637D01*
G37*
G36*
X134006087Y-79248412D02*
G01*
X134010357Y-79227752D01*
X134021820Y-79216289D01*
X134042480Y-79212020D01*
X134122286Y-79212020D01*
X134142946Y-79216289D01*
X134154409Y-79227752D01*
X134158678Y-79248412D01*
X134158678Y-79304405D01*
X134154406Y-79325105D01*
X134142940Y-79336585D01*
X134122286Y-79340858D01*
X134042480Y-79340858D01*
X134021826Y-79336585D01*
X134010360Y-79325105D01*
X134006087Y-79304405D01*
X134006087Y-79248412D01*
G37*
G36*
X134279090Y-78671999D02*
G01*
X134284570Y-78599731D01*
X134299423Y-78543893D01*
X134316169Y-78511483D01*
X134338634Y-78485389D01*
X134367323Y-78464820D01*
X134400171Y-78450876D01*
X134442772Y-78441619D01*
X134497504Y-78438197D01*
X134977686Y-78438197D01*
X134977686Y-78531987D01*
X134829308Y-78550183D01*
X134813860Y-78558609D01*
X134497504Y-78558609D01*
X134456447Y-78562394D01*
X134427384Y-78572359D01*
X134407195Y-78587308D01*
X134393580Y-78608551D01*
X134383809Y-78643278D01*
X134379901Y-78697217D01*
X134385519Y-78830940D01*
X134398097Y-78989820D01*
X134309864Y-79000994D01*
X134294477Y-78896763D01*
X134283303Y-78781236D01*
X134279090Y-78671999D01*
G37*
G36*
X134557710Y-78494190D02*
G01*
X134647286Y-78495594D01*
X134648690Y-78821781D01*
X134652743Y-78853468D01*
X134661652Y-78875489D01*
X134674580Y-78890413D01*
X134702366Y-78904689D01*
X134742480Y-78910013D01*
X134785894Y-78910013D01*
X134820468Y-78906754D01*
X134845593Y-78898067D01*
X134863624Y-78884856D01*
X134876371Y-78866425D01*
X134884883Y-78840214D01*
X134888109Y-78803585D01*
X134884694Y-78763390D01*
X134873394Y-78714741D01*
X134855031Y-78665682D01*
X134827904Y-78614663D01*
X134793223Y-78566732D01*
X134749502Y-78522217D01*
X134837673Y-78522217D01*
X134883225Y-78566303D01*
X134908128Y-78596946D01*
X134933600Y-78634935D01*
X134955783Y-78676458D01*
X134974205Y-78723107D01*
X134986155Y-78772721D01*
X134990264Y-78827398D01*
X134984619Y-78885203D01*
X134968587Y-78933827D01*
X134941577Y-78975029D01*
X134904229Y-79005940D01*
X134858150Y-79025009D01*
X134799877Y-79031830D01*
X134725688Y-79031830D01*
X134674700Y-79025869D01*
X134634214Y-79009177D01*
X134601796Y-78982126D01*
X134578235Y-78946517D01*
X134563184Y-78900998D01*
X134557710Y-78842786D01*
X134557710Y-78494190D01*
G37*
G36*
X134724377Y-77621088D02*
G01*
X134793116Y-77631853D01*
X134846832Y-77647950D01*
X134895398Y-77673418D01*
X134932912Y-77707011D01*
X134960894Y-77749433D01*
X134979257Y-77797862D01*
X134991412Y-77859614D01*
X134995882Y-77937683D01*
X134991432Y-78014777D01*
X134979295Y-78076130D01*
X134960894Y-78124590D01*
X134932933Y-78167067D01*
X134895416Y-78200912D01*
X134846832Y-78226805D01*
X134793078Y-78243261D01*
X134724340Y-78254256D01*
X134637455Y-78258312D01*
X134550611Y-78254256D01*
X134481915Y-78243261D01*
X134428200Y-78226805D01*
X134379577Y-78200908D01*
X134342041Y-78167063D01*
X134314078Y-78124590D01*
X134295677Y-78076130D01*
X134283540Y-78014777D01*
X134279090Y-77937683D01*
X134379901Y-77937683D01*
X134386337Y-78007296D01*
X134402982Y-78054614D01*
X134421399Y-78079700D01*
X134447245Y-78099951D01*
X134482117Y-78115491D01*
X134543634Y-78128488D01*
X134637455Y-78133688D01*
X134731338Y-78128489D01*
X134792916Y-78115491D01*
X134827747Y-78099954D01*
X134853575Y-78079704D01*
X134871989Y-78054614D01*
X134888634Y-78007296D01*
X134895070Y-77937683D01*
X134888656Y-77868033D01*
X134871989Y-77820141D01*
X134853522Y-77794597D01*
X134827682Y-77774117D01*
X134792916Y-77758531D01*
X134731338Y-77745533D01*
X134637455Y-77740334D01*
X134543634Y-77745534D01*
X134482117Y-77758531D01*
X134447311Y-77774120D01*
X134421452Y-77794601D01*
X134402982Y-77820141D01*
X134386315Y-77868033D01*
X134379901Y-77937683D01*
X134279090Y-77937683D01*
X134283560Y-77859614D01*
X134295715Y-77797862D01*
X134314078Y-77749433D01*
X134342062Y-77707015D01*
X134379595Y-77673422D01*
X134428200Y-77647950D01*
X134481877Y-77631853D01*
X134550575Y-77621088D01*
X134637455Y-77617114D01*
X134724377Y-77621088D01*
G37*
X170738095Y-54457419D02*
X170738095Y-55266942D01*
X170738095Y-55266942D02*
X170785714Y-55362180D01*
X170785714Y-55362180D02*
X170833333Y-55409800D01*
X170833333Y-55409800D02*
X170928571Y-55457419D01*
X170928571Y-55457419D02*
X171119047Y-55457419D01*
X171119047Y-55457419D02*
X171214285Y-55409800D01*
X171214285Y-55409800D02*
X171261904Y-55362180D01*
X171261904Y-55362180D02*
X171309523Y-55266942D01*
X171309523Y-55266942D02*
X171309523Y-54457419D01*
X172309523Y-55457419D02*
X171738095Y-55457419D01*
X172023809Y-55457419D02*
X172023809Y-54457419D01*
X172023809Y-54457419D02*
X171928571Y-54600276D01*
X171928571Y-54600276D02*
X171833333Y-54695514D01*
X171833333Y-54695514D02*
X171738095Y-54743133D01*
D11*
X168595238Y-56954819D02*
X168595238Y-55954819D01*
X168595238Y-56431009D02*
X169166666Y-56431009D01*
X169166666Y-56954819D02*
X169166666Y-55954819D01*
X169547619Y-55954819D02*
X169785714Y-56954819D01*
X169785714Y-56954819D02*
X169976190Y-56240533D01*
X169976190Y-56240533D02*
X170166666Y-56954819D01*
X170166666Y-56954819D02*
X170404762Y-55954819D01*
X170785714Y-56573866D02*
X171547619Y-56573866D01*
X171928571Y-55954819D02*
X172547618Y-55954819D01*
X172547618Y-55954819D02*
X172214285Y-56335771D01*
X172214285Y-56335771D02*
X172357142Y-56335771D01*
X172357142Y-56335771D02*
X172452380Y-56383390D01*
X172452380Y-56383390D02*
X172499999Y-56431009D01*
X172499999Y-56431009D02*
X172547618Y-56526247D01*
X172547618Y-56526247D02*
X172547618Y-56764342D01*
X172547618Y-56764342D02*
X172499999Y-56859580D01*
X172499999Y-56859580D02*
X172452380Y-56907200D01*
X172452380Y-56907200D02*
X172357142Y-56954819D01*
X172357142Y-56954819D02*
X172071428Y-56954819D01*
X172071428Y-56954819D02*
X171976190Y-56907200D01*
X171976190Y-56907200D02*
X171928571Y-56859580D01*
X172880952Y-55954819D02*
X173547618Y-55954819D01*
X173547618Y-55954819D02*
X173119047Y-56954819D01*
X173833333Y-55954819D02*
X174452380Y-55954819D01*
X174452380Y-55954819D02*
X174119047Y-56335771D01*
X174119047Y-56335771D02*
X174261904Y-56335771D01*
X174261904Y-56335771D02*
X174357142Y-56383390D01*
X174357142Y-56383390D02*
X174404761Y-56431009D01*
X174404761Y-56431009D02*
X174452380Y-56526247D01*
X174452380Y-56526247D02*
X174452380Y-56764342D01*
X174452380Y-56764342D02*
X174404761Y-56859580D01*
X174404761Y-56859580D02*
X174357142Y-56907200D01*
X174357142Y-56907200D02*
X174261904Y-56954819D01*
X174261904Y-56954819D02*
X173976190Y-56954819D01*
X173976190Y-56954819D02*
X173880952Y-56907200D01*
X173880952Y-56907200D02*
X173833333Y-56859580D01*
D10*
X163494360Y-71372419D02*
X163684836Y-71372419D01*
X163684836Y-71372419D02*
X163780074Y-71420038D01*
X163780074Y-71420038D02*
X163875312Y-71515276D01*
X163875312Y-71515276D02*
X163922931Y-71705752D01*
X163922931Y-71705752D02*
X163922931Y-72039085D01*
X163922931Y-72039085D02*
X163875312Y-72229561D01*
X163875312Y-72229561D02*
X163780074Y-72324800D01*
X163780074Y-72324800D02*
X163684836Y-72372419D01*
X163684836Y-72372419D02*
X163494360Y-72372419D01*
X163494360Y-72372419D02*
X163399122Y-72324800D01*
X163399122Y-72324800D02*
X163303884Y-72229561D01*
X163303884Y-72229561D02*
X163256265Y-72039085D01*
X163256265Y-72039085D02*
X163256265Y-71705752D01*
X163256265Y-71705752D02*
X163303884Y-71515276D01*
X163303884Y-71515276D02*
X163399122Y-71420038D01*
X163399122Y-71420038D02*
X163494360Y-71372419D01*
X164351503Y-71372419D02*
X164351503Y-72181942D01*
X164351503Y-72181942D02*
X164399122Y-72277180D01*
X164399122Y-72277180D02*
X164446741Y-72324800D01*
X164446741Y-72324800D02*
X164541979Y-72372419D01*
X164541979Y-72372419D02*
X164732455Y-72372419D01*
X164732455Y-72372419D02*
X164827693Y-72324800D01*
X164827693Y-72324800D02*
X164875312Y-72277180D01*
X164875312Y-72277180D02*
X164922931Y-72181942D01*
X164922931Y-72181942D02*
X164922931Y-71372419D01*
X165256265Y-71372419D02*
X165827693Y-71372419D01*
X165541979Y-72372419D02*
X165541979Y-71372419D01*
X166161027Y-71991466D02*
X166922932Y-71991466D01*
X166541979Y-72372419D02*
X166541979Y-71610514D01*
X180303884Y-59872419D02*
X180303884Y-58872419D01*
X180780074Y-59872419D02*
X180780074Y-58872419D01*
X180780074Y-58872419D02*
X181351502Y-59872419D01*
X181351502Y-59872419D02*
X181351502Y-58872419D01*
X181827693Y-59491466D02*
X182589598Y-59491466D01*
X163637217Y-69348609D02*
X163780074Y-69396228D01*
X163780074Y-69396228D02*
X163827693Y-69443847D01*
X163827693Y-69443847D02*
X163875312Y-69539085D01*
X163875312Y-69539085D02*
X163875312Y-69681942D01*
X163875312Y-69681942D02*
X163827693Y-69777180D01*
X163827693Y-69777180D02*
X163780074Y-69824800D01*
X163780074Y-69824800D02*
X163684836Y-69872419D01*
X163684836Y-69872419D02*
X163303884Y-69872419D01*
X163303884Y-69872419D02*
X163303884Y-68872419D01*
X163303884Y-68872419D02*
X163637217Y-68872419D01*
X163637217Y-68872419D02*
X163732455Y-68920038D01*
X163732455Y-68920038D02*
X163780074Y-68967657D01*
X163780074Y-68967657D02*
X163827693Y-69062895D01*
X163827693Y-69062895D02*
X163827693Y-69158133D01*
X163827693Y-69158133D02*
X163780074Y-69253371D01*
X163780074Y-69253371D02*
X163732455Y-69300990D01*
X163732455Y-69300990D02*
X163637217Y-69348609D01*
X163637217Y-69348609D02*
X163303884Y-69348609D01*
X164303884Y-69491466D02*
X165065789Y-69491466D01*
X164684836Y-69872419D02*
X164684836Y-69110514D01*
X180303884Y-72372419D02*
X180303884Y-71372419D01*
X180780074Y-72372419D02*
X180780074Y-71372419D01*
X180780074Y-71372419D02*
X181351502Y-72372419D01*
X181351502Y-72372419D02*
X181351502Y-71372419D01*
X181827693Y-71991466D02*
X182589598Y-71991466D01*
X182208645Y-72372419D02*
X182208645Y-71610514D01*
X163494360Y-58872419D02*
X163684836Y-58872419D01*
X163684836Y-58872419D02*
X163780074Y-58920038D01*
X163780074Y-58920038D02*
X163875312Y-59015276D01*
X163875312Y-59015276D02*
X163922931Y-59205752D01*
X163922931Y-59205752D02*
X163922931Y-59539085D01*
X163922931Y-59539085D02*
X163875312Y-59729561D01*
X163875312Y-59729561D02*
X163780074Y-59824800D01*
X163780074Y-59824800D02*
X163684836Y-59872419D01*
X163684836Y-59872419D02*
X163494360Y-59872419D01*
X163494360Y-59872419D02*
X163399122Y-59824800D01*
X163399122Y-59824800D02*
X163303884Y-59729561D01*
X163303884Y-59729561D02*
X163256265Y-59539085D01*
X163256265Y-59539085D02*
X163256265Y-59205752D01*
X163256265Y-59205752D02*
X163303884Y-59015276D01*
X163303884Y-59015276D02*
X163399122Y-58920038D01*
X163399122Y-58920038D02*
X163494360Y-58872419D01*
X164351503Y-58872419D02*
X164351503Y-59681942D01*
X164351503Y-59681942D02*
X164399122Y-59777180D01*
X164399122Y-59777180D02*
X164446741Y-59824800D01*
X164446741Y-59824800D02*
X164541979Y-59872419D01*
X164541979Y-59872419D02*
X164732455Y-59872419D01*
X164732455Y-59872419D02*
X164827693Y-59824800D01*
X164827693Y-59824800D02*
X164875312Y-59777180D01*
X164875312Y-59777180D02*
X164922931Y-59681942D01*
X164922931Y-59681942D02*
X164922931Y-58872419D01*
X165256265Y-58872419D02*
X165827693Y-58872419D01*
X165541979Y-59872419D02*
X165541979Y-58872419D01*
X166161027Y-59491466D02*
X166922932Y-59491466D01*
X163637217Y-61848609D02*
X163780074Y-61896228D01*
X163780074Y-61896228D02*
X163827693Y-61943847D01*
X163827693Y-61943847D02*
X163875312Y-62039085D01*
X163875312Y-62039085D02*
X163875312Y-62181942D01*
X163875312Y-62181942D02*
X163827693Y-62277180D01*
X163827693Y-62277180D02*
X163780074Y-62324800D01*
X163780074Y-62324800D02*
X163684836Y-62372419D01*
X163684836Y-62372419D02*
X163303884Y-62372419D01*
X163303884Y-62372419D02*
X163303884Y-61372419D01*
X163303884Y-61372419D02*
X163637217Y-61372419D01*
X163637217Y-61372419D02*
X163732455Y-61420038D01*
X163732455Y-61420038D02*
X163780074Y-61467657D01*
X163780074Y-61467657D02*
X163827693Y-61562895D01*
X163827693Y-61562895D02*
X163827693Y-61658133D01*
X163827693Y-61658133D02*
X163780074Y-61753371D01*
X163780074Y-61753371D02*
X163732455Y-61800990D01*
X163732455Y-61800990D02*
X163637217Y-61848609D01*
X163637217Y-61848609D02*
X163303884Y-61848609D01*
X164303884Y-61991466D02*
X165065789Y-61991466D01*
D11*
X160431009Y-54285714D02*
X160478628Y-54142857D01*
X160478628Y-54142857D02*
X160526247Y-54095238D01*
X160526247Y-54095238D02*
X160621485Y-54047619D01*
X160621485Y-54047619D02*
X160764342Y-54047619D01*
X160764342Y-54047619D02*
X160859580Y-54095238D01*
X160859580Y-54095238D02*
X160907200Y-54142857D01*
X160907200Y-54142857D02*
X160954819Y-54238095D01*
X160954819Y-54238095D02*
X160954819Y-54619047D01*
X160954819Y-54619047D02*
X159954819Y-54619047D01*
X159954819Y-54619047D02*
X159954819Y-54285714D01*
X159954819Y-54285714D02*
X160002438Y-54190476D01*
X160002438Y-54190476D02*
X160050057Y-54142857D01*
X160050057Y-54142857D02*
X160145295Y-54095238D01*
X160145295Y-54095238D02*
X160240533Y-54095238D01*
X160240533Y-54095238D02*
X160335771Y-54142857D01*
X160335771Y-54142857D02*
X160383390Y-54190476D01*
X160383390Y-54190476D02*
X160431009Y-54285714D01*
X160431009Y-54285714D02*
X160431009Y-54619047D01*
X159954819Y-53761904D02*
X159954819Y-53190476D01*
X160954819Y-53476190D02*
X159954819Y-53476190D01*
X160954819Y-52333333D02*
X160954819Y-52904761D01*
X160954819Y-52619047D02*
X159954819Y-52619047D01*
X159954819Y-52619047D02*
X160097676Y-52714285D01*
X160097676Y-52714285D02*
X160192914Y-52809523D01*
X160192914Y-52809523D02*
X160240533Y-52904761D01*
X133737200Y-120642857D02*
X133737200Y-118357143D01*
X134880057Y-119500000D02*
X132594342Y-119500000D01*
X180212295Y-128088095D02*
X180212295Y-128545238D01*
X180212295Y-128316666D02*
X179412295Y-128316666D01*
X179412295Y-128316666D02*
X179526580Y-128392857D01*
X179526580Y-128392857D02*
X179602771Y-128469047D01*
X179602771Y-128469047D02*
X179640866Y-128545238D01*
X179412295Y-127592856D02*
X179412295Y-127516666D01*
X179412295Y-127516666D02*
X179450390Y-127440475D01*
X179450390Y-127440475D02*
X179488485Y-127402380D01*
X179488485Y-127402380D02*
X179564676Y-127364285D01*
X179564676Y-127364285D02*
X179717057Y-127326190D01*
X179717057Y-127326190D02*
X179907533Y-127326190D01*
X179907533Y-127326190D02*
X180059914Y-127364285D01*
X180059914Y-127364285D02*
X180136104Y-127402380D01*
X180136104Y-127402380D02*
X180174200Y-127440475D01*
X180174200Y-127440475D02*
X180212295Y-127516666D01*
X180212295Y-127516666D02*
X180212295Y-127592856D01*
X180212295Y-127592856D02*
X180174200Y-127669047D01*
X180174200Y-127669047D02*
X180136104Y-127707142D01*
X180136104Y-127707142D02*
X180059914Y-127745237D01*
X180059914Y-127745237D02*
X179907533Y-127783333D01*
X179907533Y-127783333D02*
X179717057Y-127783333D01*
X179717057Y-127783333D02*
X179564676Y-127745237D01*
X179564676Y-127745237D02*
X179488485Y-127707142D01*
X179488485Y-127707142D02*
X179450390Y-127669047D01*
X179450390Y-127669047D02*
X179412295Y-127592856D01*
X179412295Y-126830951D02*
X179412295Y-126754761D01*
X179412295Y-126754761D02*
X179450390Y-126678570D01*
X179450390Y-126678570D02*
X179488485Y-126640475D01*
X179488485Y-126640475D02*
X179564676Y-126602380D01*
X179564676Y-126602380D02*
X179717057Y-126564285D01*
X179717057Y-126564285D02*
X179907533Y-126564285D01*
X179907533Y-126564285D02*
X180059914Y-126602380D01*
X180059914Y-126602380D02*
X180136104Y-126640475D01*
X180136104Y-126640475D02*
X180174200Y-126678570D01*
X180174200Y-126678570D02*
X180212295Y-126754761D01*
X180212295Y-126754761D02*
X180212295Y-126830951D01*
X180212295Y-126830951D02*
X180174200Y-126907142D01*
X180174200Y-126907142D02*
X180136104Y-126945237D01*
X180136104Y-126945237D02*
X180059914Y-126983332D01*
X180059914Y-126983332D02*
X179907533Y-127021428D01*
X179907533Y-127021428D02*
X179717057Y-127021428D01*
X179717057Y-127021428D02*
X179564676Y-126983332D01*
X179564676Y-126983332D02*
X179488485Y-126945237D01*
X179488485Y-126945237D02*
X179450390Y-126907142D01*
X179450390Y-126907142D02*
X179412295Y-126830951D01*
X179678961Y-125878570D02*
X180212295Y-125878570D01*
X179678961Y-126221427D02*
X180098009Y-126221427D01*
X180098009Y-126221427D02*
X180174200Y-126183332D01*
X180174200Y-126183332D02*
X180212295Y-126107142D01*
X180212295Y-126107142D02*
X180212295Y-125992856D01*
X180212295Y-125992856D02*
X180174200Y-125916665D01*
X180174200Y-125916665D02*
X180136104Y-125878570D01*
X179793247Y-125230951D02*
X179793247Y-125497617D01*
X180212295Y-125497617D02*
X179412295Y-125497617D01*
X179412295Y-125497617D02*
X179412295Y-125116665D01*
X184454819Y-88428571D02*
X183454819Y-88428571D01*
X184454819Y-87857143D02*
X183883390Y-88285714D01*
X183454819Y-87857143D02*
X184026247Y-88428571D01*
X183931009Y-87428571D02*
X183931009Y-87095238D01*
X184454819Y-86952381D02*
X184454819Y-87428571D01*
X184454819Y-87428571D02*
X183454819Y-87428571D01*
X183454819Y-87428571D02*
X183454819Y-86952381D01*
X183931009Y-86523809D02*
X183931009Y-86190476D01*
X184454819Y-86047619D02*
X184454819Y-86523809D01*
X184454819Y-86523809D02*
X183454819Y-86523809D01*
X183454819Y-86523809D02*
X183454819Y-86047619D01*
X184454819Y-85619047D02*
X183454819Y-85619047D01*
X183454819Y-85619047D02*
X183454819Y-85238095D01*
X183454819Y-85238095D02*
X183502438Y-85142857D01*
X183502438Y-85142857D02*
X183550057Y-85095238D01*
X183550057Y-85095238D02*
X183645295Y-85047619D01*
X183645295Y-85047619D02*
X183788152Y-85047619D01*
X183788152Y-85047619D02*
X183883390Y-85095238D01*
X183883390Y-85095238D02*
X183931009Y-85142857D01*
X183931009Y-85142857D02*
X183978628Y-85238095D01*
X183978628Y-85238095D02*
X183978628Y-85619047D01*
X184550057Y-84857143D02*
X184550057Y-84095238D01*
X184169104Y-83904761D02*
X184169104Y-83428571D01*
X184454819Y-83999999D02*
X183454819Y-83666666D01*
X183454819Y-83666666D02*
X184454819Y-83333333D01*
X183454819Y-83095237D02*
X184454819Y-82857142D01*
X184454819Y-82857142D02*
X183740533Y-82666666D01*
X183740533Y-82666666D02*
X184454819Y-82476190D01*
X184454819Y-82476190D02*
X183454819Y-82238095D01*
X184169104Y-81904761D02*
X184169104Y-81428571D01*
X184454819Y-81999999D02*
X183454819Y-81666666D01*
X183454819Y-81666666D02*
X184454819Y-81333333D01*
X184454819Y-80999999D02*
X183454819Y-80999999D01*
X184454819Y-80428571D02*
X183883390Y-80857142D01*
X183454819Y-80428571D02*
X184026247Y-80999999D01*
X183931009Y-79999999D02*
X183931009Y-79666666D01*
X184454819Y-79523809D02*
X184454819Y-79999999D01*
X184454819Y-79999999D02*
X183454819Y-79999999D01*
X183454819Y-79999999D02*
X183454819Y-79523809D01*
D12*
X182930391Y-93449285D02*
X182901820Y-93506428D01*
X182901820Y-93506428D02*
X182873248Y-93534999D01*
X182873248Y-93534999D02*
X182816105Y-93563571D01*
X182816105Y-93563571D02*
X182644677Y-93563571D01*
X182644677Y-93563571D02*
X182587534Y-93534999D01*
X182587534Y-93534999D02*
X182558962Y-93506428D01*
X182558962Y-93506428D02*
X182530391Y-93449285D01*
X182530391Y-93449285D02*
X182530391Y-93363571D01*
X182530391Y-93363571D02*
X182558962Y-93306428D01*
X182558962Y-93306428D02*
X182587534Y-93277857D01*
X182587534Y-93277857D02*
X182644677Y-93249285D01*
X182644677Y-93249285D02*
X182816105Y-93249285D01*
X182816105Y-93249285D02*
X182873248Y-93277857D01*
X182873248Y-93277857D02*
X182901820Y-93306428D01*
X182901820Y-93306428D02*
X182930391Y-93363571D01*
X182930391Y-93363571D02*
X182930391Y-93449285D01*
X182530391Y-92992142D02*
X182930391Y-92992142D01*
X182587534Y-92992142D02*
X182558962Y-92963571D01*
X182558962Y-92963571D02*
X182530391Y-92906428D01*
X182530391Y-92906428D02*
X182530391Y-92820714D01*
X182530391Y-92820714D02*
X182558962Y-92763571D01*
X182558962Y-92763571D02*
X182616105Y-92735000D01*
X182616105Y-92735000D02*
X182930391Y-92735000D01*
D11*
X180692319Y-95809523D02*
X179692319Y-95809523D01*
X179692319Y-95809523D02*
X179692319Y-95428571D01*
X179692319Y-95428571D02*
X179739938Y-95333333D01*
X179739938Y-95333333D02*
X179787557Y-95285714D01*
X179787557Y-95285714D02*
X179882795Y-95238095D01*
X179882795Y-95238095D02*
X180025652Y-95238095D01*
X180025652Y-95238095D02*
X180120890Y-95285714D01*
X180120890Y-95285714D02*
X180168509Y-95333333D01*
X180168509Y-95333333D02*
X180216128Y-95428571D01*
X180216128Y-95428571D02*
X180216128Y-95809523D01*
X179692319Y-94619047D02*
X179692319Y-94428571D01*
X179692319Y-94428571D02*
X179739938Y-94333333D01*
X179739938Y-94333333D02*
X179835176Y-94238095D01*
X179835176Y-94238095D02*
X180025652Y-94190476D01*
X180025652Y-94190476D02*
X180358985Y-94190476D01*
X180358985Y-94190476D02*
X180549461Y-94238095D01*
X180549461Y-94238095D02*
X180644700Y-94333333D01*
X180644700Y-94333333D02*
X180692319Y-94428571D01*
X180692319Y-94428571D02*
X180692319Y-94619047D01*
X180692319Y-94619047D02*
X180644700Y-94714285D01*
X180644700Y-94714285D02*
X180549461Y-94809523D01*
X180549461Y-94809523D02*
X180358985Y-94857142D01*
X180358985Y-94857142D02*
X180025652Y-94857142D01*
X180025652Y-94857142D02*
X179835176Y-94809523D01*
X179835176Y-94809523D02*
X179739938Y-94714285D01*
X179739938Y-94714285D02*
X179692319Y-94619047D01*
X179692319Y-93857142D02*
X180692319Y-93619047D01*
X180692319Y-93619047D02*
X179978033Y-93428571D01*
X179978033Y-93428571D02*
X180692319Y-93238095D01*
X180692319Y-93238095D02*
X179692319Y-93000000D01*
X180168509Y-92619047D02*
X180168509Y-92285714D01*
X180692319Y-92142857D02*
X180692319Y-92619047D01*
X180692319Y-92619047D02*
X179692319Y-92619047D01*
X179692319Y-92619047D02*
X179692319Y-92142857D01*
X180692319Y-91142857D02*
X180216128Y-91476190D01*
X180692319Y-91714285D02*
X179692319Y-91714285D01*
X179692319Y-91714285D02*
X179692319Y-91333333D01*
X179692319Y-91333333D02*
X179739938Y-91238095D01*
X179739938Y-91238095D02*
X179787557Y-91190476D01*
X179787557Y-91190476D02*
X179882795Y-91142857D01*
X179882795Y-91142857D02*
X180025652Y-91142857D01*
X180025652Y-91142857D02*
X180120890Y-91190476D01*
X180120890Y-91190476D02*
X180168509Y-91238095D01*
X180168509Y-91238095D02*
X180216128Y-91333333D01*
X180216128Y-91333333D02*
X180216128Y-91714285D01*
D12*
X175930391Y-93449285D02*
X175901820Y-93506428D01*
X175901820Y-93506428D02*
X175873248Y-93534999D01*
X175873248Y-93534999D02*
X175816105Y-93563571D01*
X175816105Y-93563571D02*
X175644677Y-93563571D01*
X175644677Y-93563571D02*
X175587534Y-93534999D01*
X175587534Y-93534999D02*
X175558962Y-93506428D01*
X175558962Y-93506428D02*
X175530391Y-93449285D01*
X175530391Y-93449285D02*
X175530391Y-93363571D01*
X175530391Y-93363571D02*
X175558962Y-93306428D01*
X175558962Y-93306428D02*
X175587534Y-93277857D01*
X175587534Y-93277857D02*
X175644677Y-93249285D01*
X175644677Y-93249285D02*
X175816105Y-93249285D01*
X175816105Y-93249285D02*
X175873248Y-93277857D01*
X175873248Y-93277857D02*
X175901820Y-93306428D01*
X175901820Y-93306428D02*
X175930391Y-93363571D01*
X175930391Y-93363571D02*
X175930391Y-93449285D01*
X175530391Y-92992142D02*
X175930391Y-92992142D01*
X175587534Y-92992142D02*
X175558962Y-92963571D01*
X175558962Y-92963571D02*
X175530391Y-92906428D01*
X175530391Y-92906428D02*
X175530391Y-92820714D01*
X175530391Y-92820714D02*
X175558962Y-92763571D01*
X175558962Y-92763571D02*
X175616105Y-92735000D01*
X175616105Y-92735000D02*
X175930391Y-92735000D01*
D10*
X160037419Y-111861904D02*
X160846942Y-111861904D01*
X160846942Y-111861904D02*
X160942180Y-111814285D01*
X160942180Y-111814285D02*
X160989800Y-111766666D01*
X160989800Y-111766666D02*
X161037419Y-111671428D01*
X161037419Y-111671428D02*
X161037419Y-111480952D01*
X161037419Y-111480952D02*
X160989800Y-111385714D01*
X160989800Y-111385714D02*
X160942180Y-111338095D01*
X160942180Y-111338095D02*
X160846942Y-111290476D01*
X160846942Y-111290476D02*
X160037419Y-111290476D01*
X160132657Y-110861904D02*
X160085038Y-110814285D01*
X160085038Y-110814285D02*
X160037419Y-110719047D01*
X160037419Y-110719047D02*
X160037419Y-110480952D01*
X160037419Y-110480952D02*
X160085038Y-110385714D01*
X160085038Y-110385714D02*
X160132657Y-110338095D01*
X160132657Y-110338095D02*
X160227895Y-110290476D01*
X160227895Y-110290476D02*
X160323133Y-110290476D01*
X160323133Y-110290476D02*
X160465990Y-110338095D01*
X160465990Y-110338095D02*
X161037419Y-110909523D01*
X161037419Y-110909523D02*
X161037419Y-110290476D01*
D11*
X162831009Y-118976189D02*
X162831009Y-118642856D01*
X163354819Y-118499999D02*
X163354819Y-118976189D01*
X163354819Y-118976189D02*
X162354819Y-118976189D01*
X162354819Y-118976189D02*
X162354819Y-118499999D01*
X163307200Y-118119046D02*
X163354819Y-117976189D01*
X163354819Y-117976189D02*
X163354819Y-117738094D01*
X163354819Y-117738094D02*
X163307200Y-117642856D01*
X163307200Y-117642856D02*
X163259580Y-117595237D01*
X163259580Y-117595237D02*
X163164342Y-117547618D01*
X163164342Y-117547618D02*
X163069104Y-117547618D01*
X163069104Y-117547618D02*
X162973866Y-117595237D01*
X162973866Y-117595237D02*
X162926247Y-117642856D01*
X162926247Y-117642856D02*
X162878628Y-117738094D01*
X162878628Y-117738094D02*
X162831009Y-117928570D01*
X162831009Y-117928570D02*
X162783390Y-118023808D01*
X162783390Y-118023808D02*
X162735771Y-118071427D01*
X162735771Y-118071427D02*
X162640533Y-118119046D01*
X162640533Y-118119046D02*
X162545295Y-118119046D01*
X162545295Y-118119046D02*
X162450057Y-118071427D01*
X162450057Y-118071427D02*
X162402438Y-118023808D01*
X162402438Y-118023808D02*
X162354819Y-117928570D01*
X162354819Y-117928570D02*
X162354819Y-117690475D01*
X162354819Y-117690475D02*
X162402438Y-117547618D01*
X163354819Y-117119046D02*
X162354819Y-117119046D01*
X162354819Y-117119046D02*
X162354819Y-116738094D01*
X162354819Y-116738094D02*
X162402438Y-116642856D01*
X162402438Y-116642856D02*
X162450057Y-116595237D01*
X162450057Y-116595237D02*
X162545295Y-116547618D01*
X162545295Y-116547618D02*
X162688152Y-116547618D01*
X162688152Y-116547618D02*
X162783390Y-116595237D01*
X162783390Y-116595237D02*
X162831009Y-116642856D01*
X162831009Y-116642856D02*
X162878628Y-116738094D01*
X162878628Y-116738094D02*
X162878628Y-117119046D01*
X162354819Y-116214284D02*
X162354819Y-115595237D01*
X162354819Y-115595237D02*
X162735771Y-115928570D01*
X162735771Y-115928570D02*
X162735771Y-115785713D01*
X162735771Y-115785713D02*
X162783390Y-115690475D01*
X162783390Y-115690475D02*
X162831009Y-115642856D01*
X162831009Y-115642856D02*
X162926247Y-115595237D01*
X162926247Y-115595237D02*
X163164342Y-115595237D01*
X163164342Y-115595237D02*
X163259580Y-115642856D01*
X163259580Y-115642856D02*
X163307200Y-115690475D01*
X163307200Y-115690475D02*
X163354819Y-115785713D01*
X163354819Y-115785713D02*
X163354819Y-116071427D01*
X163354819Y-116071427D02*
X163307200Y-116166665D01*
X163307200Y-116166665D02*
X163259580Y-116214284D01*
X162450057Y-115214284D02*
X162402438Y-115166665D01*
X162402438Y-115166665D02*
X162354819Y-115071427D01*
X162354819Y-115071427D02*
X162354819Y-114833332D01*
X162354819Y-114833332D02*
X162402438Y-114738094D01*
X162402438Y-114738094D02*
X162450057Y-114690475D01*
X162450057Y-114690475D02*
X162545295Y-114642856D01*
X162545295Y-114642856D02*
X162640533Y-114642856D01*
X162640533Y-114642856D02*
X162783390Y-114690475D01*
X162783390Y-114690475D02*
X163354819Y-115261903D01*
X163354819Y-115261903D02*
X163354819Y-114642856D01*
X162973866Y-114214284D02*
X162973866Y-113452380D01*
X163259580Y-112404761D02*
X163307200Y-112452380D01*
X163307200Y-112452380D02*
X163354819Y-112595237D01*
X163354819Y-112595237D02*
X163354819Y-112690475D01*
X163354819Y-112690475D02*
X163307200Y-112833332D01*
X163307200Y-112833332D02*
X163211961Y-112928570D01*
X163211961Y-112928570D02*
X163116723Y-112976189D01*
X163116723Y-112976189D02*
X162926247Y-113023808D01*
X162926247Y-113023808D02*
X162783390Y-113023808D01*
X162783390Y-113023808D02*
X162592914Y-112976189D01*
X162592914Y-112976189D02*
X162497676Y-112928570D01*
X162497676Y-112928570D02*
X162402438Y-112833332D01*
X162402438Y-112833332D02*
X162354819Y-112690475D01*
X162354819Y-112690475D02*
X162354819Y-112595237D01*
X162354819Y-112595237D02*
X162402438Y-112452380D01*
X162402438Y-112452380D02*
X162450057Y-112404761D01*
X162354819Y-112071427D02*
X162354819Y-111452380D01*
X162354819Y-111452380D02*
X162735771Y-111785713D01*
X162735771Y-111785713D02*
X162735771Y-111642856D01*
X162735771Y-111642856D02*
X162783390Y-111547618D01*
X162783390Y-111547618D02*
X162831009Y-111499999D01*
X162831009Y-111499999D02*
X162926247Y-111452380D01*
X162926247Y-111452380D02*
X163164342Y-111452380D01*
X163164342Y-111452380D02*
X163259580Y-111499999D01*
X163259580Y-111499999D02*
X163307200Y-111547618D01*
X163307200Y-111547618D02*
X163354819Y-111642856D01*
X163354819Y-111642856D02*
X163354819Y-111928570D01*
X163354819Y-111928570D02*
X163307200Y-112023808D01*
X163307200Y-112023808D02*
X163259580Y-112071427D01*
X162973866Y-111023808D02*
X162973866Y-110261904D01*
X163307200Y-109833332D02*
X163354819Y-109690475D01*
X163354819Y-109690475D02*
X163354819Y-109452380D01*
X163354819Y-109452380D02*
X163307200Y-109357142D01*
X163307200Y-109357142D02*
X163259580Y-109309523D01*
X163259580Y-109309523D02*
X163164342Y-109261904D01*
X163164342Y-109261904D02*
X163069104Y-109261904D01*
X163069104Y-109261904D02*
X162973866Y-109309523D01*
X162973866Y-109309523D02*
X162926247Y-109357142D01*
X162926247Y-109357142D02*
X162878628Y-109452380D01*
X162878628Y-109452380D02*
X162831009Y-109642856D01*
X162831009Y-109642856D02*
X162783390Y-109738094D01*
X162783390Y-109738094D02*
X162735771Y-109785713D01*
X162735771Y-109785713D02*
X162640533Y-109833332D01*
X162640533Y-109833332D02*
X162545295Y-109833332D01*
X162545295Y-109833332D02*
X162450057Y-109785713D01*
X162450057Y-109785713D02*
X162402438Y-109738094D01*
X162402438Y-109738094D02*
X162354819Y-109642856D01*
X162354819Y-109642856D02*
X162354819Y-109404761D01*
X162354819Y-109404761D02*
X162402438Y-109261904D01*
X162688152Y-108404761D02*
X163354819Y-108404761D01*
X162688152Y-108833332D02*
X163211961Y-108833332D01*
X163211961Y-108833332D02*
X163307200Y-108785713D01*
X163307200Y-108785713D02*
X163354819Y-108690475D01*
X163354819Y-108690475D02*
X163354819Y-108547618D01*
X163354819Y-108547618D02*
X163307200Y-108452380D01*
X163307200Y-108452380D02*
X163259580Y-108404761D01*
X162688152Y-107928570D02*
X163688152Y-107928570D01*
X162735771Y-107928570D02*
X162688152Y-107833332D01*
X162688152Y-107833332D02*
X162688152Y-107642856D01*
X162688152Y-107642856D02*
X162735771Y-107547618D01*
X162735771Y-107547618D02*
X162783390Y-107499999D01*
X162783390Y-107499999D02*
X162878628Y-107452380D01*
X162878628Y-107452380D02*
X163164342Y-107452380D01*
X163164342Y-107452380D02*
X163259580Y-107499999D01*
X163259580Y-107499999D02*
X163307200Y-107547618D01*
X163307200Y-107547618D02*
X163354819Y-107642856D01*
X163354819Y-107642856D02*
X163354819Y-107833332D01*
X163354819Y-107833332D02*
X163307200Y-107928570D01*
X163307200Y-106642856D02*
X163354819Y-106738094D01*
X163354819Y-106738094D02*
X163354819Y-106928570D01*
X163354819Y-106928570D02*
X163307200Y-107023808D01*
X163307200Y-107023808D02*
X163211961Y-107071427D01*
X163211961Y-107071427D02*
X162831009Y-107071427D01*
X162831009Y-107071427D02*
X162735771Y-107023808D01*
X162735771Y-107023808D02*
X162688152Y-106928570D01*
X162688152Y-106928570D02*
X162688152Y-106738094D01*
X162688152Y-106738094D02*
X162735771Y-106642856D01*
X162735771Y-106642856D02*
X162831009Y-106595237D01*
X162831009Y-106595237D02*
X162926247Y-106595237D01*
X162926247Y-106595237D02*
X163021485Y-107071427D01*
X163354819Y-106166665D02*
X162688152Y-106166665D01*
X162878628Y-106166665D02*
X162783390Y-106119046D01*
X162783390Y-106119046D02*
X162735771Y-106071427D01*
X162735771Y-106071427D02*
X162688152Y-105976189D01*
X162688152Y-105976189D02*
X162688152Y-105880951D01*
X163354819Y-105547617D02*
X162354819Y-105547617D01*
X162354819Y-105547617D02*
X163069104Y-105214284D01*
X163069104Y-105214284D02*
X162354819Y-104880951D01*
X162354819Y-104880951D02*
X163354819Y-104880951D01*
X163354819Y-104404760D02*
X162688152Y-104404760D01*
X162354819Y-104404760D02*
X162402438Y-104452379D01*
X162402438Y-104452379D02*
X162450057Y-104404760D01*
X162450057Y-104404760D02*
X162402438Y-104357141D01*
X162402438Y-104357141D02*
X162354819Y-104404760D01*
X162354819Y-104404760D02*
X162450057Y-104404760D01*
X162688152Y-103928570D02*
X163354819Y-103928570D01*
X162783390Y-103928570D02*
X162735771Y-103880951D01*
X162735771Y-103880951D02*
X162688152Y-103785713D01*
X162688152Y-103785713D02*
X162688152Y-103642856D01*
X162688152Y-103642856D02*
X162735771Y-103547618D01*
X162735771Y-103547618D02*
X162831009Y-103499999D01*
X162831009Y-103499999D02*
X163354819Y-103499999D01*
X163354819Y-103023808D02*
X162688152Y-103023808D01*
X162354819Y-103023808D02*
X162402438Y-103071427D01*
X162402438Y-103071427D02*
X162450057Y-103023808D01*
X162450057Y-103023808D02*
X162402438Y-102976189D01*
X162402438Y-102976189D02*
X162354819Y-103023808D01*
X162354819Y-103023808D02*
X162450057Y-103023808D01*
D10*
X163238095Y-89057419D02*
X163238095Y-89866942D01*
X163238095Y-89866942D02*
X163285714Y-89962180D01*
X163285714Y-89962180D02*
X163333333Y-90009800D01*
X163333333Y-90009800D02*
X163428571Y-90057419D01*
X163428571Y-90057419D02*
X163619047Y-90057419D01*
X163619047Y-90057419D02*
X163714285Y-90009800D01*
X163714285Y-90009800D02*
X163761904Y-89962180D01*
X163761904Y-89962180D02*
X163809523Y-89866942D01*
X163809523Y-89866942D02*
X163809523Y-89057419D01*
X164714285Y-89390752D02*
X164714285Y-90057419D01*
X164476190Y-89009800D02*
X164238095Y-89724085D01*
X164238095Y-89724085D02*
X164857142Y-89724085D01*
D11*
X162761905Y-91407200D02*
X162904762Y-91454819D01*
X162904762Y-91454819D02*
X163142857Y-91454819D01*
X163142857Y-91454819D02*
X163238095Y-91407200D01*
X163238095Y-91407200D02*
X163285714Y-91359580D01*
X163285714Y-91359580D02*
X163333333Y-91264342D01*
X163333333Y-91264342D02*
X163333333Y-91169104D01*
X163333333Y-91169104D02*
X163285714Y-91073866D01*
X163285714Y-91073866D02*
X163238095Y-91026247D01*
X163238095Y-91026247D02*
X163142857Y-90978628D01*
X163142857Y-90978628D02*
X162952381Y-90931009D01*
X162952381Y-90931009D02*
X162857143Y-90883390D01*
X162857143Y-90883390D02*
X162809524Y-90835771D01*
X162809524Y-90835771D02*
X162761905Y-90740533D01*
X162761905Y-90740533D02*
X162761905Y-90645295D01*
X162761905Y-90645295D02*
X162809524Y-90550057D01*
X162809524Y-90550057D02*
X162857143Y-90502438D01*
X162857143Y-90502438D02*
X162952381Y-90454819D01*
X162952381Y-90454819D02*
X163190476Y-90454819D01*
X163190476Y-90454819D02*
X163333333Y-90502438D01*
X163952381Y-90454819D02*
X164047619Y-90454819D01*
X164047619Y-90454819D02*
X164142857Y-90502438D01*
X164142857Y-90502438D02*
X164190476Y-90550057D01*
X164190476Y-90550057D02*
X164238095Y-90645295D01*
X164238095Y-90645295D02*
X164285714Y-90835771D01*
X164285714Y-90835771D02*
X164285714Y-91073866D01*
X164285714Y-91073866D02*
X164238095Y-91264342D01*
X164238095Y-91264342D02*
X164190476Y-91359580D01*
X164190476Y-91359580D02*
X164142857Y-91407200D01*
X164142857Y-91407200D02*
X164047619Y-91454819D01*
X164047619Y-91454819D02*
X163952381Y-91454819D01*
X163952381Y-91454819D02*
X163857143Y-91407200D01*
X163857143Y-91407200D02*
X163809524Y-91359580D01*
X163809524Y-91359580D02*
X163761905Y-91264342D01*
X163761905Y-91264342D02*
X163714286Y-91073866D01*
X163714286Y-91073866D02*
X163714286Y-90835771D01*
X163714286Y-90835771D02*
X163761905Y-90645295D01*
X163761905Y-90645295D02*
X163809524Y-90550057D01*
X163809524Y-90550057D02*
X163857143Y-90502438D01*
X163857143Y-90502438D02*
X163952381Y-90454819D01*
X164761905Y-91454819D02*
X164952381Y-91454819D01*
X164952381Y-91454819D02*
X165047619Y-91407200D01*
X165047619Y-91407200D02*
X165095238Y-91359580D01*
X165095238Y-91359580D02*
X165190476Y-91216723D01*
X165190476Y-91216723D02*
X165238095Y-91026247D01*
X165238095Y-91026247D02*
X165238095Y-90645295D01*
X165238095Y-90645295D02*
X165190476Y-90550057D01*
X165190476Y-90550057D02*
X165142857Y-90502438D01*
X165142857Y-90502438D02*
X165047619Y-90454819D01*
X165047619Y-90454819D02*
X164857143Y-90454819D01*
X164857143Y-90454819D02*
X164761905Y-90502438D01*
X164761905Y-90502438D02*
X164714286Y-90550057D01*
X164714286Y-90550057D02*
X164666667Y-90645295D01*
X164666667Y-90645295D02*
X164666667Y-90883390D01*
X164666667Y-90883390D02*
X164714286Y-90978628D01*
X164714286Y-90978628D02*
X164761905Y-91026247D01*
X164761905Y-91026247D02*
X164857143Y-91073866D01*
X164857143Y-91073866D02*
X165047619Y-91073866D01*
X165047619Y-91073866D02*
X165142857Y-91026247D01*
X165142857Y-91026247D02*
X165190476Y-90978628D01*
X165190476Y-90978628D02*
X165238095Y-90883390D01*
%TO.C,U1*%
D10*
X159735000Y-73905000D02*
X186405000Y-73905000D01*
X186405000Y-57395000D01*
X159735000Y-57395000D01*
X159735000Y-73905000D01*
D13*
%TO.C,BT1*%
X136940000Y-129460000D02*
X136940000Y-50540000D01*
X159060000Y-129460000D02*
X136940000Y-129460000D01*
X136940000Y-50540000D02*
X159060000Y-50540000D01*
X159060000Y-50540000D02*
X159060000Y-129460000D01*
%TO.C,C1*%
X179180000Y-126890000D02*
X174020000Y-126890000D01*
X179180000Y-126850000D02*
X174020000Y-126850000D01*
X179179000Y-126930000D02*
X174021000Y-126930000D01*
X179178000Y-126970000D02*
X174022000Y-126970000D01*
X179176000Y-127010000D02*
X174024000Y-127010000D01*
X179173000Y-127050000D02*
X174027000Y-127050000D01*
X179169000Y-127090000D02*
X177640000Y-127090000D01*
X179165000Y-127130000D02*
X177640000Y-127130000D01*
X179161000Y-127170000D02*
X177640000Y-127170000D01*
X179156000Y-127210000D02*
X177640000Y-127210000D01*
X179150000Y-127250000D02*
X177640000Y-127250000D01*
X179143000Y-127290000D02*
X177640000Y-127290000D01*
X179136000Y-127330000D02*
X177640000Y-127330000D01*
X179128000Y-127370000D02*
X177640000Y-127370000D01*
X179120000Y-127410000D02*
X177640000Y-127410000D01*
X179111000Y-127450000D02*
X177640000Y-127450000D01*
X179101000Y-127490000D02*
X177640000Y-127490000D01*
X179091000Y-127530000D02*
X177640000Y-127530000D01*
X179080000Y-127571000D02*
X177640000Y-127571000D01*
X179068000Y-127611000D02*
X177640000Y-127611000D01*
X179055000Y-127651000D02*
X177640000Y-127651000D01*
X179042000Y-127691000D02*
X177640000Y-127691000D01*
X179028000Y-127731000D02*
X177640000Y-127731000D01*
X179014000Y-127771000D02*
X177640000Y-127771000D01*
X178998000Y-127811000D02*
X177640000Y-127811000D01*
X178982000Y-127851000D02*
X177640000Y-127851000D01*
X178965000Y-127891000D02*
X177640000Y-127891000D01*
X178948000Y-127931000D02*
X177640000Y-127931000D01*
X178929000Y-127971000D02*
X177640000Y-127971000D01*
X178910000Y-128011000D02*
X177640000Y-128011000D01*
X178890000Y-128051000D02*
X177640000Y-128051000D01*
X178868000Y-128091000D02*
X177640000Y-128091000D01*
X178847000Y-128131000D02*
X177640000Y-128131000D01*
X178824000Y-128171000D02*
X177640000Y-128171000D01*
X178800000Y-128211000D02*
X177640000Y-128211000D01*
X178775000Y-128251000D02*
X177640000Y-128251000D01*
X178749000Y-128291000D02*
X177640000Y-128291000D01*
X178722000Y-128331000D02*
X177640000Y-128331000D01*
X178695000Y-128371000D02*
X177640000Y-128371000D01*
X178665000Y-128411000D02*
X177640000Y-128411000D01*
X178635000Y-128451000D02*
X177640000Y-128451000D01*
X178604000Y-128491000D02*
X177640000Y-128491000D01*
X178571000Y-128531000D02*
X177640000Y-128531000D01*
X178537000Y-128571000D02*
X177640000Y-128571000D01*
X178501000Y-128611000D02*
X177640000Y-128611000D01*
X178464000Y-128651000D02*
X177640000Y-128651000D01*
X178426000Y-128691000D02*
X177640000Y-128691000D01*
X178385000Y-128731000D02*
X177640000Y-128731000D01*
X178343000Y-128771000D02*
X177640000Y-128771000D01*
X178325000Y-124295225D02*
X177825000Y-124295225D01*
X178299000Y-128811000D02*
X177640000Y-128811000D01*
X178253000Y-128851000D02*
X177640000Y-128851000D01*
X178205000Y-128891000D02*
X177640000Y-128891000D01*
X178154000Y-128931000D02*
X177640000Y-128931000D01*
X178100000Y-128971000D02*
X177640000Y-128971000D01*
X178075000Y-124045225D02*
X178075000Y-124545225D01*
X178043000Y-129011000D02*
X177640000Y-129011000D01*
X177983000Y-129051000D02*
X177640000Y-129051000D01*
X177919000Y-129091000D02*
X177640000Y-129091000D01*
X177851000Y-129131000D02*
X177640000Y-129131000D01*
X177778000Y-129171000D02*
X175422000Y-129171000D01*
X177698000Y-129211000D02*
X175502000Y-129211000D01*
X177611000Y-129251000D02*
X175589000Y-129251000D01*
X177515000Y-129291000D02*
X175685000Y-129291000D01*
X177405000Y-129331000D02*
X175795000Y-129331000D01*
X177277000Y-129371000D02*
X175923000Y-129371000D01*
X177118000Y-129411000D02*
X176082000Y-129411000D01*
X176884000Y-129451000D02*
X176316000Y-129451000D01*
X175560000Y-129131000D02*
X175349000Y-129131000D01*
X175560000Y-129091000D02*
X175281000Y-129091000D01*
X175560000Y-129051000D02*
X175217000Y-129051000D01*
X175560000Y-129011000D02*
X175157000Y-129011000D01*
X175560000Y-128971000D02*
X175100000Y-128971000D01*
X175560000Y-128931000D02*
X175046000Y-128931000D01*
X175560000Y-128891000D02*
X174995000Y-128891000D01*
X175560000Y-128851000D02*
X174947000Y-128851000D01*
X175560000Y-128811000D02*
X174901000Y-128811000D01*
X175560000Y-128771000D02*
X174857000Y-128771000D01*
X175560000Y-128731000D02*
X174815000Y-128731000D01*
X175560000Y-128691000D02*
X174774000Y-128691000D01*
X175560000Y-128651000D02*
X174736000Y-128651000D01*
X175560000Y-128611000D02*
X174699000Y-128611000D01*
X175560000Y-128571000D02*
X174663000Y-128571000D01*
X175560000Y-128531000D02*
X174629000Y-128531000D01*
X175560000Y-128491000D02*
X174596000Y-128491000D01*
X175560000Y-128451000D02*
X174565000Y-128451000D01*
X175560000Y-128411000D02*
X174535000Y-128411000D01*
X175560000Y-128371000D02*
X174505000Y-128371000D01*
X175560000Y-128331000D02*
X174478000Y-128331000D01*
X175560000Y-128291000D02*
X174451000Y-128291000D01*
X175560000Y-128251000D02*
X174425000Y-128251000D01*
X175560000Y-128211000D02*
X174400000Y-128211000D01*
X175560000Y-128171000D02*
X174376000Y-128171000D01*
X175560000Y-128131000D02*
X174353000Y-128131000D01*
X175560000Y-128091000D02*
X174332000Y-128091000D01*
X175560000Y-128051000D02*
X174310000Y-128051000D01*
X175560000Y-128011000D02*
X174290000Y-128011000D01*
X175560000Y-127971000D02*
X174271000Y-127971000D01*
X175560000Y-127931000D02*
X174252000Y-127931000D01*
X175560000Y-127891000D02*
X174235000Y-127891000D01*
X175560000Y-127851000D02*
X174218000Y-127851000D01*
X175560000Y-127811000D02*
X174202000Y-127811000D01*
X175560000Y-127771000D02*
X174186000Y-127771000D01*
X175560000Y-127731000D02*
X174172000Y-127731000D01*
X175560000Y-127691000D02*
X174158000Y-127691000D01*
X175560000Y-127651000D02*
X174145000Y-127651000D01*
X175560000Y-127611000D02*
X174132000Y-127611000D01*
X175560000Y-127571000D02*
X174120000Y-127571000D01*
X175560000Y-127530000D02*
X174109000Y-127530000D01*
X175560000Y-127490000D02*
X174099000Y-127490000D01*
X175560000Y-127450000D02*
X174089000Y-127450000D01*
X175560000Y-127410000D02*
X174080000Y-127410000D01*
X175560000Y-127370000D02*
X174072000Y-127370000D01*
X175560000Y-127330000D02*
X174064000Y-127330000D01*
X175560000Y-127290000D02*
X174057000Y-127290000D01*
X175560000Y-127250000D02*
X174050000Y-127250000D01*
X175560000Y-127210000D02*
X174044000Y-127210000D01*
X175560000Y-127170000D02*
X174039000Y-127170000D01*
X175560000Y-127130000D02*
X174035000Y-127130000D01*
X175560000Y-127090000D02*
X174031000Y-127090000D01*
X179220000Y-126850000D02*
G75*
G02*
X173980000Y-126850000I-2620000J0D01*
G01*
X173980000Y-126850000D02*
G75*
G02*
X179220000Y-126850000I2620000J0D01*
G01*
%TO.C,JP1*%
X181650000Y-97460000D02*
X181650000Y-96077000D01*
X181650000Y-97460000D02*
X182960000Y-97460000D01*
X181890000Y-90400000D02*
X183040000Y-90400000D01*
X181890000Y-97220000D02*
X181890000Y-90400000D01*
X181890000Y-97220000D02*
X182960000Y-97220000D01*
X183365000Y-94413333D02*
X184635000Y-94413333D01*
X184960000Y-90400000D02*
X186110000Y-90400000D01*
X185040000Y-97220000D02*
X186110000Y-97220000D01*
X186110000Y-97220000D02*
X186110000Y-90400000D01*
X183365000Y-95620000D02*
X184635000Y-95620000D01*
X184635000Y-92000000D01*
X183365000Y-92000000D01*
X183365000Y-95620000D01*
X183365000Y-95620000D02*
X184635000Y-95620000D01*
X184635000Y-94413333D01*
X183365000Y-94413333D01*
X183365000Y-95620000D01*
G36*
X183365000Y-95620000D02*
G01*
X184635000Y-95620000D01*
X184635000Y-94413333D01*
X183365000Y-94413333D01*
X183365000Y-95620000D01*
G37*
%TO.C,JP2*%
X174650000Y-97460000D02*
X174650000Y-96077000D01*
X174650000Y-97460000D02*
X175960000Y-97460000D01*
X174890000Y-90400000D02*
X176040000Y-90400000D01*
X174890000Y-97220000D02*
X174890000Y-90400000D01*
X174890000Y-97220000D02*
X175960000Y-97220000D01*
X176365000Y-94413333D02*
X177635000Y-94413333D01*
X177960000Y-90400000D02*
X179110000Y-90400000D01*
X178040000Y-97220000D02*
X179110000Y-97220000D01*
X179110000Y-97220000D02*
X179110000Y-90400000D01*
X176365000Y-95620000D02*
X177635000Y-95620000D01*
X177635000Y-92000000D01*
X176365000Y-92000000D01*
X176365000Y-95620000D01*
X176365000Y-95620000D02*
X177635000Y-95620000D01*
X177635000Y-94413333D01*
X176365000Y-94413333D01*
X176365000Y-95620000D01*
G36*
X176365000Y-95620000D02*
G01*
X177635000Y-95620000D01*
X177635000Y-94413333D01*
X176365000Y-94413333D01*
X176365000Y-95620000D01*
G37*
%TO.C,U2*%
D10*
X179835000Y-115565000D02*
X186820000Y-115565000D01*
X186820000Y-106675000D01*
X179835000Y-106675000D01*
X179835000Y-115565000D01*
D13*
X163960000Y-122245000D02*
X185650000Y-122245000D01*
X185650000Y-99995000D01*
X163960000Y-99995000D01*
X163960000Y-122245000D01*
%TO.C,U4*%
D10*
X159570000Y-88485000D02*
X182430000Y-88485000D01*
X182430000Y-74515000D01*
X159570000Y-74515000D01*
X159570000Y-88485000D01*
%TD*%
M02*
