%TF.GenerationSoftware,KiCad,Pcbnew,9.0.7+1*%
%TF.CreationDate,2026-02-25T20:46:53+08:00*%
%TF.ProjectId,ContainerLevelSensor,436f6e74-6169-46e6-9572-4c6576656c53,rev?*%
%TF.SameCoordinates,Original*%
%TF.FileFunction,Legend,Bot*%
%TF.FilePolarity,Positive*%
%FSLAX46Y46*%
G04 Gerber Fmt 4.6, Leading zero omitted, Abs format (unit mm)*
G04 Created by KiCad (PCBNEW 9.0.7+1) date 2026-02-25 20:46:53*
%MOMM*%
%LPD*%
G01*
G04 APERTURE LIST*
%ADD10C,0.100000*%
%ADD11C,0.150000*%
G04 APERTURE END LIST*
D10*
G36*
X145418556Y-104172309D02*
G01*
X145940503Y-103972958D01*
X145957845Y-103960062D01*
X145962395Y-103950902D01*
X145964000Y-103939351D01*
X145964000Y-103853133D01*
X145962447Y-103842428D01*
X145957845Y-103832958D01*
X145950545Y-103825219D01*
X145940503Y-103819525D01*
X145418556Y-103620174D01*
X145418556Y-103722072D01*
X145800503Y-103856503D01*
X145848668Y-103873258D01*
X145895660Y-103888939D01*
X145895660Y-103903496D01*
X145848082Y-103920886D01*
X145800503Y-103937103D01*
X145418556Y-104071535D01*
X145418556Y-104172309D01*
G37*
G36*
X145191215Y-104513517D02*
G01*
X145964000Y-104513517D01*
X145964000Y-104414989D01*
X145351341Y-104414989D01*
X145317782Y-104416113D01*
X145284174Y-104420558D01*
X145343525Y-104231318D01*
X145270741Y-104217836D01*
X145191215Y-104414989D01*
X145191215Y-104513517D01*
G37*
G36*
X145831815Y-104782086D02*
G01*
X145834112Y-104800243D01*
X145839680Y-104810027D01*
X145849470Y-104815594D01*
X145867670Y-104817892D01*
X145928145Y-104817892D01*
X145946352Y-104815596D01*
X145956184Y-104810027D01*
X145961715Y-104800248D01*
X145964000Y-104782086D01*
X145964000Y-104750725D01*
X145961771Y-104733415D01*
X145956184Y-104723272D01*
X145946291Y-104717303D01*
X145928145Y-104714870D01*
X145867670Y-104714870D01*
X145849532Y-104717305D01*
X145839680Y-104723272D01*
X145834056Y-104733421D01*
X145831815Y-104750725D01*
X145831815Y-104782086D01*
G37*
G36*
X145672089Y-104969978D02*
G01*
X145747617Y-104978789D01*
X145807196Y-104991939D01*
X145863249Y-105013570D01*
X145905738Y-105041455D01*
X145937133Y-105075373D01*
X145959182Y-105116238D01*
X145973394Y-105167626D01*
X145978556Y-105232177D01*
X145973371Y-105297533D01*
X145959140Y-105349255D01*
X145937133Y-105390104D01*
X145905738Y-105424022D01*
X145863249Y-105451907D01*
X145807196Y-105473538D01*
X145747617Y-105486688D01*
X145672089Y-105495499D01*
X145577607Y-105498743D01*
X145483126Y-105495499D01*
X145407597Y-105486688D01*
X145348019Y-105473538D01*
X145291935Y-105451903D01*
X145249449Y-105424017D01*
X145218082Y-105390104D01*
X145196075Y-105349255D01*
X145181843Y-105297533D01*
X145176658Y-105232177D01*
X145262876Y-105232177D01*
X145267511Y-105277875D01*
X145280266Y-105313363D01*
X145302130Y-105342686D01*
X145334586Y-105366022D01*
X145374914Y-105382123D01*
X145431452Y-105394012D01*
X145494606Y-105400117D01*
X145577607Y-105402414D01*
X145659668Y-105400130D01*
X145723225Y-105394012D01*
X145780244Y-105382108D01*
X145820678Y-105366022D01*
X145853104Y-105342692D01*
X145874997Y-105313363D01*
X145887715Y-105277878D01*
X145892339Y-105232177D01*
X145887700Y-105186549D01*
X145874997Y-105151528D01*
X145853157Y-105122711D01*
X145820678Y-105099455D01*
X145780244Y-105083369D01*
X145723225Y-105071465D01*
X145659668Y-105065347D01*
X145577607Y-105063063D01*
X145494606Y-105065360D01*
X145431452Y-105071465D01*
X145374914Y-105083354D01*
X145334586Y-105099455D01*
X145302076Y-105122716D01*
X145280266Y-105151528D01*
X145267527Y-105186553D01*
X145262876Y-105232177D01*
X145176658Y-105232177D01*
X145181821Y-105167626D01*
X145196033Y-105116238D01*
X145218082Y-105075373D01*
X145249449Y-105041460D01*
X145291935Y-105013574D01*
X145348019Y-104991939D01*
X145407597Y-104978789D01*
X145483126Y-104969978D01*
X145577607Y-104966734D01*
X145672089Y-104969978D01*
G37*
G36*
X143994455Y-76329588D02*
G01*
X144000073Y-76540980D01*
X144018269Y-76703401D01*
X144050387Y-76856053D01*
X144237965Y-76830774D01*
X144224043Y-76675314D01*
X144215617Y-76522784D01*
X144212808Y-76329588D01*
X144221989Y-76206238D01*
X144247082Y-76109068D01*
X144285593Y-76032833D01*
X144341731Y-75969816D01*
X144421013Y-75917791D01*
X144529225Y-75877372D01*
X144644399Y-75853576D01*
X144796694Y-75837299D01*
X144994019Y-75831210D01*
X145191258Y-75837297D01*
X145343562Y-75853572D01*
X145458813Y-75877372D01*
X145566948Y-75917781D01*
X145646240Y-75969804D01*
X145702445Y-76032833D01*
X145740956Y-76109068D01*
X145766049Y-76206238D01*
X145775230Y-76329588D01*
X145768269Y-76630495D01*
X145744455Y-76869975D01*
X145929225Y-76895254D01*
X145958180Y-76773471D01*
X145978196Y-76647348D01*
X145989343Y-76512102D01*
X145993583Y-76329588D01*
X145981384Y-76146532D01*
X145948009Y-76000967D01*
X145896985Y-75885799D01*
X145842751Y-75810184D01*
X145773586Y-75745112D01*
X145687603Y-75689961D01*
X145582034Y-75644975D01*
X145434209Y-75606555D01*
X145241415Y-75580531D01*
X144994019Y-75570847D01*
X144746536Y-75580534D01*
X144553752Y-75606560D01*
X144406004Y-75644975D01*
X144300435Y-75689961D01*
X144214453Y-75745112D01*
X144145287Y-75810184D01*
X144091053Y-75885799D01*
X144040029Y-76000967D01*
X144006654Y-76146532D01*
X143994455Y-76329588D01*
G37*
G36*
X145453309Y-77156525D02*
G01*
X145590784Y-77178514D01*
X145698293Y-77211427D01*
X145795460Y-77263213D01*
X145870495Y-77330903D01*
X145926416Y-77415858D01*
X145963218Y-77512776D01*
X145987492Y-77635483D01*
X145996392Y-77789672D01*
X145987452Y-77945808D01*
X145963142Y-78069312D01*
X145926416Y-78166172D01*
X145870453Y-78251015D01*
X145795425Y-78318201D01*
X145698293Y-78369138D01*
X145590861Y-78401331D01*
X145453382Y-78422862D01*
X145279539Y-78430809D01*
X145105778Y-78422861D01*
X144968382Y-78401330D01*
X144861029Y-78369138D01*
X144763818Y-78318194D01*
X144688753Y-78251007D01*
X144632784Y-78166172D01*
X144596058Y-78069312D01*
X144571748Y-77945808D01*
X144562808Y-77789672D01*
X144764431Y-77789672D01*
X144777259Y-77928971D01*
X144810593Y-78024755D01*
X144847533Y-78075835D01*
X144899250Y-78116797D01*
X144968862Y-78147976D01*
X145091896Y-78173969D01*
X145279539Y-78184368D01*
X145467305Y-78173970D01*
X145590460Y-78147976D01*
X145659992Y-78116804D01*
X145711672Y-78075843D01*
X145748607Y-78024755D01*
X145781941Y-77928971D01*
X145794769Y-77789672D01*
X145781897Y-77650444D01*
X145748607Y-77555809D01*
X145711779Y-77505629D01*
X145660122Y-77465129D01*
X145590460Y-77434054D01*
X145467305Y-77408059D01*
X145279539Y-77397662D01*
X145091896Y-77408060D01*
X144968862Y-77434054D01*
X144899119Y-77465135D01*
X144847426Y-77505637D01*
X144810593Y-77555809D01*
X144777303Y-77650444D01*
X144764431Y-77789672D01*
X144562808Y-77789672D01*
X144571708Y-77635483D01*
X144595982Y-77512776D01*
X144632784Y-77415858D01*
X144688711Y-77330911D01*
X144763783Y-77263220D01*
X144861029Y-77211427D01*
X144968458Y-77178515D01*
X145105851Y-77156525D01*
X145279539Y-77148412D01*
X145453309Y-77156525D01*
G37*
G36*
X144562808Y-79630163D02*
G01*
X144574588Y-79749562D01*
X144606545Y-79839503D01*
X144656144Y-79906961D01*
X144724467Y-79956192D01*
X144816008Y-79988051D01*
X144937965Y-79999825D01*
X145960000Y-79999825D01*
X145960000Y-79761810D01*
X145005254Y-79761810D01*
X144913984Y-79755453D01*
X144853950Y-79739432D01*
X144816210Y-79716992D01*
X144789125Y-79683364D01*
X144771219Y-79634761D01*
X144764431Y-79565806D01*
X144779443Y-79441445D01*
X144826102Y-79313747D01*
X144894977Y-79182780D01*
X144994019Y-79014183D01*
X144823171Y-79002948D01*
X144711630Y-79165166D01*
X144631441Y-79319364D01*
X144592739Y-79425549D01*
X144570196Y-79528816D01*
X144562808Y-79630163D01*
G37*
G36*
X144596392Y-79002948D02*
G01*
X144856755Y-79022609D01*
X144898764Y-79039340D01*
X145960000Y-79039340D01*
X145960000Y-78801325D01*
X144596392Y-78801325D01*
X144596392Y-79002948D01*
G37*
G36*
X144193147Y-80768702D02*
G01*
X145584842Y-80768702D01*
X145673457Y-80780634D01*
X145724794Y-80810589D01*
X145754748Y-80862289D01*
X145766803Y-80953471D01*
X145766803Y-81160711D01*
X145948764Y-81188677D01*
X145968426Y-81084996D01*
X145981004Y-80970202D01*
X145985157Y-80880687D01*
X145973429Y-80770727D01*
X145941143Y-80685842D01*
X145890024Y-80620202D01*
X145821248Y-80572468D01*
X145731799Y-80541874D01*
X145615617Y-80530687D01*
X144193147Y-80530687D01*
X144193147Y-80768702D01*
G37*
G36*
X144596392Y-81202599D02*
G01*
X144783970Y-81202599D01*
X144783970Y-80284246D01*
X144610436Y-80284246D01*
X144596392Y-80553035D01*
X144596392Y-81202599D01*
G37*
G36*
X144562808Y-82137927D02*
G01*
X144573768Y-82282462D01*
X144603475Y-82394138D01*
X144636966Y-82458958D01*
X144681897Y-82511146D01*
X144739274Y-82552285D01*
X144804971Y-82580173D01*
X144890173Y-82598686D01*
X144999637Y-82605530D01*
X145960000Y-82605530D01*
X145960000Y-82417951D01*
X145663244Y-82381559D01*
X145632348Y-82364706D01*
X144999637Y-82364706D01*
X144917523Y-82357137D01*
X144859396Y-82337207D01*
X144819019Y-82307309D01*
X144791789Y-82264824D01*
X144772246Y-82195369D01*
X144764431Y-82087491D01*
X144775666Y-81820045D01*
X144800823Y-81502285D01*
X144624357Y-81479937D01*
X144593583Y-81688398D01*
X144571235Y-81919452D01*
X144562808Y-82137927D01*
G37*
G36*
X145120048Y-82493545D02*
G01*
X145299200Y-82490736D01*
X145302009Y-81838363D01*
X145310115Y-81774989D01*
X145327932Y-81730946D01*
X145353789Y-81701099D01*
X145409361Y-81672547D01*
X145489588Y-81661898D01*
X145576416Y-81661898D01*
X145645565Y-81668416D01*
X145695815Y-81685790D01*
X145731877Y-81712212D01*
X145757370Y-81749075D01*
X145774395Y-81801496D01*
X145780847Y-81874755D01*
X145774017Y-81955144D01*
X145751416Y-82052442D01*
X145714691Y-82150561D01*
X145660436Y-82252599D01*
X145591074Y-82348461D01*
X145503632Y-82437491D01*
X145679975Y-82437491D01*
X145771078Y-82349319D01*
X145820884Y-82288032D01*
X145871828Y-82212055D01*
X145916195Y-82129009D01*
X145953039Y-82035711D01*
X145976938Y-81936483D01*
X145985157Y-81827128D01*
X145973867Y-81711519D01*
X145941803Y-81614270D01*
X145887782Y-81531866D01*
X145813087Y-81470045D01*
X145720929Y-81431906D01*
X145604382Y-81418265D01*
X145456004Y-81418265D01*
X145354028Y-81430186D01*
X145273057Y-81463570D01*
X145208220Y-81517672D01*
X145161098Y-81588891D01*
X145130996Y-81679929D01*
X145120048Y-81796353D01*
X145120048Y-82493545D01*
G37*
G36*
X144596392Y-83276099D02*
G01*
X145960000Y-83276099D01*
X145960000Y-83040893D01*
X144596392Y-83040893D01*
X144596392Y-83276099D01*
G37*
G36*
X144016803Y-83214549D02*
G01*
X144025342Y-83255869D01*
X144048268Y-83278796D01*
X144089588Y-83287334D01*
X144249200Y-83287334D01*
X144290520Y-83278796D01*
X144313447Y-83255869D01*
X144321985Y-83214549D01*
X144321985Y-83102564D01*
X144313441Y-83061164D01*
X144290508Y-83038204D01*
X144249200Y-83029658D01*
X144089588Y-83029658D01*
X144048280Y-83038204D01*
X144025348Y-83061164D01*
X144016803Y-83102564D01*
X144016803Y-83214549D01*
G37*
G36*
X144562808Y-84552145D02*
G01*
X144574588Y-84671544D01*
X144606545Y-84761485D01*
X144656144Y-84828943D01*
X144724467Y-84878174D01*
X144816008Y-84910033D01*
X144937965Y-84921807D01*
X145960000Y-84921807D01*
X145960000Y-84683792D01*
X145005254Y-84683792D01*
X144913984Y-84677435D01*
X144853950Y-84661414D01*
X144816210Y-84638974D01*
X144789125Y-84605346D01*
X144771219Y-84556743D01*
X144764431Y-84487787D01*
X144779443Y-84363426D01*
X144826102Y-84235729D01*
X144894977Y-84104761D01*
X144994019Y-83936165D01*
X144823171Y-83924930D01*
X144711630Y-84087148D01*
X144631441Y-84241346D01*
X144592739Y-84347531D01*
X144570196Y-84450797D01*
X144562808Y-84552145D01*
G37*
G36*
X144596392Y-83924930D02*
G01*
X144856755Y-83944591D01*
X144898764Y-83961322D01*
X145960000Y-83961322D01*
X145960000Y-83723307D01*
X144596392Y-83723307D01*
X144596392Y-83924930D01*
G37*
G36*
X144562808Y-85909036D02*
G01*
X144571542Y-86067848D01*
X144595059Y-86190819D01*
X144630134Y-86284818D01*
X144674794Y-86355635D01*
X144735530Y-86414711D01*
X144809301Y-86457567D01*
X144898814Y-86484589D01*
X145007941Y-86494242D01*
X145127113Y-86486009D01*
X145219992Y-86459954D01*
X145292240Y-86418649D01*
X145347083Y-86359172D01*
X145381728Y-86278461D01*
X145394455Y-86169399D01*
X145394455Y-85374267D01*
X145209563Y-85374267D01*
X145209563Y-86107850D01*
X145201581Y-86165463D01*
X145180420Y-86203721D01*
X145146671Y-86228140D01*
X145081272Y-86249045D01*
X145007941Y-86256228D01*
X144923853Y-86244997D01*
X144863376Y-86218329D01*
X144820484Y-86177826D01*
X144792258Y-86123881D01*
X144772269Y-86041485D01*
X144764431Y-85920272D01*
X144776590Y-85780925D01*
X144807906Y-85686409D01*
X144842965Y-85636164D01*
X144892358Y-85596172D01*
X144959092Y-85565997D01*
X145077678Y-85541076D01*
X145260000Y-85531071D01*
X145406542Y-85536929D01*
X145514977Y-85552319D01*
X145593147Y-85574424D01*
X145663655Y-85610490D01*
X145714846Y-85656467D01*
X145749951Y-85713032D01*
X145780291Y-85816900D01*
X145791960Y-85965090D01*
X145782191Y-86204448D01*
X145758377Y-86438189D01*
X145917990Y-86463468D01*
X145940180Y-86394990D01*
X145960000Y-86305198D01*
X145985157Y-86112002D01*
X145993583Y-85934193D01*
X145984510Y-85778168D01*
X145959769Y-85654116D01*
X145922264Y-85556228D01*
X145865487Y-85470169D01*
X145789903Y-85401091D01*
X145692676Y-85347644D01*
X145585003Y-85313223D01*
X145447571Y-85290277D01*
X145274043Y-85281821D01*
X145094612Y-85290415D01*
X144955770Y-85313484D01*
X144849916Y-85347644D01*
X144754469Y-85400887D01*
X144681752Y-85468622D01*
X144628632Y-85552076D01*
X144593828Y-85646826D01*
X144571079Y-85764256D01*
X144562808Y-85909036D01*
G37*
G36*
X144596392Y-87036461D02*
G01*
X144856755Y-87067236D01*
X144898764Y-87089584D01*
X145960000Y-87089584D01*
X145960000Y-86851570D01*
X144596392Y-86851570D01*
X144596392Y-87036461D01*
G37*
G36*
X144562808Y-87705565D02*
G01*
X144786779Y-87677599D01*
X144786779Y-87599197D01*
X144798823Y-87479915D01*
X144835872Y-87358374D01*
X144974357Y-87064427D01*
X144825980Y-87044766D01*
X144714235Y-87199274D01*
X144632784Y-87348604D01*
X144593022Y-87452132D01*
X144570196Y-87550202D01*
X144562808Y-87644016D01*
X144562808Y-87705565D01*
G37*
G36*
X144028039Y-88236427D02*
G01*
X145567990Y-88236427D01*
X145654266Y-88249207D01*
X145708063Y-88282588D01*
X145740386Y-88337358D01*
X145752759Y-88424005D01*
X145752759Y-89121196D01*
X145943147Y-89132431D01*
X145960000Y-88761304D01*
X145962808Y-88384804D01*
X145954967Y-88276989D01*
X145933743Y-88193854D01*
X145901554Y-88130276D01*
X145859249Y-88082309D01*
X145785702Y-88033309D01*
X145699964Y-88003300D01*
X145598764Y-87992794D01*
X144028039Y-87992794D01*
X144028039Y-88236427D01*
G37*
G36*
X144562808Y-89965422D02*
G01*
X144571542Y-90124234D01*
X144595059Y-90247204D01*
X144630134Y-90341203D01*
X144674794Y-90412020D01*
X144735530Y-90471096D01*
X144809301Y-90513952D01*
X144898814Y-90540974D01*
X145007941Y-90550628D01*
X145127113Y-90542394D01*
X145219992Y-90516339D01*
X145292240Y-90475034D01*
X145347083Y-90415558D01*
X145381728Y-90334847D01*
X145394455Y-90225785D01*
X145394455Y-89430652D01*
X145209563Y-89430652D01*
X145209563Y-90164235D01*
X145201581Y-90221849D01*
X145180420Y-90260106D01*
X145146671Y-90284525D01*
X145081272Y-90305430D01*
X145007941Y-90312613D01*
X144923853Y-90301383D01*
X144863376Y-90274714D01*
X144820484Y-90234211D01*
X144792258Y-90180266D01*
X144772269Y-90097870D01*
X144764431Y-89976657D01*
X144776590Y-89837310D01*
X144807906Y-89742794D01*
X144842965Y-89692549D01*
X144892358Y-89652557D01*
X144959092Y-89622383D01*
X145077678Y-89597462D01*
X145260000Y-89587456D01*
X145406542Y-89593314D01*
X145514977Y-89608705D01*
X145593147Y-89630809D01*
X145663655Y-89666875D01*
X145714846Y-89712852D01*
X145749951Y-89769417D01*
X145780291Y-89873285D01*
X145791960Y-90021475D01*
X145782191Y-90260833D01*
X145758377Y-90494574D01*
X145917990Y-90519853D01*
X145940180Y-90451376D01*
X145960000Y-90361584D01*
X145985157Y-90168387D01*
X145993583Y-89990579D01*
X145984510Y-89834553D01*
X145959769Y-89710502D01*
X145922264Y-89612613D01*
X145865487Y-89526554D01*
X145789903Y-89457477D01*
X145692676Y-89404030D01*
X145585003Y-89369608D01*
X145447571Y-89346663D01*
X145274043Y-89338206D01*
X145094612Y-89346800D01*
X144955770Y-89369870D01*
X144849916Y-89404030D01*
X144754469Y-89457272D01*
X144681752Y-89525008D01*
X144628632Y-89608461D01*
X144593828Y-89703212D01*
X144571079Y-89820641D01*
X144562808Y-89965422D01*
G37*
G36*
X144596392Y-92112561D02*
G01*
X145901259Y-91614183D01*
X145944612Y-91581943D01*
X145955988Y-91559043D01*
X145960000Y-91530163D01*
X145960000Y-91314619D01*
X145956119Y-91287857D01*
X145944612Y-91264183D01*
X145926364Y-91244834D01*
X145901259Y-91230600D01*
X144596392Y-90732222D01*
X144596392Y-90986967D01*
X145551259Y-91323046D01*
X145671671Y-91364933D01*
X145789152Y-91404134D01*
X145789152Y-91440526D01*
X145670205Y-91484002D01*
X145551259Y-91524546D01*
X144596392Y-91860624D01*
X144596392Y-92112561D01*
G37*
G36*
X144562808Y-92925645D02*
G01*
X144571542Y-93084457D01*
X144595059Y-93207427D01*
X144630134Y-93301426D01*
X144674794Y-93372243D01*
X144735530Y-93431319D01*
X144809301Y-93474175D01*
X144898814Y-93501198D01*
X145007941Y-93510851D01*
X145127113Y-93502617D01*
X145219992Y-93476563D01*
X145292240Y-93435258D01*
X145347083Y-93375781D01*
X145381728Y-93295070D01*
X145394455Y-93186008D01*
X145394455Y-92390875D01*
X145209563Y-92390875D01*
X145209563Y-93124459D01*
X145201581Y-93182072D01*
X145180420Y-93220330D01*
X145146671Y-93244748D01*
X145081272Y-93265653D01*
X145007941Y-93272836D01*
X144923853Y-93261606D01*
X144863376Y-93234938D01*
X144820484Y-93194434D01*
X144792258Y-93140489D01*
X144772269Y-93058093D01*
X144764431Y-92936880D01*
X144776590Y-92797533D01*
X144807906Y-92703018D01*
X144842965Y-92652772D01*
X144892358Y-92612781D01*
X144959092Y-92582606D01*
X145077678Y-92557685D01*
X145260000Y-92547679D01*
X145406542Y-92553538D01*
X145514977Y-92568928D01*
X145593147Y-92591032D01*
X145663655Y-92627098D01*
X145714846Y-92673075D01*
X145749951Y-92729640D01*
X145780291Y-92833509D01*
X145791960Y-92981699D01*
X145782191Y-93221057D01*
X145758377Y-93454797D01*
X145917990Y-93480076D01*
X145940180Y-93411599D01*
X145960000Y-93321807D01*
X145985157Y-93128611D01*
X145993583Y-92950802D01*
X145984510Y-92794777D01*
X145959769Y-92670725D01*
X145922264Y-92572836D01*
X145865487Y-92486778D01*
X145789903Y-92417700D01*
X145692676Y-92364253D01*
X145585003Y-92329831D01*
X145447571Y-92306886D01*
X145274043Y-92298429D01*
X145094612Y-92307023D01*
X144955770Y-92330093D01*
X144849916Y-92364253D01*
X144754469Y-92417496D01*
X144681752Y-92485231D01*
X144628632Y-92568684D01*
X144593828Y-92663435D01*
X144571079Y-92780864D01*
X144562808Y-92925645D01*
G37*
G36*
X143999951Y-94106193D02*
G01*
X145584842Y-94106193D01*
X145666082Y-94119371D01*
X145720642Y-94155163D01*
X145754389Y-94211800D01*
X145766803Y-94293771D01*
X145766803Y-94425418D01*
X145948764Y-94453384D01*
X145968426Y-94381943D01*
X145981004Y-94286810D01*
X145985157Y-94204256D01*
X145974507Y-94107109D01*
X145944435Y-94027648D01*
X145895642Y-93961967D01*
X145830392Y-93913136D01*
X145746362Y-93882217D01*
X145637965Y-93870987D01*
X143999951Y-93870987D01*
X143999951Y-94106193D01*
G37*
G36*
X143994455Y-95261461D02*
G01*
X144008377Y-95544173D01*
X144024452Y-95689519D01*
X144050387Y-95835432D01*
X144229539Y-95818702D01*
X144219891Y-95552599D01*
X144215617Y-95272697D01*
X144222578Y-95094766D01*
X144235140Y-95024816D01*
X144256161Y-94973011D01*
X144290303Y-94932827D01*
X144342990Y-94904501D01*
X144409144Y-94889483D01*
X144509563Y-94883496D01*
X144615117Y-94891468D01*
X144686132Y-94911815D01*
X144732191Y-94940893D01*
X144768028Y-94983133D01*
X144799618Y-95043511D01*
X144825980Y-95127006D01*
X144924043Y-95519016D01*
X144958797Y-95630315D01*
X145001964Y-95715504D01*
X145052426Y-95779415D01*
X145110157Y-95825662D01*
X145202523Y-95869320D01*
X145319569Y-95897806D01*
X145467240Y-95908217D01*
X145626602Y-95897670D01*
X145738838Y-95870359D01*
X145831576Y-95821406D01*
X145896985Y-95754221D01*
X145941863Y-95668081D01*
X145972578Y-95552599D01*
X145987913Y-95423946D01*
X145993583Y-95261461D01*
X145985157Y-95013555D01*
X145970636Y-94855844D01*
X145940460Y-94662212D01*
X145758377Y-94679064D01*
X145768269Y-94945045D01*
X145772421Y-95118579D01*
X145772421Y-95269888D01*
X145766049Y-95410376D01*
X145750073Y-95503628D01*
X145729295Y-95556457D01*
X145699547Y-95595774D01*
X145660436Y-95624040D01*
X145584285Y-95648996D01*
X145461622Y-95659089D01*
X145356305Y-95651865D01*
X145288087Y-95633810D01*
X145233508Y-95601042D01*
X145194298Y-95554064D01*
X145166260Y-95494917D01*
X145142397Y-95415457D01*
X145041646Y-95015020D01*
X144994154Y-94882018D01*
X144932258Y-94786148D01*
X144856877Y-94719609D01*
X144765184Y-94674351D01*
X144649485Y-94644960D01*
X144503946Y-94634246D01*
X144344759Y-94644793D01*
X144233813Y-94671981D01*
X144142637Y-94720787D01*
X144079818Y-94786775D01*
X144037887Y-94870919D01*
X144011308Y-94981437D01*
X143999019Y-95104561D01*
X143994455Y-95261461D01*
G37*
G36*
X144562808Y-96827669D02*
G01*
X144571542Y-96986481D01*
X144595059Y-97109451D01*
X144630134Y-97203450D01*
X144674794Y-97274267D01*
X144735530Y-97333343D01*
X144809301Y-97376199D01*
X144898814Y-97403221D01*
X145007941Y-97412875D01*
X145127113Y-97404641D01*
X145219992Y-97378586D01*
X145292240Y-97337281D01*
X145347083Y-97277805D01*
X145381728Y-97197094D01*
X145394455Y-97088032D01*
X145394455Y-96292899D01*
X145209563Y-96292899D01*
X145209563Y-97026482D01*
X145201581Y-97084096D01*
X145180420Y-97122353D01*
X145146671Y-97146772D01*
X145081272Y-97167677D01*
X145007941Y-97174860D01*
X144923853Y-97163630D01*
X144863376Y-97136961D01*
X144820484Y-97096458D01*
X144792258Y-97042513D01*
X144772269Y-96960117D01*
X144764431Y-96838904D01*
X144776590Y-96699557D01*
X144807906Y-96605041D01*
X144842965Y-96554796D01*
X144892358Y-96514804D01*
X144959092Y-96484630D01*
X145077678Y-96459709D01*
X145260000Y-96449703D01*
X145406542Y-96455562D01*
X145514977Y-96470952D01*
X145593147Y-96493056D01*
X145663655Y-96529122D01*
X145714846Y-96575099D01*
X145749951Y-96631664D01*
X145780291Y-96735532D01*
X145791960Y-96883722D01*
X145782191Y-97123080D01*
X145758377Y-97356821D01*
X145917990Y-97382100D01*
X145940180Y-97313623D01*
X145960000Y-97223831D01*
X145985157Y-97030635D01*
X145993583Y-96852826D01*
X145984510Y-96696800D01*
X145959769Y-96572749D01*
X145922264Y-96474860D01*
X145865487Y-96388801D01*
X145789903Y-96319724D01*
X145692676Y-96266277D01*
X145585003Y-96231855D01*
X145447571Y-96208910D01*
X145274043Y-96200453D01*
X145094612Y-96209047D01*
X144955770Y-96232117D01*
X144849916Y-96266277D01*
X144754469Y-96319519D01*
X144681752Y-96387255D01*
X144628632Y-96470708D01*
X144593828Y-96565459D01*
X144571079Y-96682888D01*
X144562808Y-96827669D01*
G37*
G36*
X144562808Y-98599040D02*
G01*
X144574588Y-98718438D01*
X144606545Y-98808380D01*
X144656144Y-98875838D01*
X144724467Y-98925069D01*
X144816008Y-98956928D01*
X144937965Y-98968702D01*
X145960000Y-98968702D01*
X145960000Y-98730687D01*
X145005254Y-98730687D01*
X144913984Y-98724329D01*
X144853950Y-98708308D01*
X144816210Y-98685868D01*
X144789125Y-98652241D01*
X144771219Y-98603637D01*
X144764431Y-98534682D01*
X144779443Y-98410321D01*
X144826102Y-98282623D01*
X144894977Y-98151656D01*
X144994019Y-97983060D01*
X144823171Y-97971824D01*
X144711630Y-98134043D01*
X144631441Y-98288241D01*
X144592739Y-98394426D01*
X144570196Y-98497692D01*
X144562808Y-98599040D01*
G37*
G36*
X144596392Y-97971824D02*
G01*
X144856755Y-97991486D01*
X144898764Y-98008217D01*
X145960000Y-98008217D01*
X145960000Y-97770202D01*
X144596392Y-97770202D01*
X144596392Y-97971824D01*
G37*
G36*
X144562808Y-99849563D02*
G01*
X144568426Y-100039829D01*
X144582470Y-100240108D01*
X144604818Y-100423534D01*
X144778353Y-100403872D01*
X144768705Y-100144853D01*
X144764431Y-99885956D01*
X144770048Y-99687142D01*
X144786638Y-99621682D01*
X144814867Y-99582117D01*
X144859121Y-99559242D01*
X144937965Y-99549877D01*
X145006969Y-99556825D01*
X145051117Y-99574458D01*
X145078039Y-99600314D01*
X145106924Y-99657701D01*
X145133970Y-99748691D01*
X145223607Y-100146318D01*
X145257039Y-100251607D01*
X145297562Y-100329542D01*
X145344019Y-100385676D01*
X145403093Y-100425975D01*
X145485469Y-100452686D01*
X145598764Y-100462735D01*
X145709518Y-100454460D01*
X145791307Y-100432476D01*
X145850823Y-100399720D01*
X145899109Y-100352328D01*
X145936559Y-100289561D01*
X145962808Y-100207868D01*
X145983007Y-100070422D01*
X145990774Y-99880338D01*
X145985157Y-99663328D01*
X145974385Y-99515909D01*
X145951573Y-99345568D01*
X145778039Y-99362299D01*
X145785000Y-99505181D01*
X145789152Y-99663328D01*
X145789152Y-99832711D01*
X145785165Y-99978289D01*
X145775230Y-100073534D01*
X145752793Y-100151631D01*
X145720642Y-100196755D01*
X145673018Y-100223066D01*
X145598764Y-100233147D01*
X145534705Y-100225456D01*
X145491982Y-100205326D01*
X145464431Y-100174284D01*
X145435107Y-100109809D01*
X145408377Y-100017480D01*
X145318740Y-99625471D01*
X145284518Y-99520611D01*
X145244612Y-99446318D01*
X145191329Y-99388138D01*
X145124200Y-99348255D01*
X145044537Y-99325856D01*
X144937965Y-99317480D01*
X144832452Y-99324864D01*
X144754281Y-99344464D01*
X144697264Y-99373534D01*
X144650298Y-99416223D01*
X144613869Y-99473012D01*
X144588087Y-99547069D01*
X144568457Y-99673068D01*
X144562808Y-99849563D01*
G37*
G36*
X145453309Y-100760154D02*
G01*
X145590784Y-100782143D01*
X145698293Y-100815055D01*
X145795460Y-100866842D01*
X145870495Y-100934532D01*
X145926416Y-101019487D01*
X145963218Y-101116405D01*
X145987492Y-101239111D01*
X145996392Y-101393300D01*
X145987452Y-101549437D01*
X145963142Y-101672941D01*
X145926416Y-101769801D01*
X145870453Y-101854644D01*
X145795425Y-101921829D01*
X145698293Y-101972766D01*
X145590861Y-102004960D01*
X145453382Y-102026491D01*
X145279539Y-102034438D01*
X145105778Y-102026490D01*
X144968382Y-102004959D01*
X144861029Y-101972766D01*
X144763818Y-101921822D01*
X144688753Y-101854635D01*
X144632784Y-101769801D01*
X144596058Y-101672941D01*
X144571748Y-101549437D01*
X144562808Y-101393300D01*
X144764431Y-101393300D01*
X144777259Y-101532600D01*
X144810593Y-101628384D01*
X144847533Y-101679464D01*
X144899250Y-101720426D01*
X144968862Y-101751605D01*
X145091896Y-101777598D01*
X145279539Y-101787997D01*
X145467305Y-101777599D01*
X145590460Y-101751605D01*
X145659992Y-101720433D01*
X145711672Y-101679472D01*
X145748607Y-101628384D01*
X145781941Y-101532600D01*
X145794769Y-101393300D01*
X145781897Y-101254073D01*
X145748607Y-101159438D01*
X145711779Y-101109258D01*
X145660122Y-101068758D01*
X145590460Y-101037683D01*
X145467305Y-101011688D01*
X145279539Y-101001290D01*
X145091896Y-101011689D01*
X144968862Y-101037683D01*
X144899119Y-101068764D01*
X144847426Y-101109265D01*
X144810593Y-101159438D01*
X144777303Y-101254073D01*
X144764431Y-101393300D01*
X144562808Y-101393300D01*
X144571708Y-101239111D01*
X144595982Y-101116405D01*
X144632784Y-101019487D01*
X144688711Y-100934540D01*
X144763783Y-100866849D01*
X144861029Y-100815055D01*
X144968458Y-100782144D01*
X145105851Y-100760154D01*
X145279539Y-100752041D01*
X145453309Y-100760154D01*
G37*
G36*
X144596392Y-102589846D02*
G01*
X144856755Y-102620621D01*
X144898764Y-102642969D01*
X145960000Y-102642969D01*
X145960000Y-102404954D01*
X144596392Y-102404954D01*
X144596392Y-102589846D01*
G37*
G36*
X144562808Y-103258949D02*
G01*
X144786779Y-103230983D01*
X144786779Y-103152581D01*
X144798823Y-103033299D01*
X144835872Y-102911758D01*
X144974357Y-102617812D01*
X144825980Y-102598150D01*
X144714235Y-102752659D01*
X144632784Y-102901988D01*
X144593022Y-103005516D01*
X144570196Y-103103586D01*
X144562808Y-103197400D01*
X144562808Y-103258949D01*
G37*
G36*
X146631404Y-95476029D02*
G01*
X146637126Y-95538014D01*
X146653088Y-95588226D01*
X146678378Y-95629080D01*
X146713347Y-95662203D01*
X146754675Y-95685770D01*
X146811244Y-95704682D01*
X146887114Y-95717570D01*
X146987021Y-95722409D01*
X147072492Y-95718485D01*
X147142421Y-95707693D01*
X147205505Y-95687499D01*
X147255139Y-95658661D01*
X147282652Y-95633531D01*
X147305460Y-95602987D01*
X147323710Y-95566277D01*
X147340487Y-95503964D01*
X147346791Y-95419975D01*
X147343982Y-95344382D01*
X147334884Y-95261767D01*
X147319497Y-95179884D01*
X147297821Y-95106428D01*
X147216610Y-95201622D01*
X147234806Y-95276482D01*
X147243904Y-95349267D01*
X147245980Y-95417227D01*
X147238406Y-95478903D01*
X147220823Y-95522862D01*
X147202164Y-95546246D01*
X147175912Y-95565634D01*
X147140345Y-95580992D01*
X147078515Y-95594039D01*
X146987021Y-95599188D01*
X146897998Y-95595222D01*
X146837911Y-95585205D01*
X146802913Y-95572686D01*
X146777174Y-95556054D01*
X146758838Y-95535502D01*
X146746377Y-95510509D01*
X146738100Y-95477411D01*
X146735024Y-95434019D01*
X146742461Y-95379730D01*
X146765127Y-95327590D01*
X146798797Y-95275989D01*
X146847009Y-95211392D01*
X146767203Y-95203026D01*
X146725401Y-95246271D01*
X146692281Y-95289061D01*
X146665674Y-95334433D01*
X146646791Y-95380774D01*
X146635205Y-95428687D01*
X146631404Y-95476029D01*
G37*
G36*
X146349975Y-95225375D02*
G01*
X146604781Y-95225375D01*
X146684588Y-95223299D01*
X146758777Y-95212796D01*
X146778377Y-95223970D01*
X147303377Y-95225375D01*
X147297821Y-95106428D01*
X146349975Y-95106428D01*
X146349975Y-95225375D01*
G37*
G36*
X146648196Y-96504352D02*
G01*
X147367796Y-96231350D01*
X147411999Y-96212570D01*
X147455968Y-96189340D01*
X147497427Y-96161567D01*
X147535102Y-96128463D01*
X147567296Y-96089862D01*
X147593171Y-96044443D01*
X147610412Y-95993651D01*
X147618389Y-95933190D01*
X147539987Y-95921955D01*
X147519014Y-95975451D01*
X147495108Y-96017264D01*
X147468607Y-96049328D01*
X147419524Y-96089181D01*
X147359370Y-96120769D01*
X147278220Y-96154352D01*
X147216610Y-96176762D01*
X147156404Y-96197766D01*
X146648196Y-96375575D01*
X146648196Y-96504352D01*
G37*
G36*
X146648196Y-95942960D02*
G01*
X147156404Y-96123578D01*
X147197742Y-96137561D01*
X147239019Y-96148796D01*
X147239019Y-96180975D01*
X147330000Y-96141774D01*
X147330000Y-96105382D01*
X147327929Y-96091982D01*
X147321634Y-96079492D01*
X147311820Y-96069510D01*
X147299225Y-96063372D01*
X146648196Y-95815587D01*
X146648196Y-95942960D01*
G37*
G36*
X146352784Y-97246728D02*
G01*
X146358937Y-97359433D01*
X146374521Y-97435650D01*
X146393311Y-97479243D01*
X146418654Y-97512518D01*
X146450786Y-97537194D01*
X146488597Y-97553592D01*
X146538849Y-97564595D01*
X146604781Y-97568702D01*
X146673085Y-97563700D01*
X146724590Y-97550298D01*
X146762990Y-97530172D01*
X146793197Y-97500603D01*
X146814380Y-97459932D01*
X146826004Y-97404876D01*
X146831622Y-97404876D01*
X146840958Y-97458262D01*
X146857073Y-97499658D01*
X146879139Y-97531473D01*
X146907215Y-97555390D01*
X146953088Y-97577875D01*
X147012577Y-97592676D01*
X147089176Y-97598133D01*
X147155157Y-97594109D01*
X147205432Y-97583332D01*
X147243232Y-97567297D01*
X147275478Y-97543138D01*
X147300793Y-97510770D01*
X147319497Y-97468623D01*
X147335104Y-97395206D01*
X147341174Y-97290081D01*
X147340441Y-97147993D01*
X147336960Y-97038084D01*
X147330000Y-96933121D01*
X147231997Y-96952721D01*
X147234806Y-97069591D01*
X147236210Y-97270481D01*
X147232416Y-97343313D01*
X147222899Y-97391564D01*
X147211090Y-97418811D01*
X147194618Y-97439451D01*
X147173196Y-97454579D01*
X147132300Y-97468106D01*
X147068171Y-97473508D01*
X146997382Y-97467909D01*
X146952034Y-97453907D01*
X146927812Y-97438059D01*
X146908815Y-97416449D01*
X146894637Y-97388084D01*
X146882249Y-97337526D01*
X146876379Y-97262116D01*
X146876379Y-96951317D01*
X146782590Y-96951317D01*
X146782590Y-97260711D01*
X146777749Y-97327003D01*
X146767936Y-97371964D01*
X146756300Y-97397389D01*
X146740078Y-97416933D01*
X146718904Y-97431498D01*
X146679138Y-97444556D01*
X146618825Y-97449694D01*
X146557427Y-97444128D01*
X146518014Y-97430094D01*
X146497588Y-97414568D01*
X146481781Y-97393286D01*
X146470448Y-97365003D01*
X146461403Y-97315374D01*
X146457808Y-97241111D01*
X146457808Y-97117890D01*
X146458541Y-97021964D01*
X146462021Y-96952721D01*
X146364019Y-96933121D01*
X146356325Y-97026177D01*
X146353517Y-97122775D01*
X146352784Y-97246728D01*
G37*
G36*
X146364019Y-97053532D02*
G01*
X147330000Y-97053532D01*
X147330000Y-96933121D01*
X146364019Y-96933121D01*
X146364019Y-97053532D01*
G37*
G36*
X146631404Y-98068056D02*
G01*
X146635771Y-98147462D01*
X146647529Y-98208947D01*
X146665067Y-98255947D01*
X146687397Y-98291355D01*
X146717765Y-98320893D01*
X146754650Y-98342321D01*
X146799407Y-98355832D01*
X146853970Y-98360659D01*
X146913556Y-98356542D01*
X146959996Y-98343515D01*
X146996120Y-98322862D01*
X147023541Y-98293124D01*
X147040864Y-98252768D01*
X147047227Y-98198237D01*
X147047227Y-97800671D01*
X146954781Y-97800671D01*
X146954781Y-98167463D01*
X146950790Y-98196269D01*
X146940210Y-98215398D01*
X146923335Y-98227608D01*
X146890636Y-98238060D01*
X146853970Y-98241652D01*
X146811926Y-98236036D01*
X146781688Y-98222702D01*
X146760242Y-98202451D01*
X146746129Y-98175478D01*
X146736134Y-98134280D01*
X146732215Y-98073674D01*
X146738295Y-98004000D01*
X146753953Y-97956742D01*
X146771482Y-97931620D01*
X146796179Y-97911624D01*
X146829546Y-97896536D01*
X146888839Y-97884076D01*
X146980000Y-97879073D01*
X147053271Y-97882002D01*
X147107488Y-97889697D01*
X147146573Y-97900750D01*
X147181827Y-97918783D01*
X147207423Y-97941771D01*
X147224975Y-97970054D01*
X147240145Y-98021988D01*
X147245980Y-98096083D01*
X147241095Y-98215762D01*
X147229188Y-98332632D01*
X147308995Y-98345272D01*
X147320090Y-98311033D01*
X147330000Y-98266137D01*
X147342578Y-98169539D01*
X147346791Y-98080635D01*
X147342255Y-98002622D01*
X147329884Y-97940596D01*
X147311132Y-97891652D01*
X147282743Y-97848622D01*
X147244951Y-97814083D01*
X147196338Y-97787360D01*
X147142501Y-97770149D01*
X147073785Y-97758676D01*
X146987021Y-97754448D01*
X146897306Y-97758745D01*
X146827885Y-97770280D01*
X146774958Y-97787360D01*
X146727234Y-97813981D01*
X146690876Y-97847849D01*
X146664316Y-97889576D01*
X146646914Y-97936951D01*
X146635539Y-97995666D01*
X146631404Y-98068056D01*
G37*
G36*
X146631404Y-98953742D02*
G01*
X146637294Y-99013441D01*
X146653272Y-99058411D01*
X146678072Y-99092141D01*
X146712233Y-99116756D01*
X146758004Y-99132685D01*
X146818982Y-99138572D01*
X147330000Y-99138572D01*
X147330000Y-99019565D01*
X146852627Y-99019565D01*
X146806992Y-99016386D01*
X146776975Y-99008376D01*
X146758105Y-98997156D01*
X146744562Y-98980342D01*
X146735609Y-98956040D01*
X146732215Y-98921563D01*
X146739721Y-98859382D01*
X146763051Y-98795533D01*
X146797488Y-98730050D01*
X146847009Y-98645751D01*
X146761585Y-98640134D01*
X146705815Y-98721243D01*
X146665720Y-98798342D01*
X146646369Y-98851435D01*
X146635098Y-98903068D01*
X146631404Y-98953742D01*
G37*
G36*
X146648196Y-98640134D02*
G01*
X146778377Y-98649965D01*
X146799382Y-98658330D01*
X147330000Y-98658330D01*
X147330000Y-98539323D01*
X146648196Y-98539323D01*
X146648196Y-98640134D01*
G37*
G36*
X146648196Y-99478192D02*
G01*
X147346791Y-99478192D01*
X147400433Y-99474119D01*
X147451083Y-99462072D01*
X147498843Y-99442588D01*
X147542063Y-99416582D01*
X147580740Y-99384423D01*
X147614176Y-99346606D01*
X147562397Y-99280783D01*
X147512020Y-99316573D01*
X147462990Y-99340256D01*
X147410233Y-99354208D01*
X147346791Y-99359185D01*
X146648196Y-99359185D01*
X146648196Y-99478192D01*
G37*
G36*
X146358401Y-99447356D02*
G01*
X146362603Y-99467129D01*
X146374005Y-99478229D01*
X146394794Y-99482405D01*
X146474600Y-99482405D01*
X146495389Y-99478229D01*
X146506790Y-99467129D01*
X146510992Y-99447356D01*
X146510992Y-99391364D01*
X146506723Y-99370704D01*
X146495260Y-99359241D01*
X146474600Y-99354972D01*
X146394794Y-99354972D01*
X146374134Y-99359241D01*
X146362671Y-99370704D01*
X146358401Y-99391364D01*
X146358401Y-99447356D01*
G37*
G36*
X146648196Y-99825139D02*
G01*
X147330000Y-99825139D01*
X147330000Y-99707536D01*
X146648196Y-99707536D01*
X146648196Y-99825139D01*
G37*
G36*
X146358401Y-99794364D02*
G01*
X146362671Y-99815024D01*
X146374134Y-99826488D01*
X146394794Y-99830757D01*
X146474600Y-99830757D01*
X146495260Y-99826488D01*
X146506723Y-99815024D01*
X146510992Y-99794364D01*
X146510992Y-99738372D01*
X146506720Y-99717672D01*
X146495254Y-99706192D01*
X146474600Y-99701919D01*
X146394794Y-99701919D01*
X146374140Y-99706192D01*
X146362674Y-99717672D01*
X146358401Y-99738372D01*
X146358401Y-99794364D01*
G37*
G36*
X146631404Y-100328768D02*
G01*
X146635771Y-100408174D01*
X146647529Y-100469659D01*
X146665067Y-100516658D01*
X146687397Y-100552067D01*
X146717765Y-100581605D01*
X146754650Y-100603033D01*
X146799407Y-100616544D01*
X146853970Y-100621371D01*
X146913556Y-100617254D01*
X146959996Y-100604227D01*
X146996120Y-100583574D01*
X147023541Y-100553836D01*
X147040864Y-100513480D01*
X147047227Y-100458949D01*
X147047227Y-100061383D01*
X146954781Y-100061383D01*
X146954781Y-100428175D01*
X146950790Y-100456981D01*
X146940210Y-100476110D01*
X146923335Y-100488319D01*
X146890636Y-100498772D01*
X146853970Y-100502363D01*
X146811926Y-100496748D01*
X146781688Y-100483414D01*
X146760242Y-100463162D01*
X146746129Y-100436190D01*
X146736134Y-100394992D01*
X146732215Y-100334385D01*
X146738295Y-100264712D01*
X146753953Y-100217454D01*
X146771482Y-100192331D01*
X146796179Y-100172336D01*
X146829546Y-100157248D01*
X146888839Y-100144788D01*
X146980000Y-100139785D01*
X147053271Y-100142714D01*
X147107488Y-100150409D01*
X147146573Y-100161461D01*
X147181827Y-100179495D01*
X147207423Y-100202483D01*
X147224975Y-100230765D01*
X147240145Y-100282700D01*
X147245980Y-100356795D01*
X147241095Y-100476474D01*
X147229188Y-100593344D01*
X147308995Y-100605983D01*
X147320090Y-100571745D01*
X147330000Y-100526849D01*
X147342578Y-100430251D01*
X147346791Y-100341346D01*
X147342255Y-100263334D01*
X147329884Y-100201308D01*
X147311132Y-100152363D01*
X147282743Y-100109334D01*
X147244951Y-100074795D01*
X147196338Y-100048072D01*
X147142501Y-100030861D01*
X147073785Y-100019388D01*
X146987021Y-100015160D01*
X146897306Y-100019457D01*
X146827885Y-100030992D01*
X146774958Y-100048072D01*
X146727234Y-100074693D01*
X146690876Y-100108561D01*
X146664316Y-100150287D01*
X146646914Y-100197663D01*
X146635539Y-100256377D01*
X146631404Y-100328768D01*
G37*
G36*
X146364019Y-101332606D02*
G01*
X147126973Y-101332606D01*
X147196389Y-101326444D01*
X147248754Y-101309803D01*
X147287990Y-101284307D01*
X147317530Y-101248695D01*
X147335943Y-101203250D01*
X147342578Y-101144966D01*
X147340502Y-101102285D01*
X147334213Y-101054658D01*
X147324382Y-101016189D01*
X147237615Y-101030172D01*
X147237615Y-101100209D01*
X147232789Y-101141752D01*
X147219900Y-101171119D01*
X147199807Y-101191568D01*
X147171255Y-101204554D01*
X147131186Y-101209385D01*
X146364019Y-101209385D01*
X146364019Y-101332606D01*
G37*
G36*
X146648196Y-101682362D02*
G01*
X147330000Y-101682362D01*
X147330000Y-101564759D01*
X146648196Y-101564759D01*
X146648196Y-101682362D01*
G37*
G36*
X146358401Y-101651587D02*
G01*
X146362671Y-101672247D01*
X146374134Y-101683710D01*
X146394794Y-101687979D01*
X146474600Y-101687979D01*
X146495260Y-101683710D01*
X146506723Y-101672247D01*
X146510992Y-101651587D01*
X146510992Y-101595594D01*
X146506720Y-101574894D01*
X146495254Y-101563414D01*
X146474600Y-101559141D01*
X146394794Y-101559141D01*
X146374140Y-101563414D01*
X146362674Y-101574894D01*
X146358401Y-101595594D01*
X146358401Y-101651587D01*
G37*
G36*
X146631404Y-102228000D02*
G01*
X146636884Y-102300268D01*
X146651737Y-102356106D01*
X146668483Y-102388516D01*
X146690948Y-102414610D01*
X146719637Y-102435179D01*
X146752485Y-102449123D01*
X146795086Y-102458380D01*
X146849818Y-102461802D01*
X147330000Y-102461802D01*
X147330000Y-102368012D01*
X147181622Y-102349816D01*
X147166174Y-102341390D01*
X146849818Y-102341390D01*
X146808761Y-102337605D01*
X146779698Y-102327640D01*
X146759509Y-102312691D01*
X146745894Y-102291448D01*
X146736123Y-102256721D01*
X146732215Y-102202782D01*
X146737833Y-102069059D01*
X146750411Y-101910179D01*
X146662178Y-101899005D01*
X146646791Y-102003236D01*
X146635617Y-102118763D01*
X146631404Y-102228000D01*
G37*
G36*
X146910024Y-102405809D02*
G01*
X146999600Y-102404405D01*
X147001004Y-102078218D01*
X147005057Y-102046531D01*
X147013966Y-102024510D01*
X147026894Y-102009586D01*
X147054680Y-101995310D01*
X147094794Y-101989986D01*
X147138208Y-101989986D01*
X147172782Y-101993245D01*
X147197907Y-102001932D01*
X147215938Y-102015143D01*
X147228685Y-102033574D01*
X147237197Y-102059785D01*
X147240423Y-102096414D01*
X147237008Y-102136609D01*
X147225708Y-102185258D01*
X147207345Y-102234317D01*
X147180218Y-102285336D01*
X147145537Y-102333267D01*
X147101816Y-102377782D01*
X147189987Y-102377782D01*
X147235539Y-102333696D01*
X147260442Y-102303053D01*
X147285914Y-102265064D01*
X147308097Y-102223541D01*
X147326519Y-102176892D01*
X147338469Y-102127278D01*
X147342578Y-102072601D01*
X147336933Y-102014796D01*
X147320901Y-101966172D01*
X147293891Y-101924970D01*
X147256543Y-101894059D01*
X147210464Y-101874990D01*
X147152191Y-101868169D01*
X147078002Y-101868169D01*
X147027014Y-101874130D01*
X146986528Y-101890822D01*
X146954110Y-101917873D01*
X146930549Y-101953482D01*
X146915498Y-101999001D01*
X146910024Y-102057213D01*
X146910024Y-102405809D01*
G37*
G36*
X147076654Y-102645743D02*
G01*
X147145392Y-102656738D01*
X147199146Y-102673194D01*
X147247730Y-102699087D01*
X147285247Y-102732932D01*
X147313208Y-102775409D01*
X147331609Y-102823869D01*
X147343746Y-102885222D01*
X147348196Y-102962316D01*
X147343726Y-103040385D01*
X147331571Y-103102137D01*
X147313208Y-103150566D01*
X147285226Y-103192988D01*
X147247712Y-103226581D01*
X147199146Y-103252049D01*
X147145430Y-103268146D01*
X147076691Y-103278911D01*
X146989769Y-103282885D01*
X146902889Y-103278911D01*
X146834191Y-103268146D01*
X146780514Y-103252049D01*
X146731909Y-103226577D01*
X146694376Y-103192984D01*
X146666392Y-103150566D01*
X146648029Y-103102137D01*
X146635874Y-103040385D01*
X146631404Y-102962316D01*
X146732215Y-102962316D01*
X146738629Y-103031966D01*
X146755296Y-103079858D01*
X146773766Y-103105398D01*
X146799625Y-103125879D01*
X146834431Y-103141468D01*
X146895948Y-103154465D01*
X146989769Y-103159665D01*
X147083652Y-103154466D01*
X147145230Y-103141468D01*
X147179996Y-103125882D01*
X147205836Y-103105402D01*
X147224303Y-103079858D01*
X147240970Y-103031966D01*
X147247384Y-102962316D01*
X147240948Y-102892703D01*
X147224303Y-102845385D01*
X147205889Y-102820295D01*
X147180061Y-102800045D01*
X147145230Y-102784508D01*
X147083652Y-102771510D01*
X146989769Y-102766311D01*
X146895948Y-102771511D01*
X146834431Y-102784508D01*
X146799559Y-102800048D01*
X146773713Y-102820299D01*
X146755296Y-102845385D01*
X146738651Y-102892703D01*
X146732215Y-102962316D01*
X146631404Y-102962316D01*
X146635854Y-102885222D01*
X146647991Y-102823869D01*
X146666392Y-102775409D01*
X146694355Y-102732936D01*
X146731891Y-102699091D01*
X146780514Y-102673194D01*
X146834229Y-102656738D01*
X146902925Y-102645743D01*
X146989769Y-102641687D01*
X147076654Y-102645743D01*
G37*
X156577419Y-93258095D02*
X157386942Y-93258095D01*
X157386942Y-93258095D02*
X157482180Y-93305714D01*
X157482180Y-93305714D02*
X157529800Y-93353333D01*
X157529800Y-93353333D02*
X157577419Y-93448571D01*
X157577419Y-93448571D02*
X157577419Y-93639047D01*
X157577419Y-93639047D02*
X157529800Y-93734285D01*
X157529800Y-93734285D02*
X157482180Y-93781904D01*
X157482180Y-93781904D02*
X157386942Y-93829523D01*
X157386942Y-93829523D02*
X156577419Y-93829523D01*
X156577419Y-94210476D02*
X156577419Y-94829523D01*
X156577419Y-94829523D02*
X156958371Y-94496190D01*
X156958371Y-94496190D02*
X156958371Y-94639047D01*
X156958371Y-94639047D02*
X157005990Y-94734285D01*
X157005990Y-94734285D02*
X157053609Y-94781904D01*
X157053609Y-94781904D02*
X157148847Y-94829523D01*
X157148847Y-94829523D02*
X157386942Y-94829523D01*
X157386942Y-94829523D02*
X157482180Y-94781904D01*
X157482180Y-94781904D02*
X157529800Y-94734285D01*
X157529800Y-94734285D02*
X157577419Y-94639047D01*
X157577419Y-94639047D02*
X157577419Y-94353333D01*
X157577419Y-94353333D02*
X157529800Y-94258095D01*
X157529800Y-94258095D02*
X157482180Y-94210476D01*
D11*
X157974819Y-90924762D02*
X158974819Y-91258095D01*
X158974819Y-91258095D02*
X157974819Y-91591428D01*
X158974819Y-92400952D02*
X158974819Y-91924762D01*
X158974819Y-91924762D02*
X157974819Y-91924762D01*
X157974819Y-93210476D02*
X157974819Y-92734286D01*
X157974819Y-92734286D02*
X158451009Y-92686667D01*
X158451009Y-92686667D02*
X158403390Y-92734286D01*
X158403390Y-92734286D02*
X158355771Y-92829524D01*
X158355771Y-92829524D02*
X158355771Y-93067619D01*
X158355771Y-93067619D02*
X158403390Y-93162857D01*
X158403390Y-93162857D02*
X158451009Y-93210476D01*
X158451009Y-93210476D02*
X158546247Y-93258095D01*
X158546247Y-93258095D02*
X158784342Y-93258095D01*
X158784342Y-93258095D02*
X158879580Y-93210476D01*
X158879580Y-93210476D02*
X158927200Y-93162857D01*
X158927200Y-93162857D02*
X158974819Y-93067619D01*
X158974819Y-93067619D02*
X158974819Y-92829524D01*
X158974819Y-92829524D02*
X158927200Y-92734286D01*
X158927200Y-92734286D02*
X158879580Y-92686667D01*
X157974819Y-93591429D02*
X157974819Y-94210476D01*
X157974819Y-94210476D02*
X158355771Y-93877143D01*
X158355771Y-93877143D02*
X158355771Y-94020000D01*
X158355771Y-94020000D02*
X158403390Y-94115238D01*
X158403390Y-94115238D02*
X158451009Y-94162857D01*
X158451009Y-94162857D02*
X158546247Y-94210476D01*
X158546247Y-94210476D02*
X158784342Y-94210476D01*
X158784342Y-94210476D02*
X158879580Y-94162857D01*
X158879580Y-94162857D02*
X158927200Y-94115238D01*
X158927200Y-94115238D02*
X158974819Y-94020000D01*
X158974819Y-94020000D02*
X158974819Y-93734286D01*
X158974819Y-93734286D02*
X158927200Y-93639048D01*
X158927200Y-93639048D02*
X158879580Y-93591429D01*
X158974819Y-95115238D02*
X158974819Y-94639048D01*
X158974819Y-94639048D02*
X157974819Y-94639048D01*
X158974819Y-95448572D02*
X157974819Y-95448572D01*
X157974819Y-95448572D02*
X157974819Y-95686667D01*
X157974819Y-95686667D02*
X158022438Y-95829524D01*
X158022438Y-95829524D02*
X158117676Y-95924762D01*
X158117676Y-95924762D02*
X158212914Y-95972381D01*
X158212914Y-95972381D02*
X158403390Y-96020000D01*
X158403390Y-96020000D02*
X158546247Y-96020000D01*
X158546247Y-96020000D02*
X158736723Y-95972381D01*
X158736723Y-95972381D02*
X158831961Y-95924762D01*
X158831961Y-95924762D02*
X158927200Y-95829524D01*
X158927200Y-95829524D02*
X158974819Y-95686667D01*
X158974819Y-95686667D02*
X158974819Y-95448572D01*
X158974819Y-96448572D02*
X157974819Y-96448572D01*
X158974819Y-97020000D02*
X158403390Y-96591429D01*
X157974819Y-97020000D02*
X158546247Y-96448572D01*
D10*
%TO.C,U3*%
X171000000Y-96560000D02*
G75*
G02*
X167407898Y-96560000I-1796051J0D01*
G01*
X167407898Y-96560000D02*
G75*
G02*
X171000000Y-96560000I1796051J0D01*
G01*
X159570000Y-99100000D02*
X172270000Y-99100000D01*
X172270000Y-88940000D01*
X159570000Y-88940000D01*
X159570000Y-99100000D01*
%TD*%
M02*
