<?xml version="1.0" encoding="UTF-8" standalone="no"?>
<!-- Created with Inkscape (http://www.inkscape.org/) -->

<svg
   width="125.08006mm"
   height="167.13467mm"
   viewBox="0 0 125.08006 167.13467"
   version="1.1"
   id="svg5"
   sodipodi:docname="sensor.svg"
   inkscape:version="1.2.2 (b0a8486541, 2022-12-01)"
   xmlns:inkscape="http://www.inkscape.org/namespaces/inkscape"
   xmlns:sodipodi="http://sodipodi.sourceforge.net/DTD/sodipodi-0.dtd"
   xmlns="http://www.w3.org/2000/svg"
   xmlns:svg="http://www.w3.org/2000/svg">
  <sodipodi:namedview
     id="namedview7"
     pagecolor="#ffffff"
     bordercolor="#000000"
     borderopacity="0.25"
     inkscape:showpageshadow="2"
     inkscape:pageopacity="0.0"
     inkscape:pagecheckerboard="0"
     inkscape:deskcolor="#d1d1d1"
     inkscape:document-units="mm"
     showgrid="false"
     inkscape:zoom="0.64693624"
     inkscape:cx="-44.826674"
     inkscape:cy="443.6295"
     inkscape:window-width="1920"
     inkscape:window-height="1043"
     inkscape:window-x="2560"
     inkscape:window-y="360"
     inkscape:window-maximized="1"
     inkscape:current-layer="layer1" />
  <defs
     id="defs2" />
  <g
     inkscape:label="Layer 1"
     inkscape:groupmode="layer"
     id="layer1"
     transform="translate(-46.608652,-84.448351)">
    <path
       style="fill:#000000;stroke:#000000;stroke-width:0.264583"
       d="m 59.826276,108.10892 c 3.14534,9.77964 2.848797,20.75836 3.204971,30.97568 0.292595,8.39334 0.652577,16.75497 0.408515,25.15464 -0.263687,9.07497 -1.115841,18.10178 -1.698157,27.15604 -0.940599,14.6251 -1.429935,29.28334 -2.438784,43.89968"
       id="path632" />
    <path
       style="fill:#000000;stroke:#000000;stroke-width:0.264583"
       d="m 164.32435,107.44178 c -1.36418,3.85336 -1.22207,2.85047 -1.78753,6.21346 -0.96404,5.7334 -1.29933,11.40892 -1.71101,17.20144 -0.86556,12.17891 -1.76712,24.31786 -2.24731,36.52202 -0.7564,19.22427 -1.23938,38.37096 0.1405,57.58228 0.42708,5.94599 0.91332,11.9049 1.44286,17.84245 0.24952,2.79781 0.91037,5.70984 0.9321,8.52876 0.004,0.54129 -0.62629,-0.88422 -0.90655,-1.34733"
       id="path634" />
    <path
       style="fill:#000000;stroke:#000000;stroke-width:0.264583"
       d="m 50.096692,113.74682 c 8.539149,-3.55693 18.045168,-4.4113 27.171464,-5.52017 18.391796,-2.23466 36.874594,-3.22424 55.402964,-2.95627 8.95433,0.1295 17.9312,0.45854 26.85234,1.28191 3.09183,0.28536 4.29741,0.3998 7.12474,0.87643 0.55056,0.0928 1.80651,-0.16491 1.63447,0.36626 -0.3123,0.96423 -2.91222,-0.94683 -3.1283,-1.13802"
       id="path636" />
    <path
       style="fill:#000000;stroke:#000000;stroke-width:0.264583"
       d="m 169.24033,98.010431 c -0.63329,4.602519 -1.1465,9.190959 -1.22581,13.839659 -0.008,0.49829 0.0988,3.63264 -0.14051,4.35595 -0.31713,0.9587 -0.72945,0.40024 -1.04704,0.14389"
       id="path638" />
    <path
       style="fill:#000000;stroke:#000000;stroke-width:0.264583"
       d="m 49.496564,102.15708 c -0.109276,1.5335 -2.189297,17.84366 2.94953,13.94429"
       id="path640" />
    <path
       style="fill:#000000;stroke:#000000;stroke-width:0.264583"
       d="m 46.661834,106.57845 c 1.817428,-0.79794 3.574949,-1.74932 5.452282,-2.39382 1.11537,-0.3829 9.599811,-1.93484 9.9212,-1.98829 7.042632,-1.17125 11.941514,-1.85546 18.961269,-2.64234 20.905025,-2.343359 41.997125,-4.189561 63.051305,-3.976635 7.62322,0.0771 15.24985,0.352584 22.83019,1.203473 1.16994,0.131324 2.33353,0.314458 3.49855,0.483987 0.38525,0.05606 1.31698,0.474861 1.16199,0.117731 -0.26029,-0.599739 -0.71171,-1.098629 -1.0215,-1.674362"
       id="path644" />
    <path
       style="fill:#000000;stroke:#000000;stroke-width:0.264583"
       d="m 104.4142,87.68958 c 0.0979,0.858975 0.23129,1.714643 0.29371,2.576923 0.20809,2.874571 0.0821,5.908119 -0.15321,8.777316 -0.0447,0.545246 -0.0966,2.061981 -0.38309,1.595891 -0.0938,-0.1527 -0.0255,-0.35754 -0.0383,-0.53631"
       id="path650" />
    <path
       style="fill:#000000;stroke:#000000;stroke-width:0.264583"
       d="m 124.19278,86.708511 c -0.69454,1.723757 -3.09379,13.202396 -1.58336,14.375959 0.45836,0.35613 0.42171,-1.084928 0.56186,-1.648202"
       id="path652" />
    <path
       style="fill:#000000;stroke:#000000;stroke-width:0.264583"
       d="m 101.19652,89.10232 c 7.08442,-3.213163 14.95254,-3.382462 22.5876,-4.068169 1.93506,-0.173789 5.42841,-1.280613 6.55031,0.771765"
       id="path654" />
    <path
       style="fill:#000000;stroke:#000000;stroke-width:0.264583"
       d="m 58.472807,236.0536 c 1.953596,-0.75868 3.834035,-1.74276 5.860794,-2.27605 5.557919,-1.4624 16.207994,-1.66684 22.115123,-1.94908 16.926606,-0.80873 33.838426,-0.75631 50.678606,1.34733 2.15283,0.26893 16.64905,2.11091 17.71004,4.57835 0.0215,0.05 -1.92063,1.06763 -1.28965,-0.96797"
       id="path656" />
    <path
       style="fill:#000000;stroke:#000000;stroke-width:0.264583"
       id="path664"
       d="m 67.418846,189.26145 c 2.47808,-2.21125 5.459897,-3.66319 8.530302,-4.84962 3.087751,-1.19321 6.220322,-1.06648 9.405016,-0.48377 2.470235,0.49494 5.026446,0.86098 7.544784,0.49248 0.530916,-0.0777 1.047705,-0.23224 1.571559,-0.34836 1.951768,-0.84792 0.935797,-0.37455 3.03938,-1.43827 0,0 -0.06609,-0.0451 -0.06609,-0.0451 v 0 c -3.000195,0.49236 -1.530057,0.34565 -4.407456,0.46879 -3.184776,0.1559 -6.364552,0.30716 -9.489887,-0.49205 -3.268342,-0.56134 -6.268894,-0.60369 -9.427382,0.61766 -3.102133,1.21381 -6.117783,2.67632 -8.673002,4.85326 0,0 1.972776,1.22496 1.972776,1.22496 z" />
    <path
       style="fill:#000000;stroke:#000000;stroke-width:0.264583"
       id="path666"
       d="m 99.675332,182.94532 c 2.633128,-1.82561 5.679858,-2.68932 8.804838,-3.17913 3.36755,-0.44119 6.46768,0.4928 9.53514,1.75775 2.41643,0.98528 4.92193,1.83715 7.54423,2.02143 1.47523,0.10367 1.89743,-0.004 3.32234,-0.16143 0.52232,-0.0476 1.04464,-0.0953 1.56696,-0.14293 0,0 -0.0651,-0.0464 -0.0651,-0.0464 v 0 c -0.52218,0.0474 -1.04436,0.0949 -1.56654,0.14235 -4.09957,-0.34407 -8.18106,-1.08434 -11.9743,-2.73663 -3.08534,-1.25909 -6.20266,-2.15978 -9.57975,-1.68891 -3.10167,0.51615 -6.16588,1.37782 -8.696739,3.33345 0,0 1.108961,0.70048 1.108961,0.70048 z" />
    <path
       style="fill:#000000;stroke:#000000;stroke-width:0.264583"
       id="path668"
       d="m 148.53581,178.98392 c -2.08929,0.78102 -4.15478,1.63001 -6.18064,2.56403 -0.85652,0.3949 -1.67503,0.87402 -2.54983,1.22658 -0.92137,0.37134 -1.8852,0.62717 -2.8278,0.94076 0,0 0.0662,0.045 0.0662,0.045 v 0 c 0.96255,-0.30008 1.9125,-0.6441 2.88767,-0.90024 1.08698,-0.2855 2.1997,-0.46323 3.29307,-0.72317 2.37233,-0.56399 4.72487,-1.22617 7.04162,-1.98655 0,0 -1.73025,-1.16639 -1.73025,-1.16639 z" />
    <path
       style="fill:#000000;stroke:#000000;stroke-width:0.264583"
       id="path674"
       d="m 119.21087,181.37844 c 4.86873,-0.55408 9.77311,-0.56165 14.66212,-0.78542 2.60433,-0.21916 5.20173,-0.32449 7.81342,-0.30355 0,0 -0.0647,-0.0471 -0.0647,-0.0471 v 0 c -2.88499,-0.0231 -5.76189,-0.16244 -8.6439,-0.29831 -4.94653,-0.10687 -9.94293,-0.11682 -14.83935,0.68265 0,0 1.07239,0.7517 1.07239,0.7517 z" />
    <path
       style="fill:#000000;stroke:#000000;stroke-width:0.264583"
       id="path676"
       d="m 150.30138,185.64095 c 1.23478,-0.0909 2.36802,-0.55749 3.55011,-0.86941 0,0 -0.0654,-0.0461 -0.0654,-0.0461 v 0 c -1.47644,0.0694 -2.95912,-0.0187 -4.42082,0.25627 0,0 0.93609,0.65925 0.93609,0.65925 z" />
    <path
       style="fill:#000000;stroke:#000000;stroke-width:0.264583"
       id="path678"
       d="m 107.18403,112.20705 c 0.1385,1.38093 -0.34555,3.2586 0.27841,4.55127 0.0937,0.19403 0.25952,0.34399 0.38927,0.51599 0.7466,0.40843 1.45066,0.90671 2.2398,1.22527 1.00424,0.40538 4.12667,0.024 5.1366,-0.33573 0.32442,-0.11556 0.60094,-0.3366 0.90141,-0.50491 1.10751,-0.64219 0.51775,-0.38431 1.77366,-0.76356 0,0 -0.0661,-0.0451 -0.0661,-0.0451 v 0 c -1.41512,0.42678 -0.62129,0.279 -2.40063,0.3241 -0.55453,-0.0115 -1.10929,-0.0542 -1.66358,-0.0344 -1.3779,0.0493 -2.72259,0.37246 -4.10886,0.32812 -0.33936,-0.0108 -0.83394,-0.39826 -1.01269,-0.10959 -0.16195,0.26156 0.48978,0.37239 0.73467,0.55858 -0.19205,-0.17699 -0.42341,-0.31912 -0.57614,-0.53097 -0.86145,-1.19481 -0.44246,-3.30022 -0.64444,-4.67998 0,0 -0.9814,-0.49914 -0.9814,-0.49914 z" />
    <path
       style="fill:#000000;stroke:#000000;stroke-width:0.264583"
       id="path680"
       d="m 116.37428,108.05202 c -0.15935,1.3499 7.9e-4,2.67814 0.25137,4.00576 0.10676,0.56575 0.2947,1.11655 0.36733,1.68769 0.0547,0.43015 0.008,0.86719 0.0127,1.30078 0,0 0.0712,0.0364 0.0712,0.0364 v 0 c 0.012,-0.42527 -0.0389,-0.857 0.0359,-1.27582 0.0791,-0.44299 0.29241,-0.85143 0.42092,-1.28269 0.34882,-1.17051 0.5813,-2.34899 0.57506,-3.57582 0,0 -1.73453,-0.89628 -1.73453,-0.89628 z" />
    <path
       style="fill:#000000;stroke:#000000;stroke-width:0.264583"
       id="path682"
       d="m 111.12297,124.44971 c -0.0159,5.30102 -0.11589,10.60113 -0.22572,15.90087 -0.15338,6.05813 -0.25312,12.11715 -0.33505,18.17658 0.21015,2.60265 -0.51338,5.31729 0.046,7.89783 0.15845,0.731 0.44696,1.27504 0.75427,1.92437 -0.0345,-5.3e-4 -0.0691,-10e-4 -0.10364,-0.002 0,0 0.0649,0.0468 0.0649,0.0468 v 0 c 0.0365,-0.003 0.073,-0.005 0.10947,-0.008 0.52041,-0.29484 0.75498,-0.33628 1.01305,-1.01889 0.3472,-0.91832 0.27703,-2.21887 0.29202,-3.13717 0.0234,-1.43358 0.0378,-3.14258 0.0519,-4.56537 0.0508,-6.06983 0.12278,-12.13958 0.2675,-18.20801 0.1253,-5.28169 0.27265,-10.56308 0.34094,-15.84593 0,0 -2.27555,-1.16174 -2.27555,-1.16174 z" />
    <path
       style="fill:#000000;stroke:#000000;stroke-width:0.264583"
       id="path686"
       d="m 106.70182,128.55291 c 1.43676,-1.64218 2.58709,-3.68578 4.41088,-4.95536 0.29189,-0.20318 0.63026,-0.32971 0.94539,-0.49456 0.97532,-0.11712 0.92299,-0.23206 1.879,0.16109 0.34072,0.14012 1.30519,0.68389 0.97489,0.52071 -0.4626,-0.22855 -0.92624,-0.97686 -1.37193,-0.71687 -0.42278,0.24663 0.81777,0.53824 1.23247,0.79822 0.47381,0.29703 0.95521,0.58177 1.43281,0.87266 1.77081,1.06328 0.97859,0.5354 2.39788,1.55135 0,0 0.0743,0.0296 0.0743,0.0296 v 0 c -0.93879,-0.75243 -0.53602,-0.37894 -1.23337,-1.09279 -1.46804,-1.37537 -2.8035,-2.09653 -4.70159,-3.17711 -0.59994,-0.34155 -1.33075,-0.66553 -2.04372,-0.66308 -0.33083,0.001 -0.6489,0.12939 -0.97334,0.19408 -0.32226,0.18454 -0.66749,0.33374 -0.96676,0.5536 -1.79814,1.32096 -2.97133,3.35309 -4.30237,5.09365 0,0 2.24543,1.32483 2.24543,1.32483 z" />
    <path
       style="fill:#000000;stroke:#000000;stroke-width:0.264583"
       id="path688"
       d="m 108.14398,166.68596 c 1.49054,2.29822 2.70749,4.2544 5.76388,4.71453 1.3701,-0.31429 2.74147,-1.25637 3.13572,-2.68917 0.18617,-0.67658 0.13729,-1.39712 0.23471,-2.09205 0,0 -0.0693,-0.0399 -0.0693,-0.0399 v 0 c -1.46536,1.18864 0.0666,0.0474 -1.8501,1.11252 -1.21389,0.67458 -2.08129,1.91277 -3.49762,2.17789 -0.23239,-0.029 -0.82648,-0.28237 -0.69717,-0.0871 0.23867,0.36043 0.68139,0.80927 1.09726,0.69127 0.37574,-0.10662 -0.62299,-0.47434 -0.90333,-0.74629 -0.42943,-0.41658 -1.05117,-1.23236 -1.40221,-1.72137 -0.17382,-0.24214 -0.33316,-0.49435 -0.49974,-0.74153 0,0 -1.31207,-0.57877 -1.31207,-0.57877 z" />
    <path
       style="fill:#000000;stroke:#000000;stroke-width:0.264583"
       id="path690"
       d="m 110.35356,167.73517 c 1.24401,-0.082 2.3913,-0.2914 3.48526,-0.90973 0.34618,-0.19566 0.64432,-0.47226 0.99912,-0.65182 0.40328,-0.20408 0.84209,-0.32869 1.26313,-0.49303 0,0 -0.0664,-0.0446 -0.0664,-0.0446 v 0 c -0.42085,0.16405 -0.81745,0.41522 -1.26254,0.49216 -2.09535,0.36217 -4.30167,-0.35831 -6.38916,0.21971 0,0 1.97061,1.38729 1.97061,1.38729 z" />
    <path
       style="fill:#000000;stroke:#000000;stroke-width:0.264583"
       id="path692"
       d="m 108.36939,126.30811 c 1.50796,-0.0954 3.07147,0.0551 4.5678,-0.19847 1.71849,-0.29121 1.15798,-0.46189 2.71201,-0.97584 0.47898,-0.15841 0.98122,-0.23508 1.47184,-0.35263 0,0 -0.0655,-0.0459 -0.0655,-0.0459 v 0 c -0.56526,0.0642 -1.12688,0.19274 -1.69577,0.19264 -0.76416,-1.3e-4 -1.52235,-0.13538 -2.28431,-0.1933 -2.28491,-0.17369 -4.53963,-0.0879 -6.82583,0.0364 0,0 2.11977,1.5371 2.11977,1.5371 z" />
    <path
       style="fill:#000000;stroke:#000000;stroke-width:0.264583"
       id="path694"
       d="m 73.942802,191.8767 c -0.255633,0.20183 -0.526198,0.38607 -0.766893,0.60551 -0.411067,0.37475 -1.064088,1.0325 -1.270283,1.59258 -0.51486,1.3985 2.51401,2.11241 2.84506,2.23254 0.265967,0.0965 0.524351,-0.21276 0.786527,-0.31914 1.256143,-1.13705 0.687305,-1.86306 -0.09523,-3.05106 0,0 -0.07303,-0.0327 -0.07303,-0.0327 v 0 c 0.07679,0.17759 0.291193,0.3491 0.230376,0.53277 -0.110675,0.33426 -1.961777,0.91621 -2.261166,1.04292 -1.286211,0.19616 -1.701814,0.0726 1.054068,1.42978 0.140142,0.069 -0.149109,-0.30526 -0.108122,-0.456 0.253153,-0.93111 1.235781,-1.51639 1.863741,-2.15792 0,0 -2.205048,-1.41932 -2.205048,-1.41932 z" />
    <path
       style="fill:#000000;stroke:#000000;stroke-width:0.264583"
       id="path696"
       d="m 87.733985,188.36948 c -0.863271,0.67127 -1.793613,1.37556 -2.327275,2.36115 -0.105036,0.19399 -0.351237,0.48057 -0.192066,0.63331 1.888948,1.81256 1.74666,1.61425 3.349763,1.28479 2.295014,-1.11536 1.578827,-2.50575 -0.07008,-3.76423 0,0 -0.07419,-0.0299 -0.07419,-0.0299 v 0 c 0.142666,0.13384 0.346789,0.22355 0.427995,0.40152 0.311777,0.68329 -1.860277,1.78678 -2.28305,1.99211 -0.375004,0.0517 -3.052085,0.22782 0.531903,1.09663 0.219665,0.0532 -0.125296,-0.45454 -0.07216,-0.67423 0.25355,-1.04822 1.257879,-1.79586 1.993331,-2.48436 0,0 -1.284177,-0.81676 -1.284177,-0.81676 z" />
    <path
       style="fill:#000000;stroke:#000000;stroke-width:0.264583"
       id="path698"
       d="m 78.977174,200.90149 c -0.09519,0.35447 -0.359711,1.00232 -0.1548,1.40457 0.09039,0.17744 0.280279,0.30418 0.467569,0.37183 0.791184,0.28576 1.590982,0.64359 2.431593,0.67529 0.613441,0.0231 1.605282,-1.01374 1.976718,-1.34837 0.09545,-0.329 0.296955,-0.64458 0.286345,-0.98698 -0.03541,-1.14271 -1.175811,-1.71032 -2.005706,-2.20657 0,0 -0.07455,-0.029 -0.07455,-0.029 v 0 c 1.038114,0.73416 0.856625,1.18239 0.159896,2.21303 -0.274376,0.26368 -0.51684,0.56521 -0.82313,0.79103 -0.299868,0.22108 -0.879295,0.17929 -0.979617,0.53809 -0.09901,0.35412 0.640162,0.58822 0.5641,0.94797 -0.146889,0.69474 -1.802921,-1.80393 -0.922788,-1.85751 0,0 -0.925626,-0.51337 -0.925626,-0.51337 z" />
    <path
       style="fill:#000000;stroke:#000000;stroke-width:0.264583"
       id="path700"
       d="m 103.18226,187.32456 c -1.22683,0.85405 -2.46202,1.74999 -3.454564,2.88111 -0.409448,0.46661 -0.753078,1.0151 -0.494496,1.14975 0.89378,0.46539 1.88345,0.71718 2.82517,1.07578 0.80579,-0.50301 1.54865,-1.52548 0.99266,-2.53079 -0.15192,-0.2747 -0.48224,-0.402 -0.72337,-0.603 0,0 -0.0737,-0.0312 -0.0737,-0.0312 v 0 c -0.448,0.82042 -1.65516,1.11383 -2.318246,1.71842 0.537646,0.48409 1.063006,0.98217 1.612926,1.45227 0.0844,0.0721 -0.23246,-0.14644 -0.21328,-0.25579 0.0492,-0.28045 0.22519,-0.52804 0.3913,-0.7593 0.85052,-1.18412 2.04405,-2.06052 3.09417,-3.04951 0,0 -1.63862,-1.04773 -1.63862,-1.04773 z" />
    <path
       style="fill:#000000;stroke:#000000;stroke-width:0.264583"
       id="path702"
       d="m 88.561449,193.24001 c -1.682144,1.7683 0.800401,4.12502 2.769682,3.07627 0.23554,-0.12543 0.399722,-0.35366 0.599583,-0.53048 0.322172,-0.8493 -0.02508,-1.30989 -0.633069,-1.85468 0,0 -0.07373,-0.031 -0.07373,-0.031 v 0 c 0.243112,0.51748 -0.484576,0.47783 -0.915728,0.84532 -0.246031,0.11623 -0.479052,0.26539 -0.73809,0.3487 -0.695145,0.22357 -2.007407,-0.059 0.469657,1.03703 0.188743,0.0835 -0.276974,-0.32607 -0.325607,-0.52665 -0.127654,-0.52649 0.09907,-1.06743 0.236979,-1.55305 0,0 -1.389673,-0.81143 -1.389673,-0.81143 z" />
    <path
       style="fill:#000000;stroke:#000000;stroke-width:0.264583"
       id="path704"
       d="m 78.4442,186.13802 c -0.423831,0.49266 -2.123173,3.0543 -1.368367,3.69955 1.842744,1.57526 1.621177,1.4233 3.112754,1.14842 0.991812,-0.73976 0.823863,-1.6273 0.304269,-2.59642 0,0 -0.07298,-0.0328 -0.07298,-0.0328 v 0 c 0.0701,0.13074 0.251375,0.24968 0.210283,0.39222 -0.132874,0.46093 -1.69798,0.9401 -2.064851,1.09167 -0.262416,0.0239 -0.848516,-0.18468 -0.787249,0.0716 0.09388,0.39267 0.572259,0.72707 0.975876,0.7174 0.267393,-0.006 -0.292931,-0.46761 -0.326554,-0.73295 -0.143227,-1.13029 0.54505,-2.20687 1.106924,-3.1076 0,0 -1.090102,-0.65111 -1.090102,-0.65111 z" />
    <path
       style="fill:#000000;stroke:#000000;stroke-width:0.264583"
       id="path706"
       d="m 64.776119,198.98166 c -0.315825,0.60104 -1.312444,2.24122 -0.203388,2.66074 0.820841,0.31049 1.64868,0.74061 2.526281,0.74132 0.405805,2.6e-4 0.645221,-0.49235 0.96783,-0.73852 0.587076,-0.91241 0.872501,-1.98349 1.424472,-2.91269 0.295892,-0.49812 0.679342,-0.93871 1.019014,-1.40807 0,0 -0.06887,-0.0407 -0.06887,-0.0407 v 0 c -0.339622,0.46928 -0.624194,0.9838 -1.018868,1.40782 -0.957458,1.02865 -1.646301,1.31745 -2.829097,2.00725 -1.997218,1.07922 -0.747231,-0.052 -0.231928,1.64029 0.06577,0.21599 -0.463788,-0.12215 -0.610209,-0.29402 -0.586404,-0.68831 -0.15984,-1.77888 -0.02326,-2.52322 0,0 -0.951994,-0.54019 -0.951994,-0.54019 z" />
    <path
       style="fill:#000000;stroke:#000000;stroke-width:0.264583"
       id="path708"
       d="m 137.89862,188.18526 c -1.40861,0.84917 -3.61997,2.23031 -4.30605,3.80245 -0.0841,0.19279 -0.17591,0.51257 -0.002,0.63104 0.86182,0.58748 1.89567,0.87056 2.84351,1.30583 1.24438,-0.54332 2.92371,-1.31095 3.32684,-2.78897 0.22642,-0.83014 -0.1831,-1.85981 -0.7859,-2.42233 -0.30201,-0.28183 -0.72499,-0.39617 -1.08749,-0.59425 0,0 0.0623,0.0502 0.0623,0.0502 v 0 c 0.2395,0.13416 0.56283,0.17636 0.71849,0.40247 0.63897,0.92815 -2.36697,3.11867 -2.96233,3.44677 -0.379,0.20886 -0.80674,0.31341 -1.21011,0.47012 0.40766,0.38482 0.74373,0.86359 1.22296,1.15445 0.18472,0.1121 -0.31657,-0.37019 -0.28227,-0.58353 0.0616,-0.38336 0.31231,-0.71801 0.5419,-1.03115 0.87623,-1.19514 2.13929,-2.03121 3.2611,-2.96623 0,0 -1.34082,-0.87689 -1.34082,-0.87689 z" />
    <path
       style="fill:#000000;stroke:#000000;stroke-width:0.264583"
       id="path710"
       d="m 109.83869,209.76911 c -1.09149,1.88697 -0.0609,2.13244 2.33411,3.1763 0.15108,0.0658 0.27788,-0.17726 0.41682,-0.26589 0.11864,-0.14164 0.26991,-0.2614 0.35592,-0.42493 0.34304,-0.65223 0.093,-1.3083 -0.45491,-1.75417 -0.29212,-0.23773 -0.87886,-0.52361 -1.26497,-0.71954 0,0 0.0624,0.05 0.0624,0.05 v 0 c 0.28045,0.15363 -0.009,-0.0241 -0.19189,0.0298 -0.075,0.0221 -0.11752,0.10607 -0.15934,0.17213 -0.26466,0.41797 -0.0603,0.31658 -0.42201,0.73884 -0.0992,0.11583 -0.22887,0.20166 -0.34331,0.30249 -1.12376,0.20641 -0.63023,0.0462 1.90592,1.46257 0.0944,0.0527 -0.14392,-0.17058 -0.17226,-0.27495 -0.0355,-0.13085 -0.033,-0.27248 -0.0128,-0.40656 0.041,-0.2724 0.15597,-0.43279 0.28529,-0.65772 0,0 -2.33897,-1.42837 -2.33897,-1.42837 z" />
    <path
       style="fill:#000000;stroke:#000000;stroke-width:0.264583"
       id="path712"
       d="m 116.17974,204.75598 c -0.48187,0.24217 -0.84078,0.64649 -1.14285,1.08608 -0.14683,0.21367 -0.45881,0.69215 -0.44273,1.00591 0.006,0.1192 0.10543,0.21417 0.15814,0.32125 2.06876,0.8858 2.33079,1.99596 3.54204,0.88896 0.1742,-0.1592 0.35826,-0.32615 0.45758,-0.54021 0.16848,-0.36312 0.13009,-0.93712 -0.0166,-1.29986 -0.0732,-0.1811 -0.21528,-0.32605 -0.32292,-0.48908 -0.61142,-0.41154 -0.33454,-0.27102 -0.80109,-0.47528 0,0 0.0629,0.0494 0.0629,0.0494 v 0 c 0.18155,0.0524 0.18068,0.0296 -0.008,0.0679 -0.34465,0.40509 -0.59799,0.5263 -1.05735,0.81451 -0.19994,0.12544 -0.38583,0.27437 -0.59452,0.38463 -0.19154,0.1012 -0.73983,0.0807 -0.60111,0.24708 0.52754,0.63275 1.33877,0.9604 2.00816,1.4406 -0.11088,-0.0397 -0.26331,-0.024 -0.33262,-0.11922 -0.30376,-0.41728 0.29277,-1.18387 0.55349,-1.44939 0.26969,-0.27467 0.35248,-0.28651 0.64959,-0.41766 0,0 -2.11198,-1.51565 -2.11198,-1.51565 z" />
    <path
       style="fill:#000000;stroke:#000000;stroke-width:0.264583"
       id="path714"
       d="m 116.31485,213.68019 c -0.13083,0.35965 -0.30601,0.6888 -0.37999,1.06774 -0.0182,0.0935 -0.10937,0.22797 -0.0323,0.28413 2.14455,1.56371 1.52544,1.69402 2.73108,1.15261 0.13659,-0.13705 0.29565,-0.25491 0.40978,-0.41116 0.126,-0.17251 0.23436,-0.36242 0.30301,-0.56471 0.1764,-0.51977 0.14354,-0.78191 -0.21425,-1.22395 -0.407,-0.50284 -1.082,-0.65324 -1.63962,-0.88071 -0.0455,0.0695 -0.0911,0.13905 -0.13662,0.20858 0,0 0.0659,0.0453 0.0659,0.0453 v 0 c 0.15659,0.016 0.31317,0.0319 0.46976,0.0479 -0.14466,-0.1074 -0.27514,-0.23715 -0.43397,-0.32219 -0.0255,-0.0137 0.004,0.0596 -0.006,0.0867 -0.0364,0.0956 -0.0947,0.18177 -0.13241,0.27689 -0.22785,0.57559 -0.27658,0.91202 -0.82979,1.29467 -0.91106,0.24262 -0.66498,0.0983 1.40981,1.20016 0.15748,0.0836 -0.25673,-0.25199 -0.35238,-0.40248 -0.1482,-0.23317 -0.32701,-0.77095 -0.38664,-1.03863 -0.0293,-0.13141 -0.0323,-0.26732 -0.0484,-0.40098 0,0 -0.7971,-0.41985 -0.7971,-0.41985 z" />
    <path
       style="fill:#000000;stroke:#000000;stroke-width:0.264583"
       id="path716"
       d="m 115.70805,210.35776 c 0.0394,-0.0779 0.0788,-0.15582 0.11827,-0.23373 0,0 -0.0673,-0.0433 -0.0673,-0.0433 v 0 c -0.1232,0.0244 -0.2464,0.0489 -0.36961,0.0733 0,0 0.3186,0.20372 0.3186,0.20372 z" />
    <path
       style="fill:#000000;stroke:#000000;stroke-width:0.264583"
       id="path718"
       d="m 139.82237,198.54901 c -0.13698,-0.0289 -0.27121,-0.0781 -0.41093,-0.0867 -1.30066,-0.0802 -2.53144,0.95729 -3.36545,1.82333 -0.36044,0.37429 -0.67087,0.7937 -1.0063,1.19055 -0.39202,0.6554 -0.95643,1.37278 -1.01036,2.18962 -0.0952,1.44248 2.84863,1.99948 3.22215,2.09266 0.4653,0.11609 1.73348,-1.00425 1.96232,-1.18282 0.40116,-0.50837 1.0517,-1.13493 1.06833,-1.86911 0.0159,-0.70148 -0.50786,-1.33643 -0.95264,-1.79302 -0.25049,-0.25714 -0.56089,-0.44839 -0.83406,-0.6813 0,0 -0.0742,-0.03 -0.0742,-0.03 v 0 c 0.0676,0.057 0.16557,0.0909 0.20264,0.17112 0.0644,0.1395 -0.40948,1.1187 -0.43061,1.1658 -0.52781,1.17658 -0.18694,0.61935 -1.10404,1.68818 -0.32576,0.21916 -0.62274,0.48881 -0.97728,0.65749 -1.15121,0.54772 -2.19022,-0.10041 0.53145,1.54603 0.19367,0.11716 -0.3404,-0.34191 -0.37607,-0.56544 -0.13198,-0.82707 0.39949,-1.53083 0.74281,-2.20274 0.33242,-0.3843 0.63203,-0.79963 0.99726,-1.1529 0.96608,-0.93446 2.1603,-1.59059 3.51561,-1.64244 0,0 -1.70067,-1.31832 -1.70067,-1.31832 z" />
    <path
       style="fill:#000000;stroke:#000000;stroke-width:0.264583"
       id="path720"
       d="m 138.96713,205.91174 c -0.0841,0.0275 -0.40523,0.11179 -0.48533,0.20542 -0.0353,0.0413 -0.083,0.13341 -0.0352,0.15926 0.8307,0.44902 1.66628,0.91069 2.56286,1.20704 0.11736,0.0388 0.004,-0.25072 -0.0294,-0.36965 -0.0446,-0.15751 -0.13474,-0.29841 -0.20211,-0.44762 -0.11327,-0.35189 -0.46519,-0.5162 -0.65547,-0.80531 -0.0292,-0.0443 -5.3e-4,-0.10604 -8e-4,-0.15906 0,0 -0.0713,-0.0363 -0.0713,-0.0363 v 0 c 1.2e-4,0.0532 0.0459,0.13207 2.6e-4,0.15971 -0.18655,0.11333 -0.46983,-0.0694 -0.64969,0.0818 -0.12416,0.0185 -0.24769,0.0417 -0.37246,0.0554 -0.1015,0.0111 -0.38992,-0.0388 -0.30572,0.0189 0.73078,0.50114 1.55072,0.86089 2.29343,1.34418 0.0486,0.0316 -0.11908,0.0657 -0.16984,0.0377 -0.12804,-0.0707 -0.22109,-0.40928 -0.25805,-0.51152 0,0 -1.62142,-0.93995 -1.62142,-0.93995 z" />
    <path
       style="fill:#000000;stroke:#000000;stroke-width:0.264583"
       id="path722"
       d="m 152.52412,192.2218 c -0.16686,0.0189 -0.33944,0.009 -0.50057,0.0567 -0.87564,0.25683 -2.04686,1.24132 -2.5312,2.00042 -0.10328,0.16186 -0.14466,0.35571 -0.21699,0.53357 0.0402,0.13159 0.002,0.32529 0.12051,0.39477 0.95896,0.5611 1.9477,1.10405 3.00807,1.43579 0.22544,0.0705 0.44385,-0.16951 0.64531,-0.29284 0.4303,-0.2634 0.7841,-0.52402 0.78949,-1.08687 0.002,-0.2429 -0.13698,-0.4661 -0.20547,-0.69915 -1.07811,-0.87049 -0.49193,-0.57787 -1.73184,-0.92947 0,0 0.0637,0.0484 0.0637,0.0484 v 0 c 0.56636,0.0664 0.63856,0.009 0.24448,0.13059 -0.4473,0.36788 -0.92995,0.75623 -1.47359,0.97365 -0.20638,0.0825 -0.78857,-0.004 -0.64574,0.16629 0.047,0.056 2.94573,2.10071 1.6588,1.19244 0.0109,-0.17434 -0.0213,-0.35696 0.0329,-0.52302 0.25042,-0.76732 0.95073,-1.3528 1.57009,-1.82011 0.85454,-0.64475 0.18476,-0.0271 0.6945,-0.51748 0,0 -1.52239,-1.06376 -1.52239,-1.06376 z" />
    <path
       style="fill:#000000;stroke:#000000;stroke-width:0.264583"
       id="path724"
       d="m 84.65337,218.45512 c -0.1148,0.0107 -0.232476,0.005 -0.344403,0.0322 -1.047816,0.25929 -1.734272,1.18889 -2.148697,2.13292 -0.135763,0.30926 -0.206933,0.64301 -0.310401,0.96452 -0.02056,0.2826 -0.0987,0.56688 -0.06168,0.8478 0.161648,1.22653 2.763184,1.82761 3.052657,1.90134 0.287721,0.0733 0.532871,-0.26971 0.768408,-0.45048 0.736521,-0.56523 0.762326,-0.75396 1.241227,-1.51678 0.05852,-0.27063 0.197334,-0.53586 0.175556,-0.81189 -0.08621,-1.09276 -1.387414,-1.51125 -2.265463,-1.69267 -0.203107,-0.042 -0.414597,-0.0129 -0.621895,-0.0193 0,0 0.06457,0.0472 0.06457,0.0472 v 0 c 0.206997,0.007 0.414065,0.0293 0.62099,0.0206 0.05633,-0.002 0.106715,-0.0705 0.160449,-0.0535 0.03178,0.0101 -0.03558,0.0588 -0.03956,0.0919 -0.114591,0.95363 0.131894,-0.0698 -0.23672,1.16774 -0.445863,0.68066 -0.49996,0.91869 -1.220219,1.37106 -0.221856,0.13935 -0.861602,0.0716 -0.72775,0.29684 0.346964,0.58377 1.05604,0.85927 1.630313,1.22174 0.375991,0.23732 -1.700946,-1.45007 -0.428538,-1.26315 0.09311,-0.30588 0.146283,-0.62689 0.279344,-0.91763 0.135668,-0.29643 0.316521,-0.57357 0.519787,-0.82844 0.514888,-0.64562 1.187548,-0.97498 1.997806,-1.02654 0,0 -2.105777,-1.51541 -2.105777,-1.51541 z" />
    <path
       style="fill:#000000;stroke:#000000;stroke-width:0.264583"
       id="path726"
       d="m 80.591773,193.09083 c -0.09034,0.0155 -0.188085,0.007 -0.271029,0.0464 -0.56279,0.26465 -0.862647,1.02289 -0.826529,1.61306 0.0079,0.12978 0.06811,0.25097 0.102161,0.37645 0.800338,0.4512 1.552911,1.00028 2.401017,1.35362 0.17231,0.0718 0.373536,-0.0537 0.545639,-0.12598 0.180166,-0.0757 0.359045,-0.17281 0.496499,-0.3117 0.366313,-0.37015 0.336947,-0.61814 0.0566,-1.05815 -0.1154,-0.18113 -0.30522,-0.30223 -0.457829,-0.45334 -0.212696,-0.0385 -0.425392,-0.077 -0.638088,-0.11546 0,0 0.06477,0.047 0.06477,0.047 v 0 c 0.05058,-0.041 0.101155,-0.0819 0.151733,-0.12285 -0.216683,0.0322 -0.510326,0.0698 -0.697511,0.14203 -0.49354,0.19041 -0.446285,0.33746 -0.967038,0.47326 -0.8855,0.23092 -1.514891,-0.66734 1.134258,1.10761 -0.0992,-0.11738 -0.234691,-0.21192 -0.297609,-0.35213 -0.236074,-0.5261 0.09262,-1.19934 0.619567,-1.38321 0.07034,-0.0246 0.148167,-0.0157 0.22225,-0.0236 0,0 -1.638858,-1.213 -1.638858,-1.213 z" />
    <path
       style="fill:#000000;stroke:#000000;stroke-width:0.264583"
       id="path728"
       d="m 69.200336,211.34135 c -0.07414,0.0722 -0.158761,0.13503 -0.222438,0.21662 -0.577167,0.73951 -0.933164,2.12479 -1.014336,3.03742 -0.02373,0.26696 0.0024,0.53602 0.0037,0.80403 0.07574,0.15193 0.0818,0.36819 0.227216,0.45579 0.577823,0.34808 1.195313,0.67767 1.858568,0.8007 0.326366,0.0606 0.651666,-0.14616 0.95604,-0.27859 0.805357,-0.35039 1.453653,-0.82497 2.063004,-1.45528 0.2789,-0.2885 0.500753,-0.62714 0.751131,-0.94071 0.138956,-0.31908 0.329261,-0.62041 0.416867,-0.95723 0.142155,-0.54652 0.110201,-1.19633 -0.207582,-1.68574 -0.168968,-0.26023 -0.405016,-0.48132 -0.663712,-0.65263 -1.766803,-1.16999 -1.307767,-1.4106 -2.075545,-0.80101 -0.157703,0.38869 -0.138314,0.19824 -0.09422,0.5665 0,0 0.07067,0.0375 0.07067,0.0375 v 0 c 0.186629,-0.30218 0.03704,-0.15955 0.589031,-0.19365 0.226851,0.0637 0.767614,0.41004 0.680559,0.19109 -0.115488,-0.29047 -0.494729,-0.4205 -0.799457,-0.49013 -0.130744,-0.0299 0.148399,0.22619 0.194881,0.352 0.31028,0.83978 0.20447,1.62165 -0.136062,2.44036 -0.200491,0.32839 -0.375192,0.67398 -0.601467,0.98516 -0.329975,0.4538 -1.108448,1.32353 -1.597183,1.65096 -0.228886,0.15334 -0.697736,0.0554 -0.7605,0.32367 -0.06225,0.26606 0.493178,0.34711 0.540597,0.61621 0.04267,0.24214 -0.349047,-0.34638 -0.523569,-0.51957 -0.03658,-0.27812 -0.11603,-0.55392 -0.109754,-0.83437 0.02037,-0.91091 0.481722,-2.22562 1.148098,-2.87936 0.06977,-0.0684 0.159399,-0.11314 0.239096,-0.16972 0,0 -0.933582,-0.62001 -0.933582,-0.62001 z" />
    <path
       style="fill:#000000;stroke:#000000;stroke-width:0.264583"
       id="path730"
       d="m 74.899069,220.42544 c 0.335307,-0.45039 0.628047,-1.02808 0.609867,-1.60979 -0.01339,-0.42876 -0.327718,-1.34257 -0.490188,-1.79377 0,0 -0.0725,-0.0338 -0.0725,-0.0338 v 0 c 0.0438,0.11978 0.136258,0.2319 0.131413,0.35935 -0.01709,0.44999 -0.365162,0.57044 -0.611526,0.88869 -0.339752,0.43889 -0.553916,0.97258 -0.80844,1.46095 0,0 1.241372,0.72839 1.241372,0.72839 z" />
  </g>
</svg>
