%TF.GenerationSoftware,KiCad,Pcbnew,9.0.7+1*%
%TF.CreationDate,2026-02-25T20:46:53+08:00*%
%TF.ProjectId,ContainerLevelSensor,436f6e74-6169-46e6-9572-4c6576656c53,rev?*%
%TF.SameCoordinates,Original*%
%TF.FileFunction,Copper,L1,Top*%
%TF.FilePolarity,Positive*%
%FSLAX46Y46*%
G04 Gerber Fmt 4.6, Leading zero omitted, Abs format (unit mm)*
G04 Created by KiCad (PCBNEW 9.0.7+1) date 2026-02-25 20:46:53*
%MOMM*%
%LPD*%
G01*
G04 APERTURE LIST*
G04 Aperture macros list*
%AMRoundRect*
0 Rectangle with rounded corners*
0 $1 Rounding radius*
0 $2 $3 $4 $5 $6 $7 $8 $9 X,Y pos of 4 corners*
0 Add a 4 corners polygon primitive as box body*
4,1,4,$2,$3,$4,$5,$6,$7,$8,$9,$2,$3,0*
0 Add four circle primitives for the rounded corners*
1,1,$1+$1,$2,$3*
1,1,$1+$1,$4,$5*
1,1,$1+$1,$6,$7*
1,1,$1+$1,$8,$9*
0 Add four rect primitives between the rounded corners*
20,1,$1+$1,$2,$3,$4,$5,0*
20,1,$1+$1,$4,$5,$6,$7,0*
20,1,$1+$1,$6,$7,$8,$9,0*
20,1,$1+$1,$8,$9,$2,$3,0*%
G04 Aperture macros list end*
%TA.AperFunction,ComponentPad*%
%ADD10RoundRect,0.300000X0.970000X-0.700000X0.970000X0.700000X-0.970000X0.700000X-0.970000X-0.700000X0*%
%TD*%
%TA.AperFunction,ComponentPad*%
%ADD11RoundRect,0.250000X1.020000X-0.750000X1.020000X0.750000X-1.020000X0.750000X-1.020000X-0.750000X0*%
%TD*%
%TA.AperFunction,ComponentPad*%
%ADD12RoundRect,0.249999X1.250001X-1.250001X1.250001X1.250001X-1.250001X1.250001X-1.250001X-1.250001X0*%
%TD*%
%TA.AperFunction,ComponentPad*%
%ADD13C,3.000000*%
%TD*%
%TA.AperFunction,ComponentPad*%
%ADD14R,1.600000X1.600000*%
%TD*%
%TA.AperFunction,ComponentPad*%
%ADD15C,1.600000*%
%TD*%
%TA.AperFunction,ComponentPad*%
%ADD16C,5.600000*%
%TD*%
%TA.AperFunction,ComponentPad*%
%ADD17RoundRect,0.250000X0.550000X-0.550000X0.550000X0.550000X-0.550000X0.550000X-0.550000X-0.550000X0*%
%TD*%
%TA.AperFunction,ConnectorPad*%
%ADD18RoundRect,0.438596X-0.561404X-1.561404X0.561404X-1.561404X0.561404X1.561404X-0.561404X1.561404X0*%
%TD*%
%TA.AperFunction,ConnectorPad*%
%ADD19RoundRect,0.438596X0.561404X1.561404X-0.561404X1.561404X-0.561404X-1.561404X0.561404X-1.561404X0*%
%TD*%
%TA.AperFunction,ConnectorPad*%
%ADD20RoundRect,0.300000X-1.700000X0.700000X-1.700000X-0.700000X1.700000X-0.700000X1.700000X0.700000X0*%
%TD*%
%TA.AperFunction,ConnectorPad*%
%ADD21RoundRect,0.300000X1.700000X-0.700000X1.700000X0.700000X-1.700000X0.700000X-1.700000X-0.700000X0*%
%TD*%
%TA.AperFunction,Conductor*%
%ADD22C,0.500000*%
%TD*%
%TA.AperFunction,Conductor*%
%ADD23C,1.000000*%
%TD*%
G04 APERTURE END LIST*
D10*
%TO.P,U1,1,OUT+*%
%TO.N,Net-(U1-OUT+)*%
X161640000Y-72000000D03*
%TO.P,U1,2,B+*%
%TO.N,Net-(BT1-+)*%
X161640000Y-69460000D03*
D11*
%TO.P,U1,3,B-*%
%TO.N,Net-(BT1--)*%
X161640000Y-61840000D03*
D10*
%TO.P,U1,4,OUT-*%
%TO.N,GND*%
X161640000Y-59300000D03*
%TO.P,U1,5,IN+*%
%TO.N,unconnected-(U1-IN+-Pad5)*%
X184500000Y-72000000D03*
%TO.P,U1,6,IN-*%
%TO.N,unconnected-(U1-IN--Pad6)*%
X184500000Y-59300000D03*
%TD*%
D12*
%TO.P,BT1,1,+*%
%TO.N,Net-(BT1-+)*%
X148000000Y-126450000D03*
D13*
%TO.P,BT1,2,-*%
%TO.N,Net-(BT1--)*%
X148000000Y-53550000D03*
%TD*%
D14*
%TO.P,C1,1*%
%TO.N,+3.3V*%
X176600000Y-125600000D03*
D15*
%TO.P,C1,2*%
%TO.N,GND*%
X176600000Y-128100000D03*
%TD*%
D16*
%TO.P,H2,1,1*%
%TO.N,GND*%
X133500000Y-127000000D03*
%TD*%
D17*
%TO.P,JP1,1,A*%
%TO.N,Net-(JP1-A)*%
X184000000Y-97620000D03*
D15*
%TO.P,JP1,2,B*%
%TO.N,GND*%
X184000000Y-90000000D03*
%TD*%
D16*
%TO.P,H4,1,1*%
%TO.N,GND*%
X183529891Y-127000000D03*
%TD*%
D17*
%TO.P,JP2,1,A*%
%TO.N,+3.3V*%
X177000000Y-97620000D03*
D15*
%TO.P,JP2,2,B*%
%TO.N,Net-(JP2-B)*%
X177000000Y-90000000D03*
%TD*%
D16*
%TO.P,H1,1,1*%
%TO.N,GND*%
X133500000Y-53500000D03*
%TD*%
%TO.P,H3,1,1*%
%TO.N,GND*%
X183487437Y-53500000D03*
%TD*%
D18*
%TO.P,U2,1,GPIO0*%
%TO.N,unconnected-(U2-GPIO0-Pad1)*%
X166500000Y-119740000D03*
%TO.P,U2,2,GPIO1*%
%TO.N,unconnected-(U2-GPIO1-Pad2)*%
X169040000Y-119740000D03*
%TO.P,U2,3,GPIO2*%
%TO.N,unconnected-(U2-GPIO2-Pad3)*%
X171580000Y-119740000D03*
%TO.P,U2,4,GPIO3*%
%TO.N,Net-(JP1-A)*%
X174120000Y-119740000D03*
%TO.P,U2,5,GPIO4*%
%TO.N,Net-(U2-GPIO4)*%
X176660000Y-119740000D03*
%TO.P,U2,6,3V3*%
%TO.N,+3.3V*%
X179200000Y-119740000D03*
%TO.P,U2,7,GND*%
%TO.N,GND*%
X181740000Y-119740000D03*
%TO.P,U2,8,5V*%
%TO.N,unconnected-(U2-5V-Pad8)*%
X184280000Y-119740000D03*
D19*
%TO.P,U2,9,GPIO5*%
%TO.N,Net-(U2-GPIO5)*%
X184280000Y-102500000D03*
%TO.P,U2,10,GPIO6*%
%TO.N,unconnected-(U2-GPIO6-Pad10)*%
X181740000Y-102500000D03*
%TO.P,U2,11,GPIO7*%
%TO.N,unconnected-(U2-GPIO7-Pad11)*%
X179200000Y-102500000D03*
%TO.P,U2,12,GPIO8*%
%TO.N,unconnected-(U2-GPIO8-Pad12)*%
X176660000Y-102500000D03*
%TO.P,U2,13,GPIO9*%
%TO.N,unconnected-(U2-GPIO9-Pad13)*%
X174120000Y-102500000D03*
%TO.P,U2,14,GPIO10*%
%TO.N,unconnected-(U2-GPIO10-Pad14)*%
X171580000Y-102500000D03*
%TO.P,U2,15,GPIO20*%
%TO.N,unconnected-(U2-GPIO20-Pad15)*%
X169040000Y-102500000D03*
%TO.P,U2,16,GPIO21*%
%TO.N,unconnected-(U2-GPIO21-Pad16)*%
X166500000Y-102500000D03*
%TD*%
D20*
%TO.P,U4,1,EN*%
%TO.N,Net-(U1-OUT+)*%
X162110000Y-86580000D03*
%TO.P,U4,2,VIN+*%
X162110000Y-84040000D03*
%TO.P,U4,3,VIN-*%
%TO.N,GND*%
X162110000Y-76420000D03*
D21*
%TO.P,U4,4,VOUT-*%
X179890000Y-84040000D03*
%TO.P,U4,5,VOUT+*%
%TO.N,Net-(JP2-B)*%
X179890000Y-76420000D03*
%TD*%
D15*
%TO.P,U3,6,X*%
%TO.N,unconnected-(U3-X-Pad6)*%
X171000000Y-92750000D03*
%TO.P,U3,5,G*%
%TO.N,unconnected-(U3-G-Pad5)*%
X171000000Y-90210000D03*
%TO.P,U3,4,SDA*%
%TO.N,Net-(U2-GPIO4)*%
X160840000Y-90210000D03*
%TO.P,U3,3,SCL*%
%TO.N,Net-(U2-GPIO5)*%
X160840000Y-92750000D03*
%TO.P,U3,2,GND*%
%TO.N,GND*%
X160840000Y-95290000D03*
%TO.P,U3,1,VIN*%
%TO.N,+3.3V*%
X160840000Y-97830000D03*
%TD*%
D22*
%TO.N,Net-(U2-GPIO4)*%
X160920000Y-90190000D02*
X158810000Y-90190000D01*
X157000000Y-92000000D02*
X157000000Y-118000000D01*
X158810000Y-90190000D02*
X157000000Y-92000000D01*
X157000000Y-118000000D02*
X162500000Y-123500000D01*
X162500000Y-123500000D02*
X175100000Y-123500000D01*
X175100000Y-123500000D02*
X176880000Y-121720000D01*
X176880000Y-121720000D02*
X176880000Y-119240000D01*
%TO.N,Net-(U2-GPIO5)*%
X160920000Y-92730000D02*
X163190000Y-95000000D01*
X163190000Y-95000000D02*
X177627892Y-95000000D01*
X184280000Y-101652108D02*
X184280000Y-103500000D01*
X177627892Y-95000000D02*
X184280000Y-101652108D01*
%TO.N,Net-(JP1-A)*%
X184000000Y-97620000D02*
X186263244Y-99883244D01*
X186263244Y-99883244D02*
X186263244Y-104736756D01*
X186263244Y-104736756D02*
X174340000Y-116660000D01*
X174340000Y-116660000D02*
X174340000Y-119240000D01*
%TO.N,GND*%
X160920000Y-95460000D02*
X161000000Y-95460000D01*
%TO.N,Net-(U2-GPIO5)*%
X184500000Y-101300000D02*
X184500000Y-104000000D01*
D23*
%TO.N,Net-(JP2-B)*%
X178620000Y-76420000D02*
X177000000Y-78040000D01*
X177000000Y-78040000D02*
X177000000Y-90000000D01*
%TO.N,+3.3V*%
X176600000Y-125600000D02*
X179420000Y-122780000D01*
X179420000Y-122780000D02*
X179420000Y-119240000D01*
%TO.N,Net-(U1-OUT+)*%
X163380000Y-84040000D02*
X163380000Y-86580000D01*
X163380000Y-84040000D02*
X161440000Y-84040000D01*
X158400000Y-75240000D02*
X161640000Y-72000000D01*
X161440000Y-84040000D02*
X158400000Y-81000000D01*
X158400000Y-81000000D02*
X158400000Y-75240000D01*
%TO.N,Net-(BT1-+)*%
X161640000Y-69460000D02*
X160370001Y-69460000D01*
X160370001Y-69460000D02*
X155800000Y-74030001D01*
X155800000Y-74030001D02*
X155800000Y-118650000D01*
X155800000Y-118650000D02*
X148000000Y-126450000D01*
%TO.N,Net-(BT1--)*%
X148000000Y-53550000D02*
X156290000Y-61840000D01*
X156290000Y-61840000D02*
X161640000Y-61840000D01*
%TD*%
%TA.AperFunction,Conductor*%
%TO.N,GND*%
G36*
X147165229Y-51519685D02*
G01*
X147210984Y-51572489D01*
X147220928Y-51641647D01*
X147191903Y-51705203D01*
X147145643Y-51738561D01*
X147113309Y-51751953D01*
X147113299Y-51751958D01*
X146886196Y-51883075D01*
X146678148Y-52042718D01*
X146492718Y-52228148D01*
X146333075Y-52436196D01*
X146201958Y-52663299D01*
X146201953Y-52663309D01*
X146101605Y-52905571D01*
X146101602Y-52905581D01*
X146033730Y-53158885D01*
X145999500Y-53418872D01*
X145999500Y-53681127D01*
X146016114Y-53807314D01*
X146033730Y-53941116D01*
X146101602Y-54194418D01*
X146101605Y-54194428D01*
X146201953Y-54436690D01*
X146201958Y-54436700D01*
X146333075Y-54663803D01*
X146492718Y-54871851D01*
X146492726Y-54871860D01*
X146678140Y-55057274D01*
X146678148Y-55057281D01*
X146886196Y-55216924D01*
X147113299Y-55348041D01*
X147113309Y-55348046D01*
X147355571Y-55448394D01*
X147355581Y-55448398D01*
X147608884Y-55516270D01*
X147868880Y-55550500D01*
X147868887Y-55550500D01*
X148131113Y-55550500D01*
X148131120Y-55550500D01*
X148391116Y-55516270D01*
X148448338Y-55500937D01*
X148518186Y-55502600D01*
X148568110Y-55533030D01*
X155512860Y-62477781D01*
X155512861Y-62477782D01*
X155652218Y-62617139D01*
X155652219Y-62617140D01*
X155816079Y-62726628D01*
X155816086Y-62726632D01*
X155888892Y-62756789D01*
X155998164Y-62802051D01*
X156191454Y-62840499D01*
X156191457Y-62840500D01*
X156191459Y-62840500D01*
X159824092Y-62840500D01*
X159891131Y-62860185D01*
X159929636Y-62904271D01*
X159931395Y-62903187D01*
X159935185Y-62909331D01*
X159935186Y-62909334D01*
X160027288Y-63058656D01*
X160151344Y-63182712D01*
X160300666Y-63274814D01*
X160467203Y-63329999D01*
X160569991Y-63340500D01*
X162710008Y-63340499D01*
X162812797Y-63329999D01*
X162979334Y-63274814D01*
X163128656Y-63182712D01*
X163252712Y-63058656D01*
X163344814Y-62909334D01*
X163399999Y-62742797D01*
X163410500Y-62640009D01*
X163410499Y-61039992D01*
X163399999Y-60937203D01*
X163344814Y-60770666D01*
X163344810Y-60770659D01*
X163249492Y-60616123D01*
X163231052Y-60548731D01*
X163250037Y-60485055D01*
X163335336Y-60349301D01*
X163394877Y-60179141D01*
X163409999Y-60044930D01*
X163410000Y-60044930D01*
X163410000Y-59550000D01*
X161955686Y-59550000D01*
X161960080Y-59545606D01*
X162012741Y-59454394D01*
X162040000Y-59352661D01*
X162040000Y-59247339D01*
X162012741Y-59145606D01*
X161960080Y-59054394D01*
X161955686Y-59050000D01*
X163410000Y-59050000D01*
X163410000Y-58555070D01*
X163409999Y-58555069D01*
X163394877Y-58420858D01*
X163335336Y-58250698D01*
X163239422Y-58098051D01*
X163111948Y-57970577D01*
X162959301Y-57874663D01*
X162789141Y-57815122D01*
X162654930Y-57800000D01*
X161890000Y-57800000D01*
X161890000Y-58984314D01*
X161885606Y-58979920D01*
X161794394Y-58927259D01*
X161692661Y-58900000D01*
X161587339Y-58900000D01*
X161485606Y-58927259D01*
X161394394Y-58979920D01*
X161390000Y-58984314D01*
X161390000Y-57800000D01*
X160625070Y-57800000D01*
X160490858Y-57815122D01*
X160320698Y-57874663D01*
X160168051Y-57970577D01*
X160040577Y-58098051D01*
X159944663Y-58250698D01*
X159885122Y-58420858D01*
X159870000Y-58555069D01*
X159870000Y-59050000D01*
X161324314Y-59050000D01*
X161319920Y-59054394D01*
X161267259Y-59145606D01*
X161240000Y-59247339D01*
X161240000Y-59352661D01*
X161267259Y-59454394D01*
X161319920Y-59545606D01*
X161324314Y-59550000D01*
X159870000Y-59550000D01*
X159870000Y-60044930D01*
X159885122Y-60179141D01*
X159944663Y-60349301D01*
X160029963Y-60485055D01*
X160034294Y-60500383D01*
X160043185Y-60513598D01*
X160043599Y-60533313D01*
X160048963Y-60552292D01*
X160044337Y-60568365D01*
X160044655Y-60583452D01*
X160030766Y-60615525D01*
X160030671Y-60615858D01*
X160027335Y-60621296D01*
X160027288Y-60621344D01*
X159935186Y-60770666D01*
X159934556Y-60772566D01*
X159929794Y-60780331D01*
X159908912Y-60799207D01*
X159890313Y-60820337D01*
X159883293Y-60822368D01*
X159877964Y-60827186D01*
X159851562Y-60831550D01*
X159824092Y-60839500D01*
X156755783Y-60839500D01*
X156688744Y-60819815D01*
X156668102Y-60803181D01*
X154504197Y-58639276D01*
X149983031Y-54118111D01*
X149949546Y-54056788D01*
X149950936Y-53998338D01*
X149966270Y-53941116D01*
X150000500Y-53681120D01*
X150000500Y-53418880D01*
X149966270Y-53158884D01*
X149898398Y-52905581D01*
X149886298Y-52876369D01*
X149798046Y-52663309D01*
X149798041Y-52663299D01*
X149666924Y-52436196D01*
X149507281Y-52228148D01*
X149507274Y-52228140D01*
X149321860Y-52042726D01*
X149321851Y-52042718D01*
X149113803Y-51883075D01*
X148886700Y-51751958D01*
X148886690Y-51751953D01*
X148854357Y-51738561D01*
X148799954Y-51694720D01*
X148777889Y-51628426D01*
X148795168Y-51560726D01*
X148846306Y-51513116D01*
X148901810Y-51500000D01*
X183363505Y-51500000D01*
X183430544Y-51519685D01*
X183476299Y-51572489D01*
X183487504Y-51623931D01*
X183487568Y-51738561D01*
X183490826Y-57687967D01*
X183471178Y-57755017D01*
X183418399Y-57800801D01*
X183380710Y-57811255D01*
X183350749Y-57814630D01*
X183350745Y-57814631D01*
X183180476Y-57874211D01*
X183027737Y-57970184D01*
X182900184Y-58097737D01*
X182804211Y-58250476D01*
X182744631Y-58420745D01*
X182744630Y-58420750D01*
X182729500Y-58555039D01*
X182729500Y-60044960D01*
X182744630Y-60179249D01*
X182744631Y-60179254D01*
X182804211Y-60349523D01*
X182839187Y-60405186D01*
X182900184Y-60502262D01*
X183027738Y-60629816D01*
X183180478Y-60725789D01*
X183350745Y-60785368D01*
X183382477Y-60788943D01*
X183446888Y-60816008D01*
X183486445Y-60873602D01*
X183492592Y-60912094D01*
X183492663Y-61039981D01*
X183497782Y-70387183D01*
X183478134Y-70454233D01*
X183425355Y-70500017D01*
X183387667Y-70510471D01*
X183350749Y-70514631D01*
X183350745Y-70514631D01*
X183180476Y-70574211D01*
X183027737Y-70670184D01*
X182900184Y-70797737D01*
X182804211Y-70950476D01*
X182744631Y-71120745D01*
X182744630Y-71120750D01*
X182729500Y-71255039D01*
X182729500Y-72744960D01*
X182744630Y-72879249D01*
X182744631Y-72879254D01*
X182804211Y-73049523D01*
X182900184Y-73202262D01*
X183027738Y-73329816D01*
X183180478Y-73425789D01*
X183350745Y-73485368D01*
X183389433Y-73489727D01*
X183453845Y-73516792D01*
X183493401Y-73574387D01*
X183499549Y-73612879D01*
X183507822Y-88715697D01*
X183488174Y-88782747D01*
X183440117Y-88826250D01*
X183318644Y-88888143D01*
X183274077Y-88920523D01*
X183274077Y-88920524D01*
X183508063Y-89154510D01*
X183508451Y-89862004D01*
X182920524Y-89274077D01*
X182920523Y-89274077D01*
X182888143Y-89318644D01*
X182795244Y-89500968D01*
X182732009Y-89695582D01*
X182700000Y-89897682D01*
X182700000Y-90102317D01*
X182732009Y-90304417D01*
X182795244Y-90499031D01*
X182888141Y-90681350D01*
X182888147Y-90681359D01*
X182920523Y-90725921D01*
X182920524Y-90725922D01*
X183508602Y-90137844D01*
X183508989Y-90844560D01*
X183274076Y-91079474D01*
X183318652Y-91111861D01*
X183441524Y-91174466D01*
X183492320Y-91222440D01*
X183509230Y-91284883D01*
X183511920Y-96196020D01*
X183492272Y-96263070D01*
X183439493Y-96308854D01*
X183400522Y-96319446D01*
X183297202Y-96330001D01*
X183297200Y-96330001D01*
X183130668Y-96385185D01*
X183130663Y-96385187D01*
X182981342Y-96477289D01*
X182857289Y-96601342D01*
X182765187Y-96750663D01*
X182765186Y-96750666D01*
X182710001Y-96917203D01*
X182710001Y-96917204D01*
X182710000Y-96917204D01*
X182699500Y-97019983D01*
X182699500Y-98220001D01*
X182699501Y-98220018D01*
X182710000Y-98322796D01*
X182710001Y-98322799D01*
X182712130Y-98329223D01*
X182765186Y-98489334D01*
X182857288Y-98638656D01*
X182981344Y-98762712D01*
X183130666Y-98854814D01*
X183297203Y-98909999D01*
X183399991Y-98920500D01*
X183399996Y-98920499D01*
X183402082Y-98920713D01*
X183466774Y-98947109D01*
X183506925Y-99004289D01*
X183513480Y-99044003D01*
X183513743Y-99525054D01*
X183494095Y-99592104D01*
X183441316Y-99637888D01*
X183372163Y-99647869D01*
X183308592Y-99618879D01*
X183302062Y-99612803D01*
X178106313Y-94417052D01*
X178106306Y-94417046D01*
X178032621Y-94367812D01*
X178032621Y-94367813D01*
X177983383Y-94334913D01*
X177846809Y-94278343D01*
X177846799Y-94278340D01*
X177701812Y-94249500D01*
X177701810Y-94249500D01*
X171376425Y-94249500D01*
X171309386Y-94229815D01*
X171263631Y-94177011D01*
X171253687Y-94107853D01*
X171282712Y-94044297D01*
X171338106Y-94007569D01*
X171374669Y-93995688D01*
X171499219Y-93955220D01*
X171681610Y-93862287D01*
X171774590Y-93794732D01*
X171847213Y-93741971D01*
X171847215Y-93741968D01*
X171847219Y-93741966D01*
X171991966Y-93597219D01*
X171991968Y-93597215D01*
X171991971Y-93597213D01*
X172044732Y-93524590D01*
X172112287Y-93431610D01*
X172205220Y-93249219D01*
X172268477Y-93054534D01*
X172300500Y-92852352D01*
X172300500Y-92647648D01*
X172268477Y-92445466D01*
X172205220Y-92250781D01*
X172205218Y-92250778D01*
X172205218Y-92250776D01*
X172171503Y-92184607D01*
X172112287Y-92068390D01*
X172104556Y-92057749D01*
X171991971Y-91902786D01*
X171847213Y-91758028D01*
X171681614Y-91637715D01*
X171675006Y-91634348D01*
X171588917Y-91590483D01*
X171538123Y-91542511D01*
X171521328Y-91474690D01*
X171543865Y-91408555D01*
X171588917Y-91369516D01*
X171681610Y-91322287D01*
X171702770Y-91306913D01*
X171847213Y-91201971D01*
X171847215Y-91201968D01*
X171847219Y-91201966D01*
X171991966Y-91057219D01*
X171991968Y-91057215D01*
X171991971Y-91057213D01*
X172044732Y-90984590D01*
X172112287Y-90891610D01*
X172205220Y-90709219D01*
X172268477Y-90514534D01*
X172300500Y-90312352D01*
X172300500Y-90107648D01*
X172268477Y-89905466D01*
X172265937Y-89897648D01*
X175699500Y-89897648D01*
X175699500Y-90102351D01*
X175731522Y-90304534D01*
X175794781Y-90499223D01*
X175858691Y-90624653D01*
X175887585Y-90681359D01*
X175887715Y-90681613D01*
X176008028Y-90847213D01*
X176152786Y-90991971D01*
X176273226Y-91079474D01*
X176318390Y-91112287D01*
X176434607Y-91171503D01*
X176500776Y-91205218D01*
X176500778Y-91205218D01*
X176500781Y-91205220D01*
X176553779Y-91222440D01*
X176695465Y-91268477D01*
X176796557Y-91284488D01*
X176897648Y-91300500D01*
X176897649Y-91300500D01*
X177102351Y-91300500D01*
X177102352Y-91300500D01*
X177304534Y-91268477D01*
X177499219Y-91205220D01*
X177681610Y-91112287D01*
X177774590Y-91044732D01*
X177847213Y-90991971D01*
X177847215Y-90991968D01*
X177847219Y-90991966D01*
X177991966Y-90847219D01*
X177991968Y-90847215D01*
X177991971Y-90847213D01*
X178044732Y-90774590D01*
X178112287Y-90681610D01*
X178205220Y-90499219D01*
X178268477Y-90304534D01*
X178300500Y-90102352D01*
X178300500Y-89897648D01*
X178292257Y-89845606D01*
X178268477Y-89695465D01*
X178237458Y-89600000D01*
X178205220Y-89500781D01*
X178205218Y-89500778D01*
X178205218Y-89500776D01*
X178169691Y-89431051D01*
X178112287Y-89318390D01*
X178039375Y-89218034D01*
X178024182Y-89197122D01*
X178000702Y-89131316D01*
X178000500Y-89124237D01*
X178000500Y-85662466D01*
X178020185Y-85595427D01*
X178072989Y-85549672D01*
X178138392Y-85539247D01*
X178145071Y-85540000D01*
X179640000Y-85540000D01*
X180140000Y-85540000D01*
X181634930Y-85540000D01*
X181634930Y-85539999D01*
X181769141Y-85524877D01*
X181939301Y-85465336D01*
X182091948Y-85369422D01*
X182219422Y-85241948D01*
X182315336Y-85089301D01*
X182374877Y-84919141D01*
X182389999Y-84784930D01*
X182390000Y-84784930D01*
X182390000Y-84290000D01*
X180140000Y-84290000D01*
X180140000Y-85540000D01*
X179640000Y-85540000D01*
X179640000Y-83790000D01*
X180140000Y-83790000D01*
X182390000Y-83790000D01*
X182390000Y-83295070D01*
X182389999Y-83295069D01*
X182374877Y-83160858D01*
X182315336Y-82990698D01*
X182219422Y-82838051D01*
X182091948Y-82710577D01*
X181939301Y-82614663D01*
X181769141Y-82555122D01*
X181634930Y-82540000D01*
X180140000Y-82540000D01*
X180140000Y-83790000D01*
X179640000Y-83790000D01*
X179640000Y-82540000D01*
X178145074Y-82540000D01*
X178138380Y-82540754D01*
X178069559Y-82528697D01*
X178018180Y-82481347D01*
X178000500Y-82417533D01*
X178000500Y-78505782D01*
X178020185Y-78438743D01*
X178036819Y-78418101D01*
X178498101Y-77956819D01*
X178559424Y-77923334D01*
X178585782Y-77920500D01*
X181634957Y-77920500D01*
X181634958Y-77920499D01*
X181702104Y-77912934D01*
X181769249Y-77905369D01*
X181769252Y-77905368D01*
X181769255Y-77905368D01*
X181939522Y-77845789D01*
X182092262Y-77749816D01*
X182219816Y-77622262D01*
X182315789Y-77469522D01*
X182375368Y-77299255D01*
X182379309Y-77264282D01*
X182390499Y-77164960D01*
X182390500Y-77164956D01*
X182390500Y-75675043D01*
X182390499Y-75675039D01*
X182375369Y-75540750D01*
X182375368Y-75540745D01*
X182315788Y-75370476D01*
X182276582Y-75308080D01*
X182219816Y-75217738D01*
X182092262Y-75090184D01*
X181939523Y-74994211D01*
X181769254Y-74934631D01*
X181769249Y-74934630D01*
X181634960Y-74919500D01*
X181634954Y-74919500D01*
X178145046Y-74919500D01*
X178145039Y-74919500D01*
X178010750Y-74934630D01*
X178010745Y-74934631D01*
X177840476Y-74994211D01*
X177687737Y-75090184D01*
X177560184Y-75217737D01*
X177464211Y-75370476D01*
X177404631Y-75540745D01*
X177404630Y-75540750D01*
X177389500Y-75675039D01*
X177389500Y-76184217D01*
X177369815Y-76251256D01*
X177353181Y-76271898D01*
X176460149Y-77164930D01*
X176362221Y-77262858D01*
X176362218Y-77262861D01*
X176325938Y-77299141D01*
X176222859Y-77402219D01*
X176113371Y-77566079D01*
X176113366Y-77566089D01*
X176060038Y-77694835D01*
X176037949Y-77748161D01*
X176037947Y-77748167D01*
X176018724Y-77844812D01*
X175999500Y-77941455D01*
X175999500Y-89124237D01*
X175979815Y-89191276D01*
X175975818Y-89197122D01*
X175887715Y-89318386D01*
X175794781Y-89500776D01*
X175731522Y-89695465D01*
X175699500Y-89897648D01*
X172265937Y-89897648D01*
X172205220Y-89710781D01*
X172205218Y-89710778D01*
X172205218Y-89710776D01*
X172148774Y-89600000D01*
X172112287Y-89528390D01*
X172092228Y-89500781D01*
X171991971Y-89362786D01*
X171847213Y-89218028D01*
X171681613Y-89097715D01*
X171681612Y-89097714D01*
X171681610Y-89097713D01*
X171624653Y-89068691D01*
X171499223Y-89004781D01*
X171304534Y-88941522D01*
X171129995Y-88913878D01*
X171102352Y-88909500D01*
X170897648Y-88909500D01*
X170873329Y-88913351D01*
X170695465Y-88941522D01*
X170500776Y-89004781D01*
X170318386Y-89097715D01*
X170152786Y-89218028D01*
X170008028Y-89362786D01*
X169887715Y-89528386D01*
X169794781Y-89710776D01*
X169731522Y-89905465D01*
X169699500Y-90107648D01*
X169699500Y-90312351D01*
X169731522Y-90514534D01*
X169794781Y-90709223D01*
X169887715Y-90891613D01*
X170008028Y-91057213D01*
X170152786Y-91201971D01*
X170307749Y-91314556D01*
X170318390Y-91322287D01*
X170409840Y-91368883D01*
X170411080Y-91369515D01*
X170461876Y-91417490D01*
X170478671Y-91485311D01*
X170456134Y-91551446D01*
X170411080Y-91590485D01*
X170318386Y-91637715D01*
X170152786Y-91758028D01*
X170008028Y-91902786D01*
X169887715Y-92068386D01*
X169794781Y-92250776D01*
X169731522Y-92445465D01*
X169699500Y-92647648D01*
X169699500Y-92852351D01*
X169731522Y-93054534D01*
X169794781Y-93249223D01*
X169887715Y-93431613D01*
X170008028Y-93597213D01*
X170152786Y-93741971D01*
X170307749Y-93854556D01*
X170318390Y-93862287D01*
X170411630Y-93909795D01*
X170500776Y-93955218D01*
X170500778Y-93955218D01*
X170500781Y-93955220D01*
X170604881Y-93989044D01*
X170661894Y-94007569D01*
X170719569Y-94047007D01*
X170746767Y-94111366D01*
X170734852Y-94180212D01*
X170687608Y-94231688D01*
X170623575Y-94249500D01*
X163552230Y-94249500D01*
X163485191Y-94229815D01*
X163464549Y-94213181D01*
X162176819Y-92925451D01*
X162143334Y-92864128D01*
X162140500Y-92837770D01*
X162140500Y-92647648D01*
X162108477Y-92445465D01*
X162045218Y-92250776D01*
X162011503Y-92184607D01*
X161952287Y-92068390D01*
X161944556Y-92057749D01*
X161831971Y-91902786D01*
X161687213Y-91758028D01*
X161521614Y-91637715D01*
X161515006Y-91634348D01*
X161428917Y-91590483D01*
X161378123Y-91542511D01*
X161361328Y-91474690D01*
X161383865Y-91408555D01*
X161428917Y-91369516D01*
X161521610Y-91322287D01*
X161542770Y-91306913D01*
X161687213Y-91201971D01*
X161687215Y-91201968D01*
X161687219Y-91201966D01*
X161831966Y-91057219D01*
X161831968Y-91057215D01*
X161831971Y-91057213D01*
X161884732Y-90984590D01*
X161952287Y-90891610D01*
X162045220Y-90709219D01*
X162108477Y-90514534D01*
X162140500Y-90312352D01*
X162140500Y-90107648D01*
X162108477Y-89905466D01*
X162094355Y-89862004D01*
X162045218Y-89710776D01*
X161988774Y-89600000D01*
X161952287Y-89528390D01*
X161932228Y-89500781D01*
X161831971Y-89362786D01*
X161687213Y-89218028D01*
X161521613Y-89097715D01*
X161521612Y-89097714D01*
X161521610Y-89097713D01*
X161464653Y-89068691D01*
X161339223Y-89004781D01*
X161144534Y-88941522D01*
X160969995Y-88913878D01*
X160942352Y-88909500D01*
X160737648Y-88909500D01*
X160713329Y-88913351D01*
X160535465Y-88941522D01*
X160340776Y-89004781D01*
X160158386Y-89097715D01*
X159992786Y-89218028D01*
X159848030Y-89362784D01*
X159829432Y-89388384D01*
X159774102Y-89431051D01*
X159729113Y-89439500D01*
X158736076Y-89439500D01*
X158707242Y-89445234D01*
X158707243Y-89445235D01*
X158591093Y-89468339D01*
X158591089Y-89468340D01*
X158512772Y-89500781D01*
X158512771Y-89500781D01*
X158454511Y-89524912D01*
X158454498Y-89524919D01*
X158381865Y-89573452D01*
X158331582Y-89607049D01*
X158331579Y-89607052D01*
X157012181Y-90926451D01*
X156950858Y-90959936D01*
X156881166Y-90954952D01*
X156825233Y-90913080D01*
X156800816Y-90847616D01*
X156800500Y-90838770D01*
X156800500Y-74495783D01*
X156820185Y-74428744D01*
X156836819Y-74408102D01*
X159657819Y-71587102D01*
X159719142Y-71553617D01*
X159788834Y-71558601D01*
X159844767Y-71600473D01*
X159869184Y-71665937D01*
X159869500Y-71674783D01*
X159869500Y-72304217D01*
X159849815Y-72371256D01*
X159833181Y-72391898D01*
X158799291Y-73425788D01*
X157762221Y-74462858D01*
X157762218Y-74462861D01*
X157692538Y-74532540D01*
X157622859Y-74602219D01*
X157513371Y-74766079D01*
X157513366Y-74766089D01*
X157460037Y-74894836D01*
X157443558Y-74934624D01*
X157443556Y-74934628D01*
X157437949Y-74948163D01*
X157437946Y-74948173D01*
X157399500Y-75141454D01*
X157399500Y-75141459D01*
X157399500Y-81098541D01*
X157399500Y-81098543D01*
X157399499Y-81098543D01*
X157437947Y-81291829D01*
X157437950Y-81291839D01*
X157513364Y-81473907D01*
X157513371Y-81473920D01*
X157622860Y-81637781D01*
X157622863Y-81637785D01*
X157766537Y-81781459D01*
X157766559Y-81781479D01*
X159573181Y-83588101D01*
X159606666Y-83649424D01*
X159609500Y-83675782D01*
X159609500Y-84784960D01*
X159624630Y-84919249D01*
X159624631Y-84919254D01*
X159684211Y-85089523D01*
X159781293Y-85244028D01*
X159800293Y-85311265D01*
X159781293Y-85375972D01*
X159684211Y-85530476D01*
X159624631Y-85700745D01*
X159624630Y-85700750D01*
X159609500Y-85835039D01*
X159609500Y-87324960D01*
X159624630Y-87459249D01*
X159624631Y-87459254D01*
X159684211Y-87629523D01*
X159780184Y-87782262D01*
X159907738Y-87909816D01*
X160060478Y-88005789D01*
X160230745Y-88065368D01*
X160230750Y-88065369D01*
X160321246Y-88075565D01*
X160365040Y-88080499D01*
X160365043Y-88080500D01*
X160365046Y-88080500D01*
X163854957Y-88080500D01*
X163854958Y-88080499D01*
X163922104Y-88072934D01*
X163989249Y-88065369D01*
X163989252Y-88065368D01*
X163989255Y-88065368D01*
X164159522Y-88005789D01*
X164312262Y-87909816D01*
X164439816Y-87782262D01*
X164535789Y-87629522D01*
X164595368Y-87459255D01*
X164610500Y-87324954D01*
X164610500Y-85835046D01*
X164595368Y-85700745D01*
X164535789Y-85530478D01*
X164439816Y-85377738D01*
X164439815Y-85377737D01*
X164438706Y-85375972D01*
X164419706Y-85308736D01*
X164438706Y-85244028D01*
X164440013Y-85241948D01*
X164535789Y-85089522D01*
X164595368Y-84919255D01*
X164610500Y-84784954D01*
X164610500Y-83295046D01*
X164595368Y-83160745D01*
X164535789Y-82990478D01*
X164439816Y-82837738D01*
X164312262Y-82710184D01*
X164159523Y-82614211D01*
X163989254Y-82554631D01*
X163989249Y-82554630D01*
X163854960Y-82539500D01*
X163854954Y-82539500D01*
X161405782Y-82539500D01*
X161338743Y-82519815D01*
X161318101Y-82503181D01*
X159436819Y-80621899D01*
X159403334Y-80560576D01*
X159400500Y-80534218D01*
X159400500Y-77387020D01*
X159420185Y-77319981D01*
X159472989Y-77274226D01*
X159542147Y-77264282D01*
X159605703Y-77293307D01*
X159641542Y-77346066D01*
X159684663Y-77469301D01*
X159780577Y-77621948D01*
X159908051Y-77749422D01*
X160060698Y-77845336D01*
X160230858Y-77904877D01*
X160365069Y-77919999D01*
X160365070Y-77920000D01*
X161860000Y-77920000D01*
X162360000Y-77920000D01*
X163854930Y-77920000D01*
X163854930Y-77919999D01*
X163989141Y-77904877D01*
X164159301Y-77845336D01*
X164311948Y-77749422D01*
X164439422Y-77621948D01*
X164535336Y-77469301D01*
X164594877Y-77299141D01*
X164609999Y-77164930D01*
X164610000Y-77164930D01*
X164610000Y-76670000D01*
X162360000Y-76670000D01*
X162360000Y-77920000D01*
X161860000Y-77920000D01*
X161860000Y-76170000D01*
X162360000Y-76170000D01*
X164610000Y-76170000D01*
X164610000Y-75675070D01*
X164609999Y-75675069D01*
X164594877Y-75540858D01*
X164535336Y-75370698D01*
X164439422Y-75218051D01*
X164311948Y-75090577D01*
X164159301Y-74994663D01*
X163989141Y-74935122D01*
X163854930Y-74920000D01*
X162360000Y-74920000D01*
X162360000Y-76170000D01*
X161860000Y-76170000D01*
X161860000Y-74920000D01*
X160434281Y-74920000D01*
X160367242Y-74900315D01*
X160321487Y-74847511D01*
X160311543Y-74778353D01*
X160340568Y-74714797D01*
X160346586Y-74708333D01*
X161518101Y-73536819D01*
X161579424Y-73503334D01*
X161605782Y-73500500D01*
X162654957Y-73500500D01*
X162654958Y-73500499D01*
X162722104Y-73492934D01*
X162789249Y-73485369D01*
X162789252Y-73485368D01*
X162789255Y-73485368D01*
X162959522Y-73425789D01*
X163112262Y-73329816D01*
X163239816Y-73202262D01*
X163335789Y-73049522D01*
X163395368Y-72879255D01*
X163410500Y-72744954D01*
X163410500Y-71255046D01*
X163395368Y-71120745D01*
X163335789Y-70950478D01*
X163239816Y-70797738D01*
X163239815Y-70797737D01*
X163238706Y-70795972D01*
X163219706Y-70728736D01*
X163238706Y-70664028D01*
X163239816Y-70662262D01*
X163335789Y-70509522D01*
X163395368Y-70339255D01*
X163410500Y-70204954D01*
X163410500Y-68715046D01*
X163395368Y-68580745D01*
X163335789Y-68410478D01*
X163239816Y-68257738D01*
X163112262Y-68130184D01*
X162959523Y-68034211D01*
X162789254Y-67974631D01*
X162789249Y-67974630D01*
X162654960Y-67959500D01*
X162654954Y-67959500D01*
X160625046Y-67959500D01*
X160625039Y-67959500D01*
X160490750Y-67974630D01*
X160490745Y-67974631D01*
X160320476Y-68034211D01*
X160167737Y-68130184D01*
X160040184Y-68257737D01*
X159944209Y-68410480D01*
X159898193Y-68541985D01*
X159885198Y-68560102D01*
X159876300Y-68580546D01*
X159860095Y-68595102D01*
X159857471Y-68598761D01*
X159850044Y-68604131D01*
X159763460Y-68661986D01*
X159763458Y-68661988D01*
X159732216Y-68682862D01*
X159732215Y-68682863D01*
X156110863Y-72304217D01*
X155162220Y-73252860D01*
X155162218Y-73252862D01*
X155092538Y-73322541D01*
X155022859Y-73392220D01*
X154913371Y-73556080D01*
X154913364Y-73556093D01*
X154837950Y-73738161D01*
X154837947Y-73738171D01*
X154799500Y-73931457D01*
X154799500Y-118184218D01*
X154779815Y-118251257D01*
X154763181Y-118271899D01*
X148621899Y-124413181D01*
X148560576Y-124446666D01*
X148534218Y-124449500D01*
X146699982Y-124449500D01*
X146597203Y-124460000D01*
X146597202Y-124460001D01*
X146514669Y-124487349D01*
X146430667Y-124515185D01*
X146430662Y-124515187D01*
X146281342Y-124607289D01*
X146157289Y-124731342D01*
X146065187Y-124880662D01*
X146065186Y-124880665D01*
X146010001Y-125047202D01*
X146010001Y-125047203D01*
X146010000Y-125047203D01*
X145999500Y-125149982D01*
X145999500Y-127750017D01*
X146010000Y-127852796D01*
X146058011Y-127997682D01*
X146065186Y-128019335D01*
X146157288Y-128168656D01*
X146281344Y-128292712D01*
X146430665Y-128384814D01*
X146597202Y-128439999D01*
X146699990Y-128450500D01*
X146699995Y-128450500D01*
X149300005Y-128450500D01*
X149300010Y-128450500D01*
X149402798Y-128439999D01*
X149569335Y-128384814D01*
X149718656Y-128292712D01*
X149842712Y-128168656D01*
X149934814Y-128019335D01*
X149989999Y-127852798D01*
X150000500Y-127750010D01*
X150000500Y-125915781D01*
X150020185Y-125848742D01*
X150036814Y-125828105D01*
X156437778Y-119427141D01*
X156437782Y-119427139D01*
X156577139Y-119287782D01*
X156686632Y-119123914D01*
X156725717Y-119029553D01*
X156769556Y-118975152D01*
X156835850Y-118953086D01*
X156903549Y-118970364D01*
X156927958Y-118989326D01*
X159578432Y-121639799D01*
X161917049Y-123978416D01*
X162021584Y-124082951D01*
X162021587Y-124082953D01*
X162021588Y-124082954D01*
X162144503Y-124165083D01*
X162144506Y-124165085D01*
X162194665Y-124185861D01*
X162201080Y-124188518D01*
X162281088Y-124221659D01*
X162397241Y-124244763D01*
X162420380Y-124249365D01*
X162426081Y-124250500D01*
X162426082Y-124250500D01*
X175173920Y-124250500D01*
X175271462Y-124231096D01*
X175318913Y-124221658D01*
X175343731Y-124211377D01*
X175413198Y-124203908D01*
X175475678Y-124235181D01*
X175511331Y-124295269D01*
X175508839Y-124365094D01*
X175468992Y-124422488D01*
X175465498Y-124425203D01*
X175442454Y-124442454D01*
X175442453Y-124442455D01*
X175442452Y-124442456D01*
X175356206Y-124557664D01*
X175356202Y-124557671D01*
X175305908Y-124692517D01*
X175299501Y-124752116D01*
X175299500Y-124752135D01*
X175299500Y-126447870D01*
X175299501Y-126447876D01*
X175305908Y-126507483D01*
X175356202Y-126642328D01*
X175356206Y-126642335D01*
X175442452Y-126757544D01*
X175442455Y-126757547D01*
X175557664Y-126843793D01*
X175557671Y-126843797D01*
X175602618Y-126860561D01*
X175692517Y-126894091D01*
X175752127Y-126900500D01*
X175752153Y-126900499D01*
X175755453Y-126900678D01*
X175755365Y-126902308D01*
X175816238Y-126920067D01*
X175862084Y-126972791D01*
X175869804Y-127016251D01*
X176553554Y-127700000D01*
X176547339Y-127700000D01*
X176445606Y-127727259D01*
X176354394Y-127779920D01*
X176279920Y-127854394D01*
X176227259Y-127945606D01*
X176200000Y-128047339D01*
X176200000Y-128053553D01*
X175520524Y-127374077D01*
X175520523Y-127374077D01*
X175488143Y-127418644D01*
X175395244Y-127600968D01*
X175332009Y-127795582D01*
X175300000Y-127997682D01*
X175300000Y-128202317D01*
X175332009Y-128404417D01*
X175395244Y-128599031D01*
X175488139Y-128781348D01*
X175503954Y-128803115D01*
X175527433Y-128868922D01*
X175511607Y-128936976D01*
X175461501Y-128985670D01*
X175403635Y-129000000D01*
X133624000Y-129000000D01*
X133556961Y-128980315D01*
X133511206Y-128927511D01*
X133500000Y-128876000D01*
X133500000Y-117883711D01*
X146149500Y-117883711D01*
X146149500Y-118126288D01*
X146181161Y-118366785D01*
X146243947Y-118601104D01*
X146336773Y-118825205D01*
X146336776Y-118825212D01*
X146458064Y-119035289D01*
X146458066Y-119035292D01*
X146458067Y-119035293D01*
X146605733Y-119227736D01*
X146605739Y-119227743D01*
X146777256Y-119399260D01*
X146777262Y-119399265D01*
X146969711Y-119546936D01*
X147179788Y-119668224D01*
X147403900Y-119761054D01*
X147638211Y-119823838D01*
X147818586Y-119847584D01*
X147878711Y-119855500D01*
X147878712Y-119855500D01*
X148121289Y-119855500D01*
X148169388Y-119849167D01*
X148361789Y-119823838D01*
X148596100Y-119761054D01*
X148820212Y-119668224D01*
X149030289Y-119546936D01*
X149222738Y-119399265D01*
X149394265Y-119227738D01*
X149541936Y-119035289D01*
X149663224Y-118825212D01*
X149756054Y-118601100D01*
X149818838Y-118366789D01*
X149850500Y-118126288D01*
X149850500Y-117883712D01*
X149818838Y-117643211D01*
X149756054Y-117408900D01*
X149663224Y-117184788D01*
X149541936Y-116974711D01*
X149394265Y-116782262D01*
X149394260Y-116782256D01*
X149222743Y-116610739D01*
X149222736Y-116610733D01*
X149030293Y-116463067D01*
X149030292Y-116463066D01*
X149030289Y-116463064D01*
X148820212Y-116341776D01*
X148820205Y-116341773D01*
X148596104Y-116248947D01*
X148361785Y-116186161D01*
X148121289Y-116154500D01*
X148121288Y-116154500D01*
X147878712Y-116154500D01*
X147878711Y-116154500D01*
X147638214Y-116186161D01*
X147403895Y-116248947D01*
X147179794Y-116341773D01*
X147179785Y-116341777D01*
X146969706Y-116463067D01*
X146777263Y-116610733D01*
X146777256Y-116610739D01*
X146605739Y-116782256D01*
X146605733Y-116782263D01*
X146458067Y-116974706D01*
X146336777Y-117184785D01*
X146336773Y-117184794D01*
X146243947Y-117408895D01*
X146181161Y-117643214D01*
X146149500Y-117883711D01*
X133500000Y-117883711D01*
X133500000Y-62273711D01*
X146149500Y-62273711D01*
X146149500Y-62516288D01*
X146179319Y-62742795D01*
X146181162Y-62756789D01*
X146208867Y-62860185D01*
X146243947Y-62991104D01*
X146323313Y-63182710D01*
X146336776Y-63215212D01*
X146458064Y-63425289D01*
X146458066Y-63425292D01*
X146458067Y-63425293D01*
X146605733Y-63617736D01*
X146605739Y-63617743D01*
X146777256Y-63789260D01*
X146777262Y-63789265D01*
X146969711Y-63936936D01*
X147179788Y-64058224D01*
X147403900Y-64151054D01*
X147638211Y-64213838D01*
X147818586Y-64237584D01*
X147878711Y-64245500D01*
X147878712Y-64245500D01*
X148121289Y-64245500D01*
X148169388Y-64239167D01*
X148361789Y-64213838D01*
X148596100Y-64151054D01*
X148820212Y-64058224D01*
X149030289Y-63936936D01*
X149222738Y-63789265D01*
X149394265Y-63617738D01*
X149541936Y-63425289D01*
X149663224Y-63215212D01*
X149756054Y-62991100D01*
X149818838Y-62756789D01*
X149850500Y-62516288D01*
X149850500Y-62273712D01*
X149818838Y-62033211D01*
X149756054Y-61798900D01*
X149663224Y-61574788D01*
X149541936Y-61364711D01*
X149394265Y-61172262D01*
X149394260Y-61172256D01*
X149222743Y-61000739D01*
X149222736Y-61000733D01*
X149030293Y-60853067D01*
X149030292Y-60853066D01*
X149030289Y-60853064D01*
X148820212Y-60731776D01*
X148805756Y-60725788D01*
X148596104Y-60638947D01*
X148361785Y-60576161D01*
X148121289Y-60544500D01*
X148121288Y-60544500D01*
X147878712Y-60544500D01*
X147878711Y-60544500D01*
X147638214Y-60576161D01*
X147403895Y-60638947D01*
X147179794Y-60731773D01*
X147179785Y-60731777D01*
X146969706Y-60853067D01*
X146777263Y-61000733D01*
X146777256Y-61000739D01*
X146605739Y-61172256D01*
X146605733Y-61172263D01*
X146458067Y-61364706D01*
X146336777Y-61574785D01*
X146336773Y-61574794D01*
X146243947Y-61798895D01*
X146181161Y-62033214D01*
X146149500Y-62273711D01*
X133500000Y-62273711D01*
X133500000Y-51624000D01*
X133519685Y-51556961D01*
X133572489Y-51511206D01*
X133624000Y-51500000D01*
X147098190Y-51500000D01*
X147165229Y-51519685D01*
G37*
%TD.AperFunction*%
%TA.AperFunction,Conductor*%
G36*
X183438181Y-108725698D02*
G01*
X183494114Y-108767570D01*
X183518531Y-108833034D01*
X183518847Y-108841812D01*
X183523406Y-117163456D01*
X183503758Y-117230506D01*
X183450979Y-117276290D01*
X183431500Y-117283299D01*
X183380200Y-117297044D01*
X183204311Y-117386663D01*
X183204309Y-117386665D01*
X183087637Y-117481144D01*
X183023149Y-117508036D01*
X182954360Y-117495794D01*
X182931564Y-117481143D01*
X182815417Y-117387087D01*
X182815415Y-117387085D01*
X182639618Y-117297515D01*
X182449040Y-117246448D01*
X182367102Y-117240000D01*
X181990000Y-117240000D01*
X181990000Y-122239999D01*
X182367087Y-122239999D01*
X182367105Y-122239998D01*
X182449038Y-122233551D01*
X182639618Y-122182484D01*
X182815415Y-122092914D01*
X182815417Y-122092912D01*
X182931565Y-121998856D01*
X182996052Y-121971964D01*
X183064841Y-121984205D01*
X183087635Y-121998853D01*
X183127444Y-122031089D01*
X183204309Y-122093335D01*
X183204311Y-122093336D01*
X183290581Y-122137292D01*
X183380200Y-122182955D01*
X183434322Y-122197456D01*
X183493983Y-122233820D01*
X183524513Y-122296666D01*
X183526230Y-122317163D01*
X183529823Y-128875932D01*
X183510175Y-128942982D01*
X183457396Y-128988766D01*
X183405823Y-129000000D01*
X177796365Y-129000000D01*
X177729326Y-128980315D01*
X177683571Y-128927511D01*
X177673627Y-128858353D01*
X177696046Y-128803115D01*
X177711860Y-128781348D01*
X177804755Y-128599031D01*
X177867990Y-128404417D01*
X177900000Y-128202317D01*
X177900000Y-127997682D01*
X177867990Y-127795582D01*
X177804755Y-127600968D01*
X177711859Y-127418650D01*
X177679474Y-127374077D01*
X177679474Y-127374076D01*
X177000000Y-128053551D01*
X177000000Y-128047339D01*
X176972741Y-127945606D01*
X176920080Y-127854394D01*
X176845606Y-127779920D01*
X176754394Y-127727259D01*
X176652661Y-127700000D01*
X176646446Y-127700000D01*
X177330931Y-127015515D01*
X177341364Y-126965852D01*
X177390415Y-126916094D01*
X177444637Y-126902048D01*
X177444576Y-126900900D01*
X177444571Y-126900854D01*
X177444573Y-126900853D01*
X177444564Y-126900676D01*
X177447857Y-126900499D01*
X177447872Y-126900499D01*
X177507483Y-126894091D01*
X177642331Y-126843796D01*
X177757546Y-126757546D01*
X177843796Y-126642331D01*
X177894091Y-126507483D01*
X177900500Y-126447873D01*
X177900499Y-125765780D01*
X177920183Y-125698742D01*
X177936813Y-125678105D01*
X180057778Y-123557141D01*
X180057782Y-123557139D01*
X180197139Y-123417782D01*
X180306632Y-123253914D01*
X180382051Y-123071835D01*
X180392047Y-123021585D01*
X180420500Y-122878540D01*
X180420500Y-122681460D01*
X180420500Y-122155229D01*
X180440185Y-122088190D01*
X180492989Y-122042435D01*
X180562147Y-122032491D01*
X180622537Y-122058864D01*
X180664582Y-122092912D01*
X180664584Y-122092914D01*
X180840381Y-122182484D01*
X181030959Y-122233551D01*
X181112903Y-122239999D01*
X181489999Y-122239999D01*
X181490000Y-122239998D01*
X181490000Y-117240000D01*
X181112913Y-117240000D01*
X181112894Y-117240001D01*
X181030961Y-117246448D01*
X180840381Y-117297515D01*
X180664584Y-117387085D01*
X180664583Y-117387086D01*
X180548433Y-117481144D01*
X180483946Y-117508036D01*
X180415157Y-117495794D01*
X180392361Y-117481144D01*
X180391963Y-117480822D01*
X180370609Y-117463529D01*
X180275690Y-117386664D01*
X180275688Y-117386663D01*
X180124303Y-117309530D01*
X180099800Y-117297045D01*
X179950647Y-117257080D01*
X179909117Y-117245952D01*
X179827135Y-117239500D01*
X179827130Y-117239500D01*
X178572870Y-117239500D01*
X178572864Y-117239500D01*
X178490882Y-117245952D01*
X178490881Y-117245952D01*
X178300200Y-117297045D01*
X178124311Y-117386663D01*
X178124309Y-117386664D01*
X178008036Y-117480822D01*
X177943549Y-117507714D01*
X177874760Y-117495472D01*
X177851964Y-117480822D01*
X177735690Y-117386664D01*
X177735688Y-117386663D01*
X177584303Y-117309530D01*
X177559800Y-117297045D01*
X177410647Y-117257080D01*
X177369117Y-117245952D01*
X177287135Y-117239500D01*
X177287130Y-117239500D01*
X176032870Y-117239500D01*
X176032864Y-117239500D01*
X175950882Y-117245952D01*
X175950881Y-117245952D01*
X175760200Y-117297045D01*
X175584311Y-117386663D01*
X175584309Y-117386664D01*
X175468036Y-117480822D01*
X175442359Y-117491529D01*
X175418145Y-117505220D01*
X175410560Y-117504790D01*
X175403549Y-117507714D01*
X175376159Y-117502839D01*
X175348387Y-117501265D01*
X175339600Y-117496333D01*
X175334760Y-117495472D01*
X175317164Y-117484810D01*
X175314507Y-117482881D01*
X175195690Y-117386665D01*
X175149540Y-117363150D01*
X175141664Y-117357434D01*
X175126018Y-117337165D01*
X175107408Y-117319588D01*
X175104687Y-117309530D01*
X175098971Y-117302125D01*
X175097228Y-117281955D01*
X175090500Y-117257080D01*
X175090500Y-117022228D01*
X175110185Y-116955189D01*
X175126814Y-116934552D01*
X183307170Y-108754196D01*
X183368489Y-108720714D01*
X183438181Y-108725698D01*
G37*
%TD.AperFunction*%
%TA.AperFunction,Conductor*%
G36*
X159705302Y-90942041D02*
G01*
X159710665Y-90940955D01*
X159738469Y-90951780D01*
X159767091Y-90960185D01*
X159772026Y-90964846D01*
X159775773Y-90966305D01*
X159800371Y-90991616D01*
X159848030Y-91057215D01*
X159992786Y-91201971D01*
X160147749Y-91314556D01*
X160158390Y-91322287D01*
X160249840Y-91368883D01*
X160251080Y-91369515D01*
X160301876Y-91417490D01*
X160318671Y-91485311D01*
X160296134Y-91551446D01*
X160251080Y-91590485D01*
X160158386Y-91637715D01*
X159992786Y-91758028D01*
X159848028Y-91902786D01*
X159727715Y-92068386D01*
X159634781Y-92250776D01*
X159571522Y-92445465D01*
X159539500Y-92647648D01*
X159539500Y-92852351D01*
X159571522Y-93054534D01*
X159634781Y-93249223D01*
X159727715Y-93431613D01*
X159848028Y-93597213D01*
X159992786Y-93741971D01*
X160158385Y-93862284D01*
X160158387Y-93862285D01*
X160158390Y-93862287D01*
X160251630Y-93909795D01*
X160302426Y-93957770D01*
X160319221Y-94025591D01*
X160296684Y-94091725D01*
X160251630Y-94130765D01*
X160158644Y-94178143D01*
X160114077Y-94210523D01*
X160114077Y-94210524D01*
X160793554Y-94890000D01*
X160787339Y-94890000D01*
X160685606Y-94917259D01*
X160594394Y-94969920D01*
X160519920Y-95044394D01*
X160467259Y-95135606D01*
X160440000Y-95237339D01*
X160440000Y-95243553D01*
X159760524Y-94564077D01*
X159760523Y-94564077D01*
X159728143Y-94608644D01*
X159635244Y-94790968D01*
X159572009Y-94985582D01*
X159540000Y-95187682D01*
X159540000Y-95392317D01*
X159572009Y-95594417D01*
X159635244Y-95789031D01*
X159728141Y-95971350D01*
X159728147Y-95971359D01*
X159760523Y-96015921D01*
X159760524Y-96015922D01*
X160440000Y-95336446D01*
X160440000Y-95342661D01*
X160467259Y-95444394D01*
X160519920Y-95535606D01*
X160594394Y-95610080D01*
X160685606Y-95662741D01*
X160787339Y-95690000D01*
X160793553Y-95690000D01*
X160114076Y-96369474D01*
X160158652Y-96401861D01*
X160251628Y-96449234D01*
X160302425Y-96497208D01*
X160319220Y-96565029D01*
X160296683Y-96631164D01*
X160251630Y-96670203D01*
X160158388Y-96717713D01*
X159992786Y-96838028D01*
X159848028Y-96982786D01*
X159727715Y-97148386D01*
X159634781Y-97330776D01*
X159571522Y-97525465D01*
X159539500Y-97727648D01*
X159539500Y-97932351D01*
X159571522Y-98134534D01*
X159634781Y-98329223D01*
X159698691Y-98454653D01*
X159716361Y-98489331D01*
X159727715Y-98511613D01*
X159848028Y-98677213D01*
X159992786Y-98821971D01*
X160147749Y-98934556D01*
X160158390Y-98942287D01*
X160274607Y-99001503D01*
X160340776Y-99035218D01*
X160340778Y-99035218D01*
X160340781Y-99035220D01*
X160445137Y-99069127D01*
X160535465Y-99098477D01*
X160636557Y-99114488D01*
X160737648Y-99130500D01*
X160737649Y-99130500D01*
X160942351Y-99130500D01*
X160942352Y-99130500D01*
X161144534Y-99098477D01*
X161339219Y-99035220D01*
X161521610Y-98942287D01*
X161614590Y-98874732D01*
X161687213Y-98821971D01*
X161687215Y-98821968D01*
X161687219Y-98821966D01*
X161831966Y-98677219D01*
X161831968Y-98677215D01*
X161831971Y-98677213D01*
X161884732Y-98604590D01*
X161952287Y-98511610D01*
X162045220Y-98329219D01*
X162108477Y-98134534D01*
X162140500Y-97932352D01*
X162140500Y-97727648D01*
X162108477Y-97525466D01*
X162045220Y-97330781D01*
X162045218Y-97330778D01*
X162045218Y-97330776D01*
X162011503Y-97264607D01*
X161952287Y-97148390D01*
X161944556Y-97137749D01*
X161831971Y-96982786D01*
X161687213Y-96838028D01*
X161521611Y-96717713D01*
X161428369Y-96670203D01*
X161377574Y-96622229D01*
X161360779Y-96554407D01*
X161383317Y-96488273D01*
X161428371Y-96449234D01*
X161521346Y-96401861D01*
X161521347Y-96401861D01*
X161565921Y-96369474D01*
X160886447Y-95690000D01*
X160892661Y-95690000D01*
X160994394Y-95662741D01*
X161085606Y-95610080D01*
X161160080Y-95535606D01*
X161212741Y-95444394D01*
X161240000Y-95342661D01*
X161240000Y-95336446D01*
X161919474Y-96015921D01*
X161951859Y-95971349D01*
X162044755Y-95789031D01*
X162107990Y-95594417D01*
X162140000Y-95392317D01*
X162140000Y-95310730D01*
X162159685Y-95243691D01*
X162212489Y-95197936D01*
X162281647Y-95187992D01*
X162345203Y-95217017D01*
X162351681Y-95223049D01*
X162711586Y-95582954D01*
X162728743Y-95594417D01*
X162785270Y-95632186D01*
X162834505Y-95665084D01*
X162834506Y-95665084D01*
X162834507Y-95665085D01*
X162834509Y-95665086D01*
X162971082Y-95721656D01*
X162971087Y-95721658D01*
X162971091Y-95721658D01*
X162971092Y-95721659D01*
X163116079Y-95750500D01*
X163116082Y-95750500D01*
X163116083Y-95750500D01*
X163263918Y-95750500D01*
X177265662Y-95750500D01*
X177332701Y-95770185D01*
X177353343Y-95786819D01*
X177674343Y-96107819D01*
X177707828Y-96169142D01*
X177702844Y-96238834D01*
X177660972Y-96294767D01*
X177595508Y-96319184D01*
X177586662Y-96319500D01*
X176399998Y-96319500D01*
X176399981Y-96319501D01*
X176297203Y-96330000D01*
X176297200Y-96330001D01*
X176130668Y-96385185D01*
X176130663Y-96385187D01*
X175981342Y-96477289D01*
X175857289Y-96601342D01*
X175765187Y-96750663D01*
X175765186Y-96750666D01*
X175710001Y-96917203D01*
X175710001Y-96917204D01*
X175710000Y-96917204D01*
X175699500Y-97019983D01*
X175699500Y-98220001D01*
X175699501Y-98220018D01*
X175710000Y-98322796D01*
X175710001Y-98322799D01*
X175712130Y-98329223D01*
X175765186Y-98489334D01*
X175857288Y-98638656D01*
X175981344Y-98762712D01*
X176130666Y-98854814D01*
X176297203Y-98909999D01*
X176399991Y-98920500D01*
X177600008Y-98920499D01*
X177702797Y-98909999D01*
X177869334Y-98854814D01*
X178018656Y-98762712D01*
X178142712Y-98638656D01*
X178234814Y-98489334D01*
X178289999Y-98322797D01*
X178300500Y-98220009D01*
X178300499Y-97033335D01*
X178320184Y-96966297D01*
X178372987Y-96920542D01*
X178442146Y-96910598D01*
X178505702Y-96939623D01*
X178512169Y-96945645D01*
X179498876Y-97932351D01*
X181354344Y-99787819D01*
X181387829Y-99849142D01*
X181382845Y-99918834D01*
X181340973Y-99974767D01*
X181275509Y-99999184D01*
X181266663Y-99999500D01*
X181112864Y-99999500D01*
X181030882Y-100005952D01*
X181030881Y-100005952D01*
X180840200Y-100057045D01*
X180664311Y-100146663D01*
X180664309Y-100146664D01*
X180548036Y-100240822D01*
X180483549Y-100267714D01*
X180414760Y-100255472D01*
X180391964Y-100240822D01*
X180275690Y-100146664D01*
X180275688Y-100146663D01*
X180159927Y-100087681D01*
X180099800Y-100057045D01*
X179989711Y-100027547D01*
X179909117Y-100005952D01*
X179827135Y-99999500D01*
X179827130Y-99999500D01*
X178572870Y-99999500D01*
X178572864Y-99999500D01*
X178490882Y-100005952D01*
X178490881Y-100005952D01*
X178300200Y-100057045D01*
X178124311Y-100146663D01*
X178124309Y-100146664D01*
X178008036Y-100240822D01*
X177943549Y-100267714D01*
X177874760Y-100255472D01*
X177851964Y-100240822D01*
X177735690Y-100146664D01*
X177735688Y-100146663D01*
X177619927Y-100087681D01*
X177559800Y-100057045D01*
X177449711Y-100027547D01*
X177369117Y-100005952D01*
X177287135Y-99999500D01*
X177287130Y-99999500D01*
X176032870Y-99999500D01*
X176032864Y-99999500D01*
X175950882Y-100005952D01*
X175950881Y-100005952D01*
X175760200Y-100057045D01*
X175584311Y-100146663D01*
X175584309Y-100146664D01*
X175468036Y-100240822D01*
X175403549Y-100267714D01*
X175334760Y-100255472D01*
X175311964Y-100240822D01*
X175195690Y-100146664D01*
X175195688Y-100146663D01*
X175079927Y-100087681D01*
X175019800Y-100057045D01*
X174909711Y-100027547D01*
X174829117Y-100005952D01*
X174747135Y-99999500D01*
X174747130Y-99999500D01*
X173492870Y-99999500D01*
X173492864Y-99999500D01*
X173410882Y-100005952D01*
X173410881Y-100005952D01*
X173220200Y-100057045D01*
X173044311Y-100146663D01*
X173044309Y-100146664D01*
X172928036Y-100240822D01*
X172863549Y-100267714D01*
X172794760Y-100255472D01*
X172771964Y-100240822D01*
X172655690Y-100146664D01*
X172655688Y-100146663D01*
X172539927Y-100087681D01*
X172479800Y-100057045D01*
X172369711Y-100027547D01*
X172289117Y-100005952D01*
X172207135Y-99999500D01*
X172207130Y-99999500D01*
X170952870Y-99999500D01*
X170952864Y-99999500D01*
X170870882Y-100005952D01*
X170870881Y-100005952D01*
X170680200Y-100057045D01*
X170504311Y-100146663D01*
X170504309Y-100146664D01*
X170388036Y-100240822D01*
X170323549Y-100267714D01*
X170254760Y-100255472D01*
X170231964Y-100240822D01*
X170115690Y-100146664D01*
X170115688Y-100146663D01*
X169999927Y-100087681D01*
X169939800Y-100057045D01*
X169829711Y-100027547D01*
X169749117Y-100005952D01*
X169667135Y-99999500D01*
X169667130Y-99999500D01*
X168412870Y-99999500D01*
X168412864Y-99999500D01*
X168330882Y-100005952D01*
X168330881Y-100005952D01*
X168140200Y-100057045D01*
X167964311Y-100146663D01*
X167964309Y-100146664D01*
X167848036Y-100240822D01*
X167783549Y-100267714D01*
X167714760Y-100255472D01*
X167691964Y-100240822D01*
X167575690Y-100146664D01*
X167575688Y-100146663D01*
X167459927Y-100087681D01*
X167399800Y-100057045D01*
X167289711Y-100027547D01*
X167209117Y-100005952D01*
X167127135Y-99999500D01*
X167127130Y-99999500D01*
X165872870Y-99999500D01*
X165872864Y-99999500D01*
X165790882Y-100005952D01*
X165790881Y-100005952D01*
X165600200Y-100057045D01*
X165424311Y-100146663D01*
X165424309Y-100146664D01*
X165270897Y-100270897D01*
X165146664Y-100424309D01*
X165146663Y-100424311D01*
X165057045Y-100600200D01*
X165005952Y-100790881D01*
X165005952Y-100790882D01*
X164999500Y-100872864D01*
X164999500Y-104127135D01*
X165005952Y-104209117D01*
X165005952Y-104209118D01*
X165038343Y-104330005D01*
X165057045Y-104399800D01*
X165087681Y-104459927D01*
X165146663Y-104575688D01*
X165146664Y-104575690D01*
X165215309Y-104660457D01*
X165270897Y-104729103D01*
X165355664Y-104797747D01*
X165424309Y-104853335D01*
X165424311Y-104853336D01*
X165482191Y-104882826D01*
X165600200Y-104942955D01*
X165790880Y-104994047D01*
X165872870Y-105000500D01*
X165872876Y-105000500D01*
X167127124Y-105000500D01*
X167127130Y-105000500D01*
X167209120Y-104994047D01*
X167399800Y-104942955D01*
X167575690Y-104853335D01*
X167691964Y-104759177D01*
X167756451Y-104732285D01*
X167825240Y-104744527D01*
X167848033Y-104759175D01*
X167901355Y-104802355D01*
X167964308Y-104853334D01*
X167964311Y-104853336D01*
X168022191Y-104882826D01*
X168140200Y-104942955D01*
X168330880Y-104994047D01*
X168412870Y-105000500D01*
X168412876Y-105000500D01*
X169667124Y-105000500D01*
X169667130Y-105000500D01*
X169749120Y-104994047D01*
X169939800Y-104942955D01*
X170115690Y-104853335D01*
X170231964Y-104759177D01*
X170296451Y-104732285D01*
X170365240Y-104744527D01*
X170388033Y-104759175D01*
X170441355Y-104802355D01*
X170504308Y-104853334D01*
X170504311Y-104853336D01*
X170562191Y-104882826D01*
X170680200Y-104942955D01*
X170870880Y-104994047D01*
X170952870Y-105000500D01*
X170952876Y-105000500D01*
X172207124Y-105000500D01*
X172207130Y-105000500D01*
X172289120Y-104994047D01*
X172479800Y-104942955D01*
X172655690Y-104853335D01*
X172771964Y-104759177D01*
X172836451Y-104732285D01*
X172905240Y-104744527D01*
X172928033Y-104759175D01*
X172981355Y-104802355D01*
X173044308Y-104853334D01*
X173044311Y-104853336D01*
X173102191Y-104882826D01*
X173220200Y-104942955D01*
X173410880Y-104994047D01*
X173492870Y-105000500D01*
X173492876Y-105000500D01*
X174747124Y-105000500D01*
X174747130Y-105000500D01*
X174829120Y-104994047D01*
X175019800Y-104942955D01*
X175195690Y-104853335D01*
X175311964Y-104759177D01*
X175376451Y-104732285D01*
X175445240Y-104744527D01*
X175468033Y-104759175D01*
X175521355Y-104802355D01*
X175584308Y-104853334D01*
X175584311Y-104853336D01*
X175642191Y-104882826D01*
X175760200Y-104942955D01*
X175950880Y-104994047D01*
X176032870Y-105000500D01*
X176032876Y-105000500D01*
X177287124Y-105000500D01*
X177287130Y-105000500D01*
X177369120Y-104994047D01*
X177559800Y-104942955D01*
X177735690Y-104853335D01*
X177851964Y-104759177D01*
X177916451Y-104732285D01*
X177985240Y-104744527D01*
X178008033Y-104759175D01*
X178061355Y-104802355D01*
X178124308Y-104853334D01*
X178124311Y-104853336D01*
X178182191Y-104882826D01*
X178300200Y-104942955D01*
X178490880Y-104994047D01*
X178572870Y-105000500D01*
X178572876Y-105000500D01*
X179827124Y-105000500D01*
X179827130Y-105000500D01*
X179909120Y-104994047D01*
X180099800Y-104942955D01*
X180275690Y-104853335D01*
X180391964Y-104759177D01*
X180456451Y-104732285D01*
X180525240Y-104744527D01*
X180548033Y-104759175D01*
X180601355Y-104802355D01*
X180664308Y-104853334D01*
X180664311Y-104853336D01*
X180722191Y-104882826D01*
X180840200Y-104942955D01*
X181030880Y-104994047D01*
X181112870Y-105000500D01*
X181112876Y-105000500D01*
X182367124Y-105000500D01*
X182367130Y-105000500D01*
X182449120Y-104994047D01*
X182639800Y-104942955D01*
X182815690Y-104853335D01*
X182931964Y-104759177D01*
X182996451Y-104732285D01*
X183065240Y-104744527D01*
X183088033Y-104759175D01*
X183141355Y-104802355D01*
X183204308Y-104853334D01*
X183204311Y-104853336D01*
X183290581Y-104897292D01*
X183380200Y-104942955D01*
X183424876Y-104954925D01*
X183484536Y-104991288D01*
X183515067Y-105054135D01*
X183516784Y-105074632D01*
X183517493Y-106369707D01*
X183497845Y-106436757D01*
X183481174Y-106457456D01*
X173757049Y-116181581D01*
X173712038Y-116248945D01*
X173712039Y-116248946D01*
X173674914Y-116304508D01*
X173618343Y-116441082D01*
X173618340Y-116441092D01*
X173589500Y-116586079D01*
X173589500Y-117117270D01*
X173569815Y-117184309D01*
X173517011Y-117230064D01*
X173475230Y-117240888D01*
X173410881Y-117245952D01*
X173220200Y-117297045D01*
X173044311Y-117386663D01*
X173044309Y-117386664D01*
X172928036Y-117480822D01*
X172863549Y-117507714D01*
X172794760Y-117495472D01*
X172771964Y-117480822D01*
X172655690Y-117386664D01*
X172655688Y-117386663D01*
X172504303Y-117309530D01*
X172479800Y-117297045D01*
X172330647Y-117257080D01*
X172289117Y-117245952D01*
X172207135Y-117239500D01*
X172207130Y-117239500D01*
X170952870Y-117239500D01*
X170952864Y-117239500D01*
X170870882Y-117245952D01*
X170870881Y-117245952D01*
X170680200Y-117297045D01*
X170504311Y-117386663D01*
X170504309Y-117386664D01*
X170388036Y-117480822D01*
X170323549Y-117507714D01*
X170254760Y-117495472D01*
X170231964Y-117480822D01*
X170115690Y-117386664D01*
X170115688Y-117386663D01*
X169964303Y-117309530D01*
X169939800Y-117297045D01*
X169790647Y-117257080D01*
X169749117Y-117245952D01*
X169667135Y-117239500D01*
X169667130Y-117239500D01*
X168412870Y-117239500D01*
X168412864Y-117239500D01*
X168330882Y-117245952D01*
X168330881Y-117245952D01*
X168140200Y-117297045D01*
X167964311Y-117386663D01*
X167964309Y-117386664D01*
X167848036Y-117480822D01*
X167783549Y-117507714D01*
X167714760Y-117495472D01*
X167691964Y-117480822D01*
X167575690Y-117386664D01*
X167575688Y-117386663D01*
X167424303Y-117309530D01*
X167399800Y-117297045D01*
X167250647Y-117257080D01*
X167209117Y-117245952D01*
X167127135Y-117239500D01*
X167127130Y-117239500D01*
X165872870Y-117239500D01*
X165872864Y-117239500D01*
X165790882Y-117245952D01*
X165790881Y-117245952D01*
X165600200Y-117297045D01*
X165424311Y-117386663D01*
X165424309Y-117386664D01*
X165270897Y-117510897D01*
X165146664Y-117664309D01*
X165146663Y-117664311D01*
X165057045Y-117840200D01*
X165005952Y-118030881D01*
X165005952Y-118030882D01*
X164999500Y-118112864D01*
X164999500Y-121367135D01*
X165005952Y-121449117D01*
X165005952Y-121449118D01*
X165005953Y-121449120D01*
X165057045Y-121639800D01*
X165087681Y-121699927D01*
X165146663Y-121815688D01*
X165146664Y-121815690D01*
X165215309Y-121900457D01*
X165270897Y-121969103D01*
X165347497Y-122031133D01*
X165424309Y-122093335D01*
X165424311Y-122093336D01*
X165482191Y-122122826D01*
X165600200Y-122182955D01*
X165790880Y-122234047D01*
X165872870Y-122240500D01*
X165872876Y-122240500D01*
X167127124Y-122240500D01*
X167127130Y-122240500D01*
X167209120Y-122234047D01*
X167399800Y-122182955D01*
X167575690Y-122093335D01*
X167691964Y-121999177D01*
X167756451Y-121972285D01*
X167825240Y-121984527D01*
X167848033Y-121999175D01*
X167887497Y-122031133D01*
X167964308Y-122093334D01*
X167964311Y-122093336D01*
X168022191Y-122122826D01*
X168140200Y-122182955D01*
X168330880Y-122234047D01*
X168412870Y-122240500D01*
X168412876Y-122240500D01*
X169667124Y-122240500D01*
X169667130Y-122240500D01*
X169749120Y-122234047D01*
X169939800Y-122182955D01*
X170115690Y-122093335D01*
X170231964Y-121999177D01*
X170296451Y-121972285D01*
X170365240Y-121984527D01*
X170388033Y-121999175D01*
X170427497Y-122031133D01*
X170504308Y-122093334D01*
X170504311Y-122093336D01*
X170562191Y-122122826D01*
X170680200Y-122182955D01*
X170870880Y-122234047D01*
X170952870Y-122240500D01*
X170952876Y-122240500D01*
X172207124Y-122240500D01*
X172207130Y-122240500D01*
X172289120Y-122234047D01*
X172479800Y-122182955D01*
X172655690Y-122093335D01*
X172771964Y-121999177D01*
X172836451Y-121972285D01*
X172905240Y-121984527D01*
X172928033Y-121999175D01*
X172967497Y-122031133D01*
X173044308Y-122093334D01*
X173044311Y-122093336D01*
X173102191Y-122122826D01*
X173220200Y-122182955D01*
X173410880Y-122234047D01*
X173492870Y-122240500D01*
X173492876Y-122240500D01*
X174747124Y-122240500D01*
X174747130Y-122240500D01*
X174829120Y-122234047D01*
X175019800Y-122182955D01*
X175019820Y-122182944D01*
X175020291Y-122182765D01*
X175020603Y-122182739D01*
X175026077Y-122181273D01*
X175026345Y-122182273D01*
X175089931Y-122177108D01*
X175151575Y-122209998D01*
X175185651Y-122270995D01*
X175181340Y-122340732D01*
X175152427Y-122386204D01*
X175047810Y-122490821D01*
X174825449Y-122713182D01*
X174764128Y-122746666D01*
X174737770Y-122749500D01*
X162862229Y-122749500D01*
X162795190Y-122729815D01*
X162774548Y-122713181D01*
X157786819Y-117725451D01*
X157753334Y-117664128D01*
X157750500Y-117637770D01*
X157750500Y-92362229D01*
X157770185Y-92295190D01*
X157786819Y-92274548D01*
X159084548Y-90976819D01*
X159145871Y-90943334D01*
X159172229Y-90940500D01*
X159700052Y-90940500D01*
X159705302Y-90942041D01*
G37*
%TD.AperFunction*%
%TD*%
M02*
